<svg width="90" height="70" viewBox="0 0 90 70" fill="none" xmlns="http://www.w3.org/2000/svg">
<path d="M37.6729 46.582V42.4728C37.6729 37.9341 33.9935 34.2546 29.4547 34.2546H13.0183C8.47947 34.2546 4.80005 37.9341 4.80005 42.4728V46.582" stroke="#1369FA" stroke-width="4.5" stroke-linecap="round" stroke-linejoin="round"/>
<path fill-rule="evenodd" clip-rule="evenodd" d="M21.236 26.0365C25.7748 26.0365 29.4542 22.3571 29.4542 17.8183C29.4542 13.2795 25.7748 9.6001 21.236 9.6001C16.6972 9.6001 13.0178 13.2795 13.0178 17.8183C13.0178 22.3571 16.6972 26.0365 21.236 26.0365Z" stroke="#1369FA" stroke-width="4.5" stroke-linecap="round" stroke-linejoin="round"/>
<path opacity="0.7" d="M49.9998 46.5817V42.4726C49.997 38.7274 47.4625 35.4578 43.8362 34.5215" stroke="#FF6161" stroke-width="4.5" stroke-linecap="round" stroke-linejoin="round"/>
<path opacity="0.7" d="M35.6182 9.86694C39.2545 10.798 41.7979 14.0746 41.7979 17.8283C41.7979 21.582 39.2545 24.8587 35.6182 25.7897" stroke="#FF6161" stroke-width="4.5" stroke-linecap="round" stroke-linejoin="round"/>
</svg>
