<svg width="90" height="71" viewBox="0 0 90 71" fill="none" xmlns="http://www.w3.org/2000/svg">
<rect opacity="0.7" x="34.9048" y="3.25122" width="38" height="56" rx="6" transform="rotate(30 34.9048 3.25122)" fill="#FF6161"/>
<rect opacity="0.5" x="0.359375" width="38" height="56" rx="8" fill="white"/>
<path d="M36.5312 38.5133C37.7394 38.5133 38.7188 37.5339 38.7188 36.3258V8.75C38.7188 3.92525 34.7935 0 29.9688 0H8.75C3.92525 0 0 3.92525 0 8.75V47.25C0 52.0747 3.92525 56 8.75 56H29.9688C34.7935 56 38.7188 52.0747 38.7188 47.25C38.7188 46.0418 37.7394 45.0625 36.5312 45.0625C35.3231 45.0625 34.3438 46.0418 34.3438 47.25C34.3438 49.6624 32.3811 51.625 29.9688 51.625H8.75C6.33763 51.625 4.375 49.6624 4.375 47.25V8.75C4.375 6.33763 6.33763 4.375 8.75 4.375H29.9688C32.3811 4.375 34.3438 6.33763 34.3438 8.75V36.3258C34.3438 37.5339 35.3231 38.5133 36.5312 38.5133Z" fill="#1369FA"/>
<path d="M19.3594 48.2478C20.5675 48.2478 21.5469 47.2684 21.5469 46.0603C21.5469 44.8522 20.5675 43.8728 19.3594 43.8728C18.1513 43.8728 17.1719 44.8522 17.1719 46.0603C17.1719 47.2684 18.1513 48.2478 19.3594 48.2478Z" fill="#1369FA"/>
<path d="M23.7344 9.96655C23.7344 8.7584 22.755 7.77905 21.5469 7.77905H17.1719C15.9637 7.77905 14.9844 8.7584 14.9844 9.96655C14.9844 11.1747 15.9637 12.1541 17.1719 12.1541H21.5469C22.755 12.1541 23.7344 11.1746 23.7344 9.96655Z" fill="#1369FA"/>
</svg>
