<svg width="91" height="71" viewBox="0 0 91 71" fill="none" xmlns="http://www.w3.org/2000/svg">
<circle cx="52.5" cy="46.5" r="15.5" fill="#5896FF"/>
<circle opacity="0.5" cx="38.5" cy="37.5" r="14.5" fill="#2E3D60"/>
<path d="M10.9141 16.1875H13.0234V18.2969C13.0234 19.1706 13.7318 19.8789 14.6055 19.8789C15.4792 19.8789 16.1875 19.1706 16.1875 18.2969V16.1875H18.2969C19.1706 16.1875 19.8789 15.4792 19.8789 14.6055C19.8789 13.7318 19.1706 13.0234 18.2969 13.0234H16.1875V10.9141C16.1875 10.0404 15.4792 9.33203 14.6055 9.33203C13.7318 9.33203 13.0234 10.0404 13.0234 10.9141V13.0234H10.9141C10.0404 13.0234 9.33203 13.7318 9.33203 14.6055C9.33203 15.4792 10.0404 16.1875 10.9141 16.1875Z" fill="white" stroke="white"/>
<path d="M35.4883 16.1875H41.8164C42.6901 16.1875 43.3984 15.4792 43.3984 14.6055C43.3984 13.7318 42.6901 13.0234 41.8164 13.0234H35.4883C34.6146 13.0234 33.9062 13.7318 33.9062 14.6055C33.9062 15.4792 34.6146 16.1875 35.4883 16.1875Z" fill="white" stroke="white"/>
<path d="M42.3438 39.707H34.9609C34.0872 39.707 33.3789 40.4154 33.3789 41.2891C33.3789 42.1628 34.0872 42.8711 34.9609 42.8711H42.3438C43.2175 42.8711 43.9258 42.1628 43.9258 41.2891C43.9258 40.4154 43.2175 39.707 42.3438 39.707Z" fill="white" stroke="white"/>
<path d="M42.3438 34.4336H34.9609C34.0872 34.4336 33.3789 35.1419 33.3789 36.0156C33.3789 36.8893 34.0872 37.5977 34.9609 37.5977H42.3438C43.2175 37.5977 43.9258 36.8893 43.9258 36.0156C43.9258 35.1419 43.2175 34.4336 42.3438 34.4336Z" fill="white" stroke="white"/>
<path d="M18.3608 34.8971C17.7431 34.2792 16.7414 34.2792 16.1235 34.8971L14.6055 36.4151L13.0874 34.897C12.4697 34.2791 11.4679 34.2791 10.8501 34.897C10.2323 35.5148 10.2323 36.5164 10.8501 37.1343L12.3682 38.6524L10.8501 40.1705C10.2323 40.7884 10.2323 41.79 10.8501 42.4078C11.159 42.7167 11.5639 42.8711 11.9688 42.8711C12.3737 42.8711 12.7786 42.7167 13.0874 42.4077L14.6055 40.8897L16.1236 42.4078C16.4325 42.7167 16.8373 42.8711 17.2422 42.8711C17.6471 42.8711 18.052 42.7167 18.3608 42.4077C18.9787 41.7899 18.9787 40.7882 18.3608 40.1704L16.8428 38.6524L18.3609 37.1343C18.9788 36.5165 18.9788 35.5148 18.3608 34.8971Z" fill="white" stroke="white"/>
<path d="M52.2578 29.5999V5.74609C52.2578 3.1291 50.1287 1 47.5117 1H5.74609C3.1291 1 1 3.1291 1 5.74609V47.5117C1 50.1287 3.1291 52.2578 5.74609 52.2578H29.5998C32.1932 53.9892 35.3068 55 38.6523 55C47.6665 55 55 47.6664 55 38.6523C55 35.3069 53.9892 32.1933 52.2578 29.5999ZM49.0938 5.74609V26.0836C46.2597 23.7252 42.6189 22.3047 38.6523 22.3047C34.6858 22.3047 31.045 23.7252 28.2109 26.0836V4.16406H47.5117C48.3841 4.16406 49.0938 4.87376 49.0938 5.74609ZM5.74609 4.16406H25.0469V25.0469H4.16406V5.74609C4.16406 4.87376 4.87376 4.16406 5.74609 4.16406ZM4.16406 47.5117V28.2109H25.0469V29.5999C23.3155 32.1933 22.3047 35.3069 22.3047 38.6523C22.3047 42.6189 23.7252 46.2597 26.0836 49.0938H5.74609C4.87376 49.0938 4.16406 48.3841 4.16406 47.5117ZM38.6523 51.8359C31.3829 51.8359 25.4688 45.9218 25.4688 38.6523C25.4688 31.3829 31.3829 25.4688 38.6523 25.4688C45.9218 25.4688 51.8359 31.3829 51.8359 38.6523C51.8359 45.9218 45.9218 51.8359 38.6523 51.8359Z" fill="white" stroke="white"/>
</svg>
