<svg width="90" height="70" viewBox="0 0 90 70" fill="none" xmlns="http://www.w3.org/2000/svg">
<path opacity="0.7" d="M64.2871 35.912C64.0689 35.5883 63.8329 35.2792 63.6502 34.9206C63.4675 34.5619 63.3562 34.1893 63.2226 33.8225L60.4424 33.3254C59.8223 33.2149 59.3821 32.6591 59.4141 32.0283L59.6268 27.992C59.66 27.3634 60.1557 26.8555 60.7835 26.8107L63.5886 26.6077C63.9329 25.8908 64.339 25.2069 64.8596 24.5938L63.9175 21.9846C63.705 21.3914 63.9637 20.7322 64.5249 20.4463L68.1255 18.6119C68.6867 18.326 69.3743 18.5032 69.7271 19.0249L71.2838 21.3209C72.0881 21.2591 72.8812 21.3348 73.6625 21.4755L75.4734 19.3268C75.8811 18.8441 76.5822 18.7395 77.1113 19.0844L80.4993 21.2864C81.0273 21.629 81.2181 22.3118 80.9441 22.8807L79.7118 25.422C79.9322 25.7446 80.1682 26.0536 80.3509 26.4123C80.5336 26.7709 80.6449 27.1435 80.7785 27.5103L83.5566 28.0086C84.1766 28.1191 84.6191 28.6737 84.5848 29.3056L84.3744 33.3409C84.3412 33.9694 83.8455 34.4773 83.2176 34.5222L80.4114 34.7229C80.0671 35.4398 79.661 36.1237 79.1404 36.7368L80.0826 39.346C80.2962 39.9414 80.0374 40.6007 79.4763 40.8866L75.8756 42.7209C75.3145 43.0068 74.6268 42.8297 74.2741 42.3079L72.7173 40.0119C71.9153 40.0726 71.12 39.998 70.3409 39.8562L68.5277 42.0061C68.1223 42.4876 67.4212 42.5922 66.8921 42.2473L63.5018 40.0465C62.9739 39.7038 62.7831 39.021 63.057 38.4522L64.2871 35.912ZM74.2703 35.1216C76.7309 33.868 77.7081 30.859 76.4541 28.3975C75.2001 25.9361 72.1914 24.9577 69.7309 26.2113C67.2703 27.4648 66.293 30.4738 67.5471 32.9353C68.8011 35.3968 71.8097 36.3751 74.2703 35.1216Z" fill="#FF6161"/>
<path d="M20.051 15.2168C20.0051 14.8422 19.9374 14.4724 19.9374 14.0833C19.9374 13.6943 20.0051 13.3245 20.051 12.9499L17.8736 11.3018C17.3878 10.9344 17.2525 10.2626 17.557 9.73333L19.5121 6.35C19.8166 5.82317 20.4667 5.60325 21.0273 5.84008L23.5334 6.89617C24.1448 6.42975 24.7949 6.01892 25.5127 5.71925L25.8462 3.0585C25.9235 2.45433 26.4358 2 27.0448 2H30.9526C31.5616 2 32.0763 2.45433 32.1513 3.0585L32.4848 5.71925C33.2049 6.01892 33.855 6.43217 34.4664 6.89617L36.9701 5.84008C37.5332 5.60325 38.1833 5.82075 38.4878 6.35L40.4404 9.73333C40.7449 10.2602 40.6096 10.932 40.1238 11.3018L37.9464 12.9499C37.9948 13.3245 38.0624 13.6943 38.0624 14.0833C38.0624 14.4724 37.9948 14.8422 37.9488 15.2168L40.1238 16.8649C40.6096 17.2323 40.7473 17.9041 40.4404 18.4333L38.4878 21.8167C38.1833 22.3435 37.5332 22.5634 36.9725 22.3266L34.4664 21.2681C33.855 21.7345 33.2049 22.1453 32.4872 22.445L32.1537 25.1058C32.0763 25.7123 31.564 26.1667 30.955 26.1667H27.0473C26.4383 26.1667 25.9235 25.7123 25.8486 25.1082L25.5151 22.4474C24.7973 22.1478 24.1448 21.7345 23.5358 21.2705L21.0298 22.3266C20.4691 22.5634 19.819 22.3459 19.5145 21.8167L17.5594 18.4333C17.2549 17.9065 17.3903 17.2347 17.876 16.8649L20.051 15.2168ZM28.9999 18.9167C31.6703 18.9167 33.8333 16.7538 33.8333 14.0833C33.8333 11.4129 31.6703 9.25 28.9999 9.25C26.3295 9.25 24.1666 11.4129 24.1666 14.0833C24.1666 16.7538 26.3295 18.9167 28.9999 18.9167Z" fill="#1369FA"/>
<path d="M2.41666 43.0835H4.83333V18.9168C4.83333 16.2464 6.99625 14.0835 9.66666 14.0835H12.0833C13.4173 14.0835 14.5 15.1662 14.5 16.5002C14.5 17.8342 13.4173 18.9168 12.0833 18.9168H9.66666V43.0835H48.3333V18.9168H45.9167C44.5827 18.9168 43.5 17.8342 43.5 16.5002C43.5 15.1662 44.5827 14.0835 45.9167 14.0835H48.3333C51.0037 14.0835 53.1667 16.2464 53.1667 18.9168V43.0835H55.5833C56.9173 43.0835 58 44.1637 58 45.5002C58 46.8366 56.9173 47.9168 55.5833 47.9168H2.41666C1.08266 47.9168 0 46.8366 0 45.5002C0 44.1637 1.08266 43.0835 2.41666 43.0835Z" fill="#1369FA"/>
</svg>
