<svg width="90" height="70" viewBox="0 0 90 70" fill="none" xmlns="http://www.w3.org/2000/svg">
<path fill-rule="evenodd" clip-rule="evenodd" d="M49.7142 21.4793C50.2286 23.4372 50.489 25.4576 50.489 27.5C50.489 29.5424 50.2286 31.5628 49.7142 33.5207L52.7058 35.7214L46.8993 45.7785L43.4924 44.2858C40.5797 47.1778 37.0131 49.2388 33.0696 50.3083L32.6594 54H21.0464L20.6363 50.3083C16.6929 49.2388 13.1262 47.1779 10.2134 44.2858L6.8065 45.7785L1 35.7214L3.9916 33.5207C3.47723 31.5628 3.21689 29.5424 3.21689 27.5C3.21689 25.4576 3.47713 23.4372 3.9916 21.4793L1 19.2785L6.8065 9.22142L10.2134 10.7141C13.1261 7.82209 16.6928 5.7612 20.6363 4.69157L21.0464 1H32.6594L33.0695 4.69157C37.0129 5.7612 40.5796 7.82209 43.4923 10.7141L46.8993 9.22142L52.7058 19.2785L49.7142 21.4793ZM30.2255 47.7842L31.3104 47.544C35.4241 46.6336 39.1136 44.5018 41.9802 41.3792L42.7307 40.5616L45.5997 41.8186L48.6266 36.5758L46.1086 34.7235L46.4415 33.6648C47.0666 31.6765 47.3835 29.6024 47.3835 27.5C47.3835 25.3976 47.0665 23.3235 46.4415 21.3352L46.1086 20.2765L48.6266 18.4242L45.5997 13.1814L42.7307 14.4384L41.9802 13.6208C39.1136 10.4983 35.424 8.36648 31.3104 7.45596L30.2255 7.2158L29.8798 4.10547H23.826L23.4804 7.2158L22.3954 7.45596C18.2818 8.36638 14.5922 10.4982 11.7257 13.6208L10.9752 14.4384L8.10614 13.1814L5.07924 18.4242L7.59726 20.2765L7.26435 21.3352C6.63932 23.3234 6.32236 25.3975 6.32236 27.5C6.32236 29.6024 6.63932 31.6765 7.26435 33.6648L7.59726 34.7235L5.07924 36.5758L8.10614 41.8186L10.9752 40.5616L11.7257 41.3792C14.5922 44.5018 18.2818 46.6336 22.3954 47.544L23.4804 47.7842L23.826 50.8945H29.8798L30.2255 47.7842ZM18.4697 21.7725L20.6884 23.9453L17.1821 27.5254L20.7623 31.0317L18.5895 33.2505L12.7905 27.5713L18.4697 21.7725ZM33.0175 23.9453L36.5238 27.5254L32.9436 31.0317L35.1164 33.2505L40.9153 27.5713L35.2362 21.7725L33.0175 23.9453ZM27.5529 16.6739L23.1365 37.6627L26.1768 38.3025L30.5933 17.3137L27.5529 16.6739Z" fill="white"/>
<path d="M49.7142 21.4793L49.2698 20.8752C49.0221 21.0574 48.9107 21.3724 48.9889 21.6699L49.7142 21.4793ZM49.7142 33.5207L48.9889 33.3301C48.9107 33.6276 49.0221 33.9426 49.2698 34.1248L49.7142 33.5207ZM52.7058 35.7214L53.3554 36.0964C53.5464 35.7655 53.4581 35.3437 53.1503 35.1173L52.7058 35.7214ZM46.8993 45.7785L46.5984 46.4654C46.9484 46.6188 47.3578 46.4844 47.5489 46.1535L46.8993 45.7785ZM43.4924 44.2858L43.7934 43.5988C43.5114 43.4753 43.1825 43.5366 42.964 43.7536L43.4924 44.2858ZM33.0696 50.3083L32.8732 49.5845C32.5759 49.6651 32.3582 49.9193 32.3241 50.2255L33.0696 50.3083ZM32.6594 54V54.75C33.0416 54.75 33.3626 54.4626 33.4048 54.0828L32.6594 54ZM21.0464 54L20.301 54.0828C20.3432 54.4626 20.6643 54.75 21.0464 54.75V54ZM20.6363 50.3083L21.3817 50.2255C21.3477 49.9193 21.1299 49.6651 20.8326 49.5845L20.6363 50.3083ZM10.2134 44.2858L10.7418 43.7536C10.5233 43.5366 10.1945 43.4753 9.91243 43.5988L10.2134 44.2858ZM6.8065 45.7785L6.15698 46.1535C6.34807 46.4844 6.75745 46.6188 7.10748 46.4654L6.8065 45.7785ZM1 35.7214L0.555572 35.1173C0.24773 35.3437 0.159398 35.7655 0.350483 36.0964L1 35.7214ZM3.9916 33.5207L4.43603 34.1248C4.68376 33.9426 4.79513 33.6276 4.71699 33.3301L3.9916 33.5207ZM3.9916 21.4793L4.71698 21.6699C4.79514 21.3725 4.68378 21.0574 4.43604 20.8752L3.9916 21.4793ZM1 19.2785L0.350483 18.9035C0.159402 19.2344 0.247727 19.6561 0.555558 19.8826L1 19.2785ZM6.8065 9.22142L7.10748 8.53446C6.75745 8.3811 6.34807 8.51545 6.15698 8.84641L6.8065 9.22142ZM10.2134 10.7141L9.91243 11.4011C10.1944 11.5246 10.5233 11.4633 10.7418 11.2463L10.2134 10.7141ZM20.6363 4.69157L20.8326 5.41542C21.1299 5.33478 21.3477 5.08055 21.3817 4.77439L20.6363 4.69157ZM21.0464 1V0.25C20.6643 0.25 20.3432 0.537357 20.301 0.917186L21.0464 1ZM32.6594 1L33.4048 0.917206C33.3627 0.537368 33.0416 0.25 32.6594 0.25V1ZM33.0695 4.69157L32.324 4.77437C32.358 5.08054 32.5758 5.33478 32.8731 5.41542L33.0695 4.69157ZM43.4923 10.7141L42.9639 11.2463C43.1824 11.4633 43.5113 11.5246 43.7933 11.4011L43.4923 10.7141ZM46.8993 9.22142L47.5489 8.84642C47.3578 8.51546 46.9484 8.3811 46.5984 8.53446L46.8993 9.22142ZM52.7058 19.2785L53.1503 19.8826C53.4581 19.6561 53.5464 19.2344 53.3554 18.9035L52.7058 19.2785ZM31.3104 47.544L31.1483 46.8118L31.1483 46.8118L31.3104 47.544ZM30.2255 47.7842L30.0634 47.0519C29.75 47.1213 29.5155 47.3824 29.48 47.7014L30.2255 47.7842ZM41.9802 41.3792L42.5327 41.8864L42.5327 41.8863L41.9802 41.3792ZM42.7307 40.5616L43.0316 39.8746C42.738 39.746 42.395 39.8182 42.1782 40.0544L42.7307 40.5616ZM45.5997 41.8186L45.2987 42.5056C45.6488 42.6589 46.0581 42.5246 46.2492 42.1936L45.5997 41.8186ZM48.6266 36.5758L49.2761 36.9508C49.4672 36.6199 49.3789 36.1982 49.071 35.9717L48.6266 36.5758ZM46.1086 34.7235L45.3931 34.4986C45.2969 34.8045 45.4059 35.1377 45.6642 35.3277L46.1086 34.7235ZM46.4415 33.6648L47.157 33.8897L47.157 33.8897L46.4415 33.6648ZM46.4415 21.3352L47.157 21.1103L47.157 21.1103L46.4415 21.3352ZM46.1086 20.2765L45.6642 19.6723C45.4059 19.8623 45.2969 20.1955 45.3931 20.5014L46.1086 20.2765ZM48.6266 18.4242L49.071 19.0283C49.3789 18.8018 49.4672 18.3801 49.2761 18.0492L48.6266 18.4242ZM45.5997 13.1814L46.2492 12.8064C46.0581 12.4754 45.6488 12.3411 45.2987 12.4944L45.5997 13.1814ZM42.7307 14.4384L42.1782 14.9456C42.395 15.1818 42.738 15.254 43.0316 15.1254L42.7307 14.4384ZM41.9802 13.6208L42.5327 13.1137L42.5327 13.1136L41.9802 13.6208ZM31.3104 7.45596L31.1483 8.18823L31.1483 8.18823L31.3104 7.45596ZM30.2255 7.2158L29.48 7.29864C29.5155 7.61763 29.75 7.87871 30.0634 7.94808L30.2255 7.2158ZM29.8798 4.10547L30.6252 4.02263C30.583 3.64281 30.262 3.35547 29.8798 3.35547V4.10547ZM23.826 4.10547V3.35547C23.4439 3.35547 23.1228 3.64281 23.0806 4.02263L23.826 4.10547ZM23.4804 7.2158L23.6425 7.94808C23.9558 7.87871 24.1903 7.61763 24.2258 7.29864L23.4804 7.2158ZM22.3954 7.45596L22.5575 8.18824L22.5575 8.18823L22.3954 7.45596ZM11.7257 13.6208L11.1732 13.1136L11.1732 13.1137L11.7257 13.6208ZM10.9752 14.4384L10.6742 15.1254C10.9679 15.254 11.3109 15.1818 11.5277 14.9456L10.9752 14.4384ZM8.10614 13.1814L8.40711 12.4944C8.05708 12.3411 7.6477 12.4754 7.45662 12.8064L8.10614 13.1814ZM5.07924 18.4242L4.42972 18.0492C4.23864 18.3801 4.32697 18.8018 4.63482 19.0283L5.07924 18.4242ZM7.59726 20.2765L8.31272 20.5014C8.40891 20.1955 8.29998 19.8623 8.04168 19.6723L7.59726 20.2765ZM7.26435 21.3352L6.54889 21.1103L6.54888 21.1103L7.26435 21.3352ZM7.26435 33.6648L6.54887 33.8897L6.54889 33.8897L7.26435 33.6648ZM7.59726 34.7235L8.04168 35.3277C8.29998 35.1377 8.40891 34.8045 8.31272 34.4986L7.59726 34.7235ZM5.07924 36.5758L4.63482 35.9717C4.32697 36.1982 4.23864 36.6199 4.42972 36.9508L5.07924 36.5758ZM8.10614 41.8186L7.45662 42.1936C7.6477 42.5246 8.05708 42.6589 8.40711 42.5056L8.10614 41.8186ZM10.9752 40.5616L11.5277 40.0544C11.3109 39.8182 10.9679 39.746 10.6742 39.8746L10.9752 40.5616ZM11.7257 41.3792L11.1732 41.8863L11.1732 41.8864L11.7257 41.3792ZM22.3954 47.544L22.5575 46.8118L22.5575 46.8118L22.3954 47.544ZM23.4804 47.7842L24.2258 47.7014C24.1903 47.3824 23.9558 47.1213 23.6425 47.0519L23.4804 47.7842ZM23.826 50.8945L23.0806 50.9774C23.1228 51.3572 23.4439 51.6445 23.826 51.6445V50.8945ZM29.8798 50.8945V51.6445C30.262 51.6445 30.583 51.3572 30.6252 50.9774L29.8798 50.8945ZM20.6884 23.9453L21.2242 24.47C21.3634 24.3279 21.4404 24.1363 21.4383 23.9374C21.4362 23.7385 21.3552 23.5486 21.2131 23.4094L20.6884 23.9453ZM18.4697 21.7725L18.9945 21.2366C18.6985 20.9468 18.2237 20.9518 17.9339 21.2477L18.4697 21.7725ZM17.1821 27.5254L16.6462 27.0007C16.5071 27.1428 16.43 27.3344 16.4321 27.5333C16.4342 27.7322 16.5152 27.9221 16.6573 28.0613L17.1821 27.5254ZM20.7623 31.0317L21.2981 31.5565C21.5879 31.2605 21.583 30.7857 21.287 30.4959L20.7623 31.0317ZM18.5895 33.2505L18.0647 33.7863C18.2068 33.9255 18.3984 34.0025 18.5973 34.0004C18.7962 33.9983 18.9861 33.9173 19.1253 33.7752L18.5895 33.2505ZM12.7905 27.5713L12.2547 27.0465C12.1155 27.1886 12.0385 27.3802 12.0406 27.5791C12.0426 27.778 12.1236 27.968 12.2658 28.1071L12.7905 27.5713ZM36.5238 27.5254L37.0486 28.0613C37.1907 27.9221 37.2717 27.7322 37.2738 27.5333C37.2758 27.3344 37.1988 27.1428 37.0596 27.0007L36.5238 27.5254ZM33.0175 23.9453L32.4928 23.4094C32.3506 23.5486 32.2696 23.7385 32.2676 23.9374C32.2655 24.1363 32.3425 24.3279 32.4817 24.47L33.0175 23.9453ZM32.9436 31.0317L32.4188 30.4959C32.1229 30.7857 32.1179 31.2605 32.4078 31.5565L32.9436 31.0317ZM35.1164 33.2505L34.5805 33.7752C34.7197 33.9173 34.9097 33.9983 35.1086 34.0004C35.3075 34.0025 35.499 33.9255 35.6412 33.7863L35.1164 33.2505ZM40.9153 27.5713L41.4401 28.1071C41.5822 27.968 41.6632 27.778 41.6653 27.5791C41.6674 27.3802 41.5904 27.1886 41.4512 27.0465L40.9153 27.5713ZM35.2362 21.7725L35.772 21.2477C35.4822 20.9518 35.0073 20.9468 34.7114 21.2366L35.2362 21.7725ZM23.1365 37.6627L22.4025 37.5083C22.3616 37.7029 22.3996 37.9059 22.5083 38.0725C22.617 38.2391 22.7874 38.3557 22.982 38.3966L23.1365 37.6627ZM27.5529 16.6739L27.7073 15.94C27.5127 15.899 27.3097 15.9371 27.1431 16.0458C26.9765 16.1544 26.8599 16.3248 26.819 16.5195L27.5529 16.6739ZM26.1768 38.3025L26.0224 39.0364C26.4277 39.1217 26.8255 38.8622 26.9108 38.4569L26.1768 38.3025ZM30.5933 17.3137L31.3272 17.4681C31.4125 17.0628 31.153 16.665 30.7477 16.5797L30.5933 17.3137ZM51.239 27.5C51.239 25.3938 50.9705 23.3093 50.4396 21.2888L48.9889 21.6699C49.4868 23.5652 49.739 25.5215 49.739 27.5H51.239ZM50.4396 33.7112C50.9705 31.6907 51.239 29.6062 51.239 27.5H49.739C49.739 29.4785 49.4868 31.4348 48.9889 33.3301L50.4396 33.7112ZM53.1503 35.1173L50.1587 32.9165L49.2698 34.1248L52.2614 36.3256L53.1503 35.1173ZM47.5489 46.1535L53.3554 36.0964L52.0563 35.3464L46.2498 45.4035L47.5489 46.1535ZM43.1915 44.9727L46.5984 46.4654L47.2003 45.0915L43.7934 43.5988L43.1915 44.9727ZM33.2659 51.0322C37.3355 49.9285 41.0164 47.8011 44.0209 44.818L42.964 43.7536C40.1431 46.5545 36.6907 48.5491 32.8732 49.5845L33.2659 51.0322ZM33.4048 54.0828L33.815 50.3911L32.3241 50.2255L31.914 53.9172L33.4048 54.0828ZM21.0464 54.75H32.6594V53.25H21.0464V54.75ZM19.8909 50.3911L20.301 54.0828L21.7918 53.9172L21.3817 50.2255L19.8909 50.3911ZM9.68497 44.818C12.6896 47.8013 16.3705 49.9285 20.44 51.0322L20.8326 49.5845C17.0152 48.5491 13.5629 46.5546 10.7418 43.7536L9.68497 44.818ZM7.10748 46.4654L10.5144 44.9727L9.91243 43.5988L6.50552 45.0915L7.10748 46.4654ZM0.350483 36.0964L6.15698 46.1535L7.45602 45.4035L1.64952 35.3464L0.350483 36.0964ZM3.54717 32.9165L0.555572 35.1173L1.44443 36.3256L4.43603 34.1248L3.54717 32.9165ZM2.46689 27.5C2.46689 29.6062 2.73539 31.6907 3.26622 33.7112L4.71699 33.3301C4.21907 31.4348 3.96689 29.4785 3.96689 27.5H2.46689ZM3.26623 21.2887C2.73528 23.3093 2.46689 25.3938 2.46689 27.5H3.96689C3.96689 25.5215 4.21897 23.5651 4.71698 21.6699L3.26623 21.2887ZM0.555558 19.8826L3.54716 22.0835L4.43604 20.8752L1.44444 18.6744L0.555558 19.8826ZM6.15698 8.84641L0.350483 18.9035L1.64952 19.6535L7.45602 9.59642L6.15698 8.84641ZM10.5144 10.0272L7.10748 8.53446L6.50552 9.90837L9.91243 11.4011L10.5144 10.0272ZM20.44 3.96773C16.3704 5.07154 12.6895 7.19874 9.68497 10.1819L10.7418 11.2463C13.5628 8.44544 17.0151 6.45086 20.8326 5.41542L20.44 3.96773ZM20.301 0.917186L19.8909 4.60876L21.3817 4.77439L21.7918 1.08281L20.301 0.917186ZM32.6594 0.25H21.0464V1.75H32.6594V0.25ZM33.8149 4.60878L33.4048 0.917206L31.914 1.08279L32.324 4.77437L33.8149 4.60878ZM44.0208 10.1819C41.0163 7.19874 37.3352 5.07154 33.2658 3.96773L32.8731 5.41542C36.6905 6.45086 40.143 8.44545 42.9639 11.2463L44.0208 10.1819ZM46.5984 8.53446L43.1914 10.0272L43.7933 11.4011L47.2003 9.90838L46.5984 8.53446ZM53.3554 18.9035L47.5489 8.84642L46.2498 9.59642L52.0563 19.6535L53.3554 18.9035ZM50.1587 22.0835L53.1503 19.8826L52.2614 18.6744L49.2698 20.8752L50.1587 22.0835ZM31.1483 46.8118L30.0634 47.0519L30.3876 48.5165L31.4725 48.2763L31.1483 46.8118ZM41.4277 40.872C38.6644 43.8821 35.1109 45.9348 31.1483 46.8118L31.4725 48.2763C35.7373 47.3325 39.5628 45.1215 42.5327 41.8864L41.4277 40.872ZM42.1782 40.0544L41.4277 40.872L42.5327 41.8863L43.2832 41.0688L42.1782 40.0544ZM45.9007 41.1316L43.0316 39.8746L42.4297 41.2486L45.2987 42.5056L45.9007 41.1316ZM47.9771 36.2008L44.9502 41.4436L46.2492 42.1936L49.2761 36.9508L47.9771 36.2008ZM45.6642 35.3277L48.1822 37.18L49.071 35.9717L46.553 34.1194L45.6642 35.3277ZM45.726 33.4398L45.3931 34.4986L46.8241 34.9485L47.157 33.8897L45.726 33.4398ZM46.6335 27.5C46.6335 29.5268 46.3281 31.525 45.726 33.4398L47.157 33.8897C47.8052 31.828 48.1335 29.678 48.1335 27.5H46.6335ZM45.726 21.5602C46.328 23.475 46.6335 25.4732 46.6335 27.5H48.1335C48.1335 25.322 47.8051 23.1719 47.157 21.1103L45.726 21.5602ZM45.3931 20.5014L45.726 21.5602L47.157 21.1103L46.8241 20.0515L45.3931 20.5014ZM48.1822 17.82L45.6642 19.6723L46.553 20.8806L49.071 19.0283L48.1822 17.82ZM44.9502 13.5564L47.9771 18.7992L49.2761 18.0492L46.2492 12.8064L44.9502 13.5564ZM43.0316 15.1254L45.9007 13.8684L45.2987 12.4944L42.4297 13.7514L43.0316 15.1254ZM41.4277 14.128L42.1782 14.9456L43.2832 13.9312L42.5327 13.1137L41.4277 14.128ZM31.1483 8.18823C35.1108 9.06531 38.6644 11.118 41.4277 14.128L42.5327 13.1136C39.5628 9.87855 35.7372 7.66765 31.4725 6.72368L31.1483 8.18823ZM30.0634 7.94808L31.1483 8.18823L31.4725 6.72368L30.3876 6.48353L30.0634 7.94808ZM29.1344 4.1883L29.48 7.29864L30.9709 7.13297L30.6252 4.02263L29.1344 4.1883ZM23.826 4.85547H29.8798V3.35547H23.826V4.85547ZM24.2258 7.29864L24.5714 4.1883L23.0806 4.02263L22.735 7.13297L24.2258 7.29864ZM22.5575 8.18823L23.6425 7.94808L23.3183 6.48353L22.2333 6.72368L22.5575 8.18823ZM12.2782 14.128C15.0414 11.1179 18.595 9.06521 22.5575 8.18824L22.2334 6.72368C17.9686 7.66754 14.143 9.87845 11.1732 13.1136L12.2782 14.128ZM11.5277 14.9456L12.2782 14.128L11.1732 13.1137L10.4227 13.9312L11.5277 14.9456ZM7.80517 13.8684L10.6742 15.1254L11.2762 13.7514L8.40711 12.4944L7.80517 13.8684ZM5.72876 18.7992L8.75566 13.5564L7.45662 12.8064L4.42972 18.0492L5.72876 18.7992ZM8.04168 19.6723L5.52366 17.82L4.63482 19.0283L7.15284 20.8806L8.04168 19.6723ZM7.97982 21.5602L8.31272 20.5014L6.88179 20.0515L6.54889 21.1103L7.97982 21.5602ZM7.07236 27.5C7.07236 25.4731 7.37788 23.4749 7.97983 21.5602L6.54888 21.1103C5.90076 23.1718 5.57236 25.3219 5.57236 27.5H7.07236ZM7.97983 33.4398C7.37788 31.525 7.07236 29.5268 7.07236 27.5H5.57236C5.57236 29.678 5.90077 31.8281 6.54887 33.8897L7.97983 33.4398ZM8.31272 34.4986L7.97982 33.4398L6.54889 33.8897L6.88179 34.9485L8.31272 34.4986ZM5.52366 37.18L8.04168 35.3277L7.15284 34.1194L4.63482 35.9717L5.52366 37.18ZM8.75566 41.4436L5.72876 36.2008L4.42972 36.9508L7.45662 42.1936L8.75566 41.4436ZM10.6742 39.8746L7.80517 41.1316L8.40711 42.5056L11.2762 41.2486L10.6742 39.8746ZM12.2782 40.872L11.5277 40.0544L10.4227 41.0688L11.1732 41.8863L12.2782 40.872ZM22.5575 46.8118C18.595 45.9348 15.0414 43.8821 12.2782 40.872L11.1732 41.8864C14.143 45.1216 17.9686 47.3325 22.2334 48.2763L22.5575 46.8118ZM23.6425 47.0519L22.5575 46.8118L22.2333 48.2763L23.3183 48.5165L23.6425 47.0519ZM24.5714 50.8117L24.2258 47.7014L22.735 47.867L23.0806 50.9774L24.5714 50.8117ZM29.8798 50.1445H23.826V51.6445H29.8798V50.1445ZM29.48 47.7014L29.1344 50.8117L30.6252 50.9774L30.9709 47.867L29.48 47.7014ZM21.2131 23.4094L18.9945 21.2366L17.9449 22.3083L20.1636 24.4811L21.2131 23.4094ZM17.7179 28.0502L21.2242 24.47L20.1525 23.4205L16.6462 27.0007L17.7179 28.0502ZM21.287 30.4959L17.7068 26.9896L16.6573 28.0613L20.2375 31.5676L21.287 30.4959ZM19.1253 33.7752L21.2981 31.5565L20.2264 30.507L18.0536 32.7257L19.1253 33.7752ZM12.2658 28.1071L18.0647 33.7863L19.1142 32.7146L13.3153 27.0355L12.2658 28.1071ZM17.9339 21.2477L12.2547 27.0465L13.3264 28.0961L19.0055 22.2972L17.9339 21.2477ZM37.0596 27.0007L33.5533 23.4205L32.4817 24.47L35.988 28.0502L37.0596 27.0007ZM33.4684 31.5676L37.0486 28.0613L35.999 26.9896L32.4188 30.4959L33.4684 31.5676ZM35.6522 32.7257L33.4795 30.507L32.4078 31.5565L34.5805 33.7752L35.6522 32.7257ZM40.3906 27.0355L34.5916 32.7146L35.6412 33.7863L41.4401 28.1071L40.3906 27.0355ZM34.7003 22.2972L40.3795 28.0961L41.4512 27.0465L35.772 21.2477L34.7003 22.2972ZM33.5423 24.4811L35.7609 22.3083L34.7114 21.2366L32.4928 23.4094L33.5423 24.4811ZM23.8704 37.8172L28.2868 16.8284L26.819 16.5195L22.4025 37.5083L23.8704 37.8172ZM26.3313 37.5685L23.2909 36.9288L22.982 38.3966L26.0224 39.0364L26.3313 37.5685ZM29.8593 17.1592L25.4429 38.148L26.9108 38.4569L31.3272 17.4681L29.8593 17.1592ZM27.3985 17.4079L30.4388 18.0476L30.7477 16.5797L27.7073 15.94L27.3985 17.4079Z" fill="white"/>
<path d="M85.5709 13.3483C85.1712 12.3529 84.6489 11.4193 84.015 10.5658L85.0422 8.90775L80.2443 5.14294L78.876 6.53716C76.8906 5.69781 74.749 5.39149 72.6179 5.64198L71.6957 3.92318L66.0362 6.19592L66.5588 8.07523C64.8463 9.36827 63.5115 11.0706 62.658 13.0501L60.7056 12.9894L59.8441 19.0269L61.7327 19.514C61.8652 20.5688 62.1337 21.6044 62.5334 22.5997C62.9331 23.595 63.4554 24.5287 64.0893 25.3822L63.0621 27.0402L67.86 30.805L69.2282 29.4108C71.2137 30.2502 73.3552 30.5565 75.4863 30.306L76.4087 32.0248L82.0681 29.752L81.5455 27.8727C83.258 26.5797 84.5928 24.8773 85.4463 22.8979L87.3987 22.9585L88.2602 16.921L86.3716 16.434C86.2391 15.3792 85.9706 14.3436 85.5709 13.3483Z" fill="#5896FF"/>
<path d="M80.3859 7.32714L79.2337 8.5012L78.708 8.24965C76.6999 7.28892 74.4846 6.97209 72.3017 7.33342L71.726 7.42872L70.9488 5.98058L67.9986 7.16535L68.4388 8.74877L67.9571 9.07814C66.1306 10.3269 64.7497 12.0879 63.9638 14.1707L63.7581 14.716L62.1139 14.6649L61.6648 17.8122L63.2545 18.2222L63.2994 18.8033C63.3839 19.8945 63.6354 20.9673 64.0469 21.9919C64.4583 23.0165 65.0187 23.9653 65.7124 24.8119L66.0818 25.2627L65.2172 26.6582L67.7184 28.6208L68.8706 27.4468L69.3963 27.6983C71.4044 28.6591 73.6197 28.9759 75.8026 28.6145L76.3783 28.5192L77.1555 29.9674L80.1057 28.7826L79.6655 27.1992L80.1472 26.8698C81.9738 25.6211 83.3546 23.8601 84.1405 21.7773L84.3462 21.232L85.9904 21.2831L86.4395 18.1357L84.8498 17.7258L84.8049 17.1447C84.7204 16.0534 84.4689 14.9806 84.0575 13.956C83.646 12.9314 83.0856 11.9827 82.3919 11.1361L82.0225 10.6852M85.5709 13.3483C85.1712 12.3529 84.6489 11.4193 84.015 10.5658L85.0422 8.90775L80.2443 5.14294L78.876 6.53716C76.8906 5.69781 74.749 5.39149 72.6179 5.64198L71.6957 3.92318L66.0362 6.19592L66.5588 8.07523C64.8463 9.36827 63.5115 11.0706 62.658 13.0501L60.7056 12.9894L59.8441 19.0269L61.7327 19.514C61.8652 20.5688 62.1337 21.6044 62.5334 22.5997C62.9331 23.595 63.4554 24.5287 64.0893 25.3822L63.0621 27.0402L67.86 30.805L69.2282 29.4108C71.2137 30.2502 73.3552 30.5565 75.4863 30.306L76.4087 32.0248L82.0681 29.752L81.5455 27.8727C83.258 26.5797 84.5928 24.8773 85.4463 22.8979L87.3987 22.9585L88.2602 16.921L86.3716 16.434C86.2391 15.3791 85.9706 14.3436 85.5709 13.3483Z" stroke="#5896FF"/>
<path d="M70.3523 17.448L68.8458 16.8234L67.213 20.7608L71.1505 22.3936L71.7751 20.8871L69.3442 19.879L70.3523 17.448Z" fill="white" stroke="white"/>
<path d="M76.3607 15.0351L78.7701 16.0937L77.7115 18.5031L79.2046 19.1592L80.9192 15.2566L77.0167 13.5421L76.3607 15.0351Z" fill="white" stroke="white"/>
<path d="M74.23 23.6541L72.2746 12.5611L73.8815 12.2779L75.8369 23.3708L74.23 23.6541Z" fill="white" stroke="white" stroke-width="1.00044"/>
</svg>
