<svg width="90" height="70" viewBox="0 0 90 70" fill="none" xmlns="http://www.w3.org/2000/svg">
<rect x="7" y="11.6814" width="53" height="42" rx="8" fill="#5896FF"/>
<rect opacity="0.5" x="2" y="1.6814" width="50" height="42" fill="#2E3D60"/>
<path d="M48.8544 0H6.14558C2.75692 0 0 2.75681 0 6.14547V40.2173C0 43.606 2.75692 46.3628 6.14558 46.3628H48.8545C52.2432 46.3628 55.0001 43.6059 55.0001 40.2173V6.14547C55 2.75681 52.2431 0 48.8544 0ZM51.5449 40.2173C51.5449 41.7008 50.3379 42.9077 48.8544 42.9077H6.14558C4.66206 42.9077 3.45506 41.7008 3.45506 40.2173V6.14547C3.45506 4.66195 4.66206 3.45506 6.14558 3.45506H48.8545C50.338 3.45506 51.545 4.66195 51.545 6.14547V40.2173H51.5449Z" fill="white"/>
<path d="M7.91925 9.63172C8.9133 9.63172 9.71912 8.82589 9.71912 7.83185C9.71912 6.83781 8.9133 6.03198 7.91925 6.03198C6.92521 6.03198 6.11938 6.83781 6.11938 7.83185C6.11938 8.82589 6.92521 9.63172 7.91925 9.63172Z" fill="white"/>
<path d="M13.202 9.63172C14.196 9.63172 15.0018 8.82589 15.0018 7.83185C15.0018 6.83781 14.196 6.03198 13.202 6.03198C12.2079 6.03198 11.4021 6.83781 11.4021 7.83185C11.4021 8.82589 12.2079 9.63172 13.202 9.63172Z" fill="white"/>
<path d="M18.4849 9.63172C19.479 9.63172 20.2848 8.82589 20.2848 7.83185C20.2848 6.83781 19.479 6.03198 18.4849 6.03198C17.4909 6.03198 16.6851 6.83781 16.6851 7.83185C16.6851 8.82589 17.4909 9.63172 18.4849 9.63172Z" fill="white"/>
<path d="M24.2197 31.7276C22.5423 33.4048 19.646 32.2134 19.646 29.833C19.646 29.1174 19.9247 28.4445 20.4307 27.9385L23.3392 25.0301C24.3861 23.9832 26.0809 23.9829 27.1282 25.0301C27.8028 25.7049 28.8967 25.7049 29.5713 25.0301C30.246 24.3555 30.246 23.2617 29.5713 22.5871C27.1741 20.1897 23.2937 20.1894 20.8961 22.5871L17.9877 25.4954C14.1456 29.3372 16.8699 35.9644 22.3253 35.9644C23.8961 35.9644 25.467 35.3665 26.6629 34.1706C27.3376 33.496 27.3376 32.4022 26.6629 31.7276C25.9882 31.0529 24.8943 31.0529 24.2197 31.7276Z" fill="white"/>
<path d="M28.3371 17.8292C27.6624 18.504 27.6624 19.5977 28.3371 20.2723C29.0117 20.947 30.1056 20.947 30.7802 20.2723C32.4771 18.5752 35.3539 19.8053 35.3539 22.1667C35.3539 22.8824 35.0753 23.5552 34.5692 24.0613L31.6607 26.9697C30.6138 28.0167 28.919 28.0169 27.8717 26.9697C27.1971 26.295 26.1032 26.295 25.4286 26.9697C24.7539 27.6443 24.7539 28.7382 25.4286 29.4128C27.8258 31.8101 31.7063 31.8105 34.1039 29.4128L37.0123 26.5045C38.1709 25.3458 38.809 23.8053 38.809 22.1669C38.809 16.715 32.1756 13.991 28.3371 17.8292Z" fill="white"/>
</svg>
