<svg width="476" height="301" viewBox="0 0 476 301" fill="none" xmlns="http://www.w3.org/2000/svg">
<path d="M455.525 0.75H20C9.36852 0.75 0.75 9.36852 0.75 20V280.583C0.75 291.214 9.36852 299.833 20 299.833H455.525C466.156 299.833 474.775 291.214 474.775 280.583V20C474.775 9.36852 466.156 0.75 455.525 0.75Z" stroke="url(#paint0_radial)" stroke-width="1.5"/>
<path d="M455.525 0H20C8.9543 0 0 8.9543 0 20V280.583C0 291.629 8.9543 300.583 20 300.583H455.525C466.571 300.583 475.525 291.629 475.525 280.583V20C475.525 8.9543 466.571 0 455.525 0Z" fill="white"/>
<path opacity="0.9" d="M103.564 31.8115H42.6272C37.1043 31.8115 32.6272 36.2887 32.6272 41.8115V75.6899C32.6272 81.2128 37.1043 85.6899 42.6272 85.6899H103.564C109.087 85.6899 113.564 81.2128 113.564 75.6899V41.8115C113.564 36.2887 109.087 31.8115 103.564 31.8115Z" fill="#E2E2E2"/>
<g opacity="0.8">
<path opacity="0.8" d="M103.607 49.3533H84.2593V50.6063H103.607V49.3533Z" fill="white"/>
<path opacity="0.8" d="M103.607 66.8951H84.2593V68.1481H103.607V66.8951Z" fill="white"/>
<path opacity="0.8" d="M61.9318 49.3533H42.5837V50.6063H61.9318V49.3533Z" fill="white"/>
<path opacity="0.8" d="M61.9318 66.8951H42.5837V68.1481H61.9318V66.8951Z" fill="white"/>
<path opacity="0.8" d="M78.7505 39.2827H67.3535C65.0063 39.2827 63.1035 41.1855 63.1035 43.5327V73.9908C63.1035 76.338 65.0063 78.2408 67.3535 78.2408H78.7505C81.0977 78.2408 83.0005 76.338 83.0005 73.9908V43.5327C83.0005 41.1855 81.0977 39.2827 78.7505 39.2827Z" stroke="white" stroke-width="1.5"/>
<path opacity="0.8" d="M72.7917 39.5198V32.0774H71.5388V39.5198H72.7917Z" fill="white"/>
<path opacity="0.8" d="M73.2568 85.8653V77.4926H72.0038V85.8653H73.2568Z" fill="white"/>
</g>
<path opacity="0.8" d="M383.351 270.295C398.529 270.295 410.832 258.156 410.832 243.182C410.832 228.207 398.529 216.068 383.351 216.068C368.174 216.068 355.87 228.207 355.87 243.182C355.87 258.156 368.174 270.295 383.351 270.295Z" fill="#4D7CFE"/>
<path opacity="0.8" d="M416.461 270.295C431.638 270.295 443.942 258.156 443.942 243.182C443.942 228.207 431.638 216.068 416.461 216.068C401.284 216.068 388.98 228.207 388.98 243.182C388.98 258.156 401.284 270.295 416.461 270.295Z" fill="#00D5BE"/>
<path d="M455.525 0.75H20C9.36852 0.75 0.75 9.36852 0.75 20V280.583C0.75 291.214 9.36852 299.833 20 299.833H455.525C466.156 299.833 474.775 291.214 474.775 280.583V20C474.775 9.36852 466.156 0.75 455.525 0.75Z" stroke="url(#paint1_radial)" stroke-width="1.5"/>
<path opacity="0.9" d="M103.564 31.8115H42.6272C37.1043 31.8115 32.6272 36.2887 32.6272 41.8115V75.6899C32.6272 81.2128 37.1043 85.6899 42.6272 85.6899H103.564C109.087 85.6899 113.564 81.2128 113.564 75.6899V41.8115C113.564 36.2887 109.087 31.8115 103.564 31.8115Z" fill="#E2E2E2"/>
<g opacity="0.8">
<path opacity="0.8" d="M103.607 49.3533H84.2593V50.6063H103.607V49.3533Z" fill="white"/>
<path opacity="0.8" d="M103.607 66.8951H84.2593V68.1481H103.607V66.8951Z" fill="white"/>
<path opacity="0.8" d="M61.9318 49.3533H42.5837V50.6063H61.9318V49.3533Z" fill="white"/>
<path opacity="0.8" d="M61.9318 66.8951H42.5837V68.1481H61.9318V66.8951Z" fill="white"/>
<path opacity="0.8" d="M78.7505 39.2827H67.3535C65.0063 39.2827 63.1035 41.1855 63.1035 43.5327V73.9908C63.1035 76.338 65.0063 78.2408 67.3535 78.2408H78.7505C81.0977 78.2408 83.0005 76.338 83.0005 73.9908V43.5327C83.0005 41.1855 81.0977 39.2827 78.7505 39.2827Z" stroke="white" stroke-width="1.5"/>
<path opacity="0.8" d="M72.7917 39.5198V32.0774H71.5388V39.5198H72.7917Z" fill="white"/>
<path opacity="0.8" d="M73.2568 85.8653V77.4926H72.0038V85.8653H73.2568Z" fill="white"/>
</g>
<path opacity="0.8" d="M383.351 270.295C398.529 270.295 410.832 258.156 410.832 243.182C410.832 228.207 398.529 216.068 383.351 216.068C368.174 216.068 355.87 228.207 355.87 243.182C355.87 258.156 368.174 270.295 383.351 270.295Z" fill="#4D7CFE"/>
<path opacity="0.8" d="M416.461 270.295C431.638 270.295 443.942 258.156 443.942 243.182C443.942 228.207 431.638 216.068 416.461 216.068C401.284 216.068 388.98 228.207 388.98 243.182C388.98 258.156 401.284 270.295 416.461 270.295Z" fill="#00D5BE"/>
<path d="M46.202 160.002V162H35.51V160.002H39.911V146.448C39.911 146.25 39.911 146.025 39.911 145.773C39.911 145.503 39.92 145.269 39.938 145.071L36.347 148.284L35.024 146.691L40.343 142.101H42.314V160.002H46.202Z" fill="#999999"/>
<path d="M67.799 159.813V162H54.515V160.272L61.346 153.711C61.868 153.153 62.345 152.631 62.777 152.145C63.227 151.641 63.605 151.137 63.911 150.633C64.235 150.129 64.487 149.625 64.667 149.121C64.847 148.599 64.937 148.05 64.937 147.474C64.919 146.88 64.82 146.367 64.64 145.935C64.46 145.503 64.199 145.143 63.857 144.855C63.533 144.567 63.146 144.351 62.696 144.207C62.264 144.063 61.796 143.991 61.292 143.991C60.788 143.991 60.32 144.063 59.888 144.207C59.456 144.351 59.078 144.558 58.754 144.828C58.43 145.098 58.151 145.413 57.917 145.773C57.701 146.115 57.548 146.502 57.458 146.934C57.386 147.294 57.35 147.609 57.35 147.879L54.92 147.474C55.046 146.556 55.298 145.755 55.676 145.071C56.054 144.369 56.522 143.784 57.08 143.316C57.656 142.83 58.313 142.47 59.051 142.236C59.789 141.984 60.581 141.858 61.427 141.858C62.255 141.858 63.038 141.984 63.776 142.236C64.514 142.488 65.153 142.857 65.693 143.343C66.233 143.811 66.656 144.387 66.962 145.071C67.268 145.755 67.421 146.538 67.421 147.42C67.421 148.158 67.304 148.851 67.07 149.499C66.854 150.129 66.557 150.732 66.179 151.308C65.801 151.866 65.36 152.424 64.856 152.982C64.37 153.54 63.848 154.098 63.29 154.656L57.755 160.137C58.133 160.029 58.511 159.948 58.889 159.894C59.285 159.84 59.654 159.813 59.996 159.813H67.799Z" fill="#999999"/>
<path d="M76.085 147.528C76.211 146.628 76.463 145.827 76.841 145.125C77.219 144.423 77.687 143.838 78.245 143.37C78.821 142.884 79.478 142.515 80.216 142.263C80.954 142.011 81.746 141.885 82.592 141.885C83.456 141.885 84.239 142.011 84.941 142.263C85.661 142.515 86.282 142.866 86.804 143.316C87.326 143.766 87.731 144.306 88.019 144.936C88.307 145.548 88.451 146.241 88.451 147.015C88.451 147.645 88.37 148.212 88.208 148.716C88.046 149.22 87.812 149.661 87.506 150.039C87.2 150.399 86.831 150.714 86.399 150.984C85.967 151.236 85.49 151.452 84.968 151.632C86.264 151.956 87.245 152.532 87.911 153.36C88.577 154.17 88.91 155.187 88.91 156.411C88.91 157.311 88.73 158.13 88.37 158.868C88.028 159.606 87.551 160.236 86.939 160.758C86.327 161.262 85.616 161.658 84.806 161.946C84.014 162.216 83.15 162.351 82.214 162.351C81.152 162.351 80.252 162.216 79.514 161.946C78.776 161.676 78.137 161.307 77.597 160.839C77.075 160.371 76.643 159.822 76.301 159.192C75.977 158.562 75.698 157.878 75.464 157.14L77.678 156.222C77.732 156.528 77.867 156.933 78.083 157.437C78.353 157.995 78.677 158.481 79.055 158.895C79.433 159.309 79.856 159.633 80.324 159.867C80.81 160.101 81.431 160.218 82.187 160.218C82.889 160.218 83.501 160.101 84.023 159.867C84.563 159.633 85.004 159.345 85.346 159.003C85.688 158.643 85.949 158.247 86.129 157.815C86.309 157.365 86.399 156.915 86.399 156.465C86.399 155.925 86.327 155.43 86.183 154.98C86.039 154.53 85.778 154.143 85.4 153.819C85.04 153.495 84.518 153.243 83.834 153.063C83.168 152.865 82.313 152.766 81.269 152.766V150.984C82.133 150.966 82.862 150.876 83.456 150.714C84.068 150.534 84.563 150.291 84.941 149.985C85.319 149.661 85.589 149.283 85.751 148.851C85.913 148.419 85.994 147.942 85.994 147.42C85.994 146.862 85.904 146.367 85.724 145.935C85.562 145.503 85.319 145.152 84.995 144.882C84.689 144.612 84.311 144.405 83.861 144.261C83.429 144.117 82.961 144.045 82.457 144.045C81.953 144.045 81.485 144.126 81.053 144.288C80.639 144.432 80.261 144.639 79.919 144.909C79.595 145.161 79.325 145.467 79.109 145.827C78.893 146.187 78.74 146.583 78.65 147.015C78.578 147.375 78.542 147.681 78.542 147.933L76.085 147.528Z" fill="#999999"/>
<path d="M105.728 154.791V146.529C105.728 146.295 105.737 146.034 105.755 145.746C105.773 145.44 105.8 145.143 105.836 144.855L98.5459 154.791H105.728ZM110.912 154.791V156.735H107.915V162H105.728V156.735H95.8459V154.899L105.593 141.993H107.915V154.791H110.912Z" fill="#999999"/>
<g opacity="0.8">
<path opacity="0.8" d="M37.181 229.111C39.513 229.111 41.196 227.659 41.581 225.822H40.404C40.085 227.076 38.853 228.044 37.203 228.044C35.19 228.044 33.716 226.559 33.716 224.502C33.716 222.434 35.179 220.96 37.203 220.96C38.809 220.96 39.942 221.818 40.316 223.061H41.493C41.031 221.213 39.458 219.893 37.181 219.893C34.519 219.893 32.561 221.84 32.561 224.502C32.561 227.164 34.519 229.111 37.181 229.111Z" fill="#999999"/>
<path opacity="0.8" d="M45.7824 229.067C46.9264 229.067 47.6964 228.517 48.0154 227.978V228.913H49.1484V222.621H48.0154V223.556C47.6964 223.017 46.9264 222.467 45.7824 222.467C44.0004 222.467 42.6694 223.886 42.6694 225.767C42.6694 227.648 44.0004 229.067 45.7824 229.067ZM45.8814 228.066C44.6164 228.066 43.7804 227.076 43.7804 225.767C43.7804 224.458 44.6164 223.468 45.8814 223.468C47.1574 223.468 48.0374 224.458 48.0374 225.767C48.0374 227.076 47.1574 228.066 45.8814 228.066Z" fill="#999999"/>
<path opacity="0.8" d="M50.9271 222.621V228.913H52.0601V225.657C52.0601 224.513 52.9621 223.479 54.2491 223.479C54.6341 223.479 54.9421 223.545 55.1841 223.655V222.577C54.9641 222.5 54.7111 222.467 54.3261 222.467C53.0941 222.467 52.3351 223.116 52.0601 223.589V222.621H50.9271Z" fill="#999999"/>
<path opacity="0.8" d="M58.759 229.067C59.903 229.067 60.673 228.517 60.992 227.978V228.913H62.125V219.827H60.992V223.556C60.673 223.017 59.903 222.467 58.759 222.467C56.977 222.467 55.646 223.886 55.646 225.767C55.646 227.648 56.977 229.067 58.759 229.067ZM58.858 228.066C57.593 228.066 56.757 227.076 56.757 225.767C56.757 224.458 57.593 223.468 58.858 223.468C60.134 223.468 61.014 224.458 61.014 225.767C61.014 227.076 60.134 228.066 58.858 228.066Z" fill="#999999"/>
<path opacity="0.8" d="M73.3117 220.102V223.875H68.1967V220.102H67.0417V228.913H68.1967V224.931H73.3117V228.913H74.4667V220.102H73.3117Z" fill="#999999"/>
<path opacity="0.8" d="M79.1932 222.467C77.3232 222.467 75.9702 223.875 75.9702 225.767C75.9702 227.659 77.3232 229.067 79.1932 229.067C81.0522 229.067 82.4052 227.659 82.4052 225.767C82.4052 223.875 81.0522 222.467 79.1932 222.467ZM79.1932 223.468C80.4362 223.468 81.2942 224.458 81.2942 225.767C81.2942 227.076 80.4362 228.066 79.1932 228.066C77.9392 228.066 77.0812 227.076 77.0812 225.767C77.0812 224.458 77.9392 223.468 79.1932 223.468Z" fill="#999999"/>
<path opacity="0.8" d="M84.9849 228.913V219.827H83.8519V228.913H84.9849Z" fill="#999999"/>
<path opacity="0.8" d="M89.546 229.067C90.69 229.067 91.46 228.517 91.779 227.978V228.913H92.912V219.827H91.779V223.556C91.46 223.017 90.69 222.467 89.546 222.467C87.764 222.467 86.433 223.886 86.433 225.767C86.433 227.648 87.764 229.067 89.546 229.067ZM89.645 228.066C88.38 228.066 87.544 227.076 87.544 225.767C87.544 224.458 88.38 223.468 89.645 223.468C90.921 223.468 91.801 224.458 91.801 225.767C91.801 227.076 90.921 228.066 89.645 228.066Z" fill="#999999"/>
<path opacity="0.8" d="M97.5178 229.067C98.9588 229.067 100.092 228.286 100.433 227.197H99.2778C99.0468 227.714 98.3758 228.11 97.5178 228.11C96.3958 228.11 95.6148 227.307 95.4938 226.229H100.642C100.664 226.075 100.664 225.91 100.664 225.767C100.664 223.875 99.3548 222.467 97.5178 222.467C95.6808 222.467 94.3608 223.875 94.3608 225.767C94.3608 227.659 95.6808 229.067 97.5178 229.067ZM99.5528 225.305H95.4938C95.6148 224.216 96.3848 223.424 97.5178 223.424C98.6508 223.424 99.4208 224.205 99.5528 225.305Z" fill="#999999"/>
<path opacity="0.8" d="M102.103 222.621V228.913H103.236V225.657C103.236 224.513 104.138 223.479 105.425 223.479C105.81 223.479 106.118 223.545 106.36 223.655V222.577C106.14 222.5 105.887 222.467 105.502 222.467C104.27 222.467 103.511 223.116 103.236 223.589V222.621H102.103Z" fill="#999999"/>
<path opacity="0.8" d="M110.568 222.621V228.913H111.701V225.657C111.701 224.491 112.493 223.457 113.593 223.457C114.616 223.457 115.232 224.15 115.232 225.426V228.913H116.365V225.228C116.365 223.534 115.32 222.467 113.835 222.467C112.68 222.467 111.965 223.116 111.701 223.578V222.621H110.568Z" fill="#999999"/>
<path opacity="0.8" d="M120.752 229.067C121.896 229.067 122.666 228.517 122.985 227.978V228.913H124.118V222.621H122.985V223.556C122.666 223.017 121.896 222.467 120.752 222.467C118.97 222.467 117.639 223.886 117.639 225.767C117.639 227.648 118.97 229.067 120.752 229.067ZM120.851 228.066C119.586 228.066 118.75 227.076 118.75 225.767C118.75 224.458 119.586 223.468 120.851 223.468C122.127 223.468 123.007 224.458 123.007 225.767C123.007 227.076 122.127 228.066 120.851 228.066Z" fill="#999999"/>
<path opacity="0.8" d="M125.897 222.621V228.913H127.03V225.514C127.03 224.381 127.723 223.457 128.658 223.457C129.538 223.457 130.099 224.139 130.099 225.316V228.913H131.232V225.525C131.232 224.381 131.914 223.457 132.86 223.457C133.751 223.457 134.301 224.139 134.301 225.272V228.913H135.434V225.085C135.434 223.49 134.466 222.467 133.124 222.467C132.057 222.467 131.265 222.995 130.891 223.787C130.583 222.984 129.868 222.467 128.933 222.467C127.877 222.467 127.316 223.05 127.03 223.512V222.621H125.897Z" fill="#999999"/>
<path opacity="0.8" d="M139.874 229.067C141.315 229.067 142.448 228.286 142.789 227.197H141.634C141.403 227.714 140.732 228.11 139.874 228.11C138.752 228.11 137.971 227.307 137.85 226.229H142.998C143.02 226.075 143.02 225.91 143.02 225.767C143.02 223.875 141.711 222.467 139.874 222.467C138.037 222.467 136.717 223.875 136.717 225.767C136.717 227.659 138.037 229.067 139.874 229.067ZM141.909 225.305H137.85C137.971 224.216 138.741 223.424 139.874 223.424C141.007 223.424 141.777 224.205 141.909 225.305Z" fill="#999999"/>
</g>
<g opacity="0.8">
<path opacity="0.8" d="M208.946 220.102V228.913H215.304V227.89H210.101V224.92H214.82V223.897H210.101V221.125H215.205V220.102H208.946Z" fill="#999999"/>
<path opacity="0.8" d="M218.581 225.723L216.04 228.913H217.349L219.274 226.482L221.199 228.913H222.585L220.011 225.701L222.453 222.621H221.144L219.318 224.942L217.514 222.621H216.128L218.581 225.723Z" fill="#999999"/>
<path opacity="0.8" d="M227.038 229.067C228.82 229.067 230.151 227.648 230.151 225.767C230.151 223.886 228.82 222.467 227.038 222.467C225.894 222.467 225.124 223.017 224.805 223.556V222.621H223.672V231.586H224.805V227.978C225.124 228.517 225.894 229.067 227.038 229.067ZM226.939 228.066C225.663 228.066 224.783 227.076 224.783 225.767C224.783 224.458 225.663 223.468 226.939 223.468C228.204 223.468 229.04 224.458 229.04 225.767C229.04 227.076 228.204 228.066 226.939 228.066Z" fill="#999999"/>
<path opacity="0.8" d="M232.733 228.913V219.827H231.6V228.913H232.733Z" fill="#999999"/>
<path opacity="0.8" d="M239.208 222.621L237.129 227.571L235.105 222.621H233.862L236.557 228.781L235.314 231.586H236.458L240.385 222.621H239.208Z" fill="#999999"/>
<path opacity="0.8" d="M244.653 220.102V228.913H247.777C250.813 228.913 252.573 227.142 252.573 224.513C252.573 221.884 250.813 220.102 247.777 220.102H244.653ZM247.81 227.868H245.808V221.136H247.81C250.043 221.136 251.407 222.368 251.407 224.513C251.407 226.658 250.043 227.868 247.81 227.868Z" fill="#999999"/>
<path opacity="0.8" d="M256.823 229.067C257.967 229.067 258.737 228.517 259.056 227.978V228.913H260.189V222.621H259.056V223.556C258.737 223.017 257.967 222.467 256.823 222.467C255.041 222.467 253.71 223.886 253.71 225.767C253.71 227.648 255.041 229.067 256.823 229.067ZM256.922 228.066C255.657 228.066 254.821 227.076 254.821 225.767C254.821 224.458 255.657 223.468 256.922 223.468C258.198 223.468 259.078 224.458 259.078 225.767C259.078 227.076 258.198 228.066 256.922 228.066Z" fill="#999999"/>
<path opacity="0.8" d="M265.268 222.621H263.871V220.707H262.738V222.621H261.341V223.622H262.738V228.913H263.871V223.622H265.268V222.621Z" fill="#999999"/>
<path opacity="0.8" d="M269.06 229.067C270.501 229.067 271.634 228.286 271.975 227.197H270.82C270.589 227.714 269.918 228.11 269.06 228.11C267.938 228.11 267.157 227.307 267.036 226.229H272.184C272.206 226.075 272.206 225.91 272.206 225.767C272.206 223.875 270.897 222.467 269.06 222.467C267.223 222.467 265.903 223.875 265.903 225.767C265.903 227.659 267.223 229.067 269.06 229.067ZM271.095 225.305H267.036C267.157 224.216 267.927 223.424 269.06 223.424C270.193 223.424 270.963 224.205 271.095 225.305Z" fill="#999999"/>
</g>
<path d="M212.858 255.414C215.21 255.414 216.988 253.468 216.988 249.548C216.988 245.628 215.21 243.682 212.858 243.682C210.492 243.682 208.714 245.628 208.714 249.548C208.714 253.468 210.492 255.414 212.858 255.414ZM212.858 254.112C211.332 254.112 210.128 252.6 210.128 249.548C210.128 246.51 211.332 244.984 212.858 244.984C214.37 244.984 215.574 246.51 215.574 249.548C215.574 252.6 214.37 254.112 212.858 254.112Z" fill="#999999"/>
<path d="M220.393 255.162H228.191V253.888H222.507L225.447 251.004C227.127 249.282 227.813 248.26 227.813 247.056C227.813 245.04 226.329 243.682 224.075 243.682C221.737 243.682 220.267 245.348 220.267 247.378H221.737C221.737 246.132 222.549 244.984 224.061 244.984C225.461 244.984 226.357 245.754 226.357 247.07C226.357 247.868 225.797 248.778 224.369 250.22L220.393 254.21V255.162Z" fill="#999999"/>
<path d="M232.785 256.1L237.909 243.01H236.453L231.329 256.1H232.785Z" fill="#999999"/>
<path d="M243.3 255.162H244.77V243.948H240.976V245.236H243.3V255.162Z" fill="#999999"/>
<path d="M251.63 255.162H253.1V243.948H249.306V245.236H251.63V255.162Z" fill="#999999"/>
<path d="M41.184 243.948V248.75H34.674V243.948H33.204V255.162H34.674V250.094H41.184V255.162H42.654V243.948H41.184Z" fill="#999999"/>
<path d="M50.6695 246.958C48.2895 246.958 46.5675 248.75 46.5675 251.158C46.5675 253.566 48.2895 255.358 50.6695 255.358C53.0355 255.358 54.7575 253.566 54.7575 251.158C54.7575 248.75 53.0355 246.958 50.6695 246.958ZM50.6695 248.232C52.2515 248.232 53.3435 249.492 53.3435 251.158C53.3435 252.824 52.2515 254.084 50.6695 254.084C49.0735 254.084 47.9815 252.824 47.9815 251.158C47.9815 249.492 49.0735 248.232 50.6695 248.232Z" fill="#999999"/>
<path d="M58.5988 247.154V255.162H60.0408V251.018C60.0408 249.534 61.0488 248.218 62.4488 248.218C63.7508 248.218 64.5348 249.1 64.5348 250.724V255.162H65.9768V250.472C65.9768 248.316 64.6468 246.958 62.7568 246.958C61.2868 246.958 60.3768 247.784 60.0408 248.372V247.154H58.5988Z" fill="#999999"/>
<path d="M73.9388 258.76C76.2348 258.76 77.8448 257.192 77.8448 254.98V247.154H76.4028V248.344C75.9968 247.658 75.0168 246.958 73.5608 246.958C71.2928 246.958 69.5988 248.75 69.5988 251.116C69.5988 253.468 71.2928 255.246 73.5608 255.246C75.0168 255.246 75.9968 254.546 76.4028 253.86V254.966C76.4028 256.534 75.3948 257.514 73.9388 257.514C72.4968 257.514 71.7828 256.772 71.6148 255.918H70.1448C70.4248 257.43 71.6428 258.76 73.9388 258.76ZM73.6868 254C72.0768 254 71.0128 252.754 71.0128 251.116C71.0128 249.478 72.0768 248.232 73.6868 248.232C75.3108 248.232 76.4308 249.478 76.4308 251.116C76.4308 252.754 75.3108 254 73.6868 254Z" fill="#999999"/>
<path d="M93.4644 255.414C96.7404 255.414 99.2604 253.09 99.2604 249.786V249.282H93.2264V250.556H97.6924C97.5244 252.586 95.8164 254.098 93.5204 254.098C90.9024 254.098 89.0544 252.194 89.0544 249.548C89.0544 246.916 90.9024 245.026 93.4924 245.026C95.4104 245.026 96.9924 246.076 97.4544 247.49H99.0504C98.4624 245.348 96.3204 243.682 93.4644 243.682C90.0344 243.682 87.5844 246.16 87.5844 249.548C87.5844 252.936 90.0344 255.414 93.4644 255.414Z" fill="#999999"/>
<path d="M103.776 243.458C103.23 243.458 102.824 243.864 102.824 244.41C102.824 244.956 103.23 245.362 103.776 245.362C104.336 245.362 104.742 244.956 104.742 244.41C104.742 243.864 104.336 243.458 103.776 243.458ZM104.504 255.176V247.154H103.062V255.176H104.504Z" fill="#999999"/>
<path d="M110.209 255.162V243.598H108.767V255.162H110.209Z" fill="#999999"/>
<path d="M120.466 243.948V255.162H124.442C128.306 255.162 130.546 252.908 130.546 249.562C130.546 246.216 128.306 243.948 124.442 243.948H120.466ZM124.484 253.832H121.936V245.264H124.484C127.326 245.264 129.062 246.832 129.062 249.562C129.062 252.292 127.326 253.832 124.484 253.832Z" fill="#999999"/>
<path d="M138.095 246.958C135.715 246.958 133.993 248.75 133.993 251.158C133.993 253.566 135.715 255.358 138.095 255.358C140.461 255.358 142.183 253.566 142.183 251.158C142.183 248.75 140.461 246.958 138.095 246.958ZM138.095 248.232C139.677 248.232 140.769 249.492 140.769 251.158C140.769 252.824 139.677 254.084 138.095 254.084C136.499 254.084 135.407 252.824 135.407 251.158C135.407 249.492 136.499 248.232 138.095 248.232Z" fill="#999999"/>
<path d="M146.025 247.154V255.162H147.467V251.018C147.467 249.534 148.475 248.218 149.875 248.218C151.177 248.218 151.961 249.1 151.961 250.724V255.162H153.403V250.472C153.403 248.316 152.073 246.958 150.183 246.958C148.713 246.958 147.803 247.784 147.467 248.372V247.154H146.025Z" fill="#999999"/>
<path d="M161.365 258.76C163.661 258.76 165.271 257.192 165.271 254.98V247.154H163.829V248.344C163.423 247.658 162.443 246.958 160.987 246.958C158.719 246.958 157.025 248.75 157.025 251.116C157.025 253.468 158.719 255.246 160.987 255.246C162.443 255.246 163.423 254.546 163.829 253.86V254.966C163.829 256.534 162.821 257.514 161.365 257.514C159.923 257.514 159.209 256.772 159.041 255.918H157.571C157.851 257.43 159.069 258.76 161.365 258.76ZM161.113 254C159.503 254 158.439 252.754 158.439 251.116C158.439 249.478 159.503 248.232 161.113 248.232C162.737 248.232 163.857 249.478 163.857 251.116C163.857 252.754 162.737 254 161.113 254Z" fill="#999999"/>
<path d="M156.202 160.002V162H145.51V160.002H149.911V146.448C149.911 146.25 149.911 146.025 149.911 145.773C149.911 145.503 149.92 145.269 149.938 145.071L146.347 148.284L145.024 146.691L150.343 142.101H152.314V160.002H156.202Z" fill="#999999"/>
<path d="M177.799 159.813V162H164.515V160.272L171.346 153.711C171.868 153.153 172.345 152.631 172.777 152.145C173.227 151.641 173.605 151.137 173.911 150.633C174.235 150.129 174.487 149.625 174.667 149.121C174.847 148.599 174.937 148.05 174.937 147.474C174.919 146.88 174.82 146.367 174.64 145.935C174.46 145.503 174.199 145.143 173.857 144.855C173.533 144.567 173.146 144.351 172.696 144.207C172.264 144.063 171.796 143.991 171.292 143.991C170.788 143.991 170.32 144.063 169.888 144.207C169.456 144.351 169.078 144.558 168.754 144.828C168.43 145.098 168.151 145.413 167.917 145.773C167.701 146.115 167.548 146.502 167.458 146.934C167.386 147.294 167.35 147.609 167.35 147.879L164.92 147.474C165.046 146.556 165.298 145.755 165.676 145.071C166.054 144.369 166.522 143.784 167.08 143.316C167.656 142.83 168.313 142.47 169.051 142.236C169.789 141.984 170.581 141.858 171.427 141.858C172.255 141.858 173.038 141.984 173.776 142.236C174.514 142.488 175.153 142.857 175.693 143.343C176.233 143.811 176.656 144.387 176.962 145.071C177.268 145.755 177.421 146.538 177.421 147.42C177.421 148.158 177.304 148.851 177.07 149.499C176.854 150.129 176.557 150.732 176.179 151.308C175.801 151.866 175.36 152.424 174.856 152.982C174.37 153.54 173.848 154.098 173.29 154.656L167.755 160.137C168.133 160.029 168.511 159.948 168.889 159.894C169.285 159.84 169.654 159.813 169.996 159.813H177.799Z" fill="#999999"/>
<path d="M186.085 147.528C186.211 146.628 186.463 145.827 186.841 145.125C187.219 144.423 187.687 143.838 188.245 143.37C188.821 142.884 189.478 142.515 190.216 142.263C190.954 142.011 191.746 141.885 192.592 141.885C193.456 141.885 194.239 142.011 194.941 142.263C195.661 142.515 196.282 142.866 196.804 143.316C197.326 143.766 197.731 144.306 198.019 144.936C198.307 145.548 198.451 146.241 198.451 147.015C198.451 147.645 198.37 148.212 198.208 148.716C198.046 149.22 197.812 149.661 197.506 150.039C197.2 150.399 196.831 150.714 196.399 150.984C195.967 151.236 195.49 151.452 194.968 151.632C196.264 151.956 197.245 152.532 197.911 153.36C198.577 154.17 198.91 155.187 198.91 156.411C198.91 157.311 198.73 158.13 198.37 158.868C198.028 159.606 197.551 160.236 196.939 160.758C196.327 161.262 195.616 161.658 194.806 161.946C194.014 162.216 193.15 162.351 192.214 162.351C191.152 162.351 190.252 162.216 189.514 161.946C188.776 161.676 188.137 161.307 187.597 160.839C187.075 160.371 186.643 159.822 186.301 159.192C185.977 158.562 185.698 157.878 185.464 157.14L187.678 156.222C187.732 156.528 187.867 156.933 188.083 157.437C188.353 157.995 188.677 158.481 189.055 158.895C189.433 159.309 189.856 159.633 190.324 159.867C190.81 160.101 191.431 160.218 192.187 160.218C192.889 160.218 193.501 160.101 194.023 159.867C194.563 159.633 195.004 159.345 195.346 159.003C195.688 158.643 195.949 158.247 196.129 157.815C196.309 157.365 196.399 156.915 196.399 156.465C196.399 155.925 196.327 155.43 196.183 154.98C196.039 154.53 195.778 154.143 195.4 153.819C195.04 153.495 194.518 153.243 193.834 153.063C193.168 152.865 192.313 152.766 191.269 152.766V150.984C192.133 150.966 192.862 150.876 193.456 150.714C194.068 150.534 194.563 150.291 194.941 149.985C195.319 149.661 195.589 149.283 195.751 148.851C195.913 148.419 195.994 147.942 195.994 147.42C195.994 146.862 195.904 146.367 195.724 145.935C195.562 145.503 195.319 145.152 194.995 144.882C194.689 144.612 194.311 144.405 193.861 144.261C193.429 144.117 192.961 144.045 192.457 144.045C191.953 144.045 191.485 144.126 191.053 144.288C190.639 144.432 190.261 144.639 189.919 144.909C189.595 145.161 189.325 145.467 189.109 145.827C188.893 146.187 188.74 146.583 188.65 147.015C188.578 147.375 188.542 147.681 188.542 147.933L186.085 147.528Z" fill="#999999"/>
<path d="M215.728 154.791V146.529C215.728 146.295 215.737 146.034 215.755 145.746C215.773 145.44 215.8 145.143 215.836 144.855L208.546 154.791H215.728ZM220.912 154.791V156.735H217.915V162H215.728V156.735H205.846V154.899L215.593 141.993H217.915V154.791H220.912Z" fill="#999999"/>
<path d="M266.202 160.002V162H255.51V160.002H259.911V146.448C259.911 146.25 259.911 146.025 259.911 145.773C259.911 145.503 259.92 145.269 259.938 145.071L256.347 148.284L255.024 146.691L260.343 142.101H262.314V160.002H266.202Z" fill="#999999"/>
<path d="M287.799 159.813V162H274.515V160.272L281.346 153.711C281.868 153.153 282.345 152.631 282.777 152.145C283.227 151.641 283.605 151.137 283.911 150.633C284.235 150.129 284.487 149.625 284.667 149.121C284.847 148.599 284.937 148.05 284.937 147.474C284.919 146.88 284.82 146.367 284.64 145.935C284.46 145.503 284.199 145.143 283.857 144.855C283.533 144.567 283.146 144.351 282.696 144.207C282.264 144.063 281.796 143.991 281.292 143.991C280.788 143.991 280.32 144.063 279.888 144.207C279.456 144.351 279.078 144.558 278.754 144.828C278.43 145.098 278.151 145.413 277.917 145.773C277.701 146.115 277.548 146.502 277.458 146.934C277.386 147.294 277.35 147.609 277.35 147.879L274.92 147.474C275.046 146.556 275.298 145.755 275.676 145.071C276.054 144.369 276.522 143.784 277.08 143.316C277.656 142.83 278.313 142.47 279.051 142.236C279.789 141.984 280.581 141.858 281.427 141.858C282.255 141.858 283.038 141.984 283.776 142.236C284.514 142.488 285.153 142.857 285.693 143.343C286.233 143.811 286.656 144.387 286.962 145.071C287.268 145.755 287.421 146.538 287.421 147.42C287.421 148.158 287.304 148.851 287.07 149.499C286.854 150.129 286.557 150.732 286.179 151.308C285.801 151.866 285.36 152.424 284.856 152.982C284.37 153.54 283.848 154.098 283.29 154.656L277.755 160.137C278.133 160.029 278.511 159.948 278.889 159.894C279.285 159.84 279.654 159.813 279.996 159.813H287.799Z" fill="#999999"/>
<path d="M296.085 147.528C296.211 146.628 296.463 145.827 296.841 145.125C297.219 144.423 297.687 143.838 298.245 143.37C298.821 142.884 299.478 142.515 300.216 142.263C300.954 142.011 301.746 141.885 302.592 141.885C303.456 141.885 304.239 142.011 304.941 142.263C305.661 142.515 306.282 142.866 306.804 143.316C307.326 143.766 307.731 144.306 308.019 144.936C308.307 145.548 308.451 146.241 308.451 147.015C308.451 147.645 308.37 148.212 308.208 148.716C308.046 149.22 307.812 149.661 307.506 150.039C307.2 150.399 306.831 150.714 306.399 150.984C305.967 151.236 305.49 151.452 304.968 151.632C306.264 151.956 307.245 152.532 307.911 153.36C308.577 154.17 308.91 155.187 308.91 156.411C308.91 157.311 308.73 158.13 308.37 158.868C308.028 159.606 307.551 160.236 306.939 160.758C306.327 161.262 305.616 161.658 304.806 161.946C304.014 162.216 303.15 162.351 302.214 162.351C301.152 162.351 300.252 162.216 299.514 161.946C298.776 161.676 298.137 161.307 297.597 160.839C297.075 160.371 296.643 159.822 296.301 159.192C295.977 158.562 295.698 157.878 295.464 157.14L297.678 156.222C297.732 156.528 297.867 156.933 298.083 157.437C298.353 157.995 298.677 158.481 299.055 158.895C299.433 159.309 299.856 159.633 300.324 159.867C300.81 160.101 301.431 160.218 302.187 160.218C302.889 160.218 303.501 160.101 304.023 159.867C304.563 159.633 305.004 159.345 305.346 159.003C305.688 158.643 305.949 158.247 306.129 157.815C306.309 157.365 306.399 156.915 306.399 156.465C306.399 155.925 306.327 155.43 306.183 154.98C306.039 154.53 305.778 154.143 305.4 153.819C305.04 153.495 304.518 153.243 303.834 153.063C303.168 152.865 302.313 152.766 301.269 152.766V150.984C302.133 150.966 302.862 150.876 303.456 150.714C304.068 150.534 304.563 150.291 304.941 149.985C305.319 149.661 305.589 149.283 305.751 148.851C305.913 148.419 305.994 147.942 305.994 147.42C305.994 146.862 305.904 146.367 305.724 145.935C305.562 145.503 305.319 145.152 304.995 144.882C304.689 144.612 304.311 144.405 303.861 144.261C303.429 144.117 302.961 144.045 302.457 144.045C301.953 144.045 301.485 144.126 301.053 144.288C300.639 144.432 300.261 144.639 299.919 144.909C299.595 145.161 299.325 145.467 299.109 145.827C298.893 146.187 298.74 146.583 298.65 147.015C298.578 147.375 298.542 147.681 298.542 147.933L296.085 147.528Z" fill="#999999"/>
<path d="M325.728 154.791V146.529C325.728 146.295 325.737 146.034 325.755 145.746C325.773 145.44 325.8 145.143 325.836 144.855L318.546 154.791H325.728ZM330.912 154.791V156.735H327.915V162H325.728V156.735H315.846V154.899L325.593 141.993H327.915V154.791H330.912Z" fill="#999999"/>
<path d="M376.202 160.002V162H365.51V160.002H369.911V146.448C369.911 146.25 369.911 146.025 369.911 145.773C369.911 145.503 369.92 145.269 369.938 145.071L366.347 148.284L365.024 146.691L370.343 142.101H372.314V160.002H376.202Z" fill="#999999"/>
<path d="M397.799 159.813V162H384.515V160.272L391.346 153.711C391.868 153.153 392.345 152.631 392.777 152.145C393.227 151.641 393.605 151.137 393.911 150.633C394.235 150.129 394.487 149.625 394.667 149.121C394.847 148.599 394.937 148.05 394.937 147.474C394.919 146.88 394.82 146.367 394.64 145.935C394.46 145.503 394.199 145.143 393.857 144.855C393.533 144.567 393.146 144.351 392.696 144.207C392.264 144.063 391.796 143.991 391.292 143.991C390.788 143.991 390.32 144.063 389.888 144.207C389.456 144.351 389.078 144.558 388.754 144.828C388.43 145.098 388.151 145.413 387.917 145.773C387.701 146.115 387.548 146.502 387.458 146.934C387.386 147.294 387.35 147.609 387.35 147.879L384.92 147.474C385.046 146.556 385.298 145.755 385.676 145.071C386.054 144.369 386.522 143.784 387.08 143.316C387.656 142.83 388.313 142.47 389.051 142.236C389.789 141.984 390.581 141.858 391.427 141.858C392.255 141.858 393.038 141.984 393.776 142.236C394.514 142.488 395.153 142.857 395.693 143.343C396.233 143.811 396.656 144.387 396.962 145.071C397.268 145.755 397.421 146.538 397.421 147.42C397.421 148.158 397.304 148.851 397.07 149.499C396.854 150.129 396.557 150.732 396.179 151.308C395.801 151.866 395.36 152.424 394.856 152.982C394.37 153.54 393.848 154.098 393.29 154.656L387.755 160.137C388.133 160.029 388.511 159.948 388.889 159.894C389.285 159.84 389.654 159.813 389.996 159.813H397.799Z" fill="#999999"/>
<path d="M406.085 147.528C406.211 146.628 406.463 145.827 406.841 145.125C407.219 144.423 407.687 143.838 408.245 143.37C408.821 142.884 409.478 142.515 410.216 142.263C410.954 142.011 411.746 141.885 412.592 141.885C413.456 141.885 414.239 142.011 414.941 142.263C415.661 142.515 416.282 142.866 416.804 143.316C417.326 143.766 417.731 144.306 418.019 144.936C418.307 145.548 418.451 146.241 418.451 147.015C418.451 147.645 418.37 148.212 418.208 148.716C418.046 149.22 417.812 149.661 417.506 150.039C417.2 150.399 416.831 150.714 416.399 150.984C415.967 151.236 415.49 151.452 414.968 151.632C416.264 151.956 417.245 152.532 417.911 153.36C418.577 154.17 418.91 155.187 418.91 156.411C418.91 157.311 418.73 158.13 418.37 158.868C418.028 159.606 417.551 160.236 416.939 160.758C416.327 161.262 415.616 161.658 414.806 161.946C414.014 162.216 413.15 162.351 412.214 162.351C411.152 162.351 410.252 162.216 409.514 161.946C408.776 161.676 408.137 161.307 407.597 160.839C407.075 160.371 406.643 159.822 406.301 159.192C405.977 158.562 405.698 157.878 405.464 157.14L407.678 156.222C407.732 156.528 407.867 156.933 408.083 157.437C408.353 157.995 408.677 158.481 409.055 158.895C409.433 159.309 409.856 159.633 410.324 159.867C410.81 160.101 411.431 160.218 412.187 160.218C412.889 160.218 413.501 160.101 414.023 159.867C414.563 159.633 415.004 159.345 415.346 159.003C415.688 158.643 415.949 158.247 416.129 157.815C416.309 157.365 416.399 156.915 416.399 156.465C416.399 155.925 416.327 155.43 416.183 154.98C416.039 154.53 415.778 154.143 415.4 153.819C415.04 153.495 414.518 153.243 413.834 153.063C413.168 152.865 412.313 152.766 411.269 152.766V150.984C412.133 150.966 412.862 150.876 413.456 150.714C414.068 150.534 414.563 150.291 414.941 149.985C415.319 149.661 415.589 149.283 415.751 148.851C415.913 148.419 415.994 147.942 415.994 147.42C415.994 146.862 415.904 146.367 415.724 145.935C415.562 145.503 415.319 145.152 414.995 144.882C414.689 144.612 414.311 144.405 413.861 144.261C413.429 144.117 412.961 144.045 412.457 144.045C411.953 144.045 411.485 144.126 411.053 144.288C410.639 144.432 410.261 144.639 409.919 144.909C409.595 145.161 409.325 145.467 409.109 145.827C408.893 146.187 408.74 146.583 408.65 147.015C408.578 147.375 408.542 147.681 408.542 147.933L406.085 147.528Z" fill="#999999"/>
<path d="M435.728 154.791V146.529C435.728 146.295 435.737 146.034 435.755 145.746C435.773 145.44 435.8 145.143 435.836 144.855L428.546 154.791H435.728ZM440.912 154.791V156.735H437.915V162H435.728V156.735H425.846V154.899L435.593 141.993H437.915V154.791H440.912Z" fill="#999999"/>
<defs>
<radialGradient id="paint0_radial" cx="0" cy="0" r="1" gradientUnits="userSpaceOnUse" gradientTransform="translate(424.213 25.0568) rotate(135.708) scale(407.34 312.516)">
<stop stop-color="white" stop-opacity="0.499972"/>
<stop offset="1" stop-color="white" stop-opacity="0.01"/>
</radialGradient>
<radialGradient id="paint1_radial" cx="0" cy="0" r="1" gradientUnits="userSpaceOnUse" gradientTransform="translate(424.213 25.0568) rotate(135.708) scale(407.34 312.516)">
<stop stop-color="white" stop-opacity="0.499972"/>
<stop offset="1" stop-color="white" stop-opacity="0.01"/>
</radialGradient>
</defs>
</svg>
