<svg width="753" height="463" viewBox="0 0 753 463" fill="none" xmlns="http://www.w3.org/2000/svg">
<mask id="mask0" mask-type="alpha" maskUnits="userSpaceOnUse" x="85" y="14" width="601" height="363">
<rect x="85.8838" y="14" width="600" height="363" fill="#C4C4C4"/>
</mask>
<g mask="url(#mask0)">
<circle cx="385.884" cy="401" r="291" fill="#D5F3FF" fill-opacity="0.7"/>
</g>
<path d="M418.943 319.554L431.945 326.171L439.259 322.456C438.098 321.76 436.821 321.179 435.544 320.599L431.829 322.456L421.381 317.116C420.568 317.116 419.639 317 418.827 317C418.014 317 417.085 317 416.273 317.116L405.824 322.456L402.225 320.599C400.948 321.179 399.788 321.76 398.51 322.456L405.824 326.171L418.943 319.554Z" fill="#12BFAC"/>
<path d="M405.94 334.646L418.943 328.029L431.945 334.646L444.948 328.029L448.663 329.886C447.037 328.145 445.18 326.52 443.322 325.127L431.945 330.931L418.943 324.314L405.94 330.931L394.563 325.127C392.59 326.52 390.848 328.145 389.223 329.886L392.938 328.029L405.94 334.646Z" fill="#12BFAC"/>
<path d="M405.94 343.005L418.943 336.387L431.945 343.005L444.948 336.387L456.789 342.424C456.093 340.683 455.28 339.058 454.351 337.432L444.948 332.672L431.945 339.29L418.943 332.672L405.94 339.29L392.938 332.672L383.534 337.432C382.606 339.058 381.793 340.683 381.096 342.424L392.938 336.387L405.94 343.005Z" fill="#12BFAC"/>
<path d="M392.822 344.862L405.824 351.479L418.827 344.862L431.829 351.479L444.832 344.862L457.834 351.479L459.111 350.899C458.879 349.738 458.647 348.693 458.415 347.532L457.95 347.765L444.948 341.147L431.945 347.765L418.943 341.147L405.94 347.765L392.938 341.147L379.936 347.765L379.471 347.532C379.239 348.577 378.891 349.738 378.775 350.899L380.052 351.479L392.822 344.862Z" fill="#12BFAC"/>
<path d="M459.808 355.311L458.066 356.24L445.064 349.622L432.061 356.24L419.059 349.622L406.056 356.24L393.054 349.622L379.819 356.24L378.078 355.311C378.078 356.24 377.962 357.052 377.962 357.981C377.962 358.329 377.962 358.677 377.962 359.026L379.819 359.955L392.822 353.337L405.824 359.955L418.827 353.337L431.829 359.955L444.832 353.337L457.834 359.955L459.691 359.026C459.691 358.677 459.691 358.329 459.691 357.981C459.924 357.052 459.924 356.24 459.808 355.311Z" fill="#12BFAC"/>
<path d="M445.064 357.981L432.062 364.599L419.059 357.981L406.057 364.599L393.054 357.981L380.052 364.599L378.659 363.902C378.891 365.295 379.123 366.688 379.472 368.081L380.052 368.43L393.054 361.812L406.057 368.43L419.059 361.812L432.062 368.43L445.064 361.812L458.067 368.43L458.647 368.081C458.995 366.688 459.228 365.295 459.46 363.902L458.067 364.599L445.064 357.981Z" fill="#12BFAC"/>
<path d="M431.945 373.073L418.943 366.456L405.941 373.073L392.938 366.456L380.748 372.609C381.097 373.653 381.561 374.698 382.025 375.627L392.938 370.055L405.941 376.672L418.943 370.055L431.945 376.672L444.948 370.055L455.861 375.627C456.325 374.582 456.789 373.653 457.138 372.609L444.948 366.456L431.945 373.073Z" fill="#12BFAC"/>
<path d="M431.946 381.548L418.943 374.93L405.941 381.548L392.938 374.93L384.115 379.458C384.696 380.387 385.276 381.316 385.973 382.244L392.938 378.645L405.941 385.263L418.943 378.645L431.946 385.263L444.948 378.645L451.914 382.244C452.61 381.316 453.191 380.387 453.771 379.458L444.948 374.93L431.946 381.548Z" fill="#12BFAC"/>
<path d="M431.945 390.022L418.943 383.405L405.94 390.022L392.938 383.405L388.643 385.611C389.455 386.424 390.268 387.352 391.081 388.049L392.822 387.12L405.824 393.737L418.827 387.12L431.829 393.737L444.832 387.12L446.689 388.049C447.502 387.236 448.314 386.424 449.127 385.611L444.832 383.405L431.945 390.022Z" fill="#12BFAC"/>
<path d="M407.914 397.453C409.539 397.917 411.281 398.265 413.138 398.497L419.059 395.479L424.979 398.497C426.721 398.265 428.462 397.917 430.204 397.453L419.175 391.764L407.914 397.453Z" fill="#12BFAC"/>
<mask id="mask1" mask-type="alpha" maskUnits="userSpaceOnUse" x="430" y="14" width="89" height="88">
<circle cx="474.477" cy="58" r="44" fill="#C4C4C4"/>
</mask>
<g mask="url(#mask1)">
<path d="M513.24 100.423C513.24 99.0117 514.37 97.9766 515.687 97.9766C517.005 97.9766 518.134 99.1058 518.134 100.423C518.134 101.835 517.005 102.87 515.687 102.87C514.37 102.87 513.24 101.741 513.24 100.423Z" fill="#1CB6F2"/>
<path d="M505.053 100.423C505.053 99.0117 506.182 97.9766 507.5 97.9766C508.912 97.9766 509.947 99.1058 509.947 100.423C509.947 101.835 508.817 102.87 507.5 102.87C506.182 102.87 505.053 101.741 505.053 100.423Z" fill="#1CB6F2"/>
<path d="M496.866 100.423C496.866 99.0117 497.995 97.9766 499.313 97.9766C500.63 97.9766 501.759 99.1058 501.759 100.423C501.759 101.835 500.63 102.87 499.313 102.87C497.995 102.87 496.866 101.741 496.866 100.423Z" fill="#1CB6F2"/>
<path d="M488.585 100.423C488.585 99.0117 489.714 97.9766 491.031 97.9766C492.349 97.9766 493.478 99.1058 493.478 100.423C493.478 101.835 492.349 102.87 491.031 102.87C489.714 102.87 488.585 101.741 488.585 100.423Z" fill="#1CB6F2"/>
<path d="M480.397 100.423C480.397 99.0117 481.527 97.9766 482.844 97.9766C484.256 97.9766 485.291 99.1058 485.291 100.423C485.291 101.835 484.162 102.87 482.844 102.87C481.527 102.87 480.397 101.741 480.397 100.423Z" fill="#1CB6F2"/>
<path d="M472.211 100.423C472.211 99.0117 473.34 97.9766 474.657 97.9766C475.975 97.9766 477.104 99.1058 477.104 100.423C477.104 101.835 475.975 102.87 474.657 102.87C473.34 102.87 472.211 101.741 472.211 100.423Z" fill="#1CB6F2"/>
<path d="M464.023 100.423C464.023 99.0117 465.152 97.9766 466.47 97.9766C467.882 97.9766 468.917 99.1058 468.917 100.423C468.917 101.835 467.787 102.87 466.47 102.87C465.058 102.87 464.023 101.741 464.023 100.423Z" fill="#1CB6F2"/>
<path d="M455.742 100.423C455.742 99.0117 456.871 97.9766 458.189 97.9766C459.506 97.9766 460.636 99.1058 460.636 100.423C460.636 101.835 459.506 102.87 458.189 102.87C456.871 102.87 455.742 101.741 455.742 100.423Z" fill="#1CB6F2"/>
<path d="M447.555 100.423C447.555 99.0117 448.684 97.9766 450.002 97.9766C451.413 97.9766 452.448 99.1058 452.448 100.423C452.448 101.835 451.319 102.87 450.002 102.87C448.684 102.87 447.555 101.741 447.555 100.423Z" fill="#1CB6F2"/>
<path d="M439.368 100.423C439.368 99.0117 440.497 97.9766 441.815 97.9766C443.226 97.9766 444.261 99.1058 444.261 100.423C444.261 101.835 443.132 102.87 441.815 102.87C440.497 102.87 439.368 101.741 439.368 100.423Z" fill="#1CB6F2"/>
<path d="M431.18 100.423C431.18 99.0117 432.31 97.9766 433.627 97.9766C435.039 97.9766 436.074 99.1058 436.074 100.423C436.074 101.835 434.945 102.87 433.627 102.87C432.216 102.87 431.18 101.741 431.18 100.423Z" fill="#1CB6F2"/>
<path d="M513.24 90.9185C513.24 89.507 514.37 88.4718 515.687 88.4718C517.005 88.4718 518.134 89.6011 518.134 90.9185C518.134 92.3301 517.005 93.3653 515.687 93.3653C514.37 93.3653 513.24 92.3301 513.24 90.9185Z" fill="#1CB6F2"/>
<path d="M505.053 90.9185C505.053 89.507 506.182 88.4718 507.5 88.4718C508.912 88.4718 509.947 89.6011 509.947 90.9185C509.947 92.3301 508.817 93.3653 507.5 93.3653C506.182 93.4594 505.053 92.3301 505.053 90.9185Z" fill="#1CB6F2"/>
<path d="M496.866 90.9185C496.866 89.507 497.995 88.4718 499.313 88.4718C500.63 88.4718 501.759 89.6011 501.759 90.9185C501.759 92.3301 500.63 93.3653 499.313 93.3653C497.995 93.3653 496.866 92.3301 496.866 90.9185Z" fill="#1CB6F2"/>
<path d="M488.585 90.9185C488.585 89.507 489.714 88.4718 491.031 88.4718C492.349 88.4718 493.478 89.6011 493.478 90.9185C493.478 92.3301 492.349 93.3653 491.031 93.3653C489.714 93.3653 488.585 92.3301 488.585 90.9185Z" fill="#1CB6F2"/>
<path d="M480.397 90.9185C480.397 89.507 481.527 88.4718 482.844 88.4718C484.256 88.4718 485.291 89.6011 485.291 90.9185C485.291 92.3301 484.162 93.3653 482.844 93.3653C481.527 93.4594 480.397 92.3301 480.397 90.9185Z" fill="#1CB6F2"/>
<path d="M472.211 90.9185C472.211 89.507 473.34 88.4718 474.657 88.4718C475.975 88.4718 477.104 89.6011 477.104 90.9185C477.104 92.3301 475.975 93.3653 474.657 93.3653C473.34 93.3653 472.211 92.3301 472.211 90.9185Z" fill="#1CB6F2"/>
<path d="M464.023 90.9185C464.023 89.507 465.152 88.4718 466.47 88.4718C467.882 88.4718 468.917 89.6011 468.917 90.9185C468.917 92.3301 467.787 93.3653 466.47 93.3653C465.058 93.4594 464.023 92.3301 464.023 90.9185Z" fill="#1CB6F2"/>
<path d="M455.742 90.9185C455.742 89.507 456.871 88.4718 458.189 88.4718C459.506 88.4718 460.636 89.6011 460.636 90.9185C460.636 92.3301 459.506 93.3653 458.189 93.3653C456.871 93.3653 455.742 92.3301 455.742 90.9185Z" fill="#1CB6F2"/>
<path d="M447.555 90.9185C447.555 89.507 448.684 88.4718 450.002 88.4718C451.413 88.4718 452.448 89.6011 452.448 90.9185C452.448 92.3301 451.319 93.3653 450.002 93.3653C448.684 93.4594 447.555 92.3301 447.555 90.9185Z" fill="#1CB6F2"/>
<path d="M439.368 90.9185C439.368 89.507 440.497 88.4718 441.815 88.4718C443.226 88.4718 444.261 89.6011 444.261 90.9185C444.261 92.3301 443.132 93.3653 441.815 93.3653C440.497 93.4594 439.368 92.3301 439.368 90.9185Z" fill="#1CB6F2"/>
<path d="M431.18 90.9185C431.18 89.507 432.31 88.4718 433.627 88.4718C435.039 88.4718 436.074 89.6011 436.074 90.9185C436.074 92.3301 434.945 93.3653 433.627 93.3653C432.216 93.4594 431.18 92.3301 431.18 90.9185Z" fill="#1CB6F2"/>
<path d="M513.24 81.508C513.24 80.0964 514.37 79.0613 515.687 79.0613C517.005 79.0613 518.134 80.1905 518.134 81.508C518.134 82.9196 517.005 83.9548 515.687 83.9548C514.37 83.9548 513.24 82.8255 513.24 81.508Z" fill="#1CB6F2"/>
<path d="M505.053 81.508C505.053 80.0964 506.182 79.0613 507.5 79.0613C508.912 79.0613 509.947 80.1905 509.947 81.508C509.947 82.9196 508.817 83.9548 507.5 83.9548C506.182 83.9548 505.053 82.8255 505.053 81.508Z" fill="#1CB6F2"/>
<path d="M496.866 81.508C496.866 80.0964 497.995 79.0613 499.313 79.0613C500.63 79.0613 501.759 80.1905 501.759 81.508C501.759 82.9196 500.63 83.9548 499.313 83.9548C497.995 83.9548 496.866 82.8255 496.866 81.508Z" fill="#1CB6F2"/>
<path d="M488.585 81.508C488.585 80.0964 489.714 79.0613 491.031 79.0613C492.349 79.0613 493.478 80.1905 493.478 81.508C493.478 82.9196 492.349 83.9548 491.031 83.9548C489.714 83.9548 488.585 82.8255 488.585 81.508Z" fill="#1CB6F2"/>
<path d="M480.397 81.508C480.397 80.0964 481.527 79.0613 482.844 79.0613C484.256 79.0613 485.291 80.1905 485.291 81.508C485.291 82.9196 484.162 83.9548 482.844 83.9548C481.527 83.9548 480.397 82.8255 480.397 81.508Z" fill="#1CB6F2"/>
<path d="M472.211 81.508C472.211 80.0964 473.34 79.0613 474.657 79.0613C475.975 79.0613 477.104 80.1905 477.104 81.508C477.104 82.9196 475.975 83.9548 474.657 83.9548C473.34 83.9548 472.211 82.8255 472.211 81.508Z" fill="#1CB6F2"/>
<path d="M464.023 81.508C464.023 80.0964 465.152 79.0613 466.47 79.0613C467.882 79.0613 468.917 80.1905 468.917 81.508C468.917 82.9196 467.787 83.9548 466.47 83.9548C465.058 83.9548 464.023 82.8255 464.023 81.508Z" fill="#1CB6F2"/>
<path d="M455.742 81.508C455.742 80.0964 456.871 79.0613 458.189 79.0613C459.506 79.0613 460.636 80.1905 460.636 81.508C460.636 82.9196 459.506 83.9548 458.189 83.9548C456.871 83.9548 455.742 82.8255 455.742 81.508Z" fill="#1CB6F2"/>
<path d="M447.555 81.508C447.555 80.0964 448.684 79.0613 450.002 79.0613C451.413 79.0613 452.448 80.1905 452.448 81.508C452.448 82.9196 451.319 83.9548 450.002 83.9548C448.684 83.9548 447.555 82.8255 447.555 81.508Z" fill="#1CB6F2"/>
<path d="M439.368 81.508C439.368 80.0964 440.497 79.0613 441.815 79.0613C443.226 79.0613 444.261 80.1905 444.261 81.508C444.261 82.9196 443.132 83.9548 441.815 83.9548C440.497 83.9548 439.368 82.8255 439.368 81.508Z" fill="#1CB6F2"/>
<path d="M431.18 81.508C431.18 80.0964 432.31 79.0613 433.627 79.0613C435.039 79.0613 436.074 80.1905 436.074 81.508C436.074 82.9196 434.945 83.9548 433.627 83.9548C432.216 83.9548 431.18 82.8255 431.18 81.508Z" fill="#1CB6F2"/>
<path d="M513.24 72.0036C513.24 70.592 514.37 69.5569 515.687 69.5569C517.005 69.5569 518.134 70.6861 518.134 72.0036C518.134 73.4152 517.005 74.4503 515.687 74.4503C514.37 74.4503 513.24 73.4152 513.24 72.0036Z" fill="#1CB6F2"/>
<path d="M505.053 72.0036C505.053 70.592 506.182 69.5569 507.5 69.5569C508.912 69.5569 509.947 70.6861 509.947 72.0036C509.947 73.4152 508.817 74.4503 507.5 74.4503C506.182 74.5444 505.053 73.4152 505.053 72.0036Z" fill="#1CB6F2"/>
<path d="M496.866 72.0036C496.866 70.592 497.995 69.5569 499.313 69.5569C500.63 69.5569 501.76 70.6861 501.76 72.0036C501.76 73.4152 500.63 74.4503 499.313 74.4503C497.995 74.4503 496.866 73.4152 496.866 72.0036Z" fill="#1CB6F2"/>
<path d="M488.585 72.0036C488.585 70.592 489.714 69.5569 491.031 69.5569C492.349 69.5569 493.478 70.6861 493.478 72.0036C493.478 73.4152 492.349 74.4503 491.031 74.4503C489.714 74.4503 488.585 73.4152 488.585 72.0036Z" fill="#1CB6F2"/>
<path d="M480.398 72.0036C480.398 70.592 481.527 69.5569 482.844 69.5569C484.256 69.5569 485.291 70.6861 485.291 72.0036C485.291 73.4152 484.162 74.4503 482.844 74.4503C481.527 74.5444 480.398 73.4152 480.398 72.0036Z" fill="#1CB6F2"/>
<path d="M472.211 72.0036C472.211 70.592 473.34 69.5569 474.657 69.5569C475.975 69.5569 477.104 70.6861 477.104 72.0036C477.104 73.4152 475.975 74.4503 474.657 74.4503C473.34 74.4503 472.211 73.4152 472.211 72.0036Z" fill="#1CB6F2"/>
<path d="M464.023 72.0036C464.023 70.592 465.153 69.5569 466.47 69.5569C467.882 69.5569 468.917 70.6861 468.917 72.0036C468.917 73.4152 467.788 74.4503 466.47 74.4503C465.059 74.5444 464.023 73.4152 464.023 72.0036Z" fill="#1CB6F2"/>
<path d="M455.742 72.0036C455.742 70.592 456.871 69.5569 458.189 69.5569C459.506 69.5569 460.636 70.6861 460.636 72.0036C460.636 73.4152 459.506 74.4503 458.189 74.4503C456.871 74.4503 455.742 73.4152 455.742 72.0036Z" fill="#1CB6F2"/>
<path d="M447.555 72.0036C447.555 70.592 448.684 69.5569 450.002 69.5569C451.413 69.5569 452.449 70.6861 452.449 72.0036C452.449 73.4152 451.319 74.4503 450.002 74.4503C448.684 74.5444 447.555 73.4152 447.555 72.0036Z" fill="#1CB6F2"/>
<path d="M439.367 72.0036C439.367 70.592 440.497 69.5569 441.814 69.5569C443.226 69.5569 444.261 70.6861 444.261 72.0036C444.261 73.4152 443.132 74.4503 441.814 74.4503C440.497 74.5444 439.367 73.4152 439.367 72.0036Z" fill="#1CB6F2"/>
<path d="M431.181 72.0036C431.181 70.592 432.31 69.5569 433.627 69.5569C435.039 69.5569 436.074 70.6861 436.074 72.0036C436.074 73.4152 434.945 74.4503 433.627 74.4503C432.216 74.5444 431.181 73.4152 431.181 72.0036Z" fill="#1CB6F2"/>
<path d="M513.24 62.5932C513.24 61.1816 514.37 60.1465 515.687 60.1465C517.005 60.1465 518.134 61.2757 518.134 62.5932C518.134 64.0048 517.005 65.0399 515.687 65.0399C514.37 65.0399 513.24 63.9107 513.24 62.5932Z" fill="#1CB6F2"/>
<path d="M505.053 62.5932C505.053 61.1816 506.182 60.1465 507.5 60.1465C508.912 60.1465 509.947 61.2757 509.947 62.5932C509.947 64.0048 508.817 65.0399 507.5 65.0399C506.182 65.0399 505.053 63.9107 505.053 62.5932Z" fill="#1CB6F2"/>
<path d="M496.866 62.5932C496.866 61.1816 497.995 60.1465 499.313 60.1465C500.63 60.1465 501.76 61.2757 501.76 62.5932C501.76 64.0048 500.63 65.0399 499.313 65.0399C497.995 65.0399 496.866 63.9107 496.866 62.5932Z" fill="#1CB6F2"/>
<path d="M488.585 62.5932C488.585 61.1816 489.714 60.1465 491.031 60.1465C492.349 60.1465 493.478 61.2757 493.478 62.5932C493.478 64.0048 492.349 65.0399 491.031 65.0399C489.714 65.0399 488.585 63.9107 488.585 62.5932Z" fill="#1CB6F2"/>
<path d="M480.398 62.5932C480.398 61.1816 481.527 60.1465 482.844 60.1465C484.256 60.1465 485.291 61.2757 485.291 62.5932C485.291 64.0048 484.162 65.0399 482.844 65.0399C481.527 65.0399 480.398 63.9107 480.398 62.5932Z" fill="#1CB6F2"/>
<path d="M472.211 62.5932C472.211 61.1816 473.34 60.1465 474.657 60.1465C475.975 60.1465 477.104 61.2757 477.104 62.5932C477.104 64.0048 475.975 65.0399 474.657 65.0399C473.34 65.0399 472.211 63.9107 472.211 62.5932Z" fill="#1CB6F2"/>
<path d="M464.023 62.5932C464.023 61.1816 465.153 60.1465 466.47 60.1465C467.882 60.1465 468.917 61.2757 468.917 62.5932C468.917 64.0048 467.788 65.0399 466.47 65.0399C465.059 65.0399 464.023 63.9107 464.023 62.5932Z" fill="#1CB6F2"/>
<path d="M455.742 62.5932C455.742 61.1816 456.871 60.1465 458.189 60.1465C459.506 60.1465 460.636 61.2757 460.636 62.5932C460.636 64.0048 459.506 65.0399 458.189 65.0399C456.871 65.0399 455.742 63.9107 455.742 62.5932Z" fill="#1CB6F2"/>
<path d="M447.555 62.5932C447.555 61.1816 448.684 60.1465 450.002 60.1465C451.413 60.1465 452.449 61.2757 452.449 62.5932C452.449 64.0048 451.319 65.0399 450.002 65.0399C448.684 65.0399 447.555 63.9107 447.555 62.5932Z" fill="#1CB6F2"/>
<path d="M439.367 62.5932C439.367 61.1816 440.497 60.1465 441.814 60.1465C443.226 60.1465 444.261 61.2757 444.261 62.5932C444.261 64.0048 443.132 65.0399 441.814 65.0399C440.497 65.0399 439.367 63.9107 439.367 62.5932Z" fill="#1CB6F2"/>
<path d="M431.181 62.5932C431.181 61.1816 432.31 60.1465 433.627 60.1465C435.039 60.1465 436.074 61.2757 436.074 62.5932C436.074 64.0048 434.945 65.0399 433.627 65.0399C432.216 65.0399 431.181 63.9107 431.181 62.5932Z" fill="#1CB6F2"/>
<path d="M513.24 53.0885C513.24 51.6769 514.37 50.6417 515.687 50.6417C517.005 50.6417 518.134 51.771 518.134 53.0885C518.134 54.5 517.005 55.5352 515.687 55.5352C514.37 55.5352 513.24 54.5 513.24 53.0885Z" fill="#1CB6F2"/>
<path d="M505.053 53.0885C505.053 51.6769 506.182 50.6417 507.5 50.6417C508.912 50.6417 509.947 51.771 509.947 53.0885C509.947 54.5 508.817 55.5352 507.5 55.5352C506.182 55.6293 505.053 54.5 505.053 53.0885Z" fill="#1CB6F2"/>
<path d="M496.866 53.0885C496.866 51.6769 497.995 50.6417 499.313 50.6417C500.63 50.6417 501.76 51.771 501.76 53.0885C501.76 54.5 500.63 55.5352 499.313 55.5352C497.995 55.5352 496.866 54.5 496.866 53.0885Z" fill="#1CB6F2"/>
<path d="M488.585 53.0885C488.585 51.6769 489.714 50.6417 491.031 50.6417C492.349 50.6417 493.478 51.771 493.478 53.0885C493.478 54.5 492.349 55.5352 491.031 55.5352C489.714 55.5352 488.585 54.5 488.585 53.0885Z" fill="#1CB6F2"/>
<path d="M480.398 53.0885C480.398 51.6769 481.527 50.6417 482.844 50.6417C484.256 50.6417 485.291 51.771 485.291 53.0885C485.291 54.5 484.162 55.5352 482.844 55.5352C481.527 55.6293 480.398 54.5 480.398 53.0885Z" fill="#1CB6F2"/>
<path d="M472.211 53.0885C472.211 51.6769 473.34 50.6417 474.657 50.6417C475.975 50.6417 477.104 51.771 477.104 53.0885C477.104 54.5 475.975 55.5352 474.657 55.5352C473.34 55.5352 472.211 54.5 472.211 53.0885Z" fill="#1CB6F2"/>
<path d="M464.023 53.0885C464.023 51.6769 465.153 50.6417 466.47 50.6417C467.882 50.6417 468.917 51.771 468.917 53.0885C468.917 54.5 467.788 55.5352 466.47 55.5352C465.059 55.6293 464.023 54.5 464.023 53.0885Z" fill="#1CB6F2"/>
<path d="M455.742 53.0885C455.742 51.6769 456.871 50.6417 458.189 50.6417C459.506 50.6417 460.636 51.771 460.636 53.0885C460.636 54.5 459.506 55.5352 458.189 55.5352C456.871 55.5352 455.742 54.5 455.742 53.0885Z" fill="#1CB6F2"/>
<path d="M447.555 53.0885C447.555 51.6769 448.684 50.6417 450.002 50.6417C451.413 50.6417 452.449 51.771 452.449 53.0885C452.449 54.5 451.319 55.5352 450.002 55.5352C448.684 55.6293 447.555 54.5 447.555 53.0885Z" fill="#1CB6F2"/>
<path d="M439.368 53.0885C439.368 51.6769 440.497 50.6417 441.815 50.6417C443.226 50.6417 444.262 51.771 444.262 53.0885C444.262 54.5 443.132 55.5352 441.815 55.5352C440.497 55.6293 439.368 54.5 439.368 53.0885Z" fill="#1CB6F2"/>
<path d="M431.181 53.0885C431.181 51.6769 432.31 50.6417 433.627 50.6417C435.039 50.6417 436.074 51.771 436.074 53.0885C436.074 54.5 434.945 55.5352 433.627 55.5352C432.216 55.6293 431.181 54.5 431.181 53.0885Z" fill="#1CB6F2"/>
<path d="M513.24 43.6781C513.24 42.2665 514.37 41.2313 515.687 41.2313C517.005 41.2313 518.134 42.3606 518.134 43.6781C518.134 45.0896 517.005 46.1248 515.687 46.1248C514.37 46.1248 513.24 44.9955 513.24 43.6781Z" fill="#1CB6F2"/>
<path d="M505.053 43.6781C505.053 42.2665 506.182 41.2313 507.5 41.2313C508.912 41.2313 509.947 42.3606 509.947 43.6781C509.947 45.0896 508.817 46.1248 507.5 46.1248C506.182 46.1248 505.053 44.9955 505.053 43.6781Z" fill="#1CB6F2"/>
<path d="M496.866 43.6781C496.866 42.2665 497.995 41.2313 499.313 41.2313C500.63 41.2313 501.76 42.3606 501.76 43.6781C501.76 45.0896 500.63 46.1248 499.313 46.1248C497.995 46.1248 496.866 44.9955 496.866 43.6781Z" fill="#1CB6F2"/>
<path d="M488.585 43.6781C488.585 42.2665 489.714 41.2313 491.031 41.2313C492.349 41.2313 493.478 42.3606 493.478 43.6781C493.478 45.0896 492.349 46.1248 491.031 46.1248C489.714 46.1248 488.585 44.9955 488.585 43.6781Z" fill="#1CB6F2"/>
<path d="M480.398 43.6781C480.398 42.2665 481.527 41.2313 482.844 41.2313C484.256 41.2313 485.291 42.3606 485.291 43.6781C485.291 45.0896 484.162 46.1248 482.844 46.1248C481.527 46.1248 480.398 44.9955 480.398 43.6781Z" fill="#1CB6F2"/>
<path d="M472.211 43.6781C472.211 42.2665 473.34 41.2313 474.657 41.2313C475.975 41.2313 477.104 42.3606 477.104 43.6781C477.104 45.0896 475.975 46.1248 474.657 46.1248C473.34 46.1248 472.211 44.9955 472.211 43.6781Z" fill="#1CB6F2"/>
<path d="M464.023 43.6781C464.023 42.2665 465.153 41.2313 466.47 41.2313C467.882 41.2313 468.917 42.3606 468.917 43.6781C468.917 45.0896 467.788 46.1248 466.47 46.1248C465.059 46.1248 464.023 44.9955 464.023 43.6781Z" fill="#1CB6F2"/>
<path d="M455.742 43.6781C455.742 42.2665 456.871 41.2313 458.189 41.2313C459.506 41.2313 460.636 42.3606 460.636 43.6781C460.636 45.0896 459.506 46.1248 458.189 46.1248C456.871 46.1248 455.742 44.9955 455.742 43.6781Z" fill="#1CB6F2"/>
<path d="M447.555 43.6781C447.555 42.2665 448.684 41.2313 450.002 41.2313C451.413 41.2313 452.449 42.3606 452.449 43.6781C452.449 45.0896 451.319 46.1248 450.002 46.1248C448.684 46.1248 447.555 44.9955 447.555 43.6781Z" fill="#1CB6F2"/>
<path d="M439.367 43.6781C439.367 42.2665 440.497 41.2313 441.814 41.2313C443.226 41.2313 444.261 42.3606 444.261 43.6781C444.261 45.0896 443.132 46.1248 441.814 46.1248C440.497 46.1248 439.367 44.9955 439.367 43.6781Z" fill="#1CB6F2"/>
<path d="M431.181 43.6781C431.181 42.2665 432.31 41.2313 433.627 41.2313C435.039 41.2313 436.074 42.3606 436.074 43.6781C436.074 45.0896 434.945 46.1248 433.627 46.1248C432.216 46.1248 431.181 44.9955 431.181 43.6781Z" fill="#1CB6F2"/>
<path d="M513.24 34.1733C513.24 32.7617 514.37 31.7266 515.687 31.7266C517.005 31.7266 518.134 32.8558 518.134 34.1733C518.134 35.5849 517.005 36.62 515.687 36.62C514.37 36.62 513.24 35.5849 513.24 34.1733Z" fill="#1CB6F2"/>
<path d="M505.053 34.1733C505.053 32.7617 506.182 31.7266 507.5 31.7266C508.912 31.7266 509.947 32.8558 509.947 34.1733C509.947 35.5849 508.817 36.62 507.5 36.62C506.182 36.7141 505.053 35.5849 505.053 34.1733Z" fill="#1CB6F2"/>
<path d="M496.866 34.1733C496.866 32.7617 497.995 31.7266 499.313 31.7266C500.63 31.7266 501.76 32.8558 501.76 34.1733C501.76 35.5849 500.63 36.62 499.313 36.62C497.995 36.62 496.866 35.5849 496.866 34.1733Z" fill="#1CB6F2"/>
<path d="M488.585 34.1733C488.585 32.7617 489.714 31.7266 491.031 31.7266C492.349 31.7266 493.478 32.8558 493.478 34.1733C493.478 35.5849 492.349 36.62 491.031 36.62C489.714 36.62 488.585 35.5849 488.585 34.1733Z" fill="#1CB6F2"/>
<path d="M480.398 34.1733C480.398 32.7617 481.527 31.7266 482.844 31.7266C484.256 31.7266 485.291 32.8558 485.291 34.1733C485.291 35.5849 484.162 36.62 482.844 36.62C481.527 36.7141 480.398 35.5849 480.398 34.1733Z" fill="#1CB6F2"/>
<path d="M472.211 34.1733C472.211 32.7617 473.34 31.7266 474.657 31.7266C475.975 31.7266 477.104 32.8558 477.104 34.1733C477.104 35.5849 475.975 36.62 474.657 36.62C473.34 36.62 472.211 35.5849 472.211 34.1733Z" fill="#1CB6F2"/>
<path d="M464.023 34.1733C464.023 32.7617 465.152 31.7266 466.47 31.7266C467.882 31.7266 468.917 32.8558 468.917 34.1733C468.917 35.5849 467.787 36.62 466.47 36.62C465.058 36.7141 464.023 35.5849 464.023 34.1733Z" fill="#1CB6F2"/>
<path d="M455.742 34.1733C455.742 32.7617 456.871 31.7266 458.189 31.7266C459.506 31.7266 460.636 32.8558 460.636 34.1733C460.636 35.5849 459.506 36.62 458.189 36.62C456.871 36.62 455.742 35.5849 455.742 34.1733Z" fill="#1CB6F2"/>
<path d="M447.555 34.1733C447.555 32.7617 448.684 31.7266 450.002 31.7266C451.413 31.7266 452.448 32.8558 452.448 34.1733C452.448 35.5849 451.319 36.62 450.002 36.62C448.684 36.7141 447.555 35.5849 447.555 34.1733Z" fill="#1CB6F2"/>
<path d="M439.367 34.1733C439.367 32.7617 440.497 31.7266 441.814 31.7266C443.226 31.7266 444.261 32.8558 444.261 34.1733C444.261 35.5849 443.132 36.62 441.814 36.62C440.497 36.7141 439.367 35.5849 439.367 34.1733Z" fill="#1CB6F2"/>
<path d="M431.181 34.1733C431.181 32.7617 432.31 31.7266 433.627 31.7266C435.039 31.7266 436.074 32.8558 436.074 34.1733C436.074 35.5849 434.945 36.62 433.627 36.62C432.216 36.7141 431.181 35.5849 431.181 34.1733Z" fill="#1CB6F2"/>
<path d="M513.24 24.7628C513.24 23.3512 514.369 22.316 515.687 22.316C517.004 22.316 518.134 23.4453 518.134 24.7628C518.134 26.1744 517.004 27.2095 515.687 27.2095C514.369 27.2095 513.24 26.0802 513.24 24.7628Z" fill="#1CB6F2"/>
<path d="M505.053 24.7628C505.053 23.3512 506.182 22.316 507.5 22.316C508.912 22.316 509.947 23.4453 509.947 24.7628C509.947 26.1744 508.817 27.2095 507.5 27.2095C506.182 27.2095 505.053 26.0802 505.053 24.7628Z" fill="#1CB6F2"/>
<path d="M496.866 24.7628C496.866 23.3512 497.995 22.316 499.313 22.316C500.63 22.316 501.759 23.4453 501.759 24.7628C501.759 26.1744 500.63 27.2095 499.313 27.2095C497.995 27.2095 496.866 26.0802 496.866 24.7628Z" fill="#1CB6F2"/>
<path d="M488.585 24.7628C488.585 23.3512 489.714 22.316 491.031 22.316C492.349 22.316 493.478 23.4453 493.478 24.7628C493.478 26.1744 492.349 27.2095 491.031 27.2095C489.714 27.2095 488.585 26.0802 488.585 24.7628Z" fill="#1CB6F2"/>
<path d="M480.397 24.7628C480.397 23.3512 481.527 22.316 482.844 22.316C484.256 22.316 485.291 23.4453 485.291 24.7628C485.291 26.1744 484.162 27.2095 482.844 27.2095C481.527 27.2095 480.397 26.0802 480.397 24.7628Z" fill="#1CB6F2"/>
<path d="M472.211 24.7628C472.211 23.3512 473.34 22.316 474.657 22.316C475.975 22.316 477.104 23.4453 477.104 24.7628C477.104 26.1744 475.975 27.2095 474.657 27.2095C473.34 27.2095 472.211 26.0802 472.211 24.7628Z" fill="#1CB6F2"/>
<path d="M464.023 24.7628C464.023 23.3512 465.152 22.316 466.47 22.316C467.882 22.316 468.917 23.4453 468.917 24.7628C468.917 26.1744 467.787 27.2095 466.47 27.2095C465.058 27.2095 464.023 26.0802 464.023 24.7628Z" fill="#1CB6F2"/>
<path d="M455.742 24.7628C455.742 23.3512 456.871 22.316 458.189 22.316C459.506 22.316 460.636 23.4453 460.636 24.7628C460.636 26.1744 459.506 27.2095 458.189 27.2095C456.871 27.2095 455.742 26.0802 455.742 24.7628Z" fill="#1CB6F2"/>
<path d="M447.555 24.7628C447.555 23.3512 448.684 22.316 450.002 22.316C451.413 22.316 452.448 23.4453 452.448 24.7628C452.448 26.1744 451.319 27.2095 450.002 27.2095C448.684 27.2095 447.555 26.0802 447.555 24.7628Z" fill="#1CB6F2"/>
<path d="M439.367 24.7628C439.367 23.3512 440.497 22.316 441.814 22.316C443.226 22.316 444.261 23.4453 444.261 24.7628C444.261 26.1744 443.132 27.2095 441.814 27.2095C440.497 27.2095 439.367 26.0802 439.367 24.7628Z" fill="#1CB6F2"/>
<path d="M431.18 24.7628C431.18 23.3512 432.31 22.316 433.627 22.316C435.039 22.316 436.074 23.4453 436.074 24.7628C436.074 26.1744 434.945 27.2095 433.627 27.2095C432.216 27.2095 431.18 26.0802 431.18 24.7628Z" fill="#1CB6F2"/>
<path d="M496.866 15.2583C496.866 13.8467 497.995 12.8115 499.313 12.8115C500.63 12.8115 501.759 13.9408 501.759 15.2583C501.759 16.6698 500.63 17.705 499.313 17.705C497.995 17.705 496.866 16.6698 496.866 15.2583Z" fill="#1CB6F2"/>
<path d="M488.585 15.2583C488.585 13.8467 489.714 12.8115 491.031 12.8115C492.349 12.8115 493.478 13.9408 493.478 15.2583C493.478 16.6698 492.349 17.705 491.031 17.705C489.714 17.705 488.585 16.6698 488.585 15.2583Z" fill="#1CB6F2"/>
<path d="M480.397 15.2583C480.397 13.8467 481.527 12.8115 482.844 12.8115C484.256 12.8115 485.291 13.9408 485.291 15.2583C485.291 16.6698 484.162 17.705 482.844 17.705C481.527 17.7991 480.397 16.6698 480.397 15.2583Z" fill="#1CB6F2"/>
<path d="M472.211 15.2583C472.211 13.8467 473.34 12.8115 474.657 12.8115C475.975 12.8115 477.104 13.9408 477.104 15.2583C477.104 16.6698 475.975 17.705 474.657 17.705C473.34 17.705 472.211 16.6698 472.211 15.2583Z" fill="#1CB6F2"/>
<path d="M464.023 15.2583C464.023 13.8467 465.152 12.8115 466.47 12.8115C467.882 12.8115 468.917 13.9408 468.917 15.2583C468.917 16.6698 467.787 17.705 466.47 17.705C465.058 17.7991 464.023 16.6698 464.023 15.2583Z" fill="#1CB6F2"/>
<path d="M455.742 15.2583C455.742 13.8467 456.871 12.8115 458.189 12.8115C459.506 12.8115 460.636 13.9408 460.636 15.2583C460.636 16.6698 459.506 17.705 458.189 17.705C456.871 17.705 455.742 16.6698 455.742 15.2583Z" fill="#1CB6F2"/>
<path d="M447.555 15.2583C447.555 13.8467 448.684 12.8115 450.002 12.8115C451.413 12.8115 452.448 13.9408 452.448 15.2583C452.448 16.6698 451.319 17.705 450.002 17.705C448.684 17.7991 447.555 16.6698 447.555 15.2583Z" fill="#1CB6F2"/>
</g>
<path d="M492.884 33C492.884 16.9837 505.868 4 521.884 4C537.9 4 550.884 16.9837 550.884 33H492.884Z" fill="#1369FA"/>
<path d="M40.6383 208.755L50.9641 195.919L60.1561 207.378L69.3481 195.919L78.54 207.378L87.732 195.919L96.924 207.378L106.076 195.959L115.268 207.419L124.46 195.959L133.652 207.419L142.844 195.959L153.129 208.755L150.902 210.577L142.844 200.494L133.652 211.954L124.46 200.494L115.268 211.954L106.076 200.494L96.8835 211.954L87.6916 200.494L78.4996 211.954L69.348 200.535L60.1156 211.954L50.9641 200.535L42.8654 210.577L40.6383 208.755Z" fill="#FF6161"/>
<g filter="url(#filter0_d)">
<rect x="161.884" y="43" width="340" height="133" rx="25" fill="white"/>
</g>
<path d="M280.37 90.413H285.683V89.006H278.669V100.913H279.908C282.722 100.913 284.633 100.829 286.88 100.346L286.733 98.918C284.675 99.359 282.89 99.464 280.37 99.485V90.413ZM292.34 86.717V94.277H289.673V87.137H288.056V104.609H289.673V95.684H292.34V105.554H293.999V86.717H292.34ZM304.035 95.789H298.827V89.741H304.035V95.789ZM310.041 91.442V94.067H305.715V91.442H310.041ZM305.715 95.474H310.041V100.472H311.784V86.738H310.041V90.035H305.715V88.376H297.126V97.154H305.715V95.474ZM301.389 103.727V99.254H299.667V105.134H312.225V103.727H301.389ZM332.715 90.791V93.038H327.801V94.382H332.715V96.335H334.458V86.717H332.715V89.447H328.452C328.578 88.859 328.641 88.271 328.641 87.641H320.22V89.048H326.772C326.457 92.03 323.832 94.277 319.233 95.348L319.863 96.755C324.021 95.768 326.898 93.752 328.074 90.791H332.715ZM324.063 104V101.816H334.458V97.196H322.32V98.582H332.736V100.514H322.362V105.365H335.088V104H324.063ZM342.73 90.329H346.09V88.922H337.501V90.329H341.071V92.03C341.071 95.495 339.601 98.918 336.976 100.493L338.026 101.774C339.895 100.598 341.26 98.393 341.911 95.81C342.562 98.204 343.864 100.22 345.691 101.312L346.741 100.052C344.137 98.582 342.73 95.306 342.73 92.03V90.329ZM347.77 93.479H344.662V94.886H347.77V104.567H349.408V87.137H347.77V93.479ZM351.55 86.696V105.533H353.209V86.696H351.55Z" fill="#161637"/>
<path opacity="0.3" d="M278.644 120.32V121.392H283.812C283.764 122.272 283.62 123.104 283.38 123.904L277.924 124.272L278.148 125.424L282.98 124.96C282.1 126.88 280.516 128.512 277.86 129.824L278.58 130.832C283.716 128.272 285.124 124.48 285.124 120.32H278.644ZM291.076 124.656H288.772V118.832H287.46V133.184H288.772V125.744H291.076V124.656ZM296.403 128.288H293.395V121.536H296.403V128.288ZM299.747 124.24H297.619V120.496H292.163V129.328H297.619V125.328H299.747V132.464H300.995V119.152H299.747V124.24ZM302.595 118.832V133.168H303.843V118.832H302.595ZM307.441 125.312H312.609V120.16H306.113V121.232H311.313V124.24H306.161V129.728H307.297C310.033 129.728 311.953 129.616 314.193 129.216L314.049 128.128C311.905 128.544 310.049 128.64 307.441 128.64V125.312ZM318.977 124.528H316.625V118.816H315.313V133.2H316.625V125.632H318.977V124.528ZM324.656 120.576L320.4 132H318.784L323.04 120.576H324.656ZM334.877 132H332.781L327.005 122.768H326.941C326.962 123.195 326.989 123.685 327.021 124.24C327.053 124.784 327.069 125.344 327.069 125.92V132H325.501V120.576H327.581L333.341 129.76H333.389C333.378 129.536 333.362 129.253 333.341 128.912C333.33 128.571 333.319 128.208 333.309 127.824C333.298 127.429 333.287 127.061 333.277 126.72V120.576H334.877V132ZM338.835 132H337.123V120.576H343.555V122.048H338.835V125.776H343.251V127.248H338.835V132ZM349.656 121.904C348.514 121.904 347.624 122.299 346.984 123.088C346.344 123.867 346.024 124.939 346.024 126.304C346.024 127.659 346.322 128.725 346.92 129.504C347.517 130.283 348.424 130.672 349.64 130.672C350.13 130.672 350.6 130.629 351.048 130.544C351.506 130.448 351.97 130.325 352.44 130.176V131.664C351.992 131.835 351.533 131.957 351.064 132.032C350.605 132.117 350.061 132.16 349.432 132.16C348.258 132.16 347.288 131.92 346.52 131.44C345.752 130.949 345.176 130.267 344.792 129.392C344.408 128.507 344.216 127.472 344.216 126.288C344.216 125.136 344.424 124.117 344.84 123.232C345.266 122.347 345.885 121.659 346.696 121.168C347.506 120.667 348.498 120.416 349.672 120.416C350.248 120.416 350.808 120.48 351.352 120.608C351.906 120.725 352.413 120.896 352.872 121.12L352.232 122.56C351.858 122.389 351.453 122.24 351.016 122.112C350.589 121.973 350.136 121.904 349.656 121.904ZM358.597 120.576L354.341 132H352.725L356.981 120.576H358.597ZM367.105 125.504C365.025 124.768 363.601 122.944 363.601 120.976V119.552H362.289V121.008C362.289 123.184 360.881 125.104 358.721 125.888L359.409 126.928C361.105 126.272 362.385 124.96 362.977 123.28C363.617 124.768 364.833 125.936 366.401 126.528L367.105 125.504ZM362.177 128.928H368.609V131.936H362.177V128.928ZM360.897 132.992H369.905V127.888H360.897V132.992ZM372.033 122.416H369.905V118.848H368.593V127.232H369.905V123.504H372.033V122.416ZM383.184 127.328H384.512V118.848H383.184V121.888H380.064V122.96H383.184V127.328ZM381.104 125.632C379.008 124.896 377.616 123.12 377.616 121.072V119.648H376.304V121.12C376.304 123.312 374.88 125.232 372.672 126.016L373.36 127.088C375.088 126.432 376.384 125.136 376.992 123.44C377.616 124.928 378.832 126.064 380.4 126.656L381.104 125.632ZM379.776 132.128C377.616 132.128 376.304 131.504 376.304 130.464C376.304 129.408 377.616 128.784 379.776 128.784C381.936 128.784 383.248 129.408 383.248 130.464C383.248 131.504 381.936 132.128 379.776 132.128ZM379.776 127.76C376.832 127.76 374.992 128.736 374.992 130.464C374.992 132.176 376.832 133.168 379.776 133.168C382.72 133.168 384.56 132.176 384.56 130.464C384.56 128.736 382.72 127.76 379.776 127.76ZM389.119 121.712H390.911V128.448C390.303 128.48 389.711 128.496 389.119 128.512V121.712ZM392.111 121.712H393.295V120.656H386.735V121.712H387.919V128.544C387.375 128.56 386.895 128.56 386.463 128.56L386.591 129.648C388.463 129.648 391.471 129.584 393.695 129.168L393.615 128.208C393.151 128.272 392.623 128.32 392.111 128.368V121.712ZM394.831 124.304H392.863V125.456H394.831V132.432H396.063V119.184H394.831V124.304ZM397.599 118.848V133.184H398.863V118.848H397.599ZM410.958 118.832V133.216H412.27V118.832H410.958ZM404.702 119.936C402.574 119.936 401.054 121.888 401.054 124.944C401.054 128 402.574 129.952 404.702 129.952C406.83 129.952 408.35 128 408.35 124.944C408.35 121.888 406.83 119.936 404.702 119.936ZM404.702 121.12C406.094 121.12 407.086 122.624 407.086 124.944C407.086 127.28 406.094 128.784 404.702 128.784C403.294 128.784 402.302 127.28 402.302 124.944C402.302 122.624 403.294 121.12 404.702 121.12ZM419.612 120.576L415.356 132H413.74L417.996 120.576H419.612ZM432.137 124.304C429.529 123.92 426.969 122.144 426.969 120.144V119.344H425.593V120.144C425.593 122.192 423.065 123.92 420.457 124.304L420.985 125.36C423.225 124.976 425.385 123.744 426.281 122C427.209 123.728 429.369 124.976 431.593 125.36L432.137 124.304ZM432.761 126.912H419.801V128H425.593V133.2H426.905V128H432.777L432.761 126.912ZM434.552 120.384V121.44H439.944C439.672 124.848 437.752 127.6 433.896 129.44L434.6 130.512C439.368 128.176 441.272 124.528 441.272 120.384H434.552ZM444.168 118.832V133.184H445.48V118.832H444.168ZM458.118 121.936V123.648H454.374V124.672H458.118V126.16H459.446V118.832H458.118V120.912H454.87C454.966 120.464 455.014 120.016 455.014 119.536H448.598V120.608H453.59C453.35 122.88 451.35 124.592 447.846 125.408L448.326 126.48C451.494 125.728 453.686 124.192 454.582 121.936H458.118ZM451.526 132V130.336H459.446V126.816H450.198V127.872H458.134V129.344H450.23V133.04H459.926V132H451.526ZM465.749 121.584H468.309V120.512H461.765V121.584H464.485V122.88C464.485 125.52 463.365 128.128 461.365 129.328L462.165 130.304C463.589 129.408 464.629 127.728 465.125 125.76C465.621 127.584 466.613 129.12 468.005 129.952L468.805 128.992C466.821 127.872 465.749 125.376 465.749 122.88V121.584ZM469.589 123.984H467.221V125.056H469.589V132.432H470.837V119.152H469.589V123.984ZM472.469 118.816V133.168H473.733V118.816H472.469Z" fill="#161637"/>
<path fill-rule="evenodd" clip-rule="evenodd" d="M208.623 87H234.052C236.117 87 237.792 88.8417 237.792 91.1135V107.567C237.792 109.839 236.117 111.681 234.052 111.681H208.623C206.558 111.681 204.884 109.839 204.884 107.567V91.1135C204.884 88.8417 206.558 87 208.623 87ZM207.884 99V108.5H234.884V99H207.884ZM207.884 95H234.884V90H207.884V95Z" fill="#161637"/>
<rect x="201.884" y="95" width="39" height="5" rx="2" fill="#1369FA"/>
<path d="M197.261 133.088V130.93H204.051C204.374 130.93 204.697 130.82 204.913 130.543C205.182 130.267 205.29 129.99 205.29 129.658C205.29 129.326 205.182 128.995 204.913 128.718C204.643 128.497 204.374 128.386 204.051 128.386H200.225C199.309 128.386 198.5 128.054 197.854 127.39C197.207 126.727 196.884 125.897 196.884 124.957C196.884 124.016 197.207 123.187 197.854 122.523C198.5 121.859 199.309 121.527 200.225 121.527H206.098V123.685H200.171C199.848 123.685 199.524 123.795 199.309 124.072C199.093 124.348 198.931 124.625 198.931 124.957C198.931 125.289 199.039 125.621 199.309 125.897C199.578 126.174 199.848 126.284 200.171 126.284H203.997C204.913 126.284 205.721 126.616 206.368 127.28C207.014 127.944 207.338 128.773 207.338 129.714C207.338 130.654 207.014 131.484 206.368 132.147C205.721 132.811 204.913 133.143 203.997 133.143H197.261V133.088Z" fill="#161637"/>
<path d="M215.152 130.986C215.785 130.986 216.366 130.82 217 130.543C217.633 130.267 218.108 129.879 218.425 129.382L220.115 130.599C219.64 131.373 218.9 131.981 218.003 132.424C217.105 132.866 216.155 133.143 215.205 133.143C213.673 133.143 212.354 132.59 211.298 131.428C210.242 130.322 209.661 128.939 209.661 127.335C209.661 125.731 210.189 124.348 211.298 123.242C212.354 122.136 213.673 121.527 215.205 121.527C216.155 121.527 217.052 121.804 217.897 122.302C218.689 122.8 219.376 123.463 219.851 124.293L218.161 125.51C217.475 124.293 216.472 123.74 215.205 123.74C214.254 123.74 213.409 124.072 212.723 124.791C212.037 125.51 211.72 126.34 211.72 127.39C211.72 128.441 212.037 129.271 212.723 129.935C213.357 130.654 214.201 130.986 215.152 130.986Z" fill="#161637"/>
<path d="M234.053 133.143H231.896V131.815C230.845 132.7 229.628 133.143 228.245 133.143C226.641 133.143 225.314 132.59 224.152 131.428C223.046 130.322 222.438 128.939 222.438 127.335C222.438 125.731 222.991 124.348 224.152 123.242C225.259 122.136 226.641 121.527 228.245 121.527C229.849 121.527 231.232 122.081 232.338 123.242C233.445 124.348 234.053 125.731 234.053 127.335V133.143ZM228.245 130.986C229.241 130.986 230.126 130.654 230.845 129.935C231.564 129.216 231.896 128.386 231.896 127.39C231.896 126.395 231.564 125.51 230.845 124.791C230.126 124.072 229.296 123.74 228.245 123.74C227.25 123.74 226.365 124.072 225.701 124.791C224.982 125.51 224.65 126.34 224.65 127.39C224.65 128.441 224.982 129.271 225.701 129.935C226.42 130.654 227.25 130.986 228.245 130.986Z" fill="#161637"/>
<path d="M235.215 133.143V127.363C235.215 125.751 235.768 124.362 236.929 123.25C238.035 122.139 239.418 121.527 241.022 121.527C242.626 121.527 244.009 122.083 245.115 123.25C246.222 124.362 246.83 125.751 246.83 127.363V133.143H244.673V127.363C244.673 126.363 244.341 125.473 243.622 124.751C242.903 124.028 242.073 123.695 241.078 123.695C240.082 123.695 239.197 124.028 238.533 124.751C237.814 125.473 237.482 126.307 237.482 127.363V133.143H235.215Z" fill="#161637"/>
<g filter="url(#filter1_d)">
<rect x="414.884" y="206" width="283" height="133" rx="25" fill="white"/>
</g>
<path d="M544.689 249.717V268.575H546.411V249.717H544.689ZM532.068 251.313V264.018H540.93V251.313H539.229V256.29H533.769V251.313H532.068ZM533.769 257.655H539.229V262.611H533.769V257.655ZM551.638 253.413H556.951V252.006H549.937V263.913H551.176C553.99 263.913 555.901 263.829 558.148 263.346L558.001 261.918C555.943 262.359 554.158 262.464 551.638 262.485V253.413ZM563.608 249.717V257.277H560.941V250.137H559.324V267.609H560.941V258.684H563.608V268.554H565.267V249.717H563.608ZM575.304 258.789H570.096V252.741H575.304V258.789ZM581.31 254.442V257.067H576.984V254.442H581.31ZM576.984 258.474H581.31V263.472H583.053V249.738H581.31V253.035H576.984V251.376H568.395V260.154H576.984V258.474ZM572.658 266.727V262.254H570.936V268.134H583.494V266.727H572.658ZM603.983 253.791V256.038H599.069V257.382H603.983V259.335H605.726V249.717H603.983V252.447H599.72C599.846 251.859 599.909 251.271 599.909 250.641H591.488V252.048H598.04C597.725 255.03 595.1 257.277 590.501 258.348L591.131 259.755C595.289 258.768 598.166 256.752 599.342 253.791H603.983ZM595.331 267V264.816H605.726V260.196H593.588V261.582H604.004V263.514H593.63V268.365H606.356V267H595.331ZM613.998 253.329H617.358V251.922H608.769V253.329H612.339V255.03C612.339 258.495 610.869 261.918 608.244 263.493L609.294 264.774C611.163 263.598 612.528 261.393 613.179 258.81C613.83 261.204 615.132 263.22 616.959 264.312L618.009 263.052C615.405 261.582 613.998 258.306 613.998 255.03V253.329ZM619.038 256.479H615.93V257.886H619.038V267.567H620.676V250.137H619.038V256.479ZM622.818 249.696V268.533H624.477V249.696H622.818Z" fill="#161637"/>
<path opacity="0.3" d="M538.252 290.312V291.288H541.164V292.76H542.476V281.832H541.164V290.312H538.252ZM535.324 283.384C536.684 283.384 537.612 283.992 537.612 284.904C537.612 285.832 536.684 286.44 535.324 286.44C533.964 286.44 533.036 285.832 533.036 284.904C533.036 283.992 533.964 283.384 535.324 283.384ZM535.324 287.416C537.42 287.416 538.86 286.44 538.86 284.904C538.86 283.4 537.42 282.408 535.324 282.408C533.228 282.408 531.788 283.4 531.788 284.904C531.788 286.44 533.228 287.416 535.324 287.416ZM534.812 292.248H536.124V289.416C537.42 289.336 538.748 289.192 540.012 289L539.9 288.056C536.86 288.44 533.308 288.472 530.652 288.472L530.828 289.56C532.012 289.56 533.388 289.544 534.812 289.48V292.248ZM534.012 294.792V291.688H532.7V295.864H542.844V294.792H534.012ZM546.875 292.088H555.147V296.152H556.475V291.032H546.875V292.088ZM555.147 281.832V284.392H551.979C552.107 283.88 552.171 283.336 552.171 282.792H545.611V283.864H550.763C550.507 286.312 548.331 288.216 544.859 289.16L545.387 290.216C548.459 289.352 550.683 287.72 551.643 285.464H555.147V287.432H551.435V288.504H555.147V290.392H556.475V281.832H555.147ZM563.737 283.576L559.481 295H557.865L562.121 283.576H563.737ZM576.262 287.304C573.654 286.92 571.094 285.144 571.094 283.144V282.344H569.718V283.144C569.718 285.192 567.19 286.92 564.582 287.304L565.11 288.36C567.35 287.976 569.51 286.744 570.406 285C571.334 286.728 573.494 287.976 575.718 288.36L576.262 287.304ZM576.886 289.912H563.926V291H569.718V296.2H571.03V291H576.902L576.886 289.912ZM578.677 283.384V284.44H584.069C583.797 287.848 581.877 290.6 578.021 292.44L578.725 293.512C583.493 291.176 585.397 287.528 585.397 283.384H578.677ZM588.293 281.832V296.184H589.605V281.832H588.293ZM602.243 284.936V286.648H598.499V287.672H602.243V289.16H603.571V281.832H602.243V283.912H598.995C599.091 283.464 599.139 283.016 599.139 282.536H592.723V283.608H597.715C597.475 285.88 595.475 287.592 591.971 288.408L592.451 289.48C595.619 288.728 597.811 287.192 598.707 284.936H602.243ZM595.651 295V293.336H603.571V289.816H594.323V290.872H602.259V292.344H594.355V296.04H604.051V295H595.651ZM609.874 284.584H612.434V283.512H605.89V284.584H608.61V285.88C608.61 288.52 607.49 291.128 605.49 292.328L606.29 293.304C607.714 292.408 608.754 290.728 609.25 288.76C609.746 290.584 610.738 292.12 612.13 292.952L612.93 291.992C610.946 290.872 609.874 288.376 609.874 285.88V284.584ZM613.714 286.984H611.346V288.056H613.714V295.432H614.962V282.152H613.714V286.984ZM616.594 281.816V296.168H617.858V281.816H616.594Z" fill="#161637"/>
<path d="M466.557 280.379L485.307 261.63L482.692 259.015L463.943 277.765V280.379H466.557ZM468.089 284.077H460.245V276.233L481.385 255.092C481.732 254.746 482.202 254.551 482.692 254.551C483.183 254.551 483.653 254.746 483.999 255.092L489.23 260.322C489.576 260.669 489.771 261.139 489.771 261.63C489.771 262.12 489.576 262.59 489.23 262.937L468.089 284.077ZM460.245 287.774H493.522V291.472H460.245V287.774Z" fill="#161637"/>
<rect x="459.981" y="287.774" width="33.8054" height="4.22568" fill="#12BFAC"/>
<g filter="url(#filter2_d)">
<rect x="45.8838" y="270" width="283" height="133" rx="25" fill="white"/>
</g>
<path d="M165.903 326.695H164.181V332.134H177.138V330.727H165.903V326.695ZM165.651 318.043C165.651 316.552 167.541 315.67 170.523 315.67C173.463 315.67 175.353 316.552 175.353 318.043C175.353 319.534 173.463 320.395 170.523 320.395C167.541 320.395 165.651 319.534 165.651 318.043ZM171.384 323.734V321.76C174.891 321.571 177.117 320.206 177.117 318.043C177.117 315.691 174.534 314.284 170.523 314.284C166.47 314.284 163.887 315.691 163.887 318.043C163.887 320.227 166.113 321.571 169.662 321.76V323.734H161.997V325.141H179.007V323.734H171.384ZM182.722 322.222H189.505V315.46H180.979V316.867H187.804V320.815H181.042V328.018H182.533C186.124 328.018 188.644 327.871 191.584 327.346L191.395 325.918C188.581 326.464 186.145 326.59 182.722 326.59V322.222ZM197.863 321.193H194.776V313.696H193.054V332.575H194.776V322.642H197.863V321.193ZM213.99 313.738H212.268V327.493H213.99V313.738ZM200.655 319.66C200.655 317.833 202.041 316.531 203.868 316.531C205.737 316.531 207.123 317.833 207.123 319.66C207.123 321.529 205.737 322.831 203.868 322.831C202.041 322.831 200.655 321.529 200.655 319.66ZM208.803 319.66C208.803 316.951 206.682 315.04 203.868 315.04C201.075 315.04 198.975 316.951 198.975 319.66C198.975 322.39 201.075 324.322 203.868 324.322C206.682 324.322 208.803 322.39 208.803 319.66ZM203.595 330.727V326.086H201.873V332.134H214.557V330.727H203.595ZM234.983 317.791V320.038H230.069V321.382H234.983V323.335H236.726V313.717H234.983V316.447H230.72C230.846 315.859 230.909 315.271 230.909 314.641H222.488V316.048H229.04C228.725 319.03 226.1 321.277 221.501 322.348L222.131 323.755C226.289 322.768 229.166 320.752 230.342 317.791H234.983ZM226.331 331V328.816H236.726V324.196H224.588V325.582H235.004V327.514H224.63V332.365H237.356V331H226.331ZM244.998 317.329H248.358V315.922H239.769V317.329H243.339V319.03C243.339 322.495 241.869 325.918 239.244 327.493L240.294 328.774C242.163 327.598 243.528 325.393 244.179 322.81C244.83 325.204 246.132 327.22 247.959 328.312L249.009 327.052C246.405 325.582 244.998 322.306 244.998 319.03V317.329ZM250.038 320.479H246.93V321.886H250.038V331.567H251.676V314.137H250.038V320.479ZM253.818 313.696V332.533H255.477V313.696H253.818Z" fill="#161637"/>
<path opacity="0.3" d="M173.508 345.832H172.196V354.664H173.508V345.832ZM170.452 352.264C168.18 352.632 166.308 352.712 163.764 352.712V350.696H168.964V346.728H162.436V347.8H167.668V349.688H162.484V353.784H163.636C166.292 353.784 168.244 353.704 170.596 353.32L170.452 352.264ZM168.756 359.128C166.58 359.128 165.268 358.552 165.268 357.56C165.268 356.584 166.58 356.008 168.756 356.008C170.964 356.008 172.276 356.584 172.276 357.56C172.276 358.552 170.964 359.128 168.756 359.128ZM168.756 354.968C165.78 354.968 163.956 355.912 163.956 357.56C163.956 359.224 165.78 360.168 168.756 360.168C171.748 360.168 173.588 359.224 173.588 357.56C173.588 355.912 171.748 354.968 168.756 354.968ZM176.835 351.656L177.027 352.744L185.683 352.264C185.603 353.368 185.443 354.552 185.123 355.928L186.419 356.056C187.043 353.112 187.043 351.176 187.043 349.048V347.288H177.203V348.36H185.763V349.048C185.763 349.784 185.763 350.52 185.731 351.272L176.835 351.656ZM175.667 357.112V358.184H188.643V357.112H175.667ZM194.737 347.576L190.481 359H188.865L193.121 347.576H194.737ZM206.382 350.232H197.854V347.464H206.286V346.408H196.542V351.288H206.382V350.232ZM201.39 359.144C199.134 359.144 197.806 358.584 197.806 357.576C197.806 356.568 199.134 356.008 201.39 356.008C203.646 356.008 204.974 356.568 204.974 357.576C204.974 358.584 203.63 359.144 201.39 359.144ZM201.39 354.984C198.334 354.984 196.478 355.912 196.478 357.576C196.478 359.24 198.334 360.168 201.39 360.168C204.446 360.168 206.302 359.24 206.302 357.576C206.302 355.912 204.446 354.984 201.39 354.984ZM194.91 352.664V353.752H207.902V352.664H194.91ZM210.269 356.968H218.941V360.056H220.253V355.896H210.269V356.968ZM215.997 353.72V352.216H220.477V351.192H211.789V349.688H220.173V346.2H210.461V347.224H218.877V348.712H210.493V352.216H214.669V353.72H208.813V354.792H221.837V353.72H215.997ZM227.915 347.576L223.659 359H222.043L226.299 347.576H227.915ZM235.752 349.56V350.632H238.584V354.392H239.912V345.848H238.584V349.56H235.752ZM236.552 352.824C234.472 352.088 233.064 350.28 233.064 348.44V347.944H236.216V346.888H228.552V347.944H231.752V348.44C231.752 350.504 230.28 352.44 228.136 353.224L228.824 354.264C230.504 353.624 231.832 352.28 232.44 350.616C233.064 352.088 234.296 353.272 235.896 353.848L236.552 352.824ZM235.176 359.16C233.016 359.16 231.704 358.552 231.704 357.512C231.704 356.472 233.016 355.848 235.176 355.848C237.336 355.848 238.648 356.472 238.648 357.512C238.648 358.552 237.336 359.16 235.176 359.16ZM235.176 354.84C232.232 354.84 230.392 355.816 230.392 357.512C230.392 359.208 232.232 360.184 235.176 360.184C238.12 360.184 239.96 359.208 239.96 357.512C239.96 355.816 238.12 354.84 235.176 354.84ZM242.855 347.384V348.44H248.247C247.975 351.848 246.055 354.6 242.199 356.44L242.903 357.512C247.671 355.176 249.575 351.528 249.575 347.384H242.855ZM252.471 345.832V360.184H253.783V345.832H252.471ZM266.422 348.936V350.648H262.678V351.672H266.422V353.16H267.75V345.832H266.422V347.912H263.174C263.27 347.464 263.318 347.016 263.318 346.536H256.902V347.608H261.894C261.654 349.88 259.654 351.592 256.15 352.408L256.63 353.48C259.798 352.728 261.99 351.192 262.886 348.936H266.422ZM259.83 359V357.336H267.75V353.816H258.502V354.872H266.438V356.344H258.534V360.04H268.23V359H259.83ZM274.052 348.584H276.612V347.512H270.068V348.584H272.788V349.88C272.788 352.52 271.668 355.128 269.668 356.328L270.468 357.304C271.892 356.408 272.932 354.728 273.428 352.76C273.924 354.584 274.916 356.12 276.308 356.952L277.108 355.992C275.124 354.872 274.052 352.376 274.052 349.88V348.584ZM277.892 350.984H275.524V352.056H277.892V359.432H279.14V346.152H277.892V350.984ZM280.772 345.816V360.168H282.036V345.816H280.772Z" fill="#161637"/>
<path d="M85.8838 325V358H106.884V325H85.8838ZM84.8124 322H107.955C108.467 322 108.957 322.205 109.319 322.571C109.681 322.937 109.884 323.433 109.884 323.95V359.05C109.884 359.567 109.681 360.063 109.319 360.429C108.957 360.795 108.467 361 107.955 361H84.8124C84.3009 361 83.8103 360.795 83.4487 360.429C83.087 360.063 82.8838 359.567 82.8838 359.05V323.95C82.8838 323.433 83.087 322.937 83.4487 322.571C83.8103 322.205 84.3009 322 84.8124 322ZM96.3838 351.25C96.8953 351.25 97.3858 351.455 97.7475 351.821C98.1092 352.187 98.3124 352.683 98.3124 353.2C98.3124 353.717 98.1092 354.213 97.7475 354.579C97.3858 354.945 96.8953 355.15 96.3838 355.15C95.8723 355.15 95.3818 354.945 95.0201 354.579C94.6584 354.213 94.4552 353.717 94.4552 353.2C94.4552 352.683 94.6584 352.187 95.0201 351.821C95.3818 351.455 95.8723 351.25 96.3838 351.25Z" fill="#161637"/>
<path d="M103.615 328.154V350.077L108.23 347.769L127.846 347.192V328.731L103.615 328.154Z" fill="#FF6161"/>
<path d="M108.052 349.154L101.884 354V328.385C101.884 328.017 102.03 327.665 102.289 327.406C102.549 327.146 102.901 327 103.268 327H128.191C128.559 327 128.911 327.146 129.171 327.406C129.43 327.665 129.576 328.017 129.576 328.385V347.769C129.576 348.136 129.43 348.489 129.171 348.748C128.911 349.008 128.559 349.154 128.191 349.154H108.052ZM107.094 346.385H126.807V329.769H104.653V348.302L107.094 346.385ZM114.345 336.692H117.115V339.462H114.345V336.692ZM108.807 336.692H111.576V339.462H108.807V336.692ZM119.884 336.692H122.653V339.462H119.884V336.692Z" fill="#161637"/>
<path d="M96.8838 314.837C98.2088 310.864 101.958 308 106.374 308C110.79 308 114.54 310.864 115.864 314.837L113.966 315.469C113.434 313.876 112.415 312.49 111.053 311.508C109.69 310.526 108.053 309.998 106.374 309.998C104.694 309.998 103.057 310.526 101.695 311.508C100.332 312.49 99.3131 313.876 98.7818 315.469L96.8838 314.837ZM100.68 316.102C101.079 314.907 101.843 313.869 102.865 313.132C103.887 312.396 105.114 312 106.374 312C107.633 312 108.861 312.396 109.883 313.132C110.904 313.869 111.669 314.907 112.068 316.102L110.17 316.735C109.904 315.939 109.394 315.246 108.713 314.755C108.032 314.265 107.213 314 106.374 314C105.534 314 104.716 314.265 104.035 314.755C103.353 315.246 102.844 315.939 102.578 316.735L100.68 316.102Z" fill="#FF6161"/>
<defs>
<filter id="filter0_d" x="116.884" y="3" width="440" height="233" filterUnits="userSpaceOnUse" color-interpolation-filters="sRGB">
<feFlood flood-opacity="0" result="BackgroundImageFix"/>
<feColorMatrix in="SourceAlpha" type="matrix" values="0 0 0 0 0 0 0 0 0 0 0 0 0 0 0 0 0 0 127 0"/>
<feOffset dx="5" dy="10"/>
<feGaussianBlur stdDeviation="25"/>
<feColorMatrix type="matrix" values="0 0 0 0 0.92549 0 0 0 0 0.945098 0 0 0 0 0.972549 0 0 0 1 0"/>
<feBlend mode="multiply" in2="BackgroundImageFix" result="effect1_dropShadow"/>
<feBlend mode="normal" in="SourceGraphic" in2="effect1_dropShadow" result="shape"/>
</filter>
<filter id="filter1_d" x="369.884" y="166" width="383" height="233" filterUnits="userSpaceOnUse" color-interpolation-filters="sRGB">
<feFlood flood-opacity="0" result="BackgroundImageFix"/>
<feColorMatrix in="SourceAlpha" type="matrix" values="0 0 0 0 0 0 0 0 0 0 0 0 0 0 0 0 0 0 127 0"/>
<feOffset dx="5" dy="10"/>
<feGaussianBlur stdDeviation="25"/>
<feColorMatrix type="matrix" values="0 0 0 0 0.92549 0 0 0 0 0.945098 0 0 0 0 0.972549 0 0 0 1 0"/>
<feBlend mode="multiply" in2="BackgroundImageFix" result="effect1_dropShadow"/>
<feBlend mode="normal" in="SourceGraphic" in2="effect1_dropShadow" result="shape"/>
</filter>
<filter id="filter2_d" x="0.883789" y="230" width="383" height="233" filterUnits="userSpaceOnUse" color-interpolation-filters="sRGB">
<feFlood flood-opacity="0" result="BackgroundImageFix"/>
<feColorMatrix in="SourceAlpha" type="matrix" values="0 0 0 0 0 0 0 0 0 0 0 0 0 0 0 0 0 0 127 0"/>
<feOffset dx="5" dy="10"/>
<feGaussianBlur stdDeviation="25"/>
<feColorMatrix type="matrix" values="0 0 0 0 0.926337 0 0 0 0 0.944135 0 0 0 0 0.970833 0 0 0 1 0"/>
<feBlend mode="multiply" in2="BackgroundImageFix" result="effect1_dropShadow"/>
<feBlend mode="normal" in="SourceGraphic" in2="effect1_dropShadow" result="shape"/>
</filter>
</defs>
</svg>
