<svg width="512" height="395" viewBox="0 0 512 395" fill="none" xmlns="http://www.w3.org/2000/svg">
<path d="M379.943 315.554L392.945 322.171L400.259 318.456C399.098 317.76 397.821 317.179 396.544 316.599L392.829 318.456L382.381 313.116C381.568 313.116 380.639 313 379.827 313C379.014 313 378.085 313 377.273 313.116L366.824 318.456L363.225 316.599C361.948 317.179 360.788 317.76 359.51 318.456L366.824 322.171L379.943 315.554Z" fill="#12BFAC"/>
<path d="M366.94 330.646L379.943 324.029L392.945 330.646L405.948 324.029L409.663 325.886C408.037 324.145 406.18 322.52 404.322 321.127L392.945 326.931L379.943 320.314L366.94 326.931L355.563 321.127C353.59 322.52 351.848 324.145 350.223 325.886L353.938 324.029L366.94 330.646Z" fill="#12BFAC"/>
<path d="M366.94 339.005L379.943 332.387L392.945 339.005L405.948 332.387L417.789 338.424C417.093 336.683 416.28 335.058 415.351 333.432L405.948 328.672L392.945 335.29L379.943 328.672L366.94 335.29L353.938 328.672L344.534 333.432C343.606 335.058 342.793 336.683 342.096 338.424L353.938 332.387L366.94 339.005Z" fill="#12BFAC"/>
<path d="M353.822 340.862L366.824 347.479L379.827 340.862L392.829 347.479L405.832 340.862L418.834 347.479L420.111 346.899C419.879 345.738 419.647 344.693 419.415 343.532L418.95 343.765L405.948 337.147L392.945 343.765L379.943 337.147L366.94 343.765L353.938 337.147L340.936 343.765L340.471 343.532C340.239 344.577 339.891 345.738 339.775 346.899L341.052 347.479L353.822 340.862Z" fill="#12BFAC"/>
<path d="M420.808 351.311L419.066 352.24L406.064 345.622L393.061 352.24L380.059 345.622L367.056 352.24L354.054 345.622L340.819 352.24L339.078 351.311C339.078 352.24 338.962 353.052 338.962 353.981C338.962 354.329 338.962 354.677 338.962 355.026L340.819 355.955L353.822 349.337L366.824 355.955L379.827 349.337L392.829 355.955L405.832 349.337L418.834 355.955L420.691 355.026C420.691 354.677 420.691 354.329 420.691 353.981C420.924 353.052 420.924 352.24 420.808 351.311Z" fill="#12BFAC"/>
<path d="M406.064 353.981L393.062 360.599L380.059 353.981L367.057 360.599L354.054 353.981L341.052 360.599L339.659 359.902C339.891 361.295 340.123 362.688 340.472 364.081L341.052 364.43L354.054 357.812L367.057 364.43L380.059 357.812L393.062 364.43L406.064 357.812L419.067 364.43L419.647 364.081C419.995 362.688 420.228 361.295 420.46 359.902L419.067 360.599L406.064 353.981Z" fill="#12BFAC"/>
<path d="M392.945 369.073L379.943 362.456L366.941 369.073L353.938 362.456L341.748 368.609C342.097 369.653 342.561 370.698 343.025 371.627L353.938 366.055L366.941 372.672L379.943 366.055L392.945 372.672L405.948 366.055L416.861 371.627C417.325 370.582 417.789 369.653 418.138 368.609L405.948 362.456L392.945 369.073Z" fill="#12BFAC"/>
<path d="M392.946 377.548L379.943 370.93L366.941 377.548L353.938 370.93L345.115 375.458C345.696 376.387 346.276 377.316 346.973 378.244L353.938 374.645L366.941 381.263L379.943 374.645L392.946 381.263L405.948 374.645L412.914 378.244C413.61 377.316 414.191 376.387 414.771 375.458L405.948 370.93L392.946 377.548Z" fill="#12BFAC"/>
<path d="M392.945 386.022L379.943 379.405L366.94 386.022L353.938 379.405L349.643 381.611C350.455 382.424 351.268 383.352 352.081 384.049L353.822 383.12L366.824 389.737L379.827 383.12L392.829 389.737L405.832 383.12L407.689 384.049C408.502 383.236 409.314 382.424 410.127 381.611L405.832 379.405L392.945 386.022Z" fill="#12BFAC"/>
<path d="M368.914 393.453C370.539 393.917 372.281 394.265 374.138 394.497L380.059 391.479L385.979 394.497C387.721 394.265 389.462 393.917 391.204 393.453L380.175 387.764L368.914 393.453Z" fill="#12BFAC"/>
<mask id="mask0" mask-type="alpha" maskUnits="userSpaceOnUse" x="391" y="10" width="89" height="88">
<circle cx="435.477" cy="54" r="44" fill="#C4C4C4"/>
</mask>
<g mask="url(#mask0)">
<path d="M474.24 96.4233C474.24 95.0117 475.37 93.9766 476.687 93.9766C478.005 93.9766 479.134 95.1058 479.134 96.4233C479.134 97.8349 478.005 98.87 476.687 98.87C475.37 98.87 474.24 97.7408 474.24 96.4233Z" fill="#1CB6F2"/>
<path d="M466.053 96.4233C466.053 95.0117 467.182 93.9766 468.5 93.9766C469.912 93.9766 470.947 95.1058 470.947 96.4233C470.947 97.8349 469.817 98.87 468.5 98.87C467.182 98.87 466.053 97.7408 466.053 96.4233Z" fill="#1CB6F2"/>
<path d="M457.866 96.4233C457.866 95.0117 458.995 93.9766 460.313 93.9766C461.63 93.9766 462.759 95.1058 462.759 96.4233C462.759 97.8349 461.63 98.87 460.313 98.87C458.995 98.87 457.866 97.7408 457.866 96.4233Z" fill="#1CB6F2"/>
<path d="M449.585 96.4233C449.585 95.0117 450.714 93.9766 452.031 93.9766C453.349 93.9766 454.478 95.1058 454.478 96.4233C454.478 97.8349 453.349 98.87 452.031 98.87C450.714 98.87 449.585 97.7408 449.585 96.4233Z" fill="#1CB6F2"/>
<path d="M441.397 96.4233C441.397 95.0117 442.527 93.9766 443.844 93.9766C445.256 93.9766 446.291 95.1058 446.291 96.4233C446.291 97.8349 445.162 98.87 443.844 98.87C442.527 98.87 441.397 97.7408 441.397 96.4233Z" fill="#1CB6F2"/>
<path d="M433.211 96.4233C433.211 95.0117 434.34 93.9766 435.657 93.9766C436.975 93.9766 438.104 95.1058 438.104 96.4233C438.104 97.8349 436.975 98.87 435.657 98.87C434.34 98.87 433.211 97.7408 433.211 96.4233Z" fill="#1CB6F2"/>
<path d="M425.023 96.4233C425.023 95.0117 426.152 93.9766 427.47 93.9766C428.882 93.9766 429.917 95.1058 429.917 96.4233C429.917 97.8349 428.787 98.87 427.47 98.87C426.058 98.87 425.023 97.7408 425.023 96.4233Z" fill="#1CB6F2"/>
<path d="M416.742 96.4233C416.742 95.0117 417.871 93.9766 419.189 93.9766C420.506 93.9766 421.636 95.1058 421.636 96.4233C421.636 97.8349 420.506 98.87 419.189 98.87C417.871 98.87 416.742 97.7408 416.742 96.4233Z" fill="#1CB6F2"/>
<path d="M408.555 96.4233C408.555 95.0117 409.684 93.9766 411.002 93.9766C412.413 93.9766 413.448 95.1058 413.448 96.4233C413.448 97.8349 412.319 98.87 411.002 98.87C409.684 98.87 408.555 97.7408 408.555 96.4233Z" fill="#1CB6F2"/>
<path d="M400.368 96.4233C400.368 95.0117 401.497 93.9766 402.815 93.9766C404.226 93.9766 405.261 95.1058 405.261 96.4233C405.261 97.8349 404.132 98.87 402.815 98.87C401.497 98.87 400.368 97.7408 400.368 96.4233Z" fill="#1CB6F2"/>
<path d="M392.18 96.4233C392.18 95.0117 393.31 93.9766 394.627 93.9766C396.039 93.9766 397.074 95.1058 397.074 96.4233C397.074 97.8349 395.945 98.87 394.627 98.87C393.216 98.87 392.18 97.7408 392.18 96.4233Z" fill="#1CB6F2"/>
<path d="M474.24 86.9185C474.24 85.507 475.37 84.4718 476.687 84.4718C478.005 84.4718 479.134 85.6011 479.134 86.9185C479.134 88.3301 478.005 89.3653 476.687 89.3653C475.37 89.3653 474.24 88.3301 474.24 86.9185Z" fill="#1CB6F2"/>
<path d="M466.053 86.9185C466.053 85.507 467.182 84.4718 468.5 84.4718C469.912 84.4718 470.947 85.6011 470.947 86.9185C470.947 88.3301 469.817 89.3653 468.5 89.3653C467.182 89.4594 466.053 88.3301 466.053 86.9185Z" fill="#1CB6F2"/>
<path d="M457.866 86.9185C457.866 85.507 458.995 84.4718 460.313 84.4718C461.63 84.4718 462.759 85.6011 462.759 86.9185C462.759 88.3301 461.63 89.3653 460.313 89.3653C458.995 89.3653 457.866 88.3301 457.866 86.9185Z" fill="#1CB6F2"/>
<path d="M449.585 86.9185C449.585 85.507 450.714 84.4718 452.031 84.4718C453.349 84.4718 454.478 85.6011 454.478 86.9185C454.478 88.3301 453.349 89.3653 452.031 89.3653C450.714 89.3653 449.585 88.3301 449.585 86.9185Z" fill="#1CB6F2"/>
<path d="M441.397 86.9185C441.397 85.507 442.527 84.4718 443.844 84.4718C445.256 84.4718 446.291 85.6011 446.291 86.9185C446.291 88.3301 445.162 89.3653 443.844 89.3653C442.527 89.4594 441.397 88.3301 441.397 86.9185Z" fill="#1CB6F2"/>
<path d="M433.211 86.9185C433.211 85.507 434.34 84.4718 435.657 84.4718C436.975 84.4718 438.104 85.6011 438.104 86.9185C438.104 88.3301 436.975 89.3653 435.657 89.3653C434.34 89.3653 433.211 88.3301 433.211 86.9185Z" fill="#1CB6F2"/>
<path d="M425.023 86.9185C425.023 85.507 426.152 84.4718 427.47 84.4718C428.882 84.4718 429.917 85.6011 429.917 86.9185C429.917 88.3301 428.787 89.3653 427.47 89.3653C426.058 89.4594 425.023 88.3301 425.023 86.9185Z" fill="#1CB6F2"/>
<path d="M416.742 86.9185C416.742 85.507 417.871 84.4718 419.189 84.4718C420.506 84.4718 421.636 85.6011 421.636 86.9185C421.636 88.3301 420.506 89.3653 419.189 89.3653C417.871 89.3653 416.742 88.3301 416.742 86.9185Z" fill="#1CB6F2"/>
<path d="M408.555 86.9185C408.555 85.507 409.684 84.4718 411.002 84.4718C412.413 84.4718 413.448 85.6011 413.448 86.9185C413.448 88.3301 412.319 89.3653 411.002 89.3653C409.684 89.4594 408.555 88.3301 408.555 86.9185Z" fill="#1CB6F2"/>
<path d="M400.368 86.9185C400.368 85.507 401.497 84.4718 402.815 84.4718C404.226 84.4718 405.261 85.6011 405.261 86.9185C405.261 88.3301 404.132 89.3653 402.815 89.3653C401.497 89.4594 400.368 88.3301 400.368 86.9185Z" fill="#1CB6F2"/>
<path d="M392.18 86.9185C392.18 85.507 393.31 84.4718 394.627 84.4718C396.039 84.4718 397.074 85.6011 397.074 86.9185C397.074 88.3301 395.945 89.3653 394.627 89.3653C393.216 89.4594 392.18 88.3301 392.18 86.9185Z" fill="#1CB6F2"/>
<path d="M474.24 77.508C474.24 76.0964 475.37 75.0613 476.687 75.0613C478.005 75.0613 479.134 76.1905 479.134 77.508C479.134 78.9196 478.005 79.9548 476.687 79.9548C475.37 79.9548 474.24 78.8255 474.24 77.508Z" fill="#1CB6F2"/>
<path d="M466.053 77.508C466.053 76.0964 467.182 75.0613 468.5 75.0613C469.912 75.0613 470.947 76.1905 470.947 77.508C470.947 78.9196 469.817 79.9548 468.5 79.9548C467.182 79.9548 466.053 78.8255 466.053 77.508Z" fill="#1CB6F2"/>
<path d="M457.866 77.508C457.866 76.0964 458.995 75.0613 460.313 75.0613C461.63 75.0613 462.759 76.1905 462.759 77.508C462.759 78.9196 461.63 79.9548 460.313 79.9548C458.995 79.9548 457.866 78.8255 457.866 77.508Z" fill="#1CB6F2"/>
<path d="M449.585 77.508C449.585 76.0964 450.714 75.0613 452.031 75.0613C453.349 75.0613 454.478 76.1905 454.478 77.508C454.478 78.9196 453.349 79.9548 452.031 79.9548C450.714 79.9548 449.585 78.8255 449.585 77.508Z" fill="#1CB6F2"/>
<path d="M441.397 77.508C441.397 76.0964 442.527 75.0613 443.844 75.0613C445.256 75.0613 446.291 76.1905 446.291 77.508C446.291 78.9196 445.162 79.9548 443.844 79.9548C442.527 79.9548 441.397 78.8255 441.397 77.508Z" fill="#1CB6F2"/>
<path d="M433.211 77.508C433.211 76.0964 434.34 75.0613 435.657 75.0613C436.975 75.0613 438.104 76.1905 438.104 77.508C438.104 78.9196 436.975 79.9548 435.657 79.9548C434.34 79.9548 433.211 78.8255 433.211 77.508Z" fill="#1CB6F2"/>
<path d="M425.023 77.508C425.023 76.0964 426.152 75.0613 427.47 75.0613C428.882 75.0613 429.917 76.1905 429.917 77.508C429.917 78.9196 428.787 79.9548 427.47 79.9548C426.058 79.9548 425.023 78.8255 425.023 77.508Z" fill="#1CB6F2"/>
<path d="M416.742 77.508C416.742 76.0964 417.871 75.0613 419.189 75.0613C420.506 75.0613 421.636 76.1905 421.636 77.508C421.636 78.9196 420.506 79.9548 419.189 79.9548C417.871 79.9548 416.742 78.8255 416.742 77.508Z" fill="#1CB6F2"/>
<path d="M408.555 77.508C408.555 76.0964 409.684 75.0613 411.002 75.0613C412.413 75.0613 413.448 76.1905 413.448 77.508C413.448 78.9196 412.319 79.9548 411.002 79.9548C409.684 79.9548 408.555 78.8255 408.555 77.508Z" fill="#1CB6F2"/>
<path d="M400.368 77.508C400.368 76.0964 401.497 75.0613 402.815 75.0613C404.226 75.0613 405.261 76.1905 405.261 77.508C405.261 78.9196 404.132 79.9548 402.815 79.9548C401.497 79.9548 400.368 78.8255 400.368 77.508Z" fill="#1CB6F2"/>
<path d="M392.18 77.508C392.18 76.0964 393.31 75.0613 394.627 75.0613C396.039 75.0613 397.074 76.1905 397.074 77.508C397.074 78.9196 395.945 79.9548 394.627 79.9548C393.216 79.9548 392.18 78.8255 392.18 77.508Z" fill="#1CB6F2"/>
<path d="M474.24 68.0036C474.24 66.592 475.37 65.5569 476.687 65.5569C478.005 65.5569 479.134 66.6861 479.134 68.0036C479.134 69.4152 478.005 70.4503 476.687 70.4503C475.37 70.4503 474.24 69.4152 474.24 68.0036Z" fill="#1CB6F2"/>
<path d="M466.053 68.0036C466.053 66.592 467.182 65.5569 468.5 65.5569C469.912 65.5569 470.947 66.6861 470.947 68.0036C470.947 69.4152 469.817 70.4503 468.5 70.4503C467.182 70.5444 466.053 69.4152 466.053 68.0036Z" fill="#1CB6F2"/>
<path d="M457.866 68.0036C457.866 66.592 458.995 65.5569 460.313 65.5569C461.63 65.5569 462.76 66.6861 462.76 68.0036C462.76 69.4152 461.63 70.4503 460.313 70.4503C458.995 70.4503 457.866 69.4152 457.866 68.0036Z" fill="#1CB6F2"/>
<path d="M449.585 68.0036C449.585 66.592 450.714 65.5569 452.031 65.5569C453.349 65.5569 454.478 66.6861 454.478 68.0036C454.478 69.4152 453.349 70.4503 452.031 70.4503C450.714 70.4503 449.585 69.4152 449.585 68.0036Z" fill="#1CB6F2"/>
<path d="M441.398 68.0036C441.398 66.592 442.527 65.5569 443.844 65.5569C445.256 65.5569 446.291 66.6861 446.291 68.0036C446.291 69.4152 445.162 70.4503 443.844 70.4503C442.527 70.5444 441.398 69.4152 441.398 68.0036Z" fill="#1CB6F2"/>
<path d="M433.211 68.0036C433.211 66.592 434.34 65.5569 435.657 65.5569C436.975 65.5569 438.104 66.6861 438.104 68.0036C438.104 69.4152 436.975 70.4503 435.657 70.4503C434.34 70.4503 433.211 69.4152 433.211 68.0036Z" fill="#1CB6F2"/>
<path d="M425.023 68.0036C425.023 66.592 426.153 65.5569 427.47 65.5569C428.882 65.5569 429.917 66.6861 429.917 68.0036C429.917 69.4152 428.788 70.4503 427.47 70.4503C426.059 70.5444 425.023 69.4152 425.023 68.0036Z" fill="#1CB6F2"/>
<path d="M416.742 68.0036C416.742 66.592 417.871 65.5569 419.189 65.5569C420.506 65.5569 421.636 66.6861 421.636 68.0036C421.636 69.4152 420.506 70.4503 419.189 70.4503C417.871 70.4503 416.742 69.4152 416.742 68.0036Z" fill="#1CB6F2"/>
<path d="M408.555 68.0036C408.555 66.592 409.684 65.5569 411.002 65.5569C412.413 65.5569 413.449 66.6861 413.449 68.0036C413.449 69.4152 412.319 70.4503 411.002 70.4503C409.684 70.5444 408.555 69.4152 408.555 68.0036Z" fill="#1CB6F2"/>
<path d="M400.367 68.0036C400.367 66.592 401.497 65.5569 402.814 65.5569C404.226 65.5569 405.261 66.6861 405.261 68.0036C405.261 69.4152 404.132 70.4503 402.814 70.4503C401.497 70.5444 400.367 69.4152 400.367 68.0036Z" fill="#1CB6F2"/>
<path d="M392.181 68.0036C392.181 66.592 393.31 65.5569 394.627 65.5569C396.039 65.5569 397.074 66.6861 397.074 68.0036C397.074 69.4152 395.945 70.4503 394.627 70.4503C393.216 70.5444 392.181 69.4152 392.181 68.0036Z" fill="#1CB6F2"/>
<path d="M474.24 58.5932C474.24 57.1816 475.37 56.1465 476.687 56.1465C478.005 56.1465 479.134 57.2757 479.134 58.5932C479.134 60.0048 478.005 61.0399 476.687 61.0399C475.37 61.0399 474.24 59.9107 474.24 58.5932Z" fill="#1CB6F2"/>
<path d="M466.053 58.5932C466.053 57.1816 467.182 56.1465 468.5 56.1465C469.912 56.1465 470.947 57.2757 470.947 58.5932C470.947 60.0048 469.817 61.0399 468.5 61.0399C467.182 61.0399 466.053 59.9107 466.053 58.5932Z" fill="#1CB6F2"/>
<path d="M457.866 58.5932C457.866 57.1816 458.995 56.1465 460.313 56.1465C461.63 56.1465 462.76 57.2757 462.76 58.5932C462.76 60.0048 461.63 61.0399 460.313 61.0399C458.995 61.0399 457.866 59.9107 457.866 58.5932Z" fill="#1CB6F2"/>
<path d="M449.585 58.5932C449.585 57.1816 450.714 56.1465 452.031 56.1465C453.349 56.1465 454.478 57.2757 454.478 58.5932C454.478 60.0048 453.349 61.0399 452.031 61.0399C450.714 61.0399 449.585 59.9107 449.585 58.5932Z" fill="#1CB6F2"/>
<path d="M441.398 58.5932C441.398 57.1816 442.527 56.1465 443.844 56.1465C445.256 56.1465 446.291 57.2757 446.291 58.5932C446.291 60.0048 445.162 61.0399 443.844 61.0399C442.527 61.0399 441.398 59.9107 441.398 58.5932Z" fill="#1CB6F2"/>
<path d="M433.211 58.5932C433.211 57.1816 434.34 56.1465 435.657 56.1465C436.975 56.1465 438.104 57.2757 438.104 58.5932C438.104 60.0048 436.975 61.0399 435.657 61.0399C434.34 61.0399 433.211 59.9107 433.211 58.5932Z" fill="#1CB6F2"/>
<path d="M425.023 58.5932C425.023 57.1816 426.153 56.1465 427.47 56.1465C428.882 56.1465 429.917 57.2757 429.917 58.5932C429.917 60.0048 428.788 61.0399 427.47 61.0399C426.059 61.0399 425.023 59.9107 425.023 58.5932Z" fill="#1CB6F2"/>
<path d="M416.742 58.5932C416.742 57.1816 417.871 56.1465 419.189 56.1465C420.506 56.1465 421.636 57.2757 421.636 58.5932C421.636 60.0048 420.506 61.0399 419.189 61.0399C417.871 61.0399 416.742 59.9107 416.742 58.5932Z" fill="#1CB6F2"/>
<path d="M408.555 58.5932C408.555 57.1816 409.684 56.1465 411.002 56.1465C412.413 56.1465 413.449 57.2757 413.449 58.5932C413.449 60.0048 412.319 61.0399 411.002 61.0399C409.684 61.0399 408.555 59.9107 408.555 58.5932Z" fill="#1CB6F2"/>
<path d="M400.367 58.5932C400.367 57.1816 401.497 56.1465 402.814 56.1465C404.226 56.1465 405.261 57.2757 405.261 58.5932C405.261 60.0048 404.132 61.0399 402.814 61.0399C401.497 61.0399 400.367 59.9107 400.367 58.5932Z" fill="#1CB6F2"/>
<path d="M392.181 58.5932C392.181 57.1816 393.31 56.1465 394.627 56.1465C396.039 56.1465 397.074 57.2757 397.074 58.5932C397.074 60.0048 395.945 61.0399 394.627 61.0399C393.216 61.0399 392.181 59.9107 392.181 58.5932Z" fill="#1CB6F2"/>
<path d="M474.24 49.0885C474.24 47.6769 475.37 46.6417 476.687 46.6417C478.005 46.6417 479.134 47.771 479.134 49.0885C479.134 50.5 478.005 51.5352 476.687 51.5352C475.37 51.5352 474.24 50.5 474.24 49.0885Z" fill="#1CB6F2"/>
<path d="M466.053 49.0885C466.053 47.6769 467.182 46.6417 468.5 46.6417C469.912 46.6417 470.947 47.771 470.947 49.0885C470.947 50.5 469.817 51.5352 468.5 51.5352C467.182 51.6293 466.053 50.5 466.053 49.0885Z" fill="#1CB6F2"/>
<path d="M457.866 49.0885C457.866 47.6769 458.995 46.6417 460.313 46.6417C461.63 46.6417 462.76 47.771 462.76 49.0885C462.76 50.5 461.63 51.5352 460.313 51.5352C458.995 51.5352 457.866 50.5 457.866 49.0885Z" fill="#1CB6F2"/>
<path d="M449.585 49.0885C449.585 47.6769 450.714 46.6417 452.031 46.6417C453.349 46.6417 454.478 47.771 454.478 49.0885C454.478 50.5 453.349 51.5352 452.031 51.5352C450.714 51.5352 449.585 50.5 449.585 49.0885Z" fill="#1CB6F2"/>
<path d="M441.398 49.0885C441.398 47.6769 442.527 46.6417 443.844 46.6417C445.256 46.6417 446.291 47.771 446.291 49.0885C446.291 50.5 445.162 51.5352 443.844 51.5352C442.527 51.6293 441.398 50.5 441.398 49.0885Z" fill="#1CB6F2"/>
<path d="M433.211 49.0885C433.211 47.6769 434.34 46.6417 435.657 46.6417C436.975 46.6417 438.104 47.771 438.104 49.0885C438.104 50.5 436.975 51.5352 435.657 51.5352C434.34 51.5352 433.211 50.5 433.211 49.0885Z" fill="#1CB6F2"/>
<path d="M425.023 49.0885C425.023 47.6769 426.153 46.6417 427.47 46.6417C428.882 46.6417 429.917 47.771 429.917 49.0885C429.917 50.5 428.788 51.5352 427.47 51.5352C426.059 51.6293 425.023 50.5 425.023 49.0885Z" fill="#1CB6F2"/>
<path d="M416.742 49.0885C416.742 47.6769 417.871 46.6417 419.189 46.6417C420.506 46.6417 421.636 47.771 421.636 49.0885C421.636 50.5 420.506 51.5352 419.189 51.5352C417.871 51.5352 416.742 50.5 416.742 49.0885Z" fill="#1CB6F2"/>
<path d="M408.555 49.0885C408.555 47.6769 409.684 46.6417 411.002 46.6417C412.413 46.6417 413.449 47.771 413.449 49.0885C413.449 50.5 412.319 51.5352 411.002 51.5352C409.684 51.6293 408.555 50.5 408.555 49.0885Z" fill="#1CB6F2"/>
<path d="M400.368 49.0885C400.368 47.6769 401.497 46.6417 402.815 46.6417C404.226 46.6417 405.262 47.771 405.262 49.0885C405.262 50.5 404.132 51.5352 402.815 51.5352C401.497 51.6293 400.368 50.5 400.368 49.0885Z" fill="#1CB6F2"/>
<path d="M392.181 49.0885C392.181 47.6769 393.31 46.6417 394.627 46.6417C396.039 46.6417 397.074 47.771 397.074 49.0885C397.074 50.5 395.945 51.5352 394.627 51.5352C393.216 51.6293 392.181 50.5 392.181 49.0885Z" fill="#1CB6F2"/>
<path d="M474.24 39.6781C474.24 38.2665 475.37 37.2313 476.687 37.2313C478.005 37.2313 479.134 38.3606 479.134 39.6781C479.134 41.0896 478.005 42.1248 476.687 42.1248C475.37 42.1248 474.24 40.9955 474.24 39.6781Z" fill="#1CB6F2"/>
<path d="M466.053 39.6781C466.053 38.2665 467.182 37.2313 468.5 37.2313C469.912 37.2313 470.947 38.3606 470.947 39.6781C470.947 41.0896 469.817 42.1248 468.5 42.1248C467.182 42.1248 466.053 40.9955 466.053 39.6781Z" fill="#1CB6F2"/>
<path d="M457.866 39.6781C457.866 38.2665 458.995 37.2313 460.313 37.2313C461.63 37.2313 462.76 38.3606 462.76 39.6781C462.76 41.0896 461.63 42.1248 460.313 42.1248C458.995 42.1248 457.866 40.9955 457.866 39.6781Z" fill="#1CB6F2"/>
<path d="M449.585 39.6781C449.585 38.2665 450.714 37.2313 452.031 37.2313C453.349 37.2313 454.478 38.3606 454.478 39.6781C454.478 41.0896 453.349 42.1248 452.031 42.1248C450.714 42.1248 449.585 40.9955 449.585 39.6781Z" fill="#1CB6F2"/>
<path d="M441.398 39.6781C441.398 38.2665 442.527 37.2313 443.844 37.2313C445.256 37.2313 446.291 38.3606 446.291 39.6781C446.291 41.0896 445.162 42.1248 443.844 42.1248C442.527 42.1248 441.398 40.9955 441.398 39.6781Z" fill="#1CB6F2"/>
<path d="M433.211 39.6781C433.211 38.2665 434.34 37.2313 435.657 37.2313C436.975 37.2313 438.104 38.3606 438.104 39.6781C438.104 41.0896 436.975 42.1248 435.657 42.1248C434.34 42.1248 433.211 40.9955 433.211 39.6781Z" fill="#1CB6F2"/>
<path d="M425.023 39.6781C425.023 38.2665 426.153 37.2313 427.47 37.2313C428.882 37.2313 429.917 38.3606 429.917 39.6781C429.917 41.0896 428.788 42.1248 427.47 42.1248C426.059 42.1248 425.023 40.9955 425.023 39.6781Z" fill="#1CB6F2"/>
<path d="M416.742 39.6781C416.742 38.2665 417.871 37.2313 419.189 37.2313C420.506 37.2313 421.636 38.3606 421.636 39.6781C421.636 41.0896 420.506 42.1248 419.189 42.1248C417.871 42.1248 416.742 40.9955 416.742 39.6781Z" fill="#1CB6F2"/>
<path d="M408.555 39.6781C408.555 38.2665 409.684 37.2313 411.002 37.2313C412.413 37.2313 413.449 38.3606 413.449 39.6781C413.449 41.0896 412.319 42.1248 411.002 42.1248C409.684 42.1248 408.555 40.9955 408.555 39.6781Z" fill="#1CB6F2"/>
<path d="M400.367 39.6781C400.367 38.2665 401.497 37.2313 402.814 37.2313C404.226 37.2313 405.261 38.3606 405.261 39.6781C405.261 41.0896 404.132 42.1248 402.814 42.1248C401.497 42.1248 400.367 40.9955 400.367 39.6781Z" fill="#1CB6F2"/>
<path d="M392.181 39.6781C392.181 38.2665 393.31 37.2313 394.627 37.2313C396.039 37.2313 397.074 38.3606 397.074 39.6781C397.074 41.0896 395.945 42.1248 394.627 42.1248C393.216 42.1248 392.181 40.9955 392.181 39.6781Z" fill="#1CB6F2"/>
<path d="M474.24 30.1733C474.24 28.7617 475.37 27.7266 476.687 27.7266C478.005 27.7266 479.134 28.8558 479.134 30.1733C479.134 31.5849 478.005 32.62 476.687 32.62C475.37 32.62 474.24 31.5849 474.24 30.1733Z" fill="#1CB6F2"/>
<path d="M466.053 30.1733C466.053 28.7617 467.182 27.7266 468.5 27.7266C469.912 27.7266 470.947 28.8558 470.947 30.1733C470.947 31.5849 469.817 32.62 468.5 32.62C467.182 32.7141 466.053 31.5849 466.053 30.1733Z" fill="#1CB6F2"/>
<path d="M457.866 30.1733C457.866 28.7617 458.995 27.7266 460.313 27.7266C461.63 27.7266 462.76 28.8558 462.76 30.1733C462.76 31.5849 461.63 32.62 460.313 32.62C458.995 32.62 457.866 31.5849 457.866 30.1733Z" fill="#1CB6F2"/>
<path d="M449.585 30.1733C449.585 28.7617 450.714 27.7266 452.031 27.7266C453.349 27.7266 454.478 28.8558 454.478 30.1733C454.478 31.5849 453.349 32.62 452.031 32.62C450.714 32.62 449.585 31.5849 449.585 30.1733Z" fill="#1CB6F2"/>
<path d="M441.398 30.1733C441.398 28.7617 442.527 27.7266 443.844 27.7266C445.256 27.7266 446.291 28.8558 446.291 30.1733C446.291 31.5849 445.162 32.62 443.844 32.62C442.527 32.7141 441.398 31.5849 441.398 30.1733Z" fill="#1CB6F2"/>
<path d="M433.211 30.1733C433.211 28.7617 434.34 27.7266 435.657 27.7266C436.975 27.7266 438.104 28.8558 438.104 30.1733C438.104 31.5849 436.975 32.62 435.657 32.62C434.34 32.62 433.211 31.5849 433.211 30.1733Z" fill="#1CB6F2"/>
<path d="M425.023 30.1733C425.023 28.7617 426.152 27.7266 427.47 27.7266C428.882 27.7266 429.917 28.8558 429.917 30.1733C429.917 31.5849 428.787 32.62 427.47 32.62C426.058 32.7141 425.023 31.5849 425.023 30.1733Z" fill="#1CB6F2"/>
<path d="M416.742 30.1733C416.742 28.7617 417.871 27.7266 419.189 27.7266C420.506 27.7266 421.636 28.8558 421.636 30.1733C421.636 31.5849 420.506 32.62 419.189 32.62C417.871 32.62 416.742 31.5849 416.742 30.1733Z" fill="#1CB6F2"/>
<path d="M408.555 30.1733C408.555 28.7617 409.684 27.7266 411.002 27.7266C412.413 27.7266 413.448 28.8558 413.448 30.1733C413.448 31.5849 412.319 32.62 411.002 32.62C409.684 32.7141 408.555 31.5849 408.555 30.1733Z" fill="#1CB6F2"/>
<path d="M400.367 30.1733C400.367 28.7617 401.497 27.7266 402.814 27.7266C404.226 27.7266 405.261 28.8558 405.261 30.1733C405.261 31.5849 404.132 32.62 402.814 32.62C401.497 32.7141 400.367 31.5849 400.367 30.1733Z" fill="#1CB6F2"/>
<path d="M392.181 30.1733C392.181 28.7617 393.31 27.7266 394.627 27.7266C396.039 27.7266 397.074 28.8558 397.074 30.1733C397.074 31.5849 395.945 32.62 394.627 32.62C393.216 32.7141 392.181 31.5849 392.181 30.1733Z" fill="#1CB6F2"/>
<path d="M474.24 20.7628C474.24 19.3512 475.369 18.316 476.687 18.316C478.004 18.316 479.134 19.4453 479.134 20.7628C479.134 22.1744 478.004 23.2095 476.687 23.2095C475.369 23.2095 474.24 22.0802 474.24 20.7628Z" fill="#1CB6F2"/>
<path d="M466.053 20.7628C466.053 19.3512 467.182 18.316 468.5 18.316C469.912 18.316 470.947 19.4453 470.947 20.7628C470.947 22.1744 469.817 23.2095 468.5 23.2095C467.182 23.2095 466.053 22.0802 466.053 20.7628Z" fill="#1CB6F2"/>
<path d="M457.866 20.7628C457.866 19.3512 458.995 18.316 460.313 18.316C461.63 18.316 462.759 19.4453 462.759 20.7628C462.759 22.1744 461.63 23.2095 460.313 23.2095C458.995 23.2095 457.866 22.0802 457.866 20.7628Z" fill="#1CB6F2"/>
<path d="M449.585 20.7628C449.585 19.3512 450.714 18.316 452.031 18.316C453.349 18.316 454.478 19.4453 454.478 20.7628C454.478 22.1744 453.349 23.2095 452.031 23.2095C450.714 23.2095 449.585 22.0802 449.585 20.7628Z" fill="#1CB6F2"/>
<path d="M441.397 20.7628C441.397 19.3512 442.527 18.316 443.844 18.316C445.256 18.316 446.291 19.4453 446.291 20.7628C446.291 22.1744 445.162 23.2095 443.844 23.2095C442.527 23.2095 441.397 22.0802 441.397 20.7628Z" fill="#1CB6F2"/>
<path d="M433.211 20.7628C433.211 19.3512 434.34 18.316 435.657 18.316C436.975 18.316 438.104 19.4453 438.104 20.7628C438.104 22.1744 436.975 23.2095 435.657 23.2095C434.34 23.2095 433.211 22.0802 433.211 20.7628Z" fill="#1CB6F2"/>
<path d="M425.023 20.7628C425.023 19.3512 426.152 18.316 427.47 18.316C428.882 18.316 429.917 19.4453 429.917 20.7628C429.917 22.1744 428.787 23.2095 427.47 23.2095C426.058 23.2095 425.023 22.0802 425.023 20.7628Z" fill="#1CB6F2"/>
<path d="M416.742 20.7628C416.742 19.3512 417.871 18.316 419.189 18.316C420.506 18.316 421.636 19.4453 421.636 20.7628C421.636 22.1744 420.506 23.2095 419.189 23.2095C417.871 23.2095 416.742 22.0802 416.742 20.7628Z" fill="#1CB6F2"/>
<path d="M408.555 20.7628C408.555 19.3512 409.684 18.316 411.002 18.316C412.413 18.316 413.448 19.4453 413.448 20.7628C413.448 22.1744 412.319 23.2095 411.002 23.2095C409.684 23.2095 408.555 22.0802 408.555 20.7628Z" fill="#1CB6F2"/>
<path d="M400.367 20.7628C400.367 19.3512 401.497 18.316 402.814 18.316C404.226 18.316 405.261 19.4453 405.261 20.7628C405.261 22.1744 404.132 23.2095 402.814 23.2095C401.497 23.2095 400.367 22.0802 400.367 20.7628Z" fill="#1CB6F2"/>
<path d="M392.18 20.7628C392.18 19.3512 393.31 18.316 394.627 18.316C396.039 18.316 397.074 19.4453 397.074 20.7628C397.074 22.1744 395.945 23.2095 394.627 23.2095C393.216 23.2095 392.18 22.0802 392.18 20.7628Z" fill="#1CB6F2"/>
<path d="M457.866 11.2583C457.866 9.84669 458.995 8.81152 460.313 8.81152C461.63 8.81152 462.759 9.94079 462.759 11.2583C462.759 12.6698 461.63 13.705 460.313 13.705C458.995 13.705 457.866 12.6698 457.866 11.2583Z" fill="#1CB6F2"/>
<path d="M449.585 11.2583C449.585 9.84669 450.714 8.81152 452.031 8.81152C453.349 8.81152 454.478 9.94079 454.478 11.2583C454.478 12.6698 453.349 13.705 452.031 13.705C450.714 13.705 449.585 12.6698 449.585 11.2583Z" fill="#1CB6F2"/>
<path d="M441.397 11.2583C441.397 9.84668 442.527 8.81152 443.844 8.81152C445.256 8.81152 446.291 9.94079 446.291 11.2583C446.291 12.6698 445.162 13.705 443.844 13.705C442.527 13.7991 441.397 12.6698 441.397 11.2583Z" fill="#1CB6F2"/>
<path d="M433.211 11.2583C433.211 9.84669 434.34 8.81152 435.657 8.81152C436.975 8.81152 438.104 9.94079 438.104 11.2583C438.104 12.6698 436.975 13.705 435.657 13.705C434.34 13.705 433.211 12.6698 433.211 11.2583Z" fill="#1CB6F2"/>
<path d="M425.023 11.2583C425.023 9.84668 426.152 8.81152 427.47 8.81152C428.882 8.81152 429.917 9.94079 429.917 11.2583C429.917 12.6698 428.787 13.705 427.47 13.705C426.058 13.7991 425.023 12.6698 425.023 11.2583Z" fill="#1CB6F2"/>
<path d="M416.742 11.2583C416.742 9.84669 417.871 8.81152 419.189 8.81152C420.506 8.81152 421.636 9.94079 421.636 11.2583C421.636 12.6698 420.506 13.705 419.189 13.705C417.871 13.705 416.742 12.6698 416.742 11.2583Z" fill="#1CB6F2"/>
<path d="M408.555 11.2583C408.555 9.84668 409.684 8.81152 411.002 8.81152C412.413 8.81152 413.448 9.94079 413.448 11.2583C413.448 12.6698 412.319 13.705 411.002 13.705C409.684 13.7991 408.555 12.6698 408.555 11.2583Z" fill="#1CB6F2"/>
</g>
<path d="M453.884 29C453.884 12.9837 466.868 0 482.884 0C498.9 0 511.884 12.9837 511.884 29H453.884Z" fill="#1369FA"/>
<path d="M1.63825 204.755L11.9641 191.919L21.1561 203.378L30.3481 191.919L39.54 203.378L48.732 191.919L57.924 203.378L67.0755 191.959L76.2675 203.419L85.4595 191.959L94.6515 203.419L103.844 191.959L114.129 204.755L111.902 206.577L103.844 196.494L94.6515 207.954L85.4595 196.494L76.2675 207.954L67.0755 196.494L57.8835 207.954L48.6916 196.494L39.4996 207.954L30.348 196.535L21.1156 207.954L11.9641 196.535L3.86539 206.577L1.63825 204.755Z" fill="#FF6161"/>
</svg>
