<svg width="361" height="93" viewBox="0 0 361 93" fill="none" xmlns="http://www.w3.org/2000/svg">
<path d="M343.54 25.8735C342.074 23.0657 338.332 21.7621 335.449 20.7593C332.516 19.7063 329.33 19.2049 326.195 19.0545C320.127 18.7036 313.856 20.0573 308.445 22.815C300.152 26.9264 292.212 35.4 289.785 44.7259C288.773 44.7259 287.762 44.8262 286.751 44.9766C279.924 46.0296 273.451 50.3416 270.164 56.4084C268.293 59.8681 267.332 63.8291 267.382 67.7901C267.382 68.9935 267.534 70.5478 267.837 72.1021C267.483 72.5534 267.129 72.9545 266.877 73.4057C264.298 77.4169 263.944 85.1384 268.596 87.896C269.203 88.247 269.81 87.6454 269.708 87.0437C269.304 84.3863 268.04 82.0297 268.343 79.2219C268.444 78.4197 268.647 77.6175 268.95 76.8654C269.759 78.3194 271.124 79.4726 272.793 80.2748C275.777 81.779 278.659 83.3334 282.048 82.13C285.132 80.9768 286.902 77.9684 286.447 74.7595C285.992 71.8013 283.615 69.3444 280.935 68.0408C278.356 66.8375 275.524 67.1383 272.945 68.2915C273.046 65.8848 273.602 63.4781 274.664 61.3723C277.092 56.4084 281.694 52.8485 287.003 51.5449C287.408 51.4446 287.812 51.3945 288.217 51.2942C287.408 56.7093 289.431 62.5756 295.449 63.9294C302.68 65.584 308.192 58.414 304.652 51.946C302.731 48.3861 299.292 46.2803 295.449 45.3276C296.713 42.9711 297.977 40.6646 299.595 38.5086C302.528 34.5476 306.372 31.1883 310.771 28.932C315.171 26.6757 320.127 25.7231 325.082 26.0239C327.56 26.1743 330.038 26.7259 332.365 27.5782C334.792 28.4808 337.017 30.5365 339.596 30.8874C342.58 31.3387 345.058 28.7314 343.54 25.8735ZM273.602 72.3027C274.917 71.8514 276.485 71.7511 277.8 72.4029C278.609 72.8041 280.126 74.0575 279.772 75.1606C279.468 76.0631 277.8 76.0631 276.94 76.0631C275.827 76.0631 274.31 75.7122 273.501 74.8096C273.451 74.0575 273.35 73.2553 273.248 72.4531C273.4 72.3528 273.501 72.3528 273.602 72.3027ZM299.848 56.8597C299.545 59.8681 295.904 59.5171 294.285 57.9628C292.364 56.1578 292.06 53.6508 292.515 51.2441C293.223 51.3444 293.982 51.4948 294.69 51.6953C296.662 52.3973 300.101 54.3026 299.848 56.8597Z" fill="#FF6161"/>
<path fill-rule="evenodd" clip-rule="evenodd" d="M358.679 60.8209C359.349 62.0201 360.071 63.2193 360.794 64.4185C361.464 65.6177 360.123 66.869 359.091 66.2955C358.55 66.0087 357.995 65.7089 357.441 65.4091C356.886 65.1093 356.332 64.8095 355.79 64.5228C355.223 65.2006 354.668 65.8654 354.113 66.5302C353.559 67.195 353.004 67.8597 352.437 68.5375C351.766 69.3196 350.528 68.6939 350.528 67.7554C350.528 65.7741 350.735 63.845 350.993 61.9158L350.993 61.9158C349.445 61.0816 347.898 60.2474 346.35 59.361C345.009 58.5789 345.938 56.2848 347.433 56.8062C347.537 56.8323 347.64 56.8714 347.743 56.9105C347.846 56.9496 347.949 56.9887 348.052 57.0148C349.342 56.9105 350.632 56.8583 351.921 56.8062C352.024 56.311 352.128 55.8288 352.231 55.3466C352.334 54.8642 352.437 54.3818 352.54 53.8864C352.747 52.8436 354.294 52.6351 354.758 53.5736C355.274 54.6164 355.79 55.607 356.357 56.5976C357.492 56.5455 358.627 56.4934 359.659 56.7541C359.968 56.8062 360.278 57.119 360.329 57.4319C360.577 58.6826 359.637 59.7413 358.786 60.7002C358.75 60.7406 358.714 60.7808 358.679 60.8209ZM316.071 73.0214C321.539 68.7982 329.018 65.1485 336.034 65.0963C340.006 65.0963 340.831 71.1444 336.911 72.0829C335.974 72.3196 335.042 72.5325 334.113 72.7445C331.973 73.2332 329.851 73.7178 327.729 74.4813C324.943 75.5241 322.312 77.0362 319.785 78.6525C314.472 82.1458 310.5 86.6297 306.579 91.5308C305.599 92.7821 303.691 91.4265 304.052 90.0188C305.806 83.2407 310.654 77.2447 316.071 73.0214Z" fill="#EBF0F7"/>
<path fill-rule="evenodd" clip-rule="evenodd" d="M11.8319 64.6719H16.8637C18.1216 64.6719 19.0651 66.4959 17.87 67.3136C16.2976 68.5715 14.5994 69.8294 12.9641 71.0245C13.2156 72.534 13.4043 74.1064 13.5301 75.616C13.593 76.0562 13.4043 76.4965 13.1527 76.7481C14.0333 77.5658 13.7817 79.4527 12.2722 79.3269C10.4482 79.2011 9.19023 77.7545 8.30968 75.8047C8.10246 75.6389 7.92255 75.4458 7.73396 75.2434C7.63634 75.1386 7.53639 75.0314 7.42912 74.9241C5.98249 75.8676 4.53586 76.811 3.02633 77.7545C1.45391 78.7608 0.0701761 76.8739 0.699145 75.4273C1.51681 73.6662 2.27157 71.905 3.02633 70.1439C2.58606 69.6408 2.14578 69.1533 1.70551 68.6659C1.26522 68.1784 0.824942 67.691 0.384661 67.1878C-0.432999 66.3701 0.133073 64.9235 1.32811 64.9235C1.38586 64.9209 1.4435 64.9182 1.50104 64.9156C2.8222 64.8554 4.09043 64.7977 5.41642 64.7977C5.7938 63.98 6.15546 63.1466 6.51712 62.3133C6.87877 61.4799 7.24043 60.6465 7.61781 59.8288C8.24678 58.4451 10.3224 58.9483 10.6998 60.2062C10.8884 60.961 11.0771 61.7 11.2658 62.439C11.4545 63.1781 11.6432 63.9171 11.8319 64.6719ZM27.5561 71.4018C33.9087 70.8357 41.5192 73.729 46.551 77.5028C50.3877 80.3961 55.7339 85.5536 54.9163 90.8999C54.7905 91.6546 53.6583 92.0949 53.0294 91.6546C51.8924 90.7921 51.0243 89.7097 50.1508 88.6206C49.6229 87.9624 49.0931 87.3018 48.5008 86.6858C46.8026 84.8618 44.7898 83.5409 42.5885 82.4088C39.4882 80.8012 36.2482 80.0555 32.996 79.3069C30.9039 78.8254 28.8067 78.3427 26.7384 77.6286C23.2791 76.4336 23.971 71.7163 27.5561 71.4018Z" fill="#EBF0F7"/>
<path d="M99.1432 60.1705C101.097 53.5598 100.591 46.0047 98.0577 39.8298C94.7289 31.621 87.9988 25.5188 79.8215 22.7583C76.6374 12.8785 66.5061 5.61402 57.2433 2.34499C46.5331 -1.43255 34.448 -0.7061 24.5339 4.96021C21.0603 6.92163 24.0997 11.7162 27.5733 10.1907C39.3689 4.88757 53.7697 6.26783 64.2628 13.8956C66.9403 15.857 69.6903 18.3269 71.6441 21.3054C62.5984 20.9421 52.1053 24.7197 49.7896 34.3088C47.1121 45.4235 57.8946 52.3974 67.8087 48.6925C75.5519 45.7867 80.6899 37.7231 80.8346 29.5142C81.3412 29.7322 81.8477 29.9501 82.3543 30.2407C88.7949 33.655 93.2092 39.7572 94.5118 47.0217C95.0183 49.7822 95.0183 53.1239 94.4394 56.3203C91.1106 54.3589 87.1305 53.4145 83.2951 53.923C78.4465 54.5768 73.3086 57.8458 72.802 63.1489C72.2954 67.6529 75.4072 72.0116 79.532 73.4645C84.4529 75.2806 90.0251 73.3919 93.571 69.7596C94.8736 68.5246 95.8867 67.0717 96.8275 65.5462C100.952 71.4304 101.097 80.0026 99.6498 86.8312C99.4327 87.9209 100.735 88.4294 101.387 87.5576C107.103 79.2761 105.801 67.5076 99.1432 60.1705ZM74.2493 30.8945C73.5257 37.0693 68.3877 43.5347 61.73 43.3168C58.1117 43.2442 55.5789 40.7742 55.796 37.0693C56.0131 33.5097 58.6906 30.8945 61.73 29.369C65.5654 27.4802 69.9073 26.9717 74.1046 27.6255C74.3217 28.6425 74.394 29.7322 74.2493 30.8945ZM87.0581 67.7255C84.8147 68.8152 81.7754 68.8152 80.111 66.7085C78.736 64.965 78.9531 63.0036 80.4728 61.5507C83.5122 58.6449 89.0843 59.2261 92.3408 61.2601C92.4855 61.3328 92.6303 61.4781 92.775 61.5507C91.5448 64.2386 89.6633 66.4906 87.0581 67.7255Z" fill="#1369FA"/>
<path fill-rule="evenodd" clip-rule="evenodd" d="M123.658 36.3437C123.941 36.3083 124.188 36.3083 124.436 36.3437C126.593 36.5912 127.229 39.2434 125.815 40.6933C124.33 42.2139 121.607 41.3651 121.076 39.3848C120.793 38.324 121.324 37.2277 122.243 36.6973C122.668 36.4497 123.163 36.3083 123.658 36.3437ZM144.698 64.7752C145.901 68.3468 147.068 72.3074 146.997 76.1266C146.982 76.9298 146.986 77.7331 146.991 78.5363C146.996 79.6073 147.002 80.6783 146.962 81.7493C146.891 83.6942 146.608 85.2148 145.795 86.9476C145.476 87.5841 144.38 87.4073 144.239 86.7354C143.855 85.152 143.71 83.5541 143.564 81.9548C143.389 80.0181 143.212 78.0794 142.612 76.162C142.343 75.29 142.091 74.4204 141.84 73.5546C141.135 71.1197 140.437 68.7143 139.394 66.3665C137.944 63.0424 136.07 59.9305 134.196 56.854C133.241 55.298 132.215 53.7774 131.155 52.3276C130.933 52.0343 130.707 51.7529 130.484 51.4761C129.498 50.2511 128.582 49.114 128.467 47.4122C128.361 45.5733 130.377 44.2295 132.039 44.6893C133.889 45.2048 135.01 46.8387 136.073 48.3865C136.249 48.6435 136.424 48.8982 136.6 49.1449C137.767 50.7716 138.899 52.469 139.924 54.2018C141.905 57.4905 143.461 61.1329 144.698 64.7752Z" fill="#EBF0F7"/>
</svg>
