<svg width="588" height="503" viewBox="0 0 588 503" fill="none" xmlns="http://www.w3.org/2000/svg">
<path d="M537.525 177.149L553.555 185.307L562.572 180.727C561.141 179.868 559.567 179.153 557.992 178.437L553.412 180.727L540.53 174.143C539.528 174.143 538.383 174 537.382 174C536.38 174 535.235 174 534.233 174.143L521.351 180.727L516.914 178.437C515.34 179.153 513.908 179.868 512.334 180.727L521.351 185.307L537.525 177.149Z" fill="#12BFAC"/>
<path d="M521.494 195.756L537.524 187.597L553.555 195.756L569.585 187.597L574.165 189.887C572.162 187.74 569.872 185.737 567.581 184.019L553.555 191.176L537.524 183.017L521.494 191.176L507.467 184.019C505.034 185.737 502.887 187.74 500.883 189.887L505.463 187.597L521.494 195.756Z" fill="#12BFAC"/>
<path d="M521.494 206.061L537.525 197.902L553.555 206.061L569.585 197.902L584.185 205.345C583.326 203.198 582.324 201.194 581.179 199.191L569.585 193.322L553.555 201.481L537.525 193.322L521.494 201.481L505.464 193.322L493.87 199.191C492.725 201.194 491.723 203.198 490.865 205.345L505.464 197.902L521.494 206.061Z" fill="#12BFAC"/>
<path d="M505.321 208.351L521.351 216.509L537.381 208.351L553.412 216.509L569.442 208.351L585.473 216.509L587.047 215.793C586.761 214.362 586.475 213.074 586.188 211.643L585.616 211.929L569.586 203.771L553.555 211.929L537.525 203.771L521.494 211.929L505.464 203.771L489.433 211.929L488.861 211.643C488.574 212.931 488.145 214.362 488.002 215.793L489.576 216.509L505.321 208.351Z" fill="#12BFAC"/>
<path d="M587.906 221.233L585.759 222.378L569.729 214.219L553.698 222.378L537.668 214.219L521.637 222.378L505.607 214.219L489.29 222.378L487.143 221.233C487.143 222.378 487 223.38 487 224.525C487 224.954 487 225.383 487 225.813L489.29 226.958L505.321 218.799L521.351 226.958L537.381 218.799L553.412 226.958L569.442 218.799L585.473 226.958L587.763 225.813C587.763 225.383 587.763 224.954 587.763 224.525C588.049 223.38 588.049 222.378 587.906 221.233Z" fill="#12BFAC"/>
<path d="M569.729 224.525L553.699 232.683L537.668 224.525L521.638 232.683L505.607 224.525L489.577 232.683L487.859 231.824C488.145 233.542 488.432 235.26 488.861 236.977L489.577 237.407L505.607 229.248L521.638 237.407L537.668 229.248L553.699 237.407L569.729 229.248L585.759 237.407L586.475 236.977C586.904 235.26 587.191 233.542 587.477 231.824L585.759 232.683L569.729 224.525Z" fill="#12BFAC"/>
<path d="M553.555 243.131L537.525 234.973L521.494 243.131L505.464 234.973L490.435 242.559C490.865 243.847 491.437 245.135 492.01 246.28L505.464 239.41L521.494 247.568L537.525 239.41L553.555 247.568L569.586 239.41L583.04 246.28C583.612 244.992 584.185 243.847 584.614 242.559L569.586 234.973L553.555 243.131Z" fill="#12BFAC"/>
<path d="M553.555 253.58L537.525 245.421L521.494 253.58L505.464 245.421L494.586 251.003C495.302 252.148 496.017 253.293 496.876 254.438L505.464 250.001L521.494 258.16L537.525 250.001L553.555 258.16L569.586 250.001L578.174 254.438C579.032 253.293 579.748 252.148 580.464 251.003L569.586 245.421L553.555 253.58Z" fill="#12BFAC"/>
<path d="M553.555 264.028L537.525 255.87L521.494 264.028L505.464 255.87L500.168 258.589C501.17 259.591 502.172 260.736 503.174 261.595L505.321 260.45L521.351 268.608L537.382 260.45L553.412 268.608L569.442 260.45L571.733 261.595C572.734 260.593 573.736 259.591 574.738 258.589L569.442 255.87L553.555 264.028Z" fill="#12BFAC"/>
<path d="M523.927 273.189C525.931 273.761 528.078 274.19 530.368 274.477L537.667 270.755L544.967 274.477C547.114 274.19 549.261 273.761 551.408 273.189L537.81 266.175L523.927 273.189Z" fill="#12BFAC"/>
<mask id="mask0" mask-type="alpha" maskUnits="userSpaceOnUse" x="0" y="375" width="128" height="128">
<circle r="64" transform="matrix(-1 0 0 1 64 439)" fill="#C4C4C4"/>
</mask>
<g mask="url(#mask0)">
<path d="M7.61719 500.706C7.61719 498.653 5.97466 497.148 4.05834 497.148C2.14202 497.148 0.499446 498.79 0.499446 500.706C0.499446 502.76 2.14202 504.265 4.05834 504.265C5.97466 504.265 7.61719 502.623 7.61719 500.706Z" fill="#1CB6F2"/>
<path d="M19.5259 500.706C19.5259 498.653 17.8833 497.148 15.967 497.148C13.9138 497.148 12.4081 498.79 12.4081 500.706C12.4081 502.76 14.0507 504.265 15.967 504.265C17.8833 504.265 19.5259 502.623 19.5259 500.706Z" fill="#1CB6F2"/>
<path d="M31.4346 500.706C31.4346 498.653 29.792 497.148 27.8757 497.148C25.9594 497.148 24.3168 498.79 24.3168 500.706C24.3168 502.76 25.9594 504.265 27.8757 504.265C29.792 504.265 31.4346 502.623 31.4346 500.706Z" fill="#1CB6F2"/>
<path d="M43.48 500.706C43.48 498.653 41.8374 497.148 39.9211 497.148C38.0048 497.148 36.3622 498.79 36.3622 500.706C36.3622 502.76 38.0048 504.265 39.9211 504.265C41.8374 504.265 43.48 502.623 43.48 500.706Z" fill="#1CB6F2"/>
<path d="M55.3887 500.706C55.3887 498.653 53.7461 497.148 51.8298 497.148C49.7766 497.148 48.2709 498.79 48.2709 500.706C48.2709 502.76 49.9135 504.265 51.8298 504.265C53.7461 504.265 55.3887 502.623 55.3887 500.706Z" fill="#1CB6F2"/>
<path d="M67.2969 500.706C67.2969 498.653 65.6543 497.148 63.738 497.148C61.8217 497.148 60.1791 498.79 60.1791 500.706C60.1791 502.76 61.8217 504.265 63.738 504.265C65.6543 504.265 67.2969 502.623 67.2969 500.706Z" fill="#1CB6F2"/>
<path d="M79.2058 500.706C79.2058 498.653 77.5632 497.148 75.6469 497.148C73.5937 497.148 72.088 498.79 72.088 500.706C72.088 502.76 73.7306 504.265 75.6469 504.265C77.7001 504.265 79.2058 502.623 79.2058 500.706Z" fill="#1CB6F2"/>
<path d="M91.2511 500.706C91.2511 498.653 89.6085 497.148 87.6922 497.148C85.7759 497.148 84.1333 498.79 84.1333 500.706C84.1333 502.76 85.7759 504.265 87.6922 504.265C89.6085 504.265 91.2511 502.623 91.2511 500.706Z" fill="#1CB6F2"/>
<path d="M103.16 500.706C103.16 498.653 101.517 497.148 99.6008 497.148C97.5476 497.148 96.0419 498.79 96.0419 500.706C96.0419 502.76 97.6845 504.265 99.6008 504.265C101.517 504.265 103.16 502.623 103.16 500.706Z" fill="#1CB6F2"/>
<path d="M115.068 500.706C115.068 498.653 113.426 497.148 111.509 497.148C109.456 497.148 107.95 498.79 107.95 500.706C107.95 502.76 109.593 504.265 111.509 504.265C113.426 504.265 115.068 502.623 115.068 500.706Z" fill="#1CB6F2"/>
<path d="M126.977 500.706C126.977 498.653 125.334 497.148 123.418 497.148C121.365 497.148 119.859 498.79 119.859 500.706C119.859 502.76 121.502 504.265 123.418 504.265C125.471 504.265 126.977 502.623 126.977 500.706Z" fill="#1CB6F2"/>
<path d="M7.61719 486.882C7.61719 484.829 5.97466 483.323 4.05834 483.323C2.14202 483.323 0.499446 484.965 0.499446 486.882C0.499446 488.935 2.14202 490.441 4.05834 490.441C5.97466 490.441 7.61719 488.935 7.61719 486.882Z" fill="#1CB6F2"/>
<path d="M19.5259 486.882C19.5259 484.829 17.8833 483.323 15.967 483.323C13.9138 483.323 12.4081 484.965 12.4081 486.882C12.4081 488.935 14.0507 490.441 15.967 490.441C17.8833 490.578 19.5259 488.935 19.5259 486.882Z" fill="#1CB6F2"/>
<path d="M31.4346 486.882C31.4346 484.829 29.792 483.323 27.8757 483.323C25.9594 483.323 24.3168 484.965 24.3168 486.882C24.3168 488.935 25.9594 490.441 27.8757 490.441C29.792 490.441 31.4346 488.935 31.4346 486.882Z" fill="#1CB6F2"/>
<path d="M43.48 486.882C43.48 484.829 41.8374 483.323 39.9211 483.323C38.0048 483.323 36.3622 484.965 36.3622 486.882C36.3622 488.935 38.0048 490.441 39.9211 490.441C41.8374 490.441 43.48 488.935 43.48 486.882Z" fill="#1CB6F2"/>
<path d="M55.3887 486.882C55.3887 484.829 53.7461 483.323 51.8298 483.323C49.7766 483.323 48.2709 484.965 48.2709 486.882C48.2709 488.935 49.9135 490.441 51.8298 490.441C53.7461 490.578 55.3887 488.935 55.3887 486.882Z" fill="#1CB6F2"/>
<path d="M67.2969 486.882C67.2969 484.829 65.6543 483.323 63.738 483.323C61.8217 483.323 60.1791 484.965 60.1791 486.882C60.1791 488.935 61.8217 490.441 63.738 490.441C65.6543 490.441 67.2969 488.935 67.2969 486.882Z" fill="#1CB6F2"/>
<path d="M79.2058 486.882C79.2058 484.829 77.5632 483.323 75.6469 483.323C73.5937 483.323 72.088 484.965 72.088 486.882C72.088 488.935 73.7306 490.441 75.6469 490.441C77.7001 490.578 79.2058 488.935 79.2058 486.882Z" fill="#1CB6F2"/>
<path d="M91.2511 486.882C91.2511 484.829 89.6085 483.323 87.6922 483.323C85.7759 483.323 84.1333 484.965 84.1333 486.882C84.1333 488.935 85.7759 490.441 87.6922 490.441C89.6085 490.441 91.2511 488.935 91.2511 486.882Z" fill="#1CB6F2"/>
<path d="M103.16 486.882C103.16 484.829 101.517 483.323 99.6008 483.323C97.5476 483.323 96.0419 484.965 96.0419 486.882C96.0419 488.935 97.6845 490.441 99.6008 490.441C101.517 490.578 103.16 488.935 103.16 486.882Z" fill="#1CB6F2"/>
<path d="M115.068 486.882C115.068 484.829 113.426 483.323 111.509 483.323C109.456 483.323 107.95 484.965 107.95 486.882C107.95 488.935 109.593 490.441 111.509 490.441C113.426 490.578 115.068 488.935 115.068 486.882Z" fill="#1CB6F2"/>
<path d="M126.977 486.882C126.977 484.829 125.334 483.323 123.418 483.323C121.365 483.323 119.859 484.965 119.859 486.882C119.859 488.935 121.502 490.441 123.418 490.441C125.471 490.578 126.977 488.935 126.977 486.882Z" fill="#1CB6F2"/>
<path d="M7.61719 473.194C7.61719 471.14 5.97466 469.635 4.05834 469.635C2.14202 469.635 0.499446 471.277 0.499446 473.194C0.499446 475.247 2.14202 476.753 4.05834 476.753C5.97466 476.753 7.61719 475.11 7.61719 473.194Z" fill="#1CB6F2"/>
<path d="M19.5259 473.194C19.5259 471.14 17.8833 469.635 15.967 469.635C13.9138 469.635 12.4081 471.277 12.4081 473.194C12.4081 475.247 14.0507 476.753 15.967 476.753C17.8833 476.753 19.5259 475.11 19.5259 473.194Z" fill="#1CB6F2"/>
<path d="M31.4346 473.194C31.4346 471.14 29.792 469.635 27.8757 469.635C25.9594 469.635 24.3168 471.277 24.3168 473.194C24.3168 475.247 25.9594 476.753 27.8757 476.753C29.792 476.753 31.4346 475.11 31.4346 473.194Z" fill="#1CB6F2"/>
<path d="M43.48 473.194C43.48 471.14 41.8374 469.635 39.9211 469.635C38.0048 469.635 36.3622 471.277 36.3622 473.194C36.3622 475.247 38.0048 476.753 39.9211 476.753C41.8374 476.753 43.48 475.11 43.48 473.194Z" fill="#1CB6F2"/>
<path d="M55.3887 473.194C55.3887 471.14 53.7461 469.635 51.8298 469.635C49.7766 469.635 48.2709 471.277 48.2709 473.194C48.2709 475.247 49.9135 476.753 51.8298 476.753C53.7461 476.753 55.3887 475.11 55.3887 473.194Z" fill="#1CB6F2"/>
<path d="M67.2969 473.194C67.2969 471.14 65.6543 469.635 63.738 469.635C61.8217 469.635 60.1791 471.277 60.1791 473.194C60.1791 475.247 61.8217 476.753 63.738 476.753C65.6543 476.753 67.2969 475.11 67.2969 473.194Z" fill="#1CB6F2"/>
<path d="M79.2058 473.194C79.2058 471.14 77.5632 469.635 75.6469 469.635C73.5937 469.635 72.088 471.277 72.088 473.194C72.088 475.247 73.7306 476.753 75.6469 476.753C77.7001 476.753 79.2058 475.11 79.2058 473.194Z" fill="#1CB6F2"/>
<path d="M91.2511 473.194C91.2511 471.14 89.6085 469.635 87.6922 469.635C85.7759 469.635 84.1333 471.277 84.1333 473.194C84.1333 475.247 85.7759 476.753 87.6922 476.753C89.6085 476.753 91.2511 475.11 91.2511 473.194Z" fill="#1CB6F2"/>
<path d="M103.16 473.194C103.16 471.14 101.517 469.635 99.6008 469.635C97.5476 469.635 96.0419 471.277 96.0419 473.194C96.0419 475.247 97.6845 476.753 99.6008 476.753C101.517 476.753 103.16 475.11 103.16 473.194Z" fill="#1CB6F2"/>
<path d="M115.068 473.194C115.068 471.14 113.426 469.635 111.509 469.635C109.456 469.635 107.95 471.277 107.95 473.194C107.95 475.247 109.593 476.753 111.509 476.753C113.426 476.753 115.068 475.11 115.068 473.194Z" fill="#1CB6F2"/>
<path d="M126.977 473.194C126.977 471.14 125.334 469.635 123.418 469.635C121.365 469.635 119.859 471.277 119.859 473.194C119.859 475.247 121.502 476.753 123.418 476.753C125.471 476.753 126.977 475.11 126.977 473.194Z" fill="#1CB6F2"/>
<path d="M7.61694 459.369C7.61694 457.316 5.97442 455.81 4.05809 455.81C2.14177 455.81 0.499202 457.452 0.499202 459.369C0.499202 461.422 2.14177 462.928 4.05809 462.928C5.97442 462.928 7.61694 461.422 7.61694 459.369Z" fill="#1CB6F2"/>
<path d="M19.5256 459.369C19.5256 457.316 17.8831 455.81 15.9667 455.81C13.9135 455.81 12.4079 457.452 12.4079 459.369C12.4079 461.422 14.0504 462.928 15.9667 462.928C17.8831 463.065 19.5256 461.422 19.5256 459.369Z" fill="#1CB6F2"/>
<path d="M31.434 459.369C31.434 457.316 29.7914 455.81 27.8751 455.81C25.9587 455.81 24.3162 457.452 24.3162 459.369C24.3162 461.422 25.9587 462.928 27.8751 462.928C29.7914 462.928 31.434 461.422 31.434 459.369Z" fill="#1CB6F2"/>
<path d="M43.4797 459.369C43.4797 457.316 41.8372 455.81 39.9208 455.81C38.0045 455.81 36.362 457.452 36.362 459.369C36.362 461.422 38.0045 462.928 39.9208 462.928C41.8372 462.928 43.4797 461.422 43.4797 459.369Z" fill="#1CB6F2"/>
<path d="M55.3882 459.369C55.3882 457.316 53.7456 455.81 51.8293 455.81C49.7761 455.81 48.2704 457.452 48.2704 459.369C48.2704 461.422 49.913 462.928 51.8293 462.928C53.7456 463.065 55.3882 461.422 55.3882 459.369Z" fill="#1CB6F2"/>
<path d="M67.2966 459.369C67.2966 457.316 65.6541 455.81 63.7378 455.81C61.8214 455.81 60.1789 457.452 60.1789 459.369C60.1789 461.422 61.8214 462.928 63.7378 462.928C65.6541 462.928 67.2966 461.422 67.2966 459.369Z" fill="#1CB6F2"/>
<path d="M79.2053 459.369C79.2053 457.316 77.5628 455.81 75.6464 455.81C73.5932 455.81 72.0875 457.452 72.0875 459.369C72.0875 461.422 73.7301 462.928 75.6464 462.928C77.6996 463.065 79.2053 461.422 79.2053 459.369Z" fill="#1CB6F2"/>
<path d="M91.2509 459.369C91.2509 457.316 89.6083 455.81 87.692 455.81C85.7757 455.81 84.1331 457.452 84.1331 459.369C84.1331 461.422 85.7757 462.928 87.692 462.928C89.6083 462.928 91.2509 461.422 91.2509 459.369Z" fill="#1CB6F2"/>
<path d="M103.159 459.369C103.159 457.316 101.517 455.81 99.6003 455.81C97.5471 455.81 96.0414 457.452 96.0414 459.369C96.0414 461.422 97.684 462.928 99.6003 462.928C101.517 463.065 103.159 461.422 103.159 459.369Z" fill="#1CB6F2"/>
<path d="M115.068 459.369C115.068 457.316 113.426 455.81 111.51 455.81C109.456 455.81 107.951 457.452 107.951 459.369C107.951 461.422 109.593 462.928 111.51 462.928C113.426 463.065 115.068 461.422 115.068 459.369Z" fill="#1CB6F2"/>
<path d="M126.977 459.369C126.977 457.316 125.334 455.81 123.418 455.81C121.364 455.81 119.859 457.452 119.859 459.369C119.859 461.422 121.501 462.928 123.418 462.928C125.471 463.065 126.977 461.422 126.977 459.369Z" fill="#1CB6F2"/>
<path d="M7.61694 445.681C7.61694 443.628 5.97442 442.122 4.05809 442.122C2.14177 442.122 0.499202 443.765 0.499202 445.681C0.499202 447.734 2.14177 449.24 4.05809 449.24C5.97442 449.24 7.61694 447.597 7.61694 445.681Z" fill="#1CB6F2"/>
<path d="M19.5256 445.681C19.5256 443.628 17.8831 442.122 15.9667 442.122C13.9135 442.122 12.4079 443.765 12.4079 445.681C12.4079 447.734 14.0504 449.24 15.9667 449.24C17.8831 449.24 19.5256 447.597 19.5256 445.681Z" fill="#1CB6F2"/>
<path d="M31.434 445.681C31.434 443.628 29.7914 442.122 27.8751 442.122C25.9587 442.122 24.3162 443.765 24.3162 445.681C24.3162 447.734 25.9587 449.24 27.8751 449.24C29.7914 449.24 31.434 447.597 31.434 445.681Z" fill="#1CB6F2"/>
<path d="M43.4797 445.681C43.4797 443.628 41.8372 442.122 39.9208 442.122C38.0045 442.122 36.362 443.765 36.362 445.681C36.362 447.734 38.0045 449.24 39.9208 449.24C41.8372 449.24 43.4797 447.597 43.4797 445.681Z" fill="#1CB6F2"/>
<path d="M55.3882 445.681C55.3882 443.628 53.7456 442.122 51.8293 442.122C49.7761 442.122 48.2704 443.765 48.2704 445.681C48.2704 447.734 49.913 449.24 51.8293 449.24C53.7456 449.24 55.3882 447.597 55.3882 445.681Z" fill="#1CB6F2"/>
<path d="M67.2966 445.681C67.2966 443.628 65.6541 442.122 63.7378 442.122C61.8214 442.122 60.1789 443.765 60.1789 445.681C60.1789 447.734 61.8214 449.24 63.7378 449.24C65.6541 449.24 67.2966 447.597 67.2966 445.681Z" fill="#1CB6F2"/>
<path d="M79.2053 445.681C79.2053 443.628 77.5628 442.122 75.6464 442.122C73.5932 442.122 72.0875 443.765 72.0875 445.681C72.0875 447.734 73.7301 449.24 75.6464 449.24C77.6996 449.24 79.2053 447.597 79.2053 445.681Z" fill="#1CB6F2"/>
<path d="M91.2509 445.681C91.2509 443.628 89.6083 442.122 87.692 442.122C85.7757 442.122 84.1331 443.765 84.1331 445.681C84.1331 447.734 85.7757 449.24 87.692 449.24C89.6083 449.24 91.2509 447.597 91.2509 445.681Z" fill="#1CB6F2"/>
<path d="M103.159 445.681C103.159 443.628 101.517 442.122 99.6003 442.122C97.5471 442.122 96.0414 443.765 96.0414 445.681C96.0414 447.734 97.684 449.24 99.6003 449.24C101.517 449.24 103.159 447.597 103.159 445.681Z" fill="#1CB6F2"/>
<path d="M115.068 445.681C115.068 443.628 113.426 442.122 111.51 442.122C109.456 442.122 107.951 443.765 107.951 445.681C107.951 447.734 109.593 449.24 111.51 449.24C113.426 449.24 115.068 447.597 115.068 445.681Z" fill="#1CB6F2"/>
<path d="M126.977 445.681C126.977 443.628 125.334 442.122 123.418 442.122C121.364 442.122 119.859 443.765 119.859 445.681C119.859 447.734 121.501 449.24 123.418 449.24C125.471 449.24 126.977 447.597 126.977 445.681Z" fill="#1CB6F2"/>
<path d="M7.61707 431.856C7.61707 429.803 5.97454 428.297 4.05822 428.297C2.14189 428.297 0.499324 429.94 0.499324 431.856C0.499324 433.909 2.14189 435.415 4.05822 435.415C5.97454 435.415 7.61707 433.909 7.61707 431.856Z" fill="#1CB6F2"/>
<path d="M19.5258 431.856C19.5258 429.803 17.8832 428.297 15.9669 428.297C13.9137 428.297 12.408 429.94 12.408 431.856C12.408 433.909 14.0505 435.415 15.9669 435.415C17.8832 435.552 19.5258 433.909 19.5258 431.856Z" fill="#1CB6F2"/>
<path d="M31.4341 431.856C31.4341 429.803 29.7915 428.297 27.8752 428.297C25.9589 428.297 24.3163 429.94 24.3163 431.856C24.3163 433.909 25.9589 435.415 27.8752 435.415C29.7915 435.415 31.4341 433.909 31.4341 431.856Z" fill="#1CB6F2"/>
<path d="M43.48 431.856C43.48 429.803 41.8374 428.297 39.9211 428.297C38.0048 428.297 36.3622 429.94 36.3622 431.856C36.3622 433.909 38.0048 435.415 39.9211 435.415C41.8374 435.415 43.48 433.909 43.48 431.856Z" fill="#1CB6F2"/>
<path d="M55.3883 431.856C55.3883 429.803 53.7458 428.297 51.8294 428.297C49.7762 428.297 48.2705 429.94 48.2705 431.856C48.2705 433.909 49.9131 435.415 51.8294 435.415C53.7458 435.552 55.3883 433.909 55.3883 431.856Z" fill="#1CB6F2"/>
<path d="M67.2968 431.856C67.2968 429.803 65.6542 428.297 63.7379 428.297C61.8216 428.297 60.179 429.94 60.179 431.856C60.179 433.909 61.8216 435.415 63.7379 435.415C65.6542 435.415 67.2968 433.909 67.2968 431.856Z" fill="#1CB6F2"/>
<path d="M79.2054 431.856C79.2054 429.803 77.5629 428.297 75.6466 428.297C73.5934 428.297 72.0877 429.94 72.0877 431.856C72.0877 433.909 73.7302 435.415 75.6466 435.415C77.6998 435.552 79.2054 433.909 79.2054 431.856Z" fill="#1CB6F2"/>
<path d="M91.251 431.856C91.251 429.803 89.6084 428.297 87.6921 428.297C85.7758 428.297 84.1332 429.94 84.1332 431.856C84.1332 433.909 85.7758 435.415 87.6921 435.415C89.6084 435.415 91.251 433.909 91.251 431.856Z" fill="#1CB6F2"/>
<path d="M103.159 431.856C103.159 429.803 101.517 428.297 99.6004 428.297C97.5472 428.297 96.0415 429.94 96.0415 431.856C96.0415 433.909 97.6841 435.415 99.6004 435.415C101.517 435.552 103.159 433.909 103.159 431.856Z" fill="#1CB6F2"/>
<path d="M115.068 431.856C115.068 429.803 113.425 428.297 111.509 428.297C109.455 428.297 107.95 429.94 107.95 431.856C107.95 433.909 109.592 435.415 111.509 435.415C113.425 435.552 115.068 433.909 115.068 431.856Z" fill="#1CB6F2"/>
<path d="M126.977 431.856C126.977 429.803 125.334 428.297 123.418 428.297C121.365 428.297 119.859 429.94 119.859 431.856C119.859 433.909 121.501 435.415 123.418 435.415C125.471 435.552 126.977 433.909 126.977 431.856Z" fill="#1CB6F2"/>
<path d="M7.61719 418.168C7.61719 416.115 5.97466 414.609 4.05834 414.609C2.14202 414.609 0.499446 416.252 0.499446 418.168C0.499446 420.221 2.14202 421.727 4.05834 421.727C5.97466 421.727 7.61719 420.084 7.61719 418.168Z" fill="#1CB6F2"/>
<path d="M19.5259 418.168C19.5259 416.115 17.8833 414.609 15.967 414.609C13.9138 414.609 12.4081 416.252 12.4081 418.168C12.4081 420.221 14.0507 421.727 15.967 421.727C17.8833 421.727 19.5259 420.084 19.5259 418.168Z" fill="#1CB6F2"/>
<path d="M31.4342 418.168C31.4342 416.115 29.7916 414.609 27.8753 414.609C25.959 414.609 24.3164 416.252 24.3164 418.168C24.3164 420.221 25.959 421.727 27.8753 421.727C29.7916 421.727 31.4342 420.084 31.4342 418.168Z" fill="#1CB6F2"/>
<path d="M43.48 418.168C43.48 416.115 41.8374 414.609 39.9211 414.609C38.0048 414.609 36.3622 416.252 36.3622 418.168C36.3622 420.221 38.0048 421.727 39.9211 421.727C41.8374 421.727 43.48 420.084 43.48 418.168Z" fill="#1CB6F2"/>
<path d="M55.3884 418.168C55.3884 416.115 53.7459 414.609 51.8296 414.609C49.7764 414.609 48.2707 416.252 48.2707 418.168C48.2707 420.221 49.9132 421.727 51.8296 421.727C53.7459 421.727 55.3884 420.084 55.3884 418.168Z" fill="#1CB6F2"/>
<path d="M67.2969 418.168C67.2969 416.115 65.6543 414.609 63.738 414.609C61.8217 414.609 60.1791 416.252 60.1791 418.168C60.1791 420.221 61.8217 421.727 63.738 421.727C65.6543 421.727 67.2969 420.084 67.2969 418.168Z" fill="#1CB6F2"/>
<path d="M79.2056 418.168C79.2056 416.115 77.563 414.609 75.6467 414.609C73.5935 414.609 72.0878 416.252 72.0878 418.168C72.0878 420.221 73.7304 421.727 75.6467 421.727C77.6999 421.727 79.2056 420.084 79.2056 418.168Z" fill="#1CB6F2"/>
<path d="M91.2511 418.168C91.2511 416.115 89.6085 414.609 87.6922 414.609C85.7759 414.609 84.1333 416.252 84.1333 418.168C84.1333 420.221 85.7759 421.727 87.6922 421.727C89.6085 421.727 91.2511 420.084 91.2511 418.168Z" fill="#1CB6F2"/>
<path d="M103.159 418.168C103.159 416.115 101.517 414.609 99.6005 414.609C97.5473 414.609 96.0416 416.252 96.0416 418.168C96.0416 420.221 97.6842 421.727 99.6005 421.727C101.517 421.727 103.159 420.084 103.159 418.168Z" fill="#1CB6F2"/>
<path d="M115.069 418.168C115.069 416.115 113.426 414.609 111.51 414.609C109.457 414.609 107.951 416.252 107.951 418.168C107.951 420.221 109.594 421.727 111.51 421.727C113.426 421.727 115.069 420.084 115.069 418.168Z" fill="#1CB6F2"/>
<path d="M126.977 418.168C126.977 416.115 125.334 414.609 123.418 414.609C121.365 414.609 119.859 416.252 119.859 418.168C119.859 420.221 121.502 421.727 123.418 421.727C125.471 421.727 126.977 420.084 126.977 418.168Z" fill="#1CB6F2"/>
<path d="M7.61719 404.343C7.61719 402.29 5.97466 400.784 4.05834 400.784C2.14202 400.784 0.499446 402.427 0.499446 404.343C0.499446 406.396 2.14202 407.902 4.05834 407.902C5.97466 407.902 7.61719 406.396 7.61719 404.343Z" fill="#1CB6F2"/>
<path d="M19.5259 404.343C19.5259 402.29 17.8833 400.784 15.967 400.784C13.9138 400.784 12.4081 402.427 12.4081 404.343C12.4081 406.396 14.0507 407.902 15.967 407.902C17.8833 408.039 19.5259 406.396 19.5259 404.343Z" fill="#1CB6F2"/>
<path d="M31.4342 404.343C31.4342 402.29 29.7916 400.784 27.8753 400.784C25.959 400.784 24.3164 402.427 24.3164 404.343C24.3164 406.396 25.959 407.902 27.8753 407.902C29.7916 407.902 31.4342 406.396 31.4342 404.343Z" fill="#1CB6F2"/>
<path d="M43.48 404.343C43.48 402.29 41.8374 400.784 39.9211 400.784C38.0048 400.784 36.3622 402.427 36.3622 404.343C36.3622 406.396 38.0048 407.902 39.9211 407.902C41.8374 407.902 43.48 406.396 43.48 404.343Z" fill="#1CB6F2"/>
<path d="M55.3884 404.343C55.3884 402.29 53.7459 400.784 51.8296 400.784C49.7764 400.784 48.2707 402.427 48.2707 404.343C48.2707 406.396 49.9132 407.902 51.8296 407.902C53.7459 408.039 55.3884 406.396 55.3884 404.343Z" fill="#1CB6F2"/>
<path d="M67.2969 404.343C67.2969 402.29 65.6543 400.784 63.738 400.784C61.8217 400.784 60.1791 402.427 60.1791 404.343C60.1791 406.396 61.8217 407.902 63.738 407.902C65.6543 407.902 67.2969 406.396 67.2969 404.343Z" fill="#1CB6F2"/>
<path d="M79.2058 404.343C79.2058 402.29 77.5632 400.784 75.6469 400.784C73.5937 400.784 72.088 402.427 72.088 404.343C72.088 406.396 73.7306 407.902 75.6469 407.902C77.7001 408.039 79.2058 406.396 79.2058 404.343Z" fill="#1CB6F2"/>
<path d="M91.2511 404.343C91.2511 402.29 89.6085 400.784 87.6922 400.784C85.7759 400.784 84.1333 402.427 84.1333 404.343C84.1333 406.396 85.7759 407.902 87.6922 407.902C89.6085 407.902 91.2511 406.396 91.2511 404.343Z" fill="#1CB6F2"/>
<path d="M103.16 404.343C103.16 402.29 101.517 400.784 99.6008 400.784C97.5476 400.784 96.0419 402.427 96.0419 404.343C96.0419 406.396 97.6845 407.902 99.6008 407.902C101.517 408.039 103.16 406.396 103.16 404.343Z" fill="#1CB6F2"/>
<path d="M115.069 404.343C115.069 402.29 113.426 400.784 111.51 400.784C109.457 400.784 107.951 402.427 107.951 404.343C107.951 406.396 109.594 407.902 111.51 407.902C113.426 408.039 115.069 406.396 115.069 404.343Z" fill="#1CB6F2"/>
<path d="M126.977 404.343C126.977 402.29 125.334 400.784 123.418 400.784C121.365 400.784 119.859 402.427 119.859 404.343C119.859 406.396 121.502 407.902 123.418 407.902C125.471 408.039 126.977 406.396 126.977 404.343Z" fill="#1CB6F2"/>
<path d="M7.61731 390.655C7.61731 388.602 5.97478 387.096 4.05846 387.096C2.14214 387.096 0.499568 388.739 0.499568 390.655C0.499568 392.708 2.14214 394.214 4.05846 394.214C5.97478 394.214 7.61731 392.571 7.61731 390.655Z" fill="#1CB6F2"/>
<path d="M19.5258 390.655C19.5258 388.602 17.8832 387.096 15.9669 387.096C13.9137 387.096 12.408 388.739 12.408 390.655C12.408 392.708 14.0505 394.214 15.9669 394.214C17.8832 394.214 19.5258 392.571 19.5258 390.655Z" fill="#1CB6F2"/>
<path d="M31.4343 390.655C31.4343 388.602 29.7918 387.096 27.8754 387.096C25.9591 387.096 24.3165 388.739 24.3165 390.655C24.3165 392.708 25.9591 394.214 27.8754 394.214C29.7918 394.214 31.4343 392.571 31.4343 390.655Z" fill="#1CB6F2"/>
<path d="M43.48 390.655C43.48 388.602 41.8374 387.096 39.9211 387.096C38.0048 387.096 36.3622 388.739 36.3622 390.655C36.3622 392.708 38.0048 394.214 39.9211 394.214C41.8374 394.214 43.48 392.571 43.48 390.655Z" fill="#1CB6F2"/>
<path d="M55.3885 390.655C55.3885 388.602 53.746 387.096 51.8297 387.096C49.7765 387.096 48.2708 388.739 48.2708 390.655C48.2708 392.708 49.9134 394.214 51.8297 394.214C53.746 394.214 55.3885 392.571 55.3885 390.655Z" fill="#1CB6F2"/>
<path d="M67.2968 390.655C67.2968 388.602 65.6542 387.096 63.7379 387.096C61.8216 387.096 60.179 388.739 60.179 390.655C60.179 392.708 61.8216 394.214 63.7379 394.214C65.6542 394.214 67.2968 392.571 67.2968 390.655Z" fill="#1CB6F2"/>
<path d="M79.2057 390.655C79.2057 388.602 77.5631 387.096 75.6468 387.096C73.5936 387.096 72.0879 388.739 72.0879 390.655C72.0879 392.708 73.7305 394.214 75.6468 394.214C77.7 394.214 79.2057 392.571 79.2057 390.655Z" fill="#1CB6F2"/>
<path d="M91.251 390.655C91.251 388.602 89.6084 387.096 87.6921 387.096C85.7758 387.096 84.1332 388.739 84.1332 390.655C84.1332 392.708 85.7758 394.214 87.6921 394.214C89.6084 394.214 91.251 392.571 91.251 390.655Z" fill="#1CB6F2"/>
<path d="M103.16 390.655C103.16 388.602 101.517 387.096 99.6007 387.096C97.5475 387.096 96.0418 388.739 96.0418 390.655C96.0418 392.708 97.6843 394.214 99.6007 394.214C101.517 394.214 103.16 392.571 103.16 390.655Z" fill="#1CB6F2"/>
<path d="M115.069 390.655C115.069 388.602 113.426 387.096 111.51 387.096C109.457 387.096 107.951 388.739 107.951 390.655C107.951 392.708 109.593 394.214 111.51 394.214C113.426 394.214 115.069 392.571 115.069 390.655Z" fill="#1CB6F2"/>
<path d="M126.977 390.655C126.977 388.602 125.334 387.096 123.418 387.096C121.365 387.096 119.859 388.739 119.859 390.655C119.859 392.708 121.502 394.214 123.418 394.214C125.471 394.214 126.977 392.571 126.977 390.655Z" fill="#1CB6F2"/>
<path d="M31.4346 376.83C31.4346 374.777 29.792 373.271 27.8757 373.271C25.9594 373.271 24.3168 374.914 24.3168 376.83C24.3168 378.883 25.9594 380.389 27.8757 380.389C29.792 380.389 31.4346 378.883 31.4346 376.83Z" fill="#1CB6F2"/>
<path d="M43.48 376.83C43.48 374.777 41.8374 373.271 39.9211 373.271C38.0048 373.271 36.3622 374.914 36.3622 376.83C36.3622 378.883 38.0048 380.389 39.9211 380.389C41.8374 380.389 43.48 378.883 43.48 376.83Z" fill="#1CB6F2"/>
<path d="M55.3887 376.83C55.3887 374.777 53.7461 373.271 51.8298 373.271C49.7766 373.271 48.2709 374.914 48.2709 376.83C48.2709 378.883 49.9135 380.389 51.8298 380.389C53.7461 380.526 55.3887 378.883 55.3887 376.83Z" fill="#1CB6F2"/>
<path d="M67.2969 376.83C67.2969 374.777 65.6543 373.271 63.738 373.271C61.8217 373.271 60.1791 374.914 60.1791 376.83C60.1791 378.883 61.8217 380.389 63.738 380.389C65.6543 380.389 67.2969 378.883 67.2969 376.83Z" fill="#1CB6F2"/>
<path d="M79.2058 376.83C79.2058 374.777 77.5632 373.271 75.6469 373.271C73.5937 373.271 72.088 374.914 72.088 376.83C72.088 378.883 73.7306 380.389 75.6469 380.389C77.7001 380.526 79.2058 378.883 79.2058 376.83Z" fill="#1CB6F2"/>
<path d="M91.2511 376.83C91.2511 374.777 89.6085 373.271 87.6922 373.271C85.7759 373.271 84.1333 374.914 84.1333 376.83C84.1333 378.883 85.7759 380.389 87.6922 380.389C89.6085 380.389 91.2511 378.883 91.2511 376.83Z" fill="#1CB6F2"/>
<path d="M103.16 376.83C103.16 374.777 101.517 373.271 99.6008 373.271C97.5476 373.271 96.0419 374.914 96.0419 376.83C96.0419 378.883 97.6845 380.389 99.6008 380.389C101.517 380.526 103.16 378.883 103.16 376.83Z" fill="#1CB6F2"/>
</g>
<path d="M52 33C52 14.7746 66.7746 0 85 0C103.225 0 118 14.7746 118 33H52Z" fill="#FF6161"/>
</svg>
