<?xml version="1.0" encoding="UTF-8"?>
<svg width="125px" height="33px" viewBox="0 0 125 33" version="1.1" xmlns="http://www.w3.org/2000/svg" xmlns:xlink="http://www.w3.org/1999/xlink">
    <!-- Generator: Sketch 62 (91390) - https://sketch.com -->
    <title>logo</title>
    <desc>Created with Sketch.</desc>
    <g id="main" stroke="none" stroke-width="1" fill="none" fill-rule="evenodd">
        <g id="login" transform="translate(-125.000000, -239.000000)">
            <g id="Group-2" transform="translate(20.000000, 239.000000)">
                <g id="#top" transform="translate(105.000000, 0.000000)">
                    <g id="logo">
                        <g>
                            <path d="M44.945283,8.32857143 C42.9877358,6.52142857 40.4037736,5.34285714 37.5066038,5.34285714 C31.4773585,5.34285714 26.6226415,10.2142857 26.6226415,16.2642857 C26.6226415,22.3142857 31.4773585,27.1857143 37.5066038,27.1857143 C40.4037736,27.1857143 43.0660377,26.0071429 45.0235849,24.1214286 L45.0235849,27.1071429 L49.1735849,27.1071429 L49.1735849,0 L44.945283,0 L44.945283,8.32857143 L44.945283,8.32857143 Z M37.5066038,22.8642857 C33.904717,22.8642857 31.0075472,19.9571429 31.0075472,16.3428571 C31.0075472,12.7285714 33.904717,9.82142857 37.5066038,9.82142857 C41.1084906,9.82142857 44.0056604,12.7285714 44.0056604,16.3428571 C44.0839623,19.8785714 41.1084906,22.8642857 37.5066038,22.8642857 Z" id="Shape" fill="#0873BA" fill-rule="nonzero"></path>
                            <path d="M56.690566,24.2 C58.6481132,26.0071429 61.2320755,27.1857143 64.1292453,27.1857143 C70.0801887,27.1857143 74.9349057,22.3142857 74.9349057,16.3428571 C74.9349057,10.3714286 70.0801887,5.5 64.1292453,5.5 C61.2320755,5.5 58.6481132,6.67857143 56.690566,8.48571429 L56.690566,5.5 L52.6188679,5.5 L52.6188679,32.3714286 L56.7688679,32.3714286 L56.690566,24.2 Z M64.1292453,9.82142857 C67.7311321,9.82142857 70.6283019,12.7285714 70.6283019,16.3428571 C70.6283019,19.9571429 67.7311321,22.8642857 64.1292453,22.8642857 C60.5273585,22.8642857 57.6301887,19.9571429 57.6301887,16.3428571 C57.6301887,12.7285714 60.5273585,9.82142857 64.1292453,9.82142857 Z" id="Shape" fill="#313E4D" fill-rule="nonzero"></path>
                            <path d="M95.1367925,8.48571429 C93.1792453,6.67857143 90.595283,5.5 87.6981132,5.5 C81.7471698,5.5 76.8924528,10.3714286 76.8924528,16.3428571 C76.8924528,22.3142857 81.7471698,27.1857143 87.6981132,27.1857143 C90.595283,27.1857143 93.1792453,26.0071429 95.1367925,24.2 L95.1367925,27.1857143 L99.2084906,27.1857143 L99.2084906,5.89285714 L95.0584906,5.89285714 L95.1367925,8.48571429 Z M87.6981132,22.8642857 C84.0962264,22.8642857 81.1990566,19.9571429 81.1990566,16.3428571 C81.1990566,12.7285714 84.0962264,9.82142857 87.6981132,9.82142857 C91.3,9.82142857 94.1971698,12.7285714 94.1971698,16.3428571 C94.1971698,19.9571429 91.3,22.8642857 87.6981132,22.8642857 Z" id="Shape" fill="#313E4D" fill-rule="nonzero"></path>
                            <g id="Group" transform="translate(0.469811, 5.185714)" fill-rule="nonzero">
                                <path d="M11.5103774,17.2857143 C4.54150943,16.8928571 4.54150943,11.1571429 4.54150943,11.1571429 L4.54150943,0.471428571 L0.23490566,0.471428571 L0.156603774,10.9214286 C0.313207547,17.2071429 5.16792453,20.0357143 5.16792453,20.0357143 C13.3113208,24.5928571 19.1056604,19.6428571 19.1056604,19.6428571 L19.1056604,11 C18.5575472,17.8357143 11.5103774,17.2857143 11.5103774,17.2857143 Z" id="Path" fill="#E92629"></path>
                                <rect id="Rectangle" fill="#0873BA" x="19.1056604" y="0.471428571" width="4.54150943" height="21.5285714"></rect>
                            </g>
                            <polygon id="Path" fill="#313E4D" fill-rule="nonzero" points="119.410377 5.5 113.146226 21.6071429 106.568868 5.5 101.24434 5.5 110.014151 25.7714286 106.803774 32.6071429 112.363208 32.6071429 124.5 5.5"></polygon>
                        </g>
                    </g>
                </g>
            </g>
        </g>
    </g>
</svg>