<svg width="17" height="17" viewBox="0 0 17 17" fill="none" xmlns="http://www.w3.org/2000/svg">
<path d="M17 12.6744V16.0178C17 16.5183 16.6128 16.9244 16.1217 16.9622C15.7061 16.9811 15.3756 17 15.1111 17C6.76222 17 0 10.2378 0 1.88889C0 1.62444 0.0188889 1.29389 0.0472222 0.878333C0.0755556 0.387222 0.491111 0 0.982222 0H4.32556C4.57111 0 4.76944 0.179444 4.79778 0.425C4.81667 0.642222 4.83556 0.812222 4.85444 0.944444C5.04333 2.25722 5.43056 3.53222 5.99722 4.72222C6.09167 4.91111 6.02556 5.13778 5.85556 5.26056L3.825 6.715C5.07167 9.61444 7.38556 11.9283 10.285 13.175L11.7394 11.1444C11.8622 10.9744 12.0889 10.9178 12.2778 11.0028C13.4772 11.5694 14.7428 11.9567 16.0556 12.1361C16.1878 12.155 16.3578 12.1739 16.575 12.1928C16.8206 12.2306 17 12.4289 17 12.6744Z" fill="#111111"/>
</svg>
