<svg width="24" height="25" viewBox="0 0 24 25" fill="none" xmlns="http://www.w3.org/2000/svg">
<path d="M17.6617 16.2319C17.8166 16.3318 17.9944 16.4087 18.1223 16.5367C19.883 18.2854 21.6367 20.0401 23.3904 21.7958C23.5433 21.9487 23.7012 22.1025 23.8191 22.2804C24.1179 22.7341 24.035 23.3246 23.6432 23.6924C23.2645 24.0481 22.6979 24.1041 22.2633 23.8063C22.0864 23.6854 21.9325 23.5275 21.7806 23.3756C20.0019 21.5989 18.2203 19.8232 16.4526 18.0355C16.2127 17.7937 16.0639 17.7418 15.7551 17.9646C10.1033 22.0426 2.03122 18.5612 1.08692 11.6483C0.400427 6.62698 3.85587 1.89847 8.78223 1.12005C13.8955 0.311643 18.6809 3.66816 19.5633 8.71743C20.0109 11.2795 19.4563 13.6418 17.9624 15.7772C17.8875 15.8841 17.8216 15.9961 17.7506 16.105C17.7206 16.1479 17.6916 16.1899 17.6617 16.2319ZM10.3731 3.25447C6.46994 3.23248 3.30528 6.36817 3.25032 10.3133C3.19636 14.2054 6.41798 17.445 10.3471 17.45C14.2462 17.455 17.4338 14.2723 17.4468 10.3632C17.4598 6.4621 14.2892 3.27645 10.3731 3.25447Z" fill="#111111"/>
</svg>
