<svg width="18" height="19" viewBox="0 0 18 19" fill="none" xmlns="http://www.w3.org/2000/svg">
<path d="M8.99991 17.8007C7.47306 17.8007 5.94542 17.8015 4.41857 17.7999C3.53197 17.7991 3.03046 17.3869 2.90369 16.5011C2.48191 13.559 2.07528 10.6153 1.66308 7.67247C1.60966 7.29136 1.54029 6.91184 1.5076 6.52913C1.42946 5.63056 1.95888 5.05331 2.85904 5.04295C3.37729 5.03736 3.89554 5.02939 4.41299 5.04693C4.66893 5.0557 4.74866 4.97119 4.76939 4.71366C4.95596 2.35044 6.99069 0.602737 9.3563 0.759806C11.2962 0.88897 13.0917 2.65421 13.2193 4.59008C13.2424 4.94567 13.3365 5.07564 13.7024 5.04853C14.1513 5.01584 14.605 5.03976 15.0563 5.04135C16.0975 5.04454 16.6254 5.67521 16.4747 6.72447C16.2913 7.99857 16.1143 9.27267 15.9341 10.5476C15.6503 12.5576 15.372 14.5684 15.0802 16.5768C14.967 17.3558 14.4479 17.7959 13.6626 17.7991C12.1078 17.8055 10.5539 17.8007 8.99991 17.8007ZM5.58503 5.90085C5.58503 6.22535 5.59859 6.50361 5.58105 6.77948C5.5651 7.03223 5.3889 7.19488 5.15529 7.13588C5.003 7.09681 4.83317 6.92459 4.77417 6.77231C4.7072 6.59849 4.74308 6.37923 4.75504 6.18071C4.76859 5.95905 4.68727 5.87215 4.45924 5.87773C3.95454 5.88969 3.44984 5.87853 2.94515 5.88251C2.43646 5.8857 2.30252 6.03241 2.37188 6.5363C2.82794 9.83557 3.29118 13.134 3.74405 16.4333C3.79508 16.8032 3.96012 16.9492 4.34522 16.9476C7.42682 16.9356 10.5084 16.9412 13.59 16.9404C14.1282 16.9404 14.1848 16.8806 14.2605 16.336C14.4862 14.7063 14.7198 13.0774 14.947 11.4477C15.1782 9.79171 15.4015 8.13491 15.6375 6.4797C15.6829 6.16316 15.5984 5.91361 15.2715 5.89686C14.613 5.86338 13.952 5.8873 13.2432 5.8873C13.2432 6.17911 13.2432 6.42787 13.2432 6.67663C13.2432 6.95649 13.1284 7.14704 12.8286 7.14864C12.5296 7.15103 12.4076 6.96446 12.406 6.68381C12.4052 6.42548 12.406 6.16635 12.406 5.90165C10.1058 5.90085 7.87889 5.90085 5.58503 5.90085ZM12.3972 5.01743C12.3645 3.74971 11.8925 2.73873 10.809 2.10327C9.55483 1.36895 8.26399 1.39526 7.0457 2.19496C6.05545 2.84556 5.61852 3.81669 5.60576 5.01663C7.88527 5.01743 10.1225 5.01743 12.3972 5.01743Z" fill="#7141c4" stroke="#7141c4" stroke-miterlimit="10"/>
</svg>
