<svg width="24" height="25" viewBox="0 0 24 25" fill="none" xmlns="http://www.w3.org/2000/svg">
<path d="M11.9999 23.7342C9.96408 23.7342 7.92722 23.7353 5.89143 23.7332C4.70929 23.7321 4.04061 23.1825 3.87158 22.0014C3.30922 18.0787 2.76705 14.1538 2.21743 10.23C2.14621 9.72181 2.05372 9.21578 2.01013 8.7055C1.90595 7.50742 2.61184 6.73775 3.81205 6.72393C4.50305 6.71649 5.19405 6.70586 5.88399 6.72924C6.22524 6.74094 6.33154 6.62825 6.35918 6.28488C6.60794 3.13391 9.32092 0.803649 12.4751 1.01308C15.0615 1.18529 17.4556 3.53895 17.6257 6.1201C17.6565 6.59423 17.782 6.76751 18.2699 6.73137C18.8684 6.68778 19.4733 6.71968 20.075 6.7218C21.4634 6.72605 22.1671 7.56695 21.9662 8.96596C21.7217 10.6648 21.4857 12.3636 21.2455 14.0634C20.867 16.7434 20.496 19.4245 20.1069 22.1024C19.9559 23.141 19.2639 23.7279 18.2168 23.7321C16.1437 23.7406 14.0718 23.7342 11.9999 23.7342ZM7.44671 7.8678C7.44671 8.30047 7.46478 8.67149 7.4414 9.03931C7.42014 9.37631 7.1852 9.59317 6.87371 9.51451C6.67067 9.46241 6.44423 9.23279 6.36556 9.02974C6.27626 8.79799 6.3241 8.50565 6.34005 8.24094C6.35812 7.9454 6.24969 7.82953 5.94565 7.83697C5.27272 7.85292 4.59979 7.83803 3.92686 7.84335C3.24862 7.8476 3.07002 8.04321 3.16251 8.71507C3.77059 13.1141 4.38824 17.512 4.99207 21.9111C5.0601 22.4043 5.28016 22.5989 5.79363 22.5967C9.90242 22.5808 14.0112 22.5882 18.12 22.5872C18.8376 22.5872 18.9131 22.5074 19.0141 21.7814C19.3149 19.6084 19.6264 17.4366 19.9294 15.2636C20.2377 13.0556 20.5353 10.8465 20.85 8.63959C20.9106 8.21755 20.7979 7.88481 20.362 7.86248C19.4839 7.81783 18.6026 7.84973 17.6576 7.84973C17.6576 8.23881 17.6576 8.57049 17.6576 8.90217C17.6576 9.27531 17.5045 9.52939 17.1048 9.53152C16.7061 9.5347 16.5435 9.28594 16.5413 8.91174C16.5403 8.5673 16.5413 8.2218 16.5413 7.86886C13.4744 7.8678 10.5052 7.8678 7.44671 7.8678ZM16.5296 6.68991C16.4861 4.99962 15.8567 3.65163 14.412 2.80436C12.7398 1.82527 11.0187 1.86035 9.39427 2.92661C8.07393 3.79409 7.49136 5.08891 7.47435 6.68885C10.5137 6.68991 13.4967 6.68991 16.5296 6.68991Z" fill="#111111" stroke="#111111" stroke-miterlimit="10"/>
</svg>
