<svg width="24" height="25" viewBox="0 0 24 25" fill="none" xmlns="http://www.w3.org/2000/svg">
<path d="M11.9651 6.24435C8.74601 6.24435 5.52696 6.24022 2.30792 6.24849C1.78147 6.24987 1.29477 6.10787 1.16316 5.58123C1.07541 5.22969 1.13437 4.74165 1.33042 4.45214C1.49356 4.2095 1.94872 4.05372 2.27639 4.05234C8.75972 4.03028 15.243 4.03304 21.7264 4.03855C22.4832 4.03855 22.9561 4.47144 22.9657 5.12215C22.9767 5.7963 22.4886 6.24022 21.6907 6.2416C18.4498 6.24711 15.2074 6.24435 11.9651 6.24435Z" fill="#111111"/>
<path d="M11.928 13.9631C8.82279 13.9631 5.71891 13.9631 2.61366 13.9631C2.43132 13.9631 2.24761 13.9741 2.06664 13.9562C1.46478 13.8956 1.04252 13.4461 1.03567 12.8726C1.02881 12.2977 1.44696 11.8318 2.04059 11.7628C2.19825 11.7449 2.36003 11.7545 2.51906 11.7545C8.86529 11.7545 15.2129 11.7545 21.5591 11.7545C21.5824 11.7545 21.6044 11.7545 21.6277 11.7545C22.4749 11.7642 22.9795 12.1874 22.9657 12.8809C22.9534 13.5495 22.4667 13.959 21.6537 13.9617C19.9414 13.9672 18.229 13.9645 16.5167 13.9645C14.9881 13.9645 13.4581 13.9645 11.928 13.9631Z" fill="#111111"/>
<path d="M11.9966 19.4736C15.1704 19.4736 18.3428 19.4736 21.5166 19.4763C21.7429 19.4763 21.9842 19.4639 22.1925 19.5342C22.6984 19.7052 22.9877 20.0788 22.9575 20.6275C22.926 21.2024 22.5888 21.5511 22.0335 21.6656C21.858 21.7014 21.6702 21.6835 21.4865 21.6835C15.1403 21.6835 8.79265 21.6835 2.44642 21.6835C2.35456 21.6835 2.26408 21.6876 2.17222 21.6821C1.48674 21.6449 1.02472 21.19 1.03294 20.5627C1.04117 19.9354 1.50045 19.4846 2.20101 19.4777C3.91336 19.4639 5.6257 19.4722 7.33805 19.4722C8.89273 19.4722 10.4447 19.4736 11.9966 19.4736Z" fill="#111111"/>
</svg>
