<svg width="13" height="16" viewBox="0 0 13 16" fill="none" xmlns="http://www.w3.org/2000/svg">
<path d="M0 10.2995C0.00314551 8.97838 0.478117 7.84599 1.40919 6.91177C3.33109 4.98358 5.23727 3.03651 7.19064 1.14291C8.70992 -0.332334 10.55 -0.366935 11.9529 0.966761C13.3401 2.28473 13.3684 4.36706 11.9215 5.8769C10.0751 7.80195 8.1626 9.66724 6.269 11.5514C5.34422 12.4699 4.30935 12.6272 3.37513 11.6583C2.45035 10.7021 2.61706 9.65781 3.51983 8.73932C5.02338 7.20745 6.54266 5.69132 8.06823 4.18147C8.33875 3.9141 8.5841 3.44228 9.09052 3.90152C9.66615 4.42682 9.16602 4.72565 8.85461 5.0402C7.41711 6.49028 5.96703 7.92777 4.52953 9.37785C4.12062 9.78992 3.61105 10.2743 4.22442 10.8279C4.78118 11.3312 5.27502 10.9097 5.70596 10.4788C7.47688 8.69528 9.27611 6.94008 11.025 5.13456C12.0442 4.08396 12.0945 2.80059 11.2452 1.91671C10.355 0.98878 8.98358 1.02023 7.90467 2.07084C5.99534 3.93612 4.09545 5.81399 2.24589 7.74219C0.786377 9.26147 0.808396 11.4382 2.205 12.8128C3.63621 14.2156 5.73426 14.2377 7.285 12.8002C8.39851 11.7653 9.43653 10.6549 10.5217 9.59175C10.7985 9.32124 11.0628 8.87143 11.5503 9.32438C12.019 9.76161 11.6856 10.0636 11.3836 10.3655C10.16 11.5829 8.9993 12.8788 7.68134 13.9892C6.20295 15.2379 4.48235 15.4361 2.69256 14.5805C1.0506 13.7942 0.00314551 12.1365 0 10.2995Z" fill="#111111"/>
</svg>
