<svg width="105" height="218" viewBox="0 0 105 218" fill="none" xmlns="http://www.w3.org/2000/svg">
<path d="M11.9651 6.24438C8.74601 6.24438 5.52696 6.24025 2.30792 6.24852C1.78147 6.2499 1.29477 6.1079 1.16316 5.58126C1.07541 5.22972 1.13437 4.74168 1.33042 4.45217C1.49356 4.20953 1.94872 4.05375 2.27639 4.05237C8.75972 4.03031 15.243 4.03307 21.7264 4.03858C22.4832 4.03858 22.9561 4.47147 22.9657 5.12218C22.9767 5.79633 22.4886 6.24025 21.6907 6.24163C18.4498 6.24714 15.2074 6.24438 11.9651 6.24438Z" fill="#1F1F1F"/>
<path d="M11.928 13.9633C8.82279 13.9633 5.71891 13.9633 2.61366 13.9633C2.43132 13.9633 2.24761 13.9743 2.06664 13.9564C1.46478 13.8958 1.04252 13.4463 1.03567 12.8728C1.02881 12.2979 1.44696 11.832 2.04059 11.763C2.19825 11.7451 2.36003 11.7548 2.51906 11.7548C8.86529 11.7548 15.2129 11.7548 21.5591 11.7548C21.5824 11.7548 21.6044 11.7548 21.6277 11.7548C22.4749 11.7644 22.9795 12.1876 22.9657 12.8811C22.9534 13.5497 22.4667 13.9592 21.6537 13.9619C19.9414 13.9675 18.229 13.9647 16.5167 13.9647C14.9881 13.9647 13.4581 13.9647 11.928 13.9633Z" fill="#1F1F1F"/>
<path d="M11.9966 19.4737C15.1704 19.4737 18.3428 19.4737 21.5166 19.4764C21.7429 19.4764 21.9842 19.464 22.1925 19.5343C22.6984 19.7053 22.9877 20.0789 22.9575 20.6276C22.926 21.2025 22.5888 21.5513 22.0335 21.6657C21.858 21.7015 21.6702 21.6836 21.4865 21.6836C15.1403 21.6836 8.79265 21.6836 2.44642 21.6836C2.35456 21.6836 2.26408 21.6878 2.17222 21.6822C1.48674 21.645 1.02472 21.1901 1.03294 20.5628C1.04117 19.9355 1.50045 19.4847 2.20101 19.4778C3.91336 19.464 5.6257 19.4723 7.33805 19.4723C8.89273 19.4723 10.4447 19.4737 11.9966 19.4737Z" fill="#1F1F1F"/>
<path d="M44.6617 16.2319C44.8166 16.3318 44.9944 16.4087 45.1223 16.5367C46.883 18.2854 48.6367 20.0401 50.3904 21.7958C50.5433 21.9487 50.7012 22.1025 50.8191 22.2804C51.1179 22.7341 51.035 23.3246 50.6432 23.6924C50.2645 24.0481 49.6979 24.1041 49.2633 23.8063C49.0864 23.6854 48.9325 23.5275 48.7806 23.3756C47.0019 21.5989 45.2203 19.8232 43.4526 18.0355C43.2127 17.7937 43.0639 17.7418 42.7551 17.9646C37.1033 22.0426 29.0312 18.5612 28.0869 11.6483C27.4004 6.62698 30.8559 1.89847 35.7822 1.12005C40.8955 0.311643 45.6809 3.66816 46.5633 8.71743C47.0109 11.2795 46.4563 13.6418 44.9624 15.7772C44.8875 15.8841 44.8216 15.9961 44.7506 16.105C44.7206 16.1479 44.6916 16.1899 44.6617 16.2319ZM37.3731 3.25447C33.4699 3.23248 30.3053 6.36817 30.2503 10.3133C30.1964 14.2054 33.418 17.445 37.3471 17.45C41.2462 17.455 44.4338 14.2723 44.4468 10.3632C44.4598 6.4621 41.2892 3.27645 37.3731 3.25447Z" fill="#1F1F1F"/>
<path d="M65.9999 23.7342C63.9641 23.7342 61.9272 23.7353 59.8914 23.7332C58.7093 23.7321 58.0406 23.1825 57.8716 22.0014C57.3092 18.0787 56.767 14.1538 56.2174 10.23C56.1462 9.72181 56.0537 9.21578 56.0101 8.7055C55.906 7.50742 56.6118 6.73775 57.8121 6.72393C58.5031 6.71649 59.1941 6.70586 59.884 6.72924C60.2252 6.74094 60.3315 6.62825 60.3592 6.28488C60.6079 3.13391 63.3209 0.803649 66.4751 1.01308C69.0615 1.18529 71.4556 3.53895 71.6257 6.1201C71.6565 6.59423 71.782 6.76751 72.2699 6.73137C72.8684 6.68778 73.4733 6.71968 74.075 6.7218C75.4634 6.72605 76.1671 7.56695 75.9662 8.96596C75.7217 10.6648 75.4857 12.3636 75.2455 14.0634C74.867 16.7434 74.496 19.4245 74.1069 22.1024C73.9559 23.141 73.2639 23.7279 72.2168 23.7321C70.1437 23.7406 68.0718 23.7342 65.9999 23.7342ZM61.4467 7.8678C61.4467 8.30047 61.4648 8.67149 61.4414 9.03931C61.4201 9.37631 61.1852 9.59317 60.8737 9.51451C60.6707 9.46241 60.4442 9.23279 60.3656 9.02974C60.2763 8.79799 60.3241 8.50565 60.34 8.24094C60.3581 7.9454 60.2497 7.82953 59.9456 7.83697C59.2727 7.85292 58.5998 7.83803 57.9269 7.84335C57.2486 7.8476 57.07 8.04321 57.1625 8.71507C57.7706 13.1141 58.3882 17.512 58.9921 21.9111C59.0601 22.4043 59.2802 22.5989 59.7936 22.5967C63.9024 22.5808 68.0112 22.5882 72.12 22.5872C72.8376 22.5872 72.9131 22.5074 73.0141 21.7814C73.3149 19.6084 73.6264 17.4366 73.9294 15.2636C74.2377 13.0556 74.5353 10.8465 74.85 8.63959C74.9106 8.21755 74.7979 7.88481 74.362 7.86248C73.4839 7.81783 72.6026 7.84973 71.6576 7.84973C71.6576 8.23881 71.6576 8.57049 71.6576 8.90217C71.6576 9.27531 71.5045 9.52939 71.1048 9.53152C70.7061 9.5347 70.5435 9.28594 70.5413 8.91174C70.5403 8.5673 70.5413 8.2218 70.5413 7.86886C67.4744 7.8678 64.5052 7.8678 61.4467 7.8678ZM70.5296 6.68991C70.4861 4.99962 69.8567 3.65163 68.412 2.80436C66.7398 1.82527 65.0187 1.86035 63.3943 2.92661C62.0739 3.79409 61.4914 5.08891 61.4744 6.68885C64.5137 6.68991 67.4967 6.68991 70.5296 6.68991Z" fill="#1F1F1F" stroke="#1F1F1F" stroke-miterlimit="10"/>
<path d="M105 14.42V17.96C105 18.49 104.59 18.92 104.07 18.96C103.63 18.98 103.28 19 103 19C94.16 19 87 11.84 87 3C87 2.72 87.02 2.37 87.05 1.93C87.08 1.41 87.52 1 88.04 1H91.58C91.84 1 92.05 1.19 92.08 1.45C92.1 1.68 92.12 1.86 92.14 2C92.34 3.39 92.75 4.74 93.35 6C93.45 6.2 93.38 6.44 93.2 6.57L91.05 8.11C92.37 11.18 94.82 13.63 97.89 14.95L99.43 12.8C99.56 12.62 99.8 12.56 100 12.65C101.27 13.25 102.61 13.66 104 13.85C104.14 13.87 104.32 13.89 104.55 13.91C104.81 13.95 105 14.16 105 14.42Z" fill="#1F1F1F"/>
<rect x="7" y="51" width="3" height="17" fill="#595E65"/>
<rect x="17" y="58" width="3" height="17" transform="rotate(90 17 58)" fill="#595E65"/>
<path d="M54.25 51L45.625 60L37 51" stroke="#595E65" stroke-width="3"/>
<rect x="0.5" y="101.5" width="2" height="2" stroke="#111111"/>
<rect x="0.5" y="107.5" width="2" height="2" stroke="#111111"/>
<rect x="0.5" y="113.5" width="2" height="2" stroke="#111111"/>
<rect x="5" y="102" width="15" height="1" fill="#111111"/>
<rect x="5" y="108" width="15" height="1" fill="#111111"/>
<rect x="5" y="114" width="15" height="1" fill="#111111"/>
<rect x="38.5" y="99.5" width="7" height="7" stroke="#111111"/>
<rect x="38.5" y="109.5" width="7" height="7" stroke="#111111"/>
<rect x="48.5" y="99.5" width="7" height="7" stroke="#111111"/>
<rect x="48.5" y="109.5" width="7" height="7" stroke="#111111"/>
<circle cx="22" cy="196" r="22" fill="#FEDE22" fill-opacity="0.7"/>
<path d="M21.9999 204.801C20.4731 204.801 18.9454 204.801 17.4186 204.8C16.532 204.799 16.0305 204.387 15.9037 203.501C15.4819 200.559 15.0753 197.615 14.6631 194.672C14.6097 194.291 14.5403 193.912 14.5076 193.529C14.4295 192.631 14.9589 192.053 15.859 192.043C16.3773 192.037 16.8955 192.029 17.413 192.047C17.6689 192.056 17.7487 191.971 17.7694 191.714C17.956 189.35 19.9907 187.603 22.3563 187.76C24.2962 187.889 26.0917 189.654 26.2193 191.59C26.2424 191.946 26.3365 192.076 26.7024 192.049C27.1513 192.016 27.605 192.04 28.0563 192.041C29.0975 192.045 29.6254 192.675 29.4747 193.724C29.2913 194.999 29.1143 196.273 28.9341 197.548C28.6503 199.558 28.372 201.568 28.0802 203.577C27.967 204.356 27.4479 204.796 26.6626 204.799C25.1078 204.805 23.5539 204.801 21.9999 204.801ZM18.585 192.901C18.585 193.225 18.5986 193.504 18.581 193.779C18.5651 194.032 18.3889 194.195 18.1553 194.136C18.003 194.097 17.8332 193.925 17.7742 193.772C17.7072 193.598 17.7431 193.379 17.755 193.181C17.7686 192.959 17.6873 192.872 17.4592 192.878C16.9545 192.89 16.4498 192.879 15.9451 192.883C15.4365 192.886 15.3025 193.032 15.3719 193.536C15.8279 196.836 16.2912 200.134 16.7441 203.433C16.7951 203.803 16.9601 203.949 17.3452 203.948C20.4268 203.936 23.5084 203.941 26.59 203.94C27.1282 203.94 27.1848 203.881 27.2605 203.336C27.4862 201.706 27.7198 200.077 27.947 198.448C28.1782 196.792 28.4015 195.135 28.6375 193.48C28.6829 193.163 28.5984 192.914 28.2715 192.897C27.613 192.863 26.952 192.887 26.2432 192.887C26.2432 193.179 26.2432 193.428 26.2432 193.677C26.2432 193.956 26.1284 194.147 25.8286 194.149C25.5296 194.151 25.4076 193.964 25.406 193.684C25.4052 193.425 25.406 193.166 25.406 192.902C23.1058 192.901 20.8789 192.901 18.585 192.901ZM25.3972 192.017C25.3645 190.75 24.8925 189.739 23.809 189.103C22.5548 188.369 21.264 188.395 20.0457 189.195C19.0554 189.846 18.6185 190.817 18.6058 192.017C20.8853 192.017 23.1225 192.017 25.3972 192.017Z" fill="#2B3541" stroke="#2B3541" stroke-miterlimit="10"/>
<rect x="4.54553" y="151.546" width="14.1421" height="1.28565" transform="rotate(-45 4.54553 151.546)" fill="#111111"/>
<rect x="14.5456" y="152.454" width="14.1421" height="1.28565" transform="rotate(-135 14.5456 152.454)" fill="#111111"/>
<path d="M32 149.299C32.0031 147.978 32.4781 146.846 33.4092 145.912C35.3311 143.984 37.2373 142.037 39.1906 140.143C40.7099 138.668 42.55 138.633 43.9529 139.967C45.3401 141.285 45.3684 143.367 43.9215 144.877C42.0751 146.802 40.1626 148.667 38.269 150.551C37.3442 151.47 36.3093 151.627 35.3751 150.658C34.4504 149.702 34.6171 148.658 35.5198 147.739C37.0234 146.207 38.5427 144.691 40.0682 143.181C40.3387 142.914 40.5841 142.442 41.0905 142.902C41.6662 143.427 41.166 143.726 40.8546 144.04C39.4171 145.49 37.967 146.928 36.5295 148.378C36.1206 148.79 35.611 149.274 36.2244 149.828C36.7812 150.331 37.275 149.91 37.706 149.479C39.4769 147.695 41.2761 145.94 43.025 144.135C44.0442 143.084 44.0945 141.801 43.2452 140.917C42.355 139.989 40.9836 140.02 39.9047 141.071C37.9953 142.936 36.0955 144.814 34.2459 146.742C32.7864 148.261 32.8084 150.438 34.205 151.813C35.6362 153.216 37.7343 153.238 39.285 151.8C40.3985 150.765 41.4365 149.655 42.5217 148.592C42.7985 148.321 43.0628 147.871 43.5503 148.324C44.019 148.762 43.6856 149.064 43.3836 149.366C42.16 150.583 40.9993 151.879 39.6813 152.989C38.2029 154.238 36.4824 154.436 34.6926 153.581C33.0506 152.794 32.0031 151.136 32 149.299Z" fill="#111111"/>
</svg>
