<svg width="13" height="14" viewBox="0 0 13 14" fill="none" xmlns="http://www.w3.org/2000/svg">
<path d="M6.94444 11.6199H11.1111V5.35465L6.25 1.57409L1.38889 5.35465V11.6199H5.55556V7.45326H6.94444V11.6199ZM12.5 12.3144C12.5 12.4986 12.4268 12.6752 12.2966 12.8054C12.1664 12.9357 11.9897 13.0088 11.8056 13.0088H0.694445C0.510266 13.0088 0.333632 12.9357 0.203398 12.8054C0.0731646 12.6752 1.6716e-07 12.4986 1.6716e-07 12.3144V5.01576C-7.32525e-05 4.90994 0.0240397 4.80549 0.0704972 4.71041C0.116955 4.61533 0.184528 4.53212 0.268056 4.46715L5.82361 0.146315C5.94552 0.0514856 6.09555 0 6.25 0C6.40445 0 6.55448 0.0514856 6.67639 0.146315L12.2319 4.46715C12.3155 4.53212 12.383 4.61533 12.4295 4.71041C12.476 4.80549 12.5001 4.90994 12.5 5.01576V12.3144Z" fill="#999999"/>
</svg>
