<svg width="219" height="27" viewBox="0 0 219 27" fill="none" xmlns="http://www.w3.org/2000/svg">
<mask id="mask0" mask-type="alpha" maskUnits="userSpaceOnUse" x="1" y="2" width="218" height="20">
<path d="M1.20145 11.961C1.20145 15.135 1.70745 17.596 3.22545 19.321C4.53645 20.816 6.46845 21.552 8.95245 21.552C13.6904 21.552 16.4044 18.976 16.5424 14.698H11.5974C11.5514 16.492 10.7004 17.596 8.95245 17.596C8.05545 17.596 7.43445 17.297 6.95145 16.607C6.37645 15.756 6.19245 14.514 6.19245 11.961C6.19245 9.454 6.37645 8.189 6.95145 7.361C7.43445 6.671 8.05545 6.372 8.95245 6.372C10.7004 6.372 11.5284 7.453 11.5974 9.27H16.5424C16.4044 4.992 13.6904 2.393 8.95245 2.393C6.46845 2.393 4.53645 3.129 3.22545 4.624C1.70745 6.349 1.20145 8.833 1.20145 11.961ZM31.6581 2.715H26.6671V21.23H31.6581V2.715ZM49.3746 21.23C55.2626 21.23 56.9186 17.757 56.9186 11.961C56.9186 6.257 55.2856 2.715 49.3746 2.715H42.1526V21.23H49.3746ZM51.9506 11.961C51.9506 16.469 51.1686 17.435 49.2136 17.435H47.1436V6.51H49.2136C51.0766 6.51 51.9506 7.384 51.9506 11.961ZM67.0941 21.23H79.2841V17.297H72.0851V13.732H78.2031V9.753H72.0851V6.671H79.1461V2.715H67.0941V21.23ZM98.4697 19.505C98.5157 20.126 98.6077 20.839 98.8147 21.23H103.783C103.576 20.793 103.438 20.241 103.392 19.482L103.231 16.975C103.07 14.537 102.311 13.364 100.402 13.019C102.311 12.467 103.553 10.88 103.553 8.373C103.553 4.969 101.46 2.715 97.4347 2.715H89.4077V21.23H94.3987V15.02H96.3307C97.6877 15.02 98.2397 15.549 98.3317 17.205L98.4697 19.505ZM94.3987 11.064V6.671H96.4227C97.8257 6.671 98.5617 7.292 98.5617 8.879C98.5617 10.42 97.8257 11.064 96.4227 11.064H94.3987ZM140.572 21.23L143.723 12.858V21.23H148.507V2.715H143.907L138.778 16.308L133.649 2.715H129.026V21.23H133.81V12.858L136.961 21.23H140.572ZM163.897 2.715L158.055 21.23H163.046L163.805 18.263H168.98L169.739 21.23H174.753L168.911 2.715H163.897ZM168.037 14.537H164.748L166.404 8.097L168.037 14.537ZM184.3 21.23H196.49V17.297H189.291V2.715H184.3V21.23ZM206.142 21.23H218.332V17.297H211.133V2.715H206.142V21.23Z" fill="#111111"/>
</mask>
<g mask="url(#mask0)">
<rect x="-9" y="-5" width="232" height="36" fill="#111111"/>
<path d="M164.8 14.5H168L169.5 20.5L162.8 22L164.8 14.5Z" fill="#00D564"/>
</g>
</svg>
