<?xml version="1.0" encoding="UTF-8"?>
<svg width="45px" height="15px" viewBox="0 0 45 15" version="1.1" xmlns="http://www.w3.org/2000/svg" xmlns:xlink="http://www.w3.org/1999/xlink">
    <!-- Generator: Sketch 62 (91390) - https://sketch.com -->
    <title>CS관리</title>
    <desc>Created with Sketch.</desc>
    <g id="components" stroke="none" stroke-width="1" fill="none" fill-rule="evenodd">
        <g id="common/header" transform="translate(-154.000000, -22.000000)" fill="#6B7583" fill-rule="nonzero">
            <g id="header">
                <g id="logo">
                    <path d="M159.895,35.21 C160.615,35.21 161.27,35.0725 161.86,34.7975 C162.45,34.5225 162.975,34.115 163.435,33.575 L163.435,33.575 L162.265,32.195 C161.965,32.515 161.6275,32.7775 161.2525,32.9825 C160.8775,33.1875 160.45,33.29 159.97,33.29 C159.53,33.29 159.1325,33.2025 158.7775,33.0275 C158.4225,32.8525 158.1175,32.5975 157.8625,32.2625 C157.6075,31.9275 157.4125,31.52 157.2775,31.04 C157.1425,30.56 157.075,30.02 157.075,29.42 C157.075,28.82 157.15,28.285 157.3,27.815 C157.45,27.345 157.655,26.945 157.915,26.615 C158.175,26.285 158.485,26.0325 158.845,25.8575 C159.205,25.6825 159.595,25.595 160.015,25.595 C160.435,25.595 160.81,25.6825 161.14,25.8575 C161.47,26.0325 161.775,26.255 162.055,26.525 L162.055,26.525 L163.225,25.115 C162.865,24.735 162.41,24.4025 161.86,24.1175 C161.31,23.8325 160.68,23.69 159.97,23.69 C159.27,23.69 158.6075,23.82 157.9825,24.08 C157.3575,24.34 156.81,24.72 156.34,25.22 C155.87,25.72 155.4975,26.33 155.2225,27.05 C154.9475,27.77 154.81,28.585 154.81,29.495 C154.81,30.425 154.9425,31.245 155.2075,31.955 C155.4725,32.665 155.835,33.26 156.295,33.74 C156.755,34.22 157.295,34.585 157.915,34.835 C158.535,35.085 159.195,35.21 159.895,35.21 Z M168.07,35.21 C168.71,35.21 169.2825,35.12 169.7875,34.94 C170.2925,34.76 170.72,34.5175 171.07,34.2125 C171.42,33.9075 171.6875,33.55 171.8725,33.14 C172.0575,32.73 172.15,32.3 172.15,31.85 C172.15,31.45 172.0975,31.0925 171.9925,30.7775 C171.8875,30.4625 171.7375,30.185 171.5425,29.945 C171.3475,29.705 171.1125,29.495 170.8375,29.315 C170.5625,29.135 170.255,28.975 169.915,28.835 L169.915,28.835 L168.46,28.22 C168.22,28.13 167.995,28.04 167.785,27.95 C167.575,27.86 167.3925,27.76 167.2375,27.65 C167.0825,27.54 166.9575,27.415 166.8625,27.275 C166.7675,27.135 166.72,26.965 166.72,26.765 C166.72,26.395 166.865,26.1075 167.155,25.9025 C167.445,25.6975 167.835,25.595 168.325,25.595 C168.785,25.595 169.205,25.675 169.585,25.835 C169.965,25.995 170.33,26.22 170.68,26.51 L170.68,26.51 L171.805,25.115 C171.355,24.655 170.825,24.3025 170.215,24.0575 C169.605,23.8125 168.975,23.69 168.325,23.69 C167.765,23.69 167.25,23.7725 166.78,23.9375 C166.31,24.1025 165.905,24.3275 165.565,24.6125 C165.225,24.8975 164.96,25.2375 164.77,25.6325 C164.58,26.0275 164.485,26.45 164.485,26.9 C164.485,27.31 164.55,27.6725 164.68,27.9875 C164.81,28.3025 164.98,28.5825 165.19,28.8275 C165.4,29.0725 165.64,29.28 165.91,29.45 C166.18,29.62 166.455,29.765 166.735,29.885 L166.735,29.885 L168.22,30.515 C168.47,30.625 168.6975,30.725 168.9025,30.815 C169.1075,30.905 169.2825,31.005 169.4275,31.115 C169.5725,31.225 169.685,31.35 169.765,31.49 C169.845,31.63 169.885,31.805 169.885,32.015 C169.885,32.405 169.735,32.715 169.435,32.945 C169.135,33.175 168.695,33.29 168.115,33.29 C167.625,33.29 167.1325,33.1775 166.6375,32.9525 C166.1425,32.7275 165.695,32.43 165.295,32.06 L165.295,32.06 L164.02,33.59 C164.56,34.11 165.1825,34.51 165.8875,34.79 C166.5925,35.07 167.32,35.21 168.07,35.21 Z M184.42,32.81 L184.42,28.31 L186.07,28.31 L186.07,26.675 L184.42,26.675 L184.42,22.46 L182.44,22.46 L182.44,32.81 L184.42,32.81 Z M180.775,28.4 C180.935,27.52 181.0275,26.7425 181.0525,26.0675 C181.0775,25.3925 181.09,24.815 181.09,24.335 L181.09,24.335 L181.09,23.48 L173.995,23.48 L173.995,25.055 L179.14,25.055 C179.13,25.475 179.105,25.9375 179.065,26.4425 C179.025,26.9475 178.95,27.525 178.84,28.175 L178.84,28.175 L180.775,28.4 Z M173.38,30.965 C173.97,30.965 174.6075,30.9575 175.2925,30.9425 C175.9775,30.9275 176.685,30.9 177.415,30.86 C178.145,30.82 178.8825,30.76 179.6275,30.68 C180.3725,30.6 181.1,30.495 181.81,30.365 L181.81,30.365 L181.69,28.955 C181.04,29.045 180.3775,29.1175 179.7025,29.1725 C179.0275,29.2275 178.345,29.27 177.655,29.3 L177.655,29.3 L177.655,26.69 L175.72,26.69 L175.72,29.375 C175.27,29.385 174.8325,29.39 174.4075,29.39 L174.4075,29.39 L173.2,29.39 L173.38,30.965 Z M184.855,36.05 L184.855,34.475 L177.19,34.475 L177.19,31.895 L175.21,31.895 L175.21,36.05 L184.855,36.05 Z M198.685,36.32 L198.685,22.46 L196.705,22.46 L196.705,36.32 L198.685,36.32 Z M189.175,33.11 C189.805,33.11 190.405,33.1025 190.975,33.0875 C191.545,33.0725 192.105,33.0475 192.655,33.0125 C193.205,32.9775 193.7525,32.93 194.2975,32.87 C194.8425,32.81 195.395,32.73 195.955,32.63 L195.955,32.63 L195.745,31.025 C195.255,31.105 194.7775,31.1725 194.3125,31.2275 C193.8475,31.2825 193.38,31.3275 192.91,31.3625 C192.44,31.3975 191.96,31.425 191.47,31.445 C190.98,31.465 190.475,31.475 189.955,31.475 L189.955,31.475 L189.955,28.985 L194.44,28.985 L194.44,23.645 L187.915,23.645 L187.915,25.22 L192.415,25.22 L192.415,27.425 L187.93,27.425 L187.93,33.11 L189.175,33.11 Z" id="CS관리"></path>
                </g>
            </g>
        </g>
    </g>
</svg>