<?xml version="1.0" encoding="UTF-8"?>
<svg width="100px" height="20px" viewBox="0 0 100 20" version="1.1" xmlns="http://www.w3.org/2000/svg" xmlns:xlink="http://www.w3.org/1999/xlink">
    <!-- Generator: Sketch 62 (91390) - https://sketch.com -->
    <title>logo_fill</title>
    <desc>Created with Sketch.</desc>
    <g id="logo_fill" stroke="none" stroke-width="1" fill="none" fill-rule="evenodd">
        <g id="logo" fill-rule="nonzero">
            <path d="M25.5979348,15.815163 C23.0979348,15.815163 21.0870652,13.8042935 21.0870652,11.3042935 C21.0870652,8.80429348 23.0979348,6.79342391 25.5979348,6.79342391 C28.0979348,6.79342391 30.1088043,8.80429348 30.1088043,11.3042935 C30.1631522,13.7499457 28.0979348,15.815163 25.5979348,15.815163 L25.5979348,15.815163 Z M30.7609783,5.76081522 C29.4022826,4.51081522 27.6088043,3.69559783 25.5979348,3.69559783 C21.4131522,3.69559783 18.043587,7.06516304 18.043587,11.2499457 C18.043587,15.4347283 21.4131522,18.8042935 25.5979348,18.8042935 C27.6088043,18.8042935 29.4566304,17.9890761 30.8153261,16.6847283 L30.8153261,18.7499457 L33.6957609,18.7499457 L33.6957609,-5.43478261e-05 L30.7609783,-5.43478261e-05 L30.7609783,5.76081522 Z" id="Shape" fill="#0069FF"></path>
            <path d="M7.88048913,15.5434239 C3.04353261,15.2716848 3.04353261,11.3042935 3.04353261,11.3042935 L3.04353261,3.91298913 L0.0544021739,3.91298913 L5.43478261e-05,11.14125 C0.10875,15.4890761 3.47831522,17.4455978 3.47831522,17.4455978 C9.13048913,20.5977717 13.1522283,17.1738587 13.1522283,17.1738587 L13.1522283,11.1955978 C12.7717935,15.9238587 7.88048913,15.5434239 7.88048913,15.5434239" id="Path" fill="#FF273D"></path>
            <polygon id="Path" fill="#0069FF" points="13.1521739 18.8043478 16.3043478 18.8043478 16.3043478 3.91304348 13.1521739 3.91304348"></polygon>
            <path d="M38.7775543,6.6938587 L36.9232065,6.6938587 L36.9232065,4.16668478 L38.7775543,4.16668478 L38.7775543,-0.000163043478 L42.0579891,-0.000163043478 L42.0579891,4.16668478 L46.42375,4.16668478 L46.42375,6.6938587 L42.0579891,6.6938587 L42.0579891,14.8215761 C42.0579891,15.935163 43.0579891,16.312337 44.4275543,16.312337 L46.42375,16.312337 L46.42375,19.1400543 L43.3134239,19.1400543 C40.5177717,19.1400543 38.7775543,18.0264674 38.7775543,14.9824457 L38.7775543,6.6938587 Z M74.5563587,19.1402717 L71.3047283,19.1402717 L71.3047283,17.3467935 C70.2775543,18.6239674 67.9655978,19.357663 66.11125,19.357663 C62.4308152,19.357663 59.635163,17.1565761 59.635163,12.97125 L59.635163,4.1663587 L62.8590761,4.1663587 L62.8590761,12.5092935 C62.8590761,15.2544022 64.4275543,16.6674457 66.7960326,16.6674457 C69.1922283,16.6674457 71.3047283,15.2544022 71.3047283,12.5092935 L71.3047283,4.1663587 L74.5563587,4.1663587 L74.5563587,19.1402717 Z M83.4011413,10.2185326 C81.5745109,9.74353261 79.9967935,9.33320652 79.9967935,8.15983696 C79.9967935,7.20222826 80.9380978,6.63048913 82.5141848,6.63048913 C84.1310326,6.63048913 85.2158152,7.5386413 85.3277717,8.8038587 L88.8478804,8.8038587 C88.8478804,5.78429348 86.2859239,3.78592391 82.6277717,3.78592391 C79.045163,3.78592391 76.4446196,5.63701087 76.4446196,8.18701087 C76.4446196,11.422337 79.6169022,12.2217935 82.1663587,12.8636413 C83.9946196,13.3239674 85.5734239,13.7217935 85.5734239,14.8419022 C85.5734239,15.8511413 84.5217935,16.4783152 82.8277717,16.4783152 C81.2016848,16.4783152 79.9266848,15.482663 79.8130978,14.2783152 L76.1804891,14.2783152 C76.1804891,17.1228804 79.1554891,19.3228804 82.884837,19.3228804 C86.5092935,19.3228804 89.0402717,17.4696196 89.0402717,14.8109239 C88.9386413,11.6592935 85.8685326,10.8603804 83.4011413,10.2185326 M51.0403261,4.18532609 L51.0468478,5.8451087 C51.9408696,4.21902174 53.505,3.99836957 54.9316304,3.99836957 C56.3865217,3.99836957 57.7843478,4.6125 58.5544565,5.44184783 L56.9854348,8.15271739 C56.2723913,7.50815217 55.616413,7.17065217 54.4751087,7.17065217 C52.6495652,7.17065217 51.2968478,8.54565217 51.2968478,11.3396739 L51.2968478,19.3233696 L48.3598913,19.3233696 L48.3598913,4.18532609 L51.0403261,4.18532609 Z M91.9752717,6.6938587 L90.1209239,6.6938587 L90.1209239,4.16668478 L91.9752717,4.16668478 L91.9752717,-0.000163043478 L95.2557065,-0.000163043478 L95.2557065,4.16668478 L99.6214674,4.16668478 L99.6214674,6.6938587 L95.2557065,6.6938587 L95.2557065,14.8215761 C95.2557065,15.935163 96.2557065,16.312337 97.6252717,16.312337 L99.6214674,16.312337 L99.6214674,19.1400543 L96.5111413,19.1400543 C93.7154891,19.1400543 91.9752717,18.0264674 91.9752717,14.9824457 L91.9752717,6.6938587 Z" id="Shape" fill="#1F3B56"></path>
        </g>
    </g>
</svg>