<svg width="485" height="97" viewBox="0 0 485 97" fill="none" xmlns="http://www.w3.org/2000/svg">
<path d="M96.0049 31.0642C82.0203 29.8966 101.258 29.0953 92.9806 28.4543C39.6344 24.3562 0 49.3339 0 49.3339L15.872 66.9168C15.872 66.9168 14.0073 91.1848 14.8942 97C26.4457 88.7122 77.336 72.1825 130 83.4923L96.0049 31.0642Z" fill="#329FED"/>
<path d="M388.995 31.0642C402.98 29.8966 383.742 29.0953 392.019 28.4543C445.366 24.3562 485 49.3339 485 49.3339L469.128 66.9168C469.128 66.9168 470.993 91.1848 470.106 97C458.554 88.7122 407.664 72.1825 355 83.4923L388.995 31.0642Z" fill="#329FED"/>
<path fill-rule="evenodd" clip-rule="evenodd" d="M86.5 69C86.6671 69 86.8338 68.9969 87 68.9909V69H398.5H399V68.9909C410.643 68.5645 420 53.2857 420 34.5C420 15.7143 410.643 0.4355 399 0.0091459V0H398.5H87V0.00914588C86.8338 0.00305963 86.6671 0 86.5 0C74.6259 0 65 15.4462 65 34.5C65 53.5538 74.6259 69 86.5 69Z" fill="#3EAEFF"/>
</svg>
