<svg width="44" height="64" viewBox="0 0 44 64" fill="none" xmlns="http://www.w3.org/2000/svg">
<path d="M35.6133 16.6196C35.1777 15.8994 34.3159 15.5571 33.5049 15.7832C32.6943 16.0093 32.1333 16.748 32.1333 17.5893C32.1333 19.8779 30.2715 21.7392 27.9834 21.7392C25.6953 21.7392 23.8335 19.8779 23.8335 17.5893V1.87499C23.8335 1.11669 23.3765 0.433093 22.6758 0.143053C21.9751 -0.147474 21.1689 0.0126821 20.6328 0.549303C20.4219 0.759753 15.4224 5.78905 10.3569 13.3872C7.36963 17.8677 4.98584 22.312 3.27197 26.5967C1.10107 32.0249 0 37.2212 0 42.042C0 54.1494 9.85059 64 21.9585 64C34.0659 64 43.9165 54.1494 43.9165 42.042C43.917 34.2915 41.123 25.7383 35.6133 16.6196ZM34.4697 41.5542C34.4697 42.5898 33.6304 43.4292 32.5947 43.4292C31.5596 43.4292 30.7197 42.5898 30.7197 41.5542V38.0478L21.3838 47.3843C21.0317 47.7358 20.5552 47.9331 20.0576 47.9331C19.5605 47.9331 19.0835 47.7358 18.7319 47.3843L14.3774 43.0293L11.4429 45.9639C10.7104 46.6963 9.52344 46.6963 8.79102 45.9639C8.05859 45.2314 8.05859 44.0444 8.79102 43.312L13.0518 39.0518C13.7842 38.3198 14.9712 38.3198 15.7036 39.0522L20.0576 43.4067L28.0684 35.396H24.5615C23.5259 35.396 22.6865 34.5566 22.6865 33.521C22.6865 32.4853 23.5259 31.646 24.5615 31.646H32.5952C33.6304 31.646 34.4702 32.4858 34.4702 33.521V41.5542H34.4697Z" fill="url(#paint0_linear)"/>
<defs>
<linearGradient id="paint0_linear" x1="21.9583" y1="0" x2="21.9583" y2="64" gradientUnits="userSpaceOnUse">
<stop stop-color="#FF2048"/>
<stop offset="0.515625" stop-color="#EE4824"/>
<stop offset="1" stop-color="#EE8524"/>
</linearGradient>
</defs>
</svg>
