<svg width="60" height="60" viewBox="0 0 60 60" fill="none" xmlns="http://www.w3.org/2000/svg">
<path d="M30 0C13.4315 0 0 13.4315 0 30C0 46.5685 13.4315 60 30 60C46.5685 60 60 46.5685 60 30C59.9824 13.4389 46.5613 0.0177037 30 0ZM42.6342 30.9559C42.4265 31.3725 42.0889 31.7102 41.6721 31.9179V31.9286L24.5293 40.5001C23.4706 41.029 22.1836 40.5998 21.6545 39.541C21.5041 39.2401 21.4266 38.9079 21.4285 38.5715V21.4286C21.428 20.2451 22.3869 19.2854 23.5704 19.2847C23.9033 19.2846 24.2316 19.362 24.5293 19.5107L41.6721 28.0822C42.7313 28.6101 43.1621 29.8967 42.6342 30.9559Z" fill="url(#paint0_linear)"/>
<defs>
<linearGradient id="paint0_linear" x1="30" y1="0" x2="30" y2="60" gradientUnits="userSpaceOnUse">
<stop stop-color="#12CCB7"/>
<stop offset="1" stop-color="#1DB5E6"/>
</linearGradient>
</defs>
</svg>
