<svg width="60" height="60" viewBox="0 0 60 60" fill="none" xmlns="http://www.w3.org/2000/svg">
<path d="M40.8888 50.6663V46.2219C40.8888 41.3127 36.9091 37.333 31.9999 37.333H14.2221C9.31294 37.333 5.33325 41.3127 5.33325 46.2219V50.6663" stroke="#00CDB6" stroke-width="5" stroke-linecap="round" stroke-linejoin="round"/>
<path fill-rule="evenodd" clip-rule="evenodd" d="M23.1106 28.4443C28.0198 28.4443 31.9995 24.4646 31.9995 19.5554C31.9995 14.6462 28.0198 10.6665 23.1106 10.6665C18.2014 10.6665 14.2217 14.6462 14.2217 19.5554C14.2217 24.4646 18.2014 28.4443 23.1106 28.4443Z" stroke="#00CDB6" stroke-width="5" stroke-linecap="round" stroke-linejoin="round"/>
<path d="M54.2221 50.666V46.2216C54.2191 42.1707 51.4776 38.6343 47.5554 37.6216" stroke="#3EAEFF" stroke-width="5" stroke-linecap="round" stroke-linejoin="round"/>
<path d="M38.6663 10.9551C42.5994 11.9621 45.3504 15.5062 45.3504 19.5662C45.3504 23.6262 42.5994 27.1703 38.6663 28.1773" stroke="#3EAEFF" stroke-width="5" stroke-linecap="round" stroke-linejoin="round"/>
</svg>
