<svg width="60" height="60" viewBox="0 0 60 60" fill="none" xmlns="http://www.w3.org/2000/svg">
<path d="M9.33325 9.16949H9.18325V9.31949V38.5767V38.7267H9.33325H51.9999H52.1499V38.5767V9.31949V9.16949H51.9999H9.33325ZM4.14992 6.67836C4.14992 5.28168 5.2968 4.15 6.64525 4.15H54.6879C56.0648 4.15 57.1833 5.27548 57.1833 6.67836V43.7462H4.14992V6.67836ZM1.48325 49.675H59.8499V54.6945H1.48325V49.675Z" fill="#00CDB6" stroke="#00CDB6" stroke-width="0.3"/>
<path d="M24.9161 33.0687C24.1312 32.5286 23.4178 31.8915 22.7928 31.1725C23.1739 30.6779 23.4107 30.0875 23.4771 29.4666C23.5435 28.8458 23.4368 28.2187 23.1689 27.6547C22.901 27.0907 22.4823 26.6118 21.9591 26.271C21.4359 25.9301 20.8287 25.7407 20.2045 25.7236C19.8733 23.8392 20.0272 21.9015 20.6517 20.093C21.2708 20.1756 21.9006 20.0854 22.4715 19.8322C23.0423 19.579 23.5321 19.1728 23.8864 18.6586C24.2407 18.1443 24.4459 17.542 24.4791 16.9184C24.5124 16.2948 24.3724 15.6741 24.0748 15.1251C25.5423 13.8972 27.2983 13.0631 29.1773 12.7015C29.4155 13.2788 29.8088 13.7789 30.3136 14.1465C30.8184 14.5142 31.4151 14.735 32.0376 14.7845C32.6601 14.834 33.2842 14.7104 33.8408 14.4272C34.3974 14.144 34.8648 13.7124 35.1913 13.18C36.067 13.5007 36.9158 13.9354 37.7188 14.4892C38.5228 15.0426 39.2313 15.6814 39.8421 16.3854C39.461 16.88 39.2242 17.4704 39.1578 18.0912C39.0914 18.7121 39.1981 19.3392 39.466 19.9032C39.7339 20.4672 40.1526 20.9461 40.6758 21.2869C41.1989 21.6277 41.8062 21.8172 42.4304 21.8343C42.7616 23.7187 42.6077 25.6564 41.9832 27.4648C41.3641 27.3822 40.7343 27.4725 40.1634 27.7257C39.5925 27.9789 39.1028 28.3851 38.7485 28.8993C38.3941 29.4136 38.189 30.0159 38.1557 30.6395C38.1225 31.2631 38.2624 31.8838 38.5601 32.4328C37.0926 33.6607 35.3365 34.4948 33.4575 34.8564C33.2194 34.2791 32.8261 33.779 32.3213 33.4113C31.8165 33.0437 31.2198 32.8229 30.5973 32.7734C29.9748 32.7239 29.3507 32.8475 28.7941 33.1307C28.2375 33.4139 27.7701 33.8455 27.4436 34.3779C26.5493 34.0497 25.7001 33.6098 24.9161 33.0687ZM30.7779 30.5264C32.1615 30.6364 33.4557 31.2533 34.4124 32.2587C34.9435 32.0649 35.4545 31.8232 35.9401 31.5336C35.7644 30.1566 36.1033 28.7632 36.8918 27.6208C37.6785 26.4768 38.8601 25.6636 40.2096 25.3374C40.3075 24.7812 40.3514 24.2169 40.3429 23.6526C39.0629 23.1162 38.0258 22.1262 37.4308 20.8723C36.8204 19.5885 36.7291 18.1616 37.1127 16.8586C36.6789 16.4966 36.2126 16.1755 35.7197 15.8994C34.6155 16.7396 33.24 17.1427 31.8569 17.0315C30.4734 16.9215 29.1792 16.3046 28.2225 15.2991C27.6913 15.493 27.1804 15.7347 26.6947 16.0243C26.8705 17.4013 26.5316 18.7946 25.7431 19.9371C24.9564 21.0811 23.7748 21.8942 22.4253 22.2205C22.3281 22.7767 22.2835 23.3408 22.2919 23.9053C23.572 24.4417 24.609 25.4317 25.2041 26.6856C25.8145 27.9694 25.9058 29.3963 25.5222 30.6993C25.956 31.0612 26.4223 31.3823 26.9152 31.6585C28.0194 30.8182 29.3949 30.4151 30.7779 30.5264ZM32.7708 26.8356C31.9601 27.2211 31.0295 27.2687 30.1837 26.968C29.3379 26.6673 28.6462 26.043 28.2608 25.2323C27.8753 24.4216 27.8277 23.491 28.1284 22.6452C28.4291 21.7994 29.0534 21.1077 29.8641 20.7223C30.6748 20.3368 31.6054 20.2892 32.4512 20.5899C33.297 20.8906 33.9887 21.5149 34.3741 22.3256C34.7596 23.1363 34.8072 24.0669 34.5065 24.9127C34.2058 25.7585 33.5814 26.4502 32.7708 26.8356ZM31.8019 24.7978C32.0721 24.6693 32.2802 24.4388 32.3805 24.1569C32.4807 23.8749 32.4648 23.5647 32.3363 23.2945C32.2078 23.0243 31.9773 22.8162 31.6953 22.7159C31.4134 22.6157 31.1032 22.6316 30.833 22.7601C30.5628 22.8885 30.3547 23.1191 30.2544 23.401C30.1542 23.683 30.1701 23.9932 30.2986 24.2634C30.427 24.5336 30.6576 24.7417 30.9395 24.842C31.2215 24.9422 31.5317 24.9263 31.8019 24.7978Z" fill="#3EAEFF" stroke="#3EAEFF" stroke-width="0.8"/>
</svg>
