<svg width="60" height="60" viewBox="0 0 60 60" fill="none" xmlns="http://www.w3.org/2000/svg">
<path d="M35.9895 2.73667e-06C41.4792 -0.00261818 46.8039 1.87737 51.0754 5.32643C55.347 8.77549 58.3073 13.5851 59.4625 18.9532C60.6178 24.3212 59.8982 29.9232 57.4238 34.8247C54.9493 39.7263 50.8697 43.6312 45.8651 45.8881C44.2655 49.4255 41.8319 52.5221 38.773 54.9122C35.7142 57.3023 32.1214 58.9146 28.3028 59.6108C24.4842 60.3071 20.5537 60.0665 16.8485 58.9097C13.1432 57.7529 9.77379 55.7145 7.02914 52.9692C4.28448 50.2238 2.2465 46.8536 1.09 43.1475C-0.0665027 39.4413 -0.307024 35.5099 0.389065 31.6904C1.08515 27.8709 2.69708 24.2772 5.0866 21.2176C7.47612 18.158 10.5719 15.7238 14.1085 14.1238C16.0108 9.91364 19.087 6.34176 22.9681 3.83659C26.8493 1.33141 31.3705 -0.000711335 35.9895 2.73667e-06ZM23.9901 18.0036C21.6264 18.0036 19.2858 18.4692 17.1021 19.374C14.9183 20.2788 12.9341 21.6049 11.2627 23.2767C9.59131 24.9485 8.2655 26.9332 7.36095 29.1175C6.45641 31.3018 5.99084 33.6429 5.99084 36.0071C5.99084 38.3714 6.45641 40.7125 7.36095 42.8968C8.2655 45.0811 9.59131 47.0658 11.2627 48.7376C12.9341 50.4094 14.9183 51.7355 17.1021 52.6403C19.2858 53.545 21.6264 54.0107 23.9901 54.0107C28.7638 54.0107 33.3419 52.1139 36.7174 48.7376C40.0929 45.3613 41.9893 40.782 41.9893 36.0071C41.9893 31.2323 40.0929 26.653 36.7174 23.2767C33.3419 19.9004 28.7638 18.0036 23.9901 18.0036ZM35.9895 6.00119C33.4477 5.99822 30.9342 6.53512 28.6153 7.57639C26.2965 8.61765 24.225 10.1395 22.5381 12.0414C25.9288 11.8355 29.3245 12.3519 32.5007 13.5565C35.677 14.7611 38.5614 16.6264 40.9632 19.0291C43.365 21.4318 45.2295 24.3171 46.4334 27.4943C47.6374 30.6714 48.1533 34.068 47.947 37.4594C50.6746 35.0338 52.6004 31.8362 53.4692 28.2905C54.3381 24.7449 54.1087 21.0189 52.8117 17.6067C51.5147 14.1944 49.2113 11.2572 46.2069 9.18447C43.2025 7.11179 39.6392 6.00162 35.9895 6.00119Z" fill="#12CCB7"/>
<path d="M33.1802 33.959H31.3442L32.4152 29.675H29.5762L28.7092 33.959H26.5672L25.6152 29.675H22.5382L21.6032 33.959H19.4442L18.5772 29.675H15.5852L16.6562 33.959H14.8202V36.288H17.2342L19.0532 43.53H21.8582L24.0002 33.942L26.1422 43.53H28.9472L30.7662 36.288H33.1802V33.959ZM19.9202 36.288H21.0762L20.4812 39.025L19.9202 36.288ZM27.6892 39.076L27.0772 36.288H28.2502L27.6892 39.076Z" fill="#3EAEFF"/>
</svg>
