<svg width="38" height="38" viewBox="0 0 38 38" fill="none" xmlns="http://www.w3.org/2000/svg">
<g clip-path="url(#clip0)">
<path d="M19 1.5835C8.50725 1.5835 0 8.24616 0 16.4652C0 21.7789 3.55617 26.4418 8.90625 29.0733C6.24942 38.1759 4.68825 38.7681 15.6259 31.1111C16.7216 31.2647 17.8489 31.3454 19 31.3454C29.4928 31.3454 38 24.6827 38 16.4637C38 8.24616 29.4928 1.5835 19 1.5835Z" fill="#3E2723"/>
<path d="M16.4414 13.0944C15.9395 11.6805 14.0205 11.6789 13.5201 13.0928C11.9621 17.9252 9.8753 20.9066 11.1578 21.494C12.8646 22.2683 12.9011 20.5266 13.3096 19.7524H16.652C17.0589 20.5234 17.0985 22.2667 18.8037 21.494C20.091 20.9066 18.0295 18.0186 16.4414 13.0944ZM13.8859 17.8239L14.9816 14.7348L16.0756 17.8239H13.8859Z" fill="#FDDE79"/>
<path d="M8.49464 21.6603C6.5978 21.6603 7.71881 19.0368 7.39897 14.1522C6.71972 14.035 4.6123 14.6224 4.6123 13.0866C4.6123 12.4992 5.09522 12.021 5.68739 12.021C9.67422 12.306 12.3754 11.2768 12.3754 13.0866C12.3754 14.6493 10.3566 14.0208 9.58872 14.1522C9.27206 19.0209 10.3883 21.6603 8.49464 21.6603Z" fill="#FDDE79"/>
<path d="M20.8272 21.5006C18.9922 21.5006 20.1084 19.0227 19.7775 13.1074C19.7775 11.6665 22.0147 11.6681 22.0147 13.1074V19.504C23.074 19.645 25.3952 18.9815 25.3952 20.5015C25.3936 22.096 22.8998 21.298 20.8272 21.5006Z" fill="#FDDE79"/>
<path d="M30.9637 21.1851L28.3924 17.8015L28.0124 18.1799V20.5549C28.0124 21.1566 27.5216 21.6442 26.9151 21.6442C25.0104 21.6442 26.152 18.9019 25.8195 13.1069C25.8195 12.5068 26.3103 12.0176 26.9151 12.0176C28.5697 12.0176 27.8556 14.3577 28.0108 15.4471C31.1141 12.4815 31.0397 12.1664 31.6778 12.1664C32.5581 12.1664 33.0981 13.2605 32.5122 13.8416L30.0137 16.3227L32.7117 19.8741C33.5921 21.022 31.833 22.3377 30.9637 21.1851Z" fill="#FDDE79"/>
</g>
<defs>
<clipPath id="clip0">
<rect width="38" height="38" fill="white"/>
</clipPath>
</defs>
</svg>
