<svg width="269" height="53" viewBox="0 0 269 53" fill="none" xmlns="http://www.w3.org/2000/svg">
<path fill-rule="evenodd" clip-rule="evenodd" d="M100.763 0.714111C97.8139 0.714111 95.2332 2.56928 95.2332 6.15595V40.6622V42.0227V47.2171C95.2332 50.1854 97.691 52.659 100.64 52.659C103.59 52.659 106.048 50.1854 106.048 47.2171V42.0227V6.27964C106.17 2.69296 103.59 0.714111 100.763 0.714111ZM196.495 2.1982C197.355 1.33246 198.461 0.961422 199.69 0.961422C200.919 0.961422 202.025 1.33245 203.008 2.07452C203.991 2.81659 204.483 4.0534 204.483 5.53754V36.7045V40.1675V47.8355C204.483 50.4328 202.394 52.5353 199.813 52.5353C197.232 52.5353 195.143 50.4328 195.143 47.8355V40.1675V30.6442H194.529C193.668 30.6442 192.931 30.5206 192.439 30.2732C191.948 30.0258 191.579 29.7785 191.211 29.2838C190.965 28.9127 190.719 28.418 190.596 27.7996C190.473 27.1812 190.35 26.5629 190.35 25.9445C190.35 25.3261 190.473 24.7077 190.596 24.0893L190.596 24.0892C190.719 23.5945 190.842 23.0998 191.211 22.6051C191.456 22.1104 191.825 21.7394 192.439 21.492C193.054 21.2447 193.668 21.121 194.529 21.121H195.143V5.66122C195.143 4.17708 195.635 2.94028 196.495 2.1982ZM189.367 18.1529V41.8991C190.596 42.0228 191.579 42.5175 191.825 43.2596C192.44 44.1253 192.685 45.1148 192.685 46.1042C192.685 46.7226 192.562 47.2173 192.44 47.712C192.317 48.2067 192.071 48.7014 191.702 49.0725C191.456 49.4435 190.965 49.8146 190.473 50.0619C189.982 50.3093 189.367 50.4329 188.753 50.4329H169.705C169.09 50.4329 168.476 50.3093 167.984 50.0619C167.493 49.8146 167.124 49.4436 166.756 49.0725L166.756 49.0725C166.387 48.7014 166.141 48.2067 166.018 47.712C165.895 47.2173 165.772 46.5989 165.772 46.1042C165.772 45.2384 166.018 44.3727 166.51 43.5069C167.001 42.6412 167.739 42.1465 168.968 42.0228V18.1529C168.968 16.6687 169.336 15.5557 170.196 14.8136C171.057 14.0715 172.04 13.7005 173.515 13.7005C174.989 13.7005 175.972 14.0715 176.833 14.8136C177.693 15.5557 178.061 16.6687 178.061 18.1529V41.8991H180.273V18.1529C180.273 16.6687 180.642 15.5557 181.502 14.8136C182.363 14.0715 183.469 13.7005 184.82 13.7005C186.295 13.7005 187.278 14.0715 188.138 14.8136C188.999 15.5557 189.367 16.6687 189.367 18.1529ZM167.493 10.361C167.862 10.732 168.23 11.103 168.722 11.3504C169.213 11.5977 169.828 11.7214 170.442 11.7214H188.016C188.63 11.7214 189.244 11.5977 189.736 11.3504C190.228 11.103 190.719 10.732 190.965 10.361C191.334 9.98992 191.579 9.4952 191.702 9.00049L191.702 9.00016C191.825 8.50556 191.948 8.01094 191.948 7.39269C191.948 6.89797 191.825 6.27956 191.702 5.78485C191.579 5.29013 191.334 4.79544 190.965 4.30073L190.965 4.30063C190.596 3.92963 190.228 3.55861 189.736 3.31128C189.244 3.06392 188.63 2.94026 187.893 2.94026H170.319C169.582 2.94026 168.968 3.06392 168.476 3.31128C167.985 3.55864 167.493 3.92969 167.247 4.30073C166.879 4.67176 166.633 5.16645 166.51 5.78485C166.387 6.27956 166.264 6.89797 166.264 7.39269C166.264 7.8874 166.387 8.50578 166.51 9.00049C166.648 9.18595 166.769 9.37142 166.886 9.55036L166.886 9.55114L166.887 9.55223L166.887 9.55268C167.081 9.8502 167.263 10.1296 167.493 10.361ZM208.169 2.1982C209.152 1.33246 210.258 0.961422 211.487 0.961422C212.839 0.961422 213.945 1.33246 214.682 2.1982C215.665 2.94028 216.157 4.17708 216.157 5.66122V36.8281V40.2912V47.8355C216.157 50.4328 214.068 52.5353 211.487 52.5353H211.364C208.784 52.5353 206.695 50.4328 206.695 47.8355V40.2912V36.8281V5.66122C206.695 4.17708 207.186 2.94028 208.169 2.1982ZM267.279 2.32189C266.173 1.45614 264.945 0.961422 263.47 0.961422C261.995 0.961422 260.766 1.45614 259.66 2.32189C258.554 3.18764 258.063 4.54809 258.063 6.40326V37.1992V40.2912V47.5882C258.063 50.4328 260.275 52.659 263.101 52.659H263.961C266.788 52.659 269 50.4328 269 47.5882V40.2912V37.1992V6.40326C269 4.67176 268.385 3.31132 267.279 2.32189ZM243.685 2.8166C245.528 3.43499 247.249 4.42444 248.6 5.66122C250.075 6.89801 251.058 8.50581 251.795 10.361C252.533 12.2162 252.901 14.3187 252.901 16.7923V36.7044C252.901 39.0543 252.533 41.2806 251.795 43.1357C251.058 44.9909 249.952 46.5987 248.6 47.8355C247.249 49.0723 245.651 50.0617 243.685 50.6801C241.718 51.2985 239.629 51.6695 237.417 51.6695C235.205 51.6695 232.993 51.2985 231.15 50.6801C229.307 50.0617 227.586 49.0723 226.234 47.8355C224.882 46.5987 223.776 44.9909 223.039 43.1357C222.302 41.2806 221.933 39.178 221.933 36.7044V16.7923C221.933 14.3187 222.302 12.2162 223.039 10.361C223.776 8.50581 224.882 6.89801 226.234 5.66122C227.586 4.42444 229.307 3.43499 231.15 2.8166C232.993 2.19821 235.082 1.82719 237.417 1.82719C239.629 1.82719 241.841 2.19821 243.685 2.8166ZM240.858 41.1569C241.718 40.1674 242.21 38.807 242.21 36.9518V16.4212C242.21 14.566 241.718 13.2056 240.858 12.2162C239.875 11.2267 238.769 10.8557 237.417 10.8557C236.065 10.9794 234.959 11.3504 234.099 12.3398C233.239 13.3293 232.747 14.6897 232.747 16.5449V36.9518C232.747 38.807 233.239 40.1674 234.099 41.1569C234.959 42.0226 236.065 42.5173 237.417 42.5173C238.769 42.5173 239.998 42.1463 240.858 41.1569ZM33.1738 41.528C26.1691 36.7045 23.4655 29.2838 22.9739 17.1633C23.0968 15.5555 23.0968 13.824 23.0968 11.9688V7.76375C23.0968 4.42444 20.5161 2.4456 17.6896 2.4456C14.8632 2.4456 12.2825 4.30076 12.2825 7.76375V12.0925C12.2825 27.3049 9.94756 35.9624 1.9597 41.528C-0.620997 43.2595 -0.375213 46.4751 1.09947 48.2066C2.57415 50.1854 5.89218 50.3091 8.71865 48.825C12.4054 46.8461 15.3547 43.7542 17.6896 39.6728C20.0246 43.7542 22.9739 46.8461 26.6606 48.825C29.4871 50.3091 32.8051 50.0618 34.2798 48.2066C35.3858 46.4751 35.6316 43.2595 33.1738 41.528ZM49.518 12.0925H51.1156C53.8192 12.0925 56.0312 14.4424 56.0312 17.1633C56.0312 19.8842 53.8192 22.1104 51.1156 22.1104H49.518V27.4286V40.7859V46.8461V47.3408C49.518 50.3091 47.0602 52.7826 44.1108 52.7826C41.1615 52.7826 38.8265 50.4328 38.7037 47.4645V47.3408V40.7859V6.27961C38.7037 2.81662 41.2843 0.961422 44.1108 0.961422C46.9373 0.961422 49.518 2.81662 49.518 6.27961V12.0925ZM57.7517 16.6685C57.7517 6.89788 64.1419 1.70338 73.3587 1.70338C82.4526 1.70338 88.9657 6.89788 88.9657 16.6685V36.7043C88.9657 46.4749 82.4526 51.6694 73.3587 51.6694C64.2648 51.6694 57.7517 46.4749 57.7517 36.7043V16.6685ZM73.3587 42.5172C76.0623 42.5172 78.1514 40.5384 78.1514 36.828V16.4211C78.1514 12.7107 75.9394 10.6082 73.3587 10.7319C70.778 10.8556 68.6889 12.8344 68.6889 16.4211V36.828C68.6889 40.662 70.6551 42.5172 73.3587 42.5172ZM141.194 41.4042H124.973C123.99 41.4042 123.498 41.0332 123.498 39.7964V13.8239C123.498 12.5872 123.99 12.2161 124.973 12.2161H138.614C141.686 12.2161 142.669 9.61891 142.669 7.51637C142.669 5.41384 141.686 2.94026 138.614 2.94026H121.163C114.036 2.94026 112.684 4.54807 112.684 11.4741V42.0226C112.684 48.9486 114.036 50.6801 121.163 50.6801H141.072C144.144 50.6801 145.127 48.2065 145.127 46.104C145.25 44.0015 144.39 41.4042 141.194 41.4042ZM159.259 11.8452H160.611C163.315 11.8452 165.527 14.0715 165.527 16.7924C165.527 19.5133 163.315 21.7395 160.611 21.7395H159.259V30.0259V40.1676V40.6623V47.2172C159.259 50.1855 156.801 52.6591 153.852 52.6591C150.903 52.6591 148.445 50.1855 148.445 47.2172V40.6623V40.1676V6.40337C148.445 2.94038 151.026 1.08521 153.852 1.08521C156.679 1.08521 159.259 2.94038 159.259 6.40337V11.8452Z" fill="url(#paint0_linear)"/>
<defs>
<linearGradient id="paint0_linear" x1="134.5" y1="0.714111" x2="134.5" y2="52.7826" gradientUnits="userSpaceOnUse">
<stop stop-color="white"/>
<stop offset="0.90625" stop-color="#E4FFFC"/>
</linearGradient>
</defs>
</svg>
