<svg width="144" height="22" viewBox="0 0 144 22" fill="none" xmlns="http://www.w3.org/2000/svg">
<path fill-rule="evenodd" clip-rule="evenodd" d="M70.1485 2.29417C70.1485 0.782103 71.2365 0 72.4799 0C73.6715 0 74.7594 0.834246 74.7076 2.34632V17.4149V19.6048C74.7076 20.8561 73.6715 21.899 72.4281 21.899C71.1847 21.899 70.1485 20.8561 70.1485 19.6048V17.4149V16.8413V2.29417ZM114.185 0.104272C113.667 0.104272 113.201 0.260693 112.838 0.625676C112.476 0.938518 112.269 1.45993 112.269 2.08562V8.60317H112.009C111.647 8.60317 111.388 8.6553 111.129 8.75958C110.87 8.86386 110.714 9.02028 110.611 9.22884C110.455 9.43739 110.403 9.64594 110.352 9.85448L110.352 9.85453C110.3 10.1152 110.248 10.3759 110.248 10.6366C110.248 10.8973 110.3 11.158 110.352 11.4187C110.403 11.6794 110.507 11.888 110.611 12.0444C110.766 12.253 110.921 12.3573 111.129 12.4616C111.336 12.5658 111.647 12.618 112.009 12.618H112.269V16.6328V19.8655C112.269 20.9604 113.149 21.8468 114.237 21.8468C115.325 21.8468 116.206 20.9604 116.206 19.8655V16.6328V15.1728V2.03347C116.206 1.40779 115.999 0.886374 115.584 0.573532C115.17 0.26069 114.703 0.104272 114.185 0.104272ZM109.834 17.3628V7.35181C109.834 6.72612 109.678 6.25687 109.315 5.94403C108.953 5.63119 108.538 5.47477 107.917 5.47477C107.347 5.47477 106.881 5.63119 106.518 5.94403C106.155 6.25687 106 6.72612 106 7.35181V17.3628H105.067V7.35181C105.067 6.72612 104.912 6.25687 104.549 5.94403C104.186 5.63119 103.772 5.47477 103.15 5.47477C102.529 5.47477 102.114 5.63119 101.751 5.94403C101.389 6.25687 101.233 6.72612 101.233 7.35181V17.4149C100.715 17.4671 100.404 17.6756 100.197 18.0406C99.99 18.4056 99.8864 18.7706 99.8864 19.1355C99.8864 19.3441 99.9382 19.6048 99.99 19.8134C100.042 20.0219 100.145 20.2305 100.301 20.3869L100.301 20.387C100.456 20.5434 100.612 20.6998 100.819 20.804C101.026 20.9083 101.285 20.9605 101.544 20.9605H109.575C109.834 20.9605 110.093 20.9083 110.3 20.804C110.507 20.6998 110.714 20.5433 110.818 20.3869C110.973 20.2305 111.077 20.0219 111.129 19.8134C111.181 19.6048 111.232 19.3962 111.232 19.1355C111.232 18.7184 111.129 18.3013 110.87 17.9363C110.766 17.6235 110.352 17.4149 109.834 17.3628ZM101.13 4.48406C100.923 4.37978 100.767 4.22337 100.612 4.06695C100.515 3.96942 100.438 3.85162 100.356 3.7262C100.307 3.65045 100.256 3.57193 100.197 3.4934C100.145 3.28484 100.094 3.02414 100.094 2.81558C100.094 2.60702 100.145 2.34631 100.197 2.13774C100.249 1.87704 100.353 1.66849 100.508 1.51207C100.612 1.35565 100.819 1.19922 101.026 1.09494C101.233 0.990656 101.492 0.938522 101.803 0.938522H109.212C109.523 0.938522 109.782 0.990656 109.989 1.09494C110.196 1.1992 110.352 1.3556 110.507 1.51199L110.507 1.51207C110.663 1.72063 110.766 1.92918 110.818 2.13774C110.87 2.34631 110.922 2.60702 110.922 2.81558C110.922 3.07628 110.87 3.28484 110.818 3.4934C110.766 3.70196 110.663 3.91053 110.507 4.06695C110.403 4.22337 110.196 4.37978 109.989 4.48406C109.782 4.58834 109.523 4.64049 109.264 4.64049H101.855C101.596 4.64049 101.337 4.58834 101.13 4.48406ZM119.159 0.104272C118.641 0.104272 118.175 0.260693 117.76 0.625676C117.346 0.938518 117.139 1.45993 117.139 2.08562V15.225V16.6849V19.8655C117.139 20.9604 118.019 21.8468 119.107 21.8468H119.159C120.247 21.8468 121.128 20.9604 121.128 19.8655V16.6849V15.225V2.08562C121.128 1.45993 120.92 0.938518 120.506 0.625676C120.195 0.260693 119.729 0.104272 119.159 0.104272ZM141.074 0.104272C141.696 0.104272 142.214 0.312836 142.68 0.677819C143.146 1.09494 143.405 1.66848 143.405 2.39845V15.3814V16.6849V19.7612C143.405 20.9604 142.473 21.899 141.281 21.899H140.918C139.727 21.899 138.794 20.9604 138.794 19.7612V16.6849V15.3814V2.39845C138.794 1.61634 139.002 1.0428 139.468 0.677819C139.934 0.312836 140.452 0.104272 141.074 0.104272ZM134.805 2.08563C134.235 1.56422 133.51 1.14709 132.733 0.886388C131.956 0.625686 131.023 0.469271 130.091 0.469271C129.106 0.469271 128.225 0.625686 127.448 0.886388C126.671 1.14709 125.946 1.56422 125.376 2.08563C124.806 2.60703 124.34 3.28485 124.029 4.06696C123.718 4.84906 123.563 5.73545 123.563 6.77826V15.1729C123.563 16.2157 123.718 17.1021 124.029 17.8842C124.34 18.6663 124.806 19.3441 125.376 19.8655C125.946 20.3869 126.671 20.804 127.448 21.0647C128.225 21.3254 129.158 21.4818 130.091 21.4818C131.023 21.4818 131.904 21.3254 132.733 21.0647C133.562 20.804 134.235 20.3869 134.805 19.8655C135.375 19.3441 135.841 18.6663 136.152 17.8842C136.463 17.1021 136.618 16.1635 136.618 15.1729V6.77826C136.618 5.73545 136.463 4.84906 136.152 4.06696C135.841 3.28485 135.427 2.60703 134.805 2.08563ZM132.111 15.2771C132.111 16.0592 131.904 16.6328 131.541 17.0499C131.178 17.467 130.66 17.6235 130.091 17.6235C129.521 17.6235 129.054 17.4149 128.692 17.0499C128.329 16.6328 128.122 16.0592 128.122 15.2771V6.67397C128.122 5.89187 128.329 5.31833 128.692 4.9012C129.054 4.48408 129.521 4.32765 130.091 4.27551C130.66 4.27551 131.127 4.43194 131.541 4.84906C131.904 5.26618 132.111 5.83973 132.111 6.62183V15.2771ZM39.6854 6.93466C39.8926 12.0444 41.0324 15.1728 43.9854 17.2063C45.0216 17.9363 44.918 19.2919 44.4517 20.0219C43.83 20.804 42.4312 20.9083 41.2396 20.2826C39.6854 19.4484 38.442 18.1448 37.4576 16.4242C36.4733 18.1448 35.2299 19.4484 33.6756 20.2826C32.484 20.9083 31.0852 20.8561 30.4635 20.0219C29.8418 19.2919 29.7382 17.9363 30.8262 17.2063C34.1937 14.86 35.1781 11.2102 35.1781 4.7969V2.97198C35.1781 1.51205 36.266 0.729952 37.4576 0.729952C38.6492 0.729952 39.7372 1.56419 39.7372 2.97198V4.74475C39.7372 5.52686 39.7372 6.25683 39.6854 6.93466ZM51.5494 4.79691H50.8759V2.34632C50.8759 0.886387 49.7879 0.104272 48.5963 0.104272C47.4047 0.104272 46.3168 0.886387 46.3168 2.34632V16.8935V19.6569V19.7091C46.3686 20.9604 47.3529 21.9511 48.5963 21.9511C49.8397 21.9511 50.8759 20.9083 50.8759 19.6569V19.4484V16.8935V11.2623V9.02028H51.5494C52.6892 9.02028 53.6217 8.08176 53.6217 6.93467C53.6217 5.78758 52.6892 4.79691 51.5494 4.79691ZM60.9267 0.417112C57.041 0.417112 54.347 2.60701 54.347 6.7261V15.1728C54.347 19.2919 57.0929 21.4818 60.9267 21.4818C64.7605 21.4818 67.5063 19.2919 67.5063 15.1728V6.7261C67.5063 2.60701 64.7605 0.417112 60.9267 0.417112ZM62.9472 15.225C62.9472 16.7892 62.0664 17.6234 60.9267 17.6234C59.7869 17.6234 58.9579 16.8413 58.9579 15.225V6.62182C58.9579 5.10974 59.8387 4.27549 60.9267 4.22335C62.0146 4.17121 62.9472 5.0576 62.9472 6.62182V15.225ZM82.6861 17.1542H89.5248C90.8718 17.1542 91.2344 18.2491 91.1826 19.1355C91.1826 20.0219 90.7681 21.0647 89.4729 21.0647H81.08C78.0752 21.0647 77.5053 20.3348 77.5053 17.4149V4.53621C77.5053 1.61634 78.0752 0.938522 81.08 0.938522H88.4368C89.732 0.938522 90.1464 1.98134 90.1464 2.86772C90.1464 3.75411 89.732 4.84905 88.4368 4.84905H82.6861C82.2716 4.84905 82.0644 5.00547 82.0644 5.52687V16.4764C82.0644 16.9978 82.2716 17.1542 82.6861 17.1542ZM97.7104 4.69263H97.1406V2.39844C97.1406 0.93851 96.0526 0.15641 94.861 0.15641C93.6694 0.15641 92.5814 0.93851 92.5814 2.39844V16.6328V16.8413V19.6048C92.5814 20.8561 93.6176 21.899 94.861 21.899C96.1044 21.899 97.1406 20.8561 97.1406 19.6048V16.8413V16.6328V12.3573V8.86386H97.7104C98.8502 8.86386 99.7828 7.92534 99.7828 6.77825C99.7828 5.63116 98.8502 4.69263 97.7104 4.69263ZM3.78052 8.77792V15.6195H0V5.85911C0 4.6321 0.893915 4 1.88095 4C2.60725 4 3.29631 4.35323 3.59428 5.02251C4.30197 4.35323 5.2145 4 6.20153 4C7.33755 4 8.43632 4.37182 9.2185 5.30138C9.98205 4.50196 11.0622 4 12.5707 4C14.9358 4 17.003 5.20842 17.003 9.09397V15.6195H13.1666V8.87088C13.1666 7.60668 12.3658 7.17909 11.7513 7.17909C11.1367 7.17909 10.3173 7.60668 10.3173 8.87088V15.6195H6.62987V8.87088C6.62987 7.60668 5.82907 7.17909 5.2145 7.17909C4.61856 7.17909 3.81776 7.58809 3.78052 8.77792ZM27.8187 4.16732C28.7871 4.52055 29.29 5.56166 28.8244 6.65853L24.9135 15.6009C23.7775 18.2222 21.8034 19.3005 19.2148 18.9287C18.1347 18.78 17.5946 17.9062 17.7063 17.0882C17.8367 16.2516 18.4513 15.5637 19.55 15.7682C20.3136 15.9169 21.0958 15.6752 21.3937 15.1175V15.0989L17.5946 6.65853C17.1104 5.58025 17.6691 4.52055 18.6375 4.16732C19.6059 3.81409 20.7605 4.05577 21.1889 5.22702L23.3305 11.0089L25.3046 5.22702C25.7143 4.05577 26.8503 3.81409 27.8187 4.16732Z" fill="#676B70"/>
</svg>
