<svg width="1158" height="270" viewBox="0 0 1158 270" fill="none" xmlns="http://www.w3.org/2000/svg">
<g opacity="0.2">
<mask id="path-1-outside-1" maskUnits="userSpaceOnUse" x="0.0400391" y="0.429932" width="1158" height="270" fill="black">
<rect fill="white" x="0.0400391" y="0.429932" width="1158" height="270"/>
<path d="M154.95 122.23C164.123 124.81 172.58 127.963 180.32 131.69C188.06 135.13 194.653 139.43 200.1 144.59C205.833 149.75 210.277 155.77 213.43 162.65C216.583 169.53 218.16 177.557 218.16 186.73C218.16 201.923 215.58 214.25 210.42 223.71C205.26 233.17 197.95 240.48 188.49 245.64C179.317 251.087 168.28 254.67 155.38 256.39C142.767 258.397 129.007 259.4 114.1 259.4C82.28 259.687 50.3167 258.397 18.21 255.53V212.53C34.55 213.963 50.7467 215.11 66.8 215.97C83.14 216.83 99.6234 217.117 116.25 216.83C121.41 216.83 127 216.543 133.02 215.97C139.327 215.397 145.06 214.107 150.22 212.1C155.38 210.093 159.68 207.227 163.12 203.5C166.56 199.487 168.28 194.183 168.28 187.59C168.28 183.29 167.277 179.707 165.27 176.84C163.263 173.973 160.683 171.68 157.53 169.96C154.377 167.953 150.793 166.377 146.78 165.23C142.767 163.797 138.753 162.507 134.74 161.36L83.57 147.6C74.97 145.307 66.2267 142.297 57.34 138.57C48.74 134.843 40.8567 130.257 33.69 124.81C26.81 119.077 21.0767 112.34 16.49 104.6C12.19 96.8599 10.04 87.8299 10.04 77.5099C10.04 53.4299 17.6367 36.3733 32.83 26.3399C48.0234 16.0199 69.9534 10.8599 98.62 10.8599C115.82 10.8599 132.59 11.2899 148.93 12.1499C165.27 12.7233 182.04 13.7266 199.24 15.1599V57.2999C182.613 55.8666 166.417 54.7199 150.65 53.8599C134.883 52.7133 119.26 52.2833 103.78 52.5699C99.48 52.5699 94.75 52.8566 89.59 53.4299C84.7167 53.7166 80.13 54.7199 75.83 56.4399C71.53 57.8733 67.8034 60.3099 64.65 63.7499C61.7834 67.1899 60.35 71.9199 60.35 77.9399C60.35 83.0999 61.4967 87.2566 63.79 90.4099C66.0834 93.2766 69.0934 95.7133 72.82 97.7199C76.5467 99.7266 80.7034 101.303 85.29 102.45C89.8767 103.597 94.4634 104.887 99.05 106.32L154.95 122.23Z"/>
<path d="M419.23 259.4C398.017 259.4 380.387 256.677 366.34 251.23C352.293 246.07 341.113 238.903 332.8 229.73C324.487 220.557 318.61 209.663 315.17 197.05C311.73 184.437 310.01 170.82 310.01 156.2V116.21C310.01 79.2299 319.47 52.4266 338.39 35.7999C357.31 19.1733 385.69 10.8599 423.53 10.8599C431.27 10.8599 439.01 11.0033 446.75 11.2899C454.49 11.2899 461.8 11.4333 468.68 11.7199C475.56 12.0066 481.723 12.4366 487.17 13.0099C492.617 13.2966 497.06 13.5833 500.5 13.8699V56.0099C491.327 55.4366 480.147 54.7199 466.96 53.8599C454.06 52.9999 441.447 52.5699 429.12 52.5699C415.647 52.5699 404.323 53.7166 395.15 56.0099C385.977 58.0166 378.523 61.5999 372.79 66.7599C367.343 71.6333 363.33 78.2266 360.75 86.5399C358.17 94.5666 356.88 104.6 356.88 116.64V156.2C356.88 167.667 358.027 177.413 360.32 185.44C362.613 193.18 366.483 199.487 371.93 204.36C377.377 209.233 384.4 212.817 393 215.11C401.887 217.117 412.637 218.12 425.25 218.12C431.27 218.12 437.577 218.12 444.17 218.12C451.05 218.12 457.787 218.12 464.38 218.12C471.26 217.833 477.71 217.547 483.73 217.26C490.037 216.973 495.627 216.687 500.5 216.4V249.08C500.5 254.527 497.633 257.537 491.9 258.11C487.887 258.397 483.157 258.54 477.71 258.54C472.263 258.827 466.243 258.97 459.65 258.97C453.343 259.257 446.75 259.4 439.87 259.4C432.99 259.4 426.11 259.4 419.23 259.4Z"/>
<path d="M692.42 259.4C672.067 259.687 655.727 255.387 643.4 246.5C631.073 237.9 624.91 222.707 624.91 200.92V150.61C624.91 142.01 626.63 134.413 630.07 127.82C633.797 121.227 638.67 115.637 644.69 111.05C650.71 106.463 657.59 102.88 665.33 100.3C673.357 97.7199 681.67 96.2866 690.27 95.9999C698.87 95.7133 708.043 95.7133 717.79 95.9999C727.823 96.2866 736.997 96.5732 745.31 96.8599C750.183 97.1466 755.057 97.4333 759.93 97.7199C764.803 97.7199 769.677 97.8633 774.55 98.1499V85.2499C774.263 72.9233 771.827 64.6099 767.24 60.3099C762.653 56.0099 755.343 53.2866 745.31 52.1399C742.157 51.8533 737.427 51.7099 731.12 51.7099C725.1 51.7099 719.653 51.7099 714.78 51.7099C707.9 51.7099 700.303 51.8533 691.99 52.1399C683.677 52.4266 675.793 52.8566 668.34 53.4299C664.04 53.7166 659.74 54.0033 655.44 54.2899C651.14 54.5766 646.983 54.8633 642.97 55.1499V13.8699C646.983 13.5833 650.853 13.2966 654.58 13.0099C658.593 12.7233 662.607 12.4366 666.62 12.1499C673.5 11.5766 681.24 11.1466 689.84 10.8599C698.44 10.5733 707.04 10.4299 715.64 10.4299C728.253 10.4299 740.437 10.8599 752.19 11.7199C764.23 12.5799 775.123 14.5866 784.87 17.7399C794.617 20.6066 802.643 25.0499 808.95 31.0699C815.543 36.8033 819.7 44.8299 821.42 55.1499C823.14 65.1833 824 78.0833 824 93.8499V240.05C824 244.923 822.423 249.08 819.27 252.52C816.403 256.247 812.533 258.11 807.66 258.11L692.42 259.4ZM769.82 215.97C773.26 215.97 774.98 214.393 774.98 211.24V139.86C770.967 139.573 766.81 139.43 762.51 139.43C758.21 139.143 754.053 138.857 750.04 138.57C742.873 138.283 734.99 137.997 726.39 137.71C717.79 137.423 709.763 137.423 702.31 137.71C693.997 137.71 686.973 139.86 681.24 144.16C675.793 148.46 673.07 154.767 673.07 163.08V191.46C673.07 200.633 676.223 207.227 682.53 211.24C688.837 214.967 695.43 216.973 702.31 217.26C709.763 217.547 717.36 217.69 725.1 217.69C733.127 217.403 740.437 217.117 747.03 216.83C751.043 216.543 754.913 216.4 758.64 216.4C762.367 216.4 766.093 216.257 769.82 215.97Z"/>
<path d="M988.83 252.09C988.83 256.963 986.68 259.4 982.38 259.4H938.52V26.3399C938.52 22.3266 939.667 19.0299 941.96 16.4499C944.54 13.8699 947.837 12.5799 951.85 12.5799L1053.33 11.2899C1071.1 11.2899 1086.01 12.8666 1098.05 16.0199C1110.09 18.8866 1119.69 23.7599 1126.86 30.6399C1134.31 37.5199 1139.62 46.6933 1142.77 58.1599C1145.92 69.3399 1147.5 83.2433 1147.5 99.8699V251.66C1147.5 256.82 1145.21 259.4 1140.62 259.4H1097.62V100.3C1097.62 81.9533 1093.03 69.6266 1083.86 63.3199C1074.97 56.7266 1062.22 53.4299 1045.59 53.4299L992.27 54.2899C989.977 54.2899 988.83 55.2933 988.83 57.2999V252.09Z"/>
</mask>
<path d="M154.95 122.23C164.123 124.81 172.58 127.963 180.32 131.69C188.06 135.13 194.653 139.43 200.1 144.59C205.833 149.75 210.277 155.77 213.43 162.65C216.583 169.53 218.16 177.557 218.16 186.73C218.16 201.923 215.58 214.25 210.42 223.71C205.26 233.17 197.95 240.48 188.49 245.64C179.317 251.087 168.28 254.67 155.38 256.39C142.767 258.397 129.007 259.4 114.1 259.4C82.28 259.687 50.3167 258.397 18.21 255.53V212.53C34.55 213.963 50.7467 215.11 66.8 215.97C83.14 216.83 99.6234 217.117 116.25 216.83C121.41 216.83 127 216.543 133.02 215.97C139.327 215.397 145.06 214.107 150.22 212.1C155.38 210.093 159.68 207.227 163.12 203.5C166.56 199.487 168.28 194.183 168.28 187.59C168.28 183.29 167.277 179.707 165.27 176.84C163.263 173.973 160.683 171.68 157.53 169.96C154.377 167.953 150.793 166.377 146.78 165.23C142.767 163.797 138.753 162.507 134.74 161.36L83.57 147.6C74.97 145.307 66.2267 142.297 57.34 138.57C48.74 134.843 40.8567 130.257 33.69 124.81C26.81 119.077 21.0767 112.34 16.49 104.6C12.19 96.8599 10.04 87.8299 10.04 77.5099C10.04 53.4299 17.6367 36.3733 32.83 26.3399C48.0234 16.0199 69.9534 10.8599 98.62 10.8599C115.82 10.8599 132.59 11.2899 148.93 12.1499C165.27 12.7233 182.04 13.7266 199.24 15.1599V57.2999C182.613 55.8666 166.417 54.7199 150.65 53.8599C134.883 52.7133 119.26 52.2833 103.78 52.5699C99.48 52.5699 94.75 52.8566 89.59 53.4299C84.7167 53.7166 80.13 54.7199 75.83 56.4399C71.53 57.8733 67.8034 60.3099 64.65 63.7499C61.7834 67.1899 60.35 71.9199 60.35 77.9399C60.35 83.0999 61.4967 87.2566 63.79 90.4099C66.0834 93.2766 69.0934 95.7133 72.82 97.7199C76.5467 99.7266 80.7034 101.303 85.29 102.45C89.8767 103.597 94.4634 104.887 99.05 106.32L154.95 122.23Z" fill="white"/>
<path d="M419.23 259.4C398.017 259.4 380.387 256.677 366.34 251.23C352.293 246.07 341.113 238.903 332.8 229.73C324.487 220.557 318.61 209.663 315.17 197.05C311.73 184.437 310.01 170.82 310.01 156.2V116.21C310.01 79.2299 319.47 52.4266 338.39 35.7999C357.31 19.1733 385.69 10.8599 423.53 10.8599C431.27 10.8599 439.01 11.0033 446.75 11.2899C454.49 11.2899 461.8 11.4333 468.68 11.7199C475.56 12.0066 481.723 12.4366 487.17 13.0099C492.617 13.2966 497.06 13.5833 500.5 13.8699V56.0099C491.327 55.4366 480.147 54.7199 466.96 53.8599C454.06 52.9999 441.447 52.5699 429.12 52.5699C415.647 52.5699 404.323 53.7166 395.15 56.0099C385.977 58.0166 378.523 61.5999 372.79 66.7599C367.343 71.6333 363.33 78.2266 360.75 86.5399C358.17 94.5666 356.88 104.6 356.88 116.64V156.2C356.88 167.667 358.027 177.413 360.32 185.44C362.613 193.18 366.483 199.487 371.93 204.36C377.377 209.233 384.4 212.817 393 215.11C401.887 217.117 412.637 218.12 425.25 218.12C431.27 218.12 437.577 218.12 444.17 218.12C451.05 218.12 457.787 218.12 464.38 218.12C471.26 217.833 477.71 217.547 483.73 217.26C490.037 216.973 495.627 216.687 500.5 216.4V249.08C500.5 254.527 497.633 257.537 491.9 258.11C487.887 258.397 483.157 258.54 477.71 258.54C472.263 258.827 466.243 258.97 459.65 258.97C453.343 259.257 446.75 259.4 439.87 259.4C432.99 259.4 426.11 259.4 419.23 259.4Z" fill="white"/>
<path d="M692.42 259.4C672.067 259.687 655.727 255.387 643.4 246.5C631.073 237.9 624.91 222.707 624.91 200.92V150.61C624.91 142.01 626.63 134.413 630.07 127.82C633.797 121.227 638.67 115.637 644.69 111.05C650.71 106.463 657.59 102.88 665.33 100.3C673.357 97.7199 681.67 96.2866 690.27 95.9999C698.87 95.7133 708.043 95.7133 717.79 95.9999C727.823 96.2866 736.997 96.5732 745.31 96.8599C750.183 97.1466 755.057 97.4333 759.93 97.7199C764.803 97.7199 769.677 97.8633 774.55 98.1499V85.2499C774.263 72.9233 771.827 64.6099 767.24 60.3099C762.653 56.0099 755.343 53.2866 745.31 52.1399C742.157 51.8533 737.427 51.7099 731.12 51.7099C725.1 51.7099 719.653 51.7099 714.78 51.7099C707.9 51.7099 700.303 51.8533 691.99 52.1399C683.677 52.4266 675.793 52.8566 668.34 53.4299C664.04 53.7166 659.74 54.0033 655.44 54.2899C651.14 54.5766 646.983 54.8633 642.97 55.1499V13.8699C646.983 13.5833 650.853 13.2966 654.58 13.0099C658.593 12.7233 662.607 12.4366 666.62 12.1499C673.5 11.5766 681.24 11.1466 689.84 10.8599C698.44 10.5733 707.04 10.4299 715.64 10.4299C728.253 10.4299 740.437 10.8599 752.19 11.7199C764.23 12.5799 775.123 14.5866 784.87 17.7399C794.617 20.6066 802.643 25.0499 808.95 31.0699C815.543 36.8033 819.7 44.8299 821.42 55.1499C823.14 65.1833 824 78.0833 824 93.8499V240.05C824 244.923 822.423 249.08 819.27 252.52C816.403 256.247 812.533 258.11 807.66 258.11L692.42 259.4ZM769.82 215.97C773.26 215.97 774.98 214.393 774.98 211.24V139.86C770.967 139.573 766.81 139.43 762.51 139.43C758.21 139.143 754.053 138.857 750.04 138.57C742.873 138.283 734.99 137.997 726.39 137.71C717.79 137.423 709.763 137.423 702.31 137.71C693.997 137.71 686.973 139.86 681.24 144.16C675.793 148.46 673.07 154.767 673.07 163.08V191.46C673.07 200.633 676.223 207.227 682.53 211.24C688.837 214.967 695.43 216.973 702.31 217.26C709.763 217.547 717.36 217.69 725.1 217.69C733.127 217.403 740.437 217.117 747.03 216.83C751.043 216.543 754.913 216.4 758.64 216.4C762.367 216.4 766.093 216.257 769.82 215.97Z" fill="white"/>
<path d="M988.83 252.09C988.83 256.963 986.68 259.4 982.38 259.4H938.52V26.3399C938.52 22.3266 939.667 19.0299 941.96 16.4499C944.54 13.8699 947.837 12.5799 951.85 12.5799L1053.33 11.2899C1071.1 11.2899 1086.01 12.8666 1098.05 16.0199C1110.09 18.8866 1119.69 23.7599 1126.86 30.6399C1134.31 37.5199 1139.62 46.6933 1142.77 58.1599C1145.92 69.3399 1147.5 83.2433 1147.5 99.8699V251.66C1147.5 256.82 1145.21 259.4 1140.62 259.4H1097.62V100.3C1097.62 81.9533 1093.03 69.6266 1083.86 63.3199C1074.97 56.7266 1062.22 53.4299 1045.59 53.4299L992.27 54.2899C989.977 54.2899 988.83 55.2933 988.83 57.2999V252.09Z" fill="white"/>
<path d="M154.95 122.23C164.123 124.81 172.58 127.963 180.32 131.69C188.06 135.13 194.653 139.43 200.1 144.59C205.833 149.75 210.277 155.77 213.43 162.65C216.583 169.53 218.16 177.557 218.16 186.73C218.16 201.923 215.58 214.25 210.42 223.71C205.26 233.17 197.95 240.48 188.49 245.64C179.317 251.087 168.28 254.67 155.38 256.39C142.767 258.397 129.007 259.4 114.1 259.4C82.28 259.687 50.3167 258.397 18.21 255.53V212.53C34.55 213.963 50.7467 215.11 66.8 215.97C83.14 216.83 99.6234 217.117 116.25 216.83C121.41 216.83 127 216.543 133.02 215.97C139.327 215.397 145.06 214.107 150.22 212.1C155.38 210.093 159.68 207.227 163.12 203.5C166.56 199.487 168.28 194.183 168.28 187.59C168.28 183.29 167.277 179.707 165.27 176.84C163.263 173.973 160.683 171.68 157.53 169.96C154.377 167.953 150.793 166.377 146.78 165.23C142.767 163.797 138.753 162.507 134.74 161.36L83.57 147.6C74.97 145.307 66.2267 142.297 57.34 138.57C48.74 134.843 40.8567 130.257 33.69 124.81C26.81 119.077 21.0767 112.34 16.49 104.6C12.19 96.8599 10.04 87.8299 10.04 77.5099C10.04 53.4299 17.6367 36.3733 32.83 26.3399C48.0234 16.0199 69.9534 10.8599 98.62 10.8599C115.82 10.8599 132.59 11.2899 148.93 12.1499C165.27 12.7233 182.04 13.7266 199.24 15.1599V57.2999C182.613 55.8666 166.417 54.7199 150.65 53.8599C134.883 52.7133 119.26 52.2833 103.78 52.5699C99.48 52.5699 94.75 52.8566 89.59 53.4299C84.7167 53.7166 80.13 54.7199 75.83 56.4399C71.53 57.8733 67.8034 60.3099 64.65 63.7499C61.7834 67.1899 60.35 71.9199 60.35 77.9399C60.35 83.0999 61.4967 87.2566 63.79 90.4099C66.0834 93.2766 69.0934 95.7133 72.82 97.7199C76.5467 99.7266 80.7034 101.303 85.29 102.45C89.8767 103.597 94.4634 104.887 99.05 106.32L154.95 122.23Z" stroke="white" stroke-width="20" mask="url(#path-1-outside-1)"/>
<path d="M419.23 259.4C398.017 259.4 380.387 256.677 366.34 251.23C352.293 246.07 341.113 238.903 332.8 229.73C324.487 220.557 318.61 209.663 315.17 197.05C311.73 184.437 310.01 170.82 310.01 156.2V116.21C310.01 79.2299 319.47 52.4266 338.39 35.7999C357.31 19.1733 385.69 10.8599 423.53 10.8599C431.27 10.8599 439.01 11.0033 446.75 11.2899C454.49 11.2899 461.8 11.4333 468.68 11.7199C475.56 12.0066 481.723 12.4366 487.17 13.0099C492.617 13.2966 497.06 13.5833 500.5 13.8699V56.0099C491.327 55.4366 480.147 54.7199 466.96 53.8599C454.06 52.9999 441.447 52.5699 429.12 52.5699C415.647 52.5699 404.323 53.7166 395.15 56.0099C385.977 58.0166 378.523 61.5999 372.79 66.7599C367.343 71.6333 363.33 78.2266 360.75 86.5399C358.17 94.5666 356.88 104.6 356.88 116.64V156.2C356.88 167.667 358.027 177.413 360.32 185.44C362.613 193.18 366.483 199.487 371.93 204.36C377.377 209.233 384.4 212.817 393 215.11C401.887 217.117 412.637 218.12 425.25 218.12C431.27 218.12 437.577 218.12 444.17 218.12C451.05 218.12 457.787 218.12 464.38 218.12C471.26 217.833 477.71 217.547 483.73 217.26C490.037 216.973 495.627 216.687 500.5 216.4V249.08C500.5 254.527 497.633 257.537 491.9 258.11C487.887 258.397 483.157 258.54 477.71 258.54C472.263 258.827 466.243 258.97 459.65 258.97C453.343 259.257 446.75 259.4 439.87 259.4C432.99 259.4 426.11 259.4 419.23 259.4Z" stroke="white" stroke-width="20" mask="url(#path-1-outside-1)"/>
<path d="M692.42 259.4C672.067 259.687 655.727 255.387 643.4 246.5C631.073 237.9 624.91 222.707 624.91 200.92V150.61C624.91 142.01 626.63 134.413 630.07 127.82C633.797 121.227 638.67 115.637 644.69 111.05C650.71 106.463 657.59 102.88 665.33 100.3C673.357 97.7199 681.67 96.2866 690.27 95.9999C698.87 95.7133 708.043 95.7133 717.79 95.9999C727.823 96.2866 736.997 96.5732 745.31 96.8599C750.183 97.1466 755.057 97.4333 759.93 97.7199C764.803 97.7199 769.677 97.8633 774.55 98.1499V85.2499C774.263 72.9233 771.827 64.6099 767.24 60.3099C762.653 56.0099 755.343 53.2866 745.31 52.1399C742.157 51.8533 737.427 51.7099 731.12 51.7099C725.1 51.7099 719.653 51.7099 714.78 51.7099C707.9 51.7099 700.303 51.8533 691.99 52.1399C683.677 52.4266 675.793 52.8566 668.34 53.4299C664.04 53.7166 659.74 54.0033 655.44 54.2899C651.14 54.5766 646.983 54.8633 642.97 55.1499V13.8699C646.983 13.5833 650.853 13.2966 654.58 13.0099C658.593 12.7233 662.607 12.4366 666.62 12.1499C673.5 11.5766 681.24 11.1466 689.84 10.8599C698.44 10.5733 707.04 10.4299 715.64 10.4299C728.253 10.4299 740.437 10.8599 752.19 11.7199C764.23 12.5799 775.123 14.5866 784.87 17.7399C794.617 20.6066 802.643 25.0499 808.95 31.0699C815.543 36.8033 819.7 44.8299 821.42 55.1499C823.14 65.1833 824 78.0833 824 93.8499V240.05C824 244.923 822.423 249.08 819.27 252.52C816.403 256.247 812.533 258.11 807.66 258.11L692.42 259.4ZM769.82 215.97C773.26 215.97 774.98 214.393 774.98 211.24V139.86C770.967 139.573 766.81 139.43 762.51 139.43C758.21 139.143 754.053 138.857 750.04 138.57C742.873 138.283 734.99 137.997 726.39 137.71C717.79 137.423 709.763 137.423 702.31 137.71C693.997 137.71 686.973 139.86 681.24 144.16C675.793 148.46 673.07 154.767 673.07 163.08V191.46C673.07 200.633 676.223 207.227 682.53 211.24C688.837 214.967 695.43 216.973 702.31 217.26C709.763 217.547 717.36 217.69 725.1 217.69C733.127 217.403 740.437 217.117 747.03 216.83C751.043 216.543 754.913 216.4 758.64 216.4C762.367 216.4 766.093 216.257 769.82 215.97Z" stroke="white" stroke-width="20" mask="url(#path-1-outside-1)"/>
<path d="M988.83 252.09C988.83 256.963 986.68 259.4 982.38 259.4H938.52V26.3399C938.52 22.3266 939.667 19.0299 941.96 16.4499C944.54 13.8699 947.837 12.5799 951.85 12.5799L1053.33 11.2899C1071.1 11.2899 1086.01 12.8666 1098.05 16.0199C1110.09 18.8866 1119.69 23.7599 1126.86 30.6399C1134.31 37.5199 1139.62 46.6933 1142.77 58.1599C1145.92 69.3399 1147.5 83.2433 1147.5 99.8699V251.66C1147.5 256.82 1145.21 259.4 1140.62 259.4H1097.62V100.3C1097.62 81.9533 1093.03 69.6266 1083.86 63.3199C1074.97 56.7266 1062.22 53.4299 1045.59 53.4299L992.27 54.2899C989.977 54.2899 988.83 55.2933 988.83 57.2999V252.09Z" stroke="white" stroke-width="20" mask="url(#path-1-outside-1)"/>
</g>
</svg>
