<svg xmlns="http://www.w3.org/2000/svg" width="35" height="14" viewBox="0 0 35 14">
  <defs>
    <style>
      .cls-1 {
        fill: #fff;
        fill-rule: evenodd;
      }
    </style>
  </defs>
  <path id="판매점" class="cls-1" d="M0.372,6.891q1.62-.013,2.747-0.027t1.964-.047Q5.92,6.784,6.555,6.743T7.81,6.648L7.716,5.582q-0.405.04-.79,0.067l-0.8.054V1.937H7.257V0.843h-6.8V1.937H1.627V5.8H0.372V6.891ZM11.793,3.53H10.024V0.047H8.7V8.93h1.323V4.691h1.769V3.53ZM3.76,8.282H2.424v4.077h7.938V11.2H3.76V8.282ZM2.91,5.8V1.937H4.84V5.757Zm14.7-4.563H12.589V9.159h5.022V1.235Zm5.305-1.188H21.607V4.475H20.189V0.3H18.88V11.886h1.31V5.636h1.418v6.858h1.31V0.047ZM13.9,2.369h2.4V8.025H13.9V2.369ZM34.351,7.688H26.588v4.82h7.763V7.688ZM27.979,4.461a1.262,1.262,0,0,0,.263.344q0.2,0.2.506,0.452,0.486,0.4.945,0.756t0.985,0.715l0.756-.972q-0.608-.391-1.134-0.79t-1-.83a2.226,2.226,0,0,1-.364-0.4,1.677,1.677,0,0,1-.209-0.412,2.126,2.126,0,0,1-.1-0.472A5.565,5.565,0,0,1,28.6,2.274V1.923h2.457V0.776H24.631V1.923H27.25V2.328a4.112,4.112,0,0,1-.047.655,2.512,2.512,0,0,1-.149.54A2.066,2.066,0,0,1,26.777,4a4.784,4.784,0,0,1-.419.473,11.511,11.511,0,0,1-.931.79q-0.567.439-1.215,0.9L25,7.121q0.567-.391,1.1-0.81t0.965-.8a4.671,4.671,0,0,0,.581-0.574,1.924,1.924,0,0,0,.324-0.479h0.014Zm5.063,6.912H27.9V8.822h5.144v2.552Zm1.31-4.293V0.047H33.028v2.93H30.746V4.124h2.282V7.08h1.323Z"/>
</svg>
