<svg width="60" height="60" viewBox="0 0 60 60" fill="none" xmlns="http://www.w3.org/2000/svg">
<path d="M9.33301 9.16949H9.18301V9.31949V38.5767V38.7267H9.33301H51.9997H52.1497V38.5767V9.31949V9.16949H51.9997H9.33301ZM4.14967 6.67836C4.14967 5.28168 5.29655 4.15 6.64501 4.15H54.6877C56.0646 4.15 57.183 5.27548 57.183 6.67836V43.7462H4.14967V6.67836ZM1.48301 49.675H59.8497V54.6945H1.48301V49.675Z" fill="#161637" stroke="#161637" stroke-width="0.3"/>
<path d="M24.9154 33.0687C24.1305 32.5286 23.4171 31.8915 22.7921 31.1725C23.1731 30.6779 23.41 30.0875 23.4763 29.4666C23.5427 28.8458 23.4361 28.2187 23.1682 27.6547C22.9002 27.0907 22.4816 26.6118 21.9584 26.271C21.4352 25.9301 20.8279 25.7407 20.2038 25.7236C19.8725 23.8392 20.0264 21.9015 20.651 20.093C21.27 20.1756 21.8998 20.0854 22.4707 19.8322C23.0416 19.579 23.5313 19.1728 23.8857 18.6586C24.24 18.1443 24.4452 17.542 24.4784 16.9184C24.5116 16.2948 24.3717 15.6741 24.0741 15.1251C25.5416 13.8972 27.2976 13.0631 29.1766 12.7015C29.4148 13.2788 29.808 13.7789 30.3128 14.1465C30.8177 14.5142 31.4143 14.735 32.0369 14.7845C32.6594 14.834 33.2835 14.7104 33.84 14.4272C34.3966 14.144 34.864 13.7124 35.1905 13.18C36.0663 13.5007 36.915 13.9354 37.7181 14.4892C38.5221 15.0426 39.2306 15.6814 39.8413 16.3854C39.4603 16.88 39.2234 17.4704 39.1571 18.0912C39.0907 18.7121 39.1974 19.3392 39.4653 19.9032C39.7332 20.4672 40.1519 20.9461 40.675 21.2869C41.1982 21.6277 41.8055 21.8172 42.4296 21.8343C42.7609 23.7187 42.607 25.6564 41.9824 27.4648C41.3634 27.3822 40.7336 27.4725 40.1627 27.7257C39.5918 27.9789 39.1021 28.3851 38.7477 28.8993C38.3934 29.4136 38.1883 30.0159 38.155 30.6395C38.1218 31.2631 38.2617 31.8838 38.5594 32.4328C37.0918 33.6607 35.3358 34.4948 33.4568 34.8564C33.2186 34.2791 32.8254 33.779 32.3206 33.4113C31.8158 33.0437 31.2191 32.8229 30.5966 32.7734C29.974 32.7239 29.35 32.8475 28.7934 33.1307C28.2368 33.4139 27.7694 33.8455 27.4429 34.3778C26.5486 34.0497 25.6993 33.6098 24.9154 33.0687V33.0687ZM30.7772 30.5264C32.1607 30.6364 33.4549 31.2533 34.4116 32.2587C34.9428 32.0649 35.4538 31.8232 35.9394 31.5336C35.7637 30.1566 36.1025 28.7632 36.891 27.6208C37.6778 26.4768 38.8593 25.6636 40.2089 25.3374C40.3067 24.7812 40.3507 24.2169 40.3422 23.6526C39.0621 23.1162 38.0251 22.1262 37.43 20.8723C36.8196 19.5885 36.7283 18.1616 37.1119 16.8586C36.6782 16.4966 36.2119 16.1755 35.719 15.8994C34.6147 16.7396 33.2393 17.1427 31.8562 17.0315C30.4727 16.9215 29.1785 16.3046 28.2218 15.2991C27.6906 15.493 27.1797 15.7347 26.694 16.0243C26.8697 17.4013 26.5309 18.7946 25.7424 19.9371C24.9556 21.0811 23.7741 21.8942 22.4245 22.2204C22.3274 22.7767 22.2828 23.3408 22.2912 23.9053C23.5713 24.4417 24.6083 25.4317 25.2034 26.6856C25.8138 27.9694 25.9051 29.3963 25.5215 30.6993C25.9552 31.0612 26.4216 31.3823 26.9144 31.6585C28.0187 30.8182 29.3941 30.4151 30.7772 30.5264ZM32.77 26.8356C31.9594 27.2211 31.0288 27.2687 30.183 26.968C29.3372 26.6673 28.6455 26.0429 28.26 25.2323C27.8746 24.4216 27.827 23.491 28.1277 22.6452C28.4283 21.7994 29.0527 21.1077 29.8634 20.7223C30.6741 20.3368 31.6046 20.2892 32.4504 20.5899C33.2962 20.8906 33.9879 21.5149 34.3734 22.3256C34.7588 23.1363 34.8064 24.0669 34.5058 24.9127C34.2051 25.7585 33.5807 26.4502 32.77 26.8356ZM31.8011 24.7978C32.0714 24.6693 32.2795 24.4388 32.3797 24.1568C32.4799 23.8749 32.4641 23.5647 32.3356 23.2945C32.2071 23.0243 31.9765 22.8162 31.6946 22.7159C31.4127 22.6157 31.1025 22.6316 30.8323 22.7601C30.562 22.8885 30.3539 23.1191 30.2537 23.401C30.1535 23.683 30.1693 23.9932 30.2978 24.2634C30.4263 24.5336 30.6569 24.7417 30.9388 24.842C31.2207 24.9422 31.5309 24.9263 31.8011 24.7978V24.7978Z" fill="#1369FA" stroke="#1369FA" stroke-width="0.8"/>
</svg>
