<svg width="40" height="57" viewBox="0 0 40 57" fill="none" xmlns="http://www.w3.org/2000/svg">
<path d="M5.6 5.9335V50.7335H33.6V5.9335H5.6ZM2.8 0.333496H36.4C37.1426 0.333496 37.8548 0.628495 38.3799 1.1536C38.905 1.6787 39.2 2.39089 39.2 3.1335V53.5335C39.2 54.2761 38.905 54.9883 38.3799 55.5134C37.8548 56.0385 37.1426 56.3335 36.4 56.3335H2.8C2.05739 56.3335 1.3452 56.0385 0.820102 55.5134C0.295 54.9883 0 54.2761 0 53.5335V3.1335C0 2.39089 0.295 1.6787 0.820102 1.1536C1.3452 0.628495 2.05739 0.333496 2.8 0.333496ZM19.6 42.3335C20.3426 42.3335 21.0548 42.6285 21.5799 43.1536C22.105 43.6787 22.4 44.3909 22.4 45.1335C22.4 45.8761 22.105 46.5883 21.5799 47.1134C21.0548 47.6385 20.3426 47.9335 19.6 47.9335C18.8574 47.9335 18.1452 47.6385 17.6201 47.1134C17.095 46.5883 16.8 45.8761 16.8 45.1335C16.8 44.3909 17.095 43.6787 17.6201 43.1536C18.1452 42.6285 18.8574 42.3335 19.6 42.3335Z" fill="white"/>
<ellipse cx="19.6012" cy="45.1337" rx="3.36" ry="3.36" fill="#5896FF"/>
</svg>
