<svg width="60" height="60" viewBox="0 0 60 60" fill="none" xmlns="http://www.w3.org/2000/svg">
<path d="M29.8817 34.9355C28.7495 34.9355 27.6637 34.4857 26.8632 33.6852C26.0626 32.8846 25.6129 31.7988 25.6129 30.6667C25.6129 29.5345 26.0626 28.4487 26.8632 27.6482C27.6637 26.8476 28.7495 26.3979 29.8817 26.3979C31.0138 26.3979 32.0996 26.8476 32.9002 27.6482C33.7007 28.4487 34.1505 29.5345 34.1505 30.6667C34.1505 31.7988 33.7007 32.8846 32.9002 33.6852C32.0996 34.4857 31.0138 34.9355 29.8817 34.9355ZM28.379 43.456C28.8771 44.0537 29.3779 44.6342 29.8817 45.1892C30.3854 44.6342 30.8863 44.0565 31.3843 43.456C30.3827 43.4773 29.3807 43.4773 28.379 43.456V43.456ZM22.7015 43.1003C20.5161 42.8729 18.3451 42.5232 16.1987 42.053C15.9853 43.0491 15.8231 44.0167 15.7149 44.9444C15.1742 49.4494 15.9284 52.1872 17.0752 52.8474C18.2221 53.5105 20.9684 52.7933 24.6026 50.0755C25.351 49.5149 26.1052 48.8916 26.8622 48.2115C25.3809 46.5868 23.9919 44.8804 22.7015 43.1003V43.1003ZM43.5646 42.053C41.5241 42.5083 39.3442 42.8612 37.0618 43.1003C35.7715 44.8804 34.3824 46.5868 32.9011 48.2115C33.6581 48.8945 34.4123 49.5149 35.1608 50.0755C38.7949 52.7933 41.5412 53.5105 42.6881 52.8474C43.835 52.1872 44.5863 49.4494 44.0513 44.9444C43.9338 43.9738 43.7724 43.009 43.5675 42.053H43.5646ZM47.6911 40.9517C49.3332 48.4619 48.4709 54.4411 44.8225 56.547C41.1741 58.653 35.5649 56.4104 29.8817 51.2338C24.1985 56.4104 18.5892 58.6501 14.9408 56.5442C11.2924 54.4382 10.4301 48.4619 12.0693 40.9488C4.74407 38.618 0 34.8786 0 30.6667C0 26.4548 4.74407 22.7181 12.0693 20.3817C10.4301 12.8714 11.2924 6.89224 14.9408 4.78629C18.5892 2.68035 24.1985 4.92289 29.8817 10.0995C35.5649 4.92289 41.1741 2.68319 44.8225 4.78914C48.4709 6.89509 49.3332 12.8714 47.694 20.3845C55.0193 22.7153 59.7633 26.4548 59.7633 30.6667C59.7633 34.8786 55.0193 38.6152 47.694 40.9517H47.6911ZM26.8593 13.1219C26.1356 12.4668 25.3826 11.8448 24.6026 11.2578C20.9684 8.54 18.2221 7.82284 17.0752 8.48593C15.9284 9.14617 15.177 11.8839 15.7121 16.3889C15.8259 17.3195 15.9853 18.2843 16.1959 19.2803C18.3432 18.81 20.5151 18.4604 22.7015 18.233C24.0533 16.3747 25.4478 14.6643 26.8622 13.1219H26.8593ZM37.0618 18.233C39.3442 18.4721 41.5241 18.8278 43.5646 19.2803C43.7781 18.2843 43.9403 17.3167 44.0484 16.3889C44.5891 11.8839 43.835 9.14617 42.6881 8.48593C41.5412 7.82284 38.7949 8.54 35.1608 11.2578C34.3798 11.8447 33.6258 12.4667 32.9011 13.1219C34.3155 14.6643 35.71 16.3747 37.0618 18.233V18.233ZM31.3843 17.8773C30.8863 17.2797 30.3854 16.6991 29.8817 16.1442C29.3779 16.6991 28.8771 17.2768 28.379 17.8773C29.3807 17.8561 30.3827 17.8561 31.3843 17.8773V17.8773ZM19.5568 38.3619C19.0376 37.5056 18.5366 36.6383 18.0542 35.7608C17.7839 36.4922 17.5334 37.2122 17.3058 37.9265C18.0371 38.0859 18.7885 38.231 19.554 38.3619H19.5568ZM25.0551 39.0278C28.2684 39.2665 31.495 39.2665 34.7083 39.0278C36.5217 36.364 38.135 33.5692 39.5349 30.6667C38.135 27.7641 36.5217 24.9694 34.7083 22.3055C31.495 22.0668 28.2684 22.0668 25.0551 22.3055C23.2417 24.9694 21.6284 27.7641 20.2285 30.6667C21.6284 33.5692 23.2417 36.364 25.0551 39.0278V39.0278ZM41.7091 25.5726C41.9795 24.8412 42.2299 24.1212 42.4576 23.4068C41.7115 23.2449 40.9619 23.0998 40.2093 22.9714C40.7276 23.8278 41.2276 24.695 41.7091 25.5726ZM13.1764 24.511C12.2088 24.8241 11.2924 25.1656 10.433 25.5356C6.26377 27.3228 4.26881 29.3433 4.26881 30.6667C4.26881 31.99 6.26092 34.0106 10.433 35.7978C11.2924 36.1677 12.2088 36.5092 13.1764 36.8223C13.8082 34.8302 14.5908 32.7641 15.5242 30.6667C14.6273 28.6602 13.8434 26.6051 13.1764 24.511V24.511ZM17.3029 23.4068C17.5334 24.1183 17.7839 24.8412 18.0542 25.5697C18.5367 24.6931 19.0377 23.8268 19.5568 22.9714C18.7885 23.1023 18.0371 23.2475 17.3058 23.4068H17.3029ZM46.5869 36.8223C47.5545 36.5092 48.4709 36.1677 49.3304 35.7978C53.4996 34.0106 55.4945 31.99 55.4945 30.6667C55.4945 29.3433 53.5024 27.3228 49.3304 25.5356C48.4318 25.1528 47.5164 24.8109 46.5869 24.511C45.9552 26.5032 45.1725 28.5693 44.2391 30.6667C45.1725 32.7641 45.9552 34.8273 46.5869 36.8223V36.8223ZM42.4604 37.9265C42.2299 37.215 41.9795 36.4922 41.7091 35.7636C41.2267 36.6402 40.7257 37.5065 40.2065 38.3619C40.9749 38.231 41.7262 38.0859 42.4576 37.9265H42.4604Z" fill="#161637"/>
<ellipse cx="29.8816" cy="30.6672" rx="4.26881" ry="4.26881" fill="#1369FA"/>
</svg>
