<svg width="60" height="60" viewBox="0 0 60 60" fill="none" xmlns="http://www.w3.org/2000/svg">
<path d="M9.3335 9.16949H9.1835V9.31949V38.5767V38.7267H9.3335H52.0002H52.1502V38.5767V9.31949V9.16949H52.0002H9.3335ZM4.15016 6.67836C4.15016 5.28168 5.29704 4.15 6.6455 4.15H54.6882C56.0651 4.15 57.1835 5.27548 57.1835 6.67836V43.7462H4.15016V6.67836ZM1.4835 49.675H59.8502V54.6945H1.4835V49.675Z" fill="white" stroke="white" stroke-width="0.3"/>
<path d="M24.9163 33.0687C24.1315 32.5286 23.4181 31.8915 22.793 31.1725C23.1741 30.6779 23.4109 30.0875 23.4773 29.4666C23.5437 28.8458 23.437 28.2187 23.1691 27.6547C22.9012 27.0907 22.4825 26.6118 21.9594 26.271C21.4362 25.9301 20.8289 25.7407 20.2048 25.7236C19.8735 23.8392 20.0274 21.9015 20.652 20.093C21.271 20.1756 21.9008 20.0854 22.4717 19.8322C23.0426 19.579 23.5323 19.1728 23.8866 18.6586C24.241 18.1443 24.4461 17.542 24.4794 16.9184C24.5126 16.2948 24.3727 15.6741 24.075 15.1251C25.5426 13.8972 27.2986 13.0631 29.1776 12.7015C29.4158 13.2788 29.809 13.7789 30.3138 14.1465C30.8186 14.5142 31.4153 14.735 32.0378 14.7845C32.6603 14.834 33.2844 14.7104 33.841 14.4272C34.3976 14.144 34.865 13.7124 35.1915 13.18C36.0673 13.5007 36.916 13.9354 37.719 14.4892C38.5231 15.0426 39.2315 15.6814 39.8423 16.3854C39.4612 16.88 39.2244 17.4704 39.158 18.0912C39.0917 18.7121 39.1983 19.3392 39.4662 19.9032C39.7341 20.4672 40.1528 20.9461 40.676 21.2869C41.1992 21.6277 41.8064 21.8172 42.4306 21.8343C42.7619 23.7187 42.608 25.6564 41.9834 27.4648C41.3644 27.3822 40.7346 27.4725 40.1637 27.7257C39.5928 27.9789 39.1031 28.3851 38.7487 28.8993C38.3944 29.4136 38.1892 30.0159 38.156 30.6395C38.1227 31.2631 38.2627 31.8838 38.5603 32.4328C37.0928 33.6607 35.3368 34.4948 33.4578 34.8564C33.2196 34.2791 32.8263 33.779 32.3215 33.4113C31.8167 33.0437 31.2201 32.8229 30.5975 32.7734C29.975 32.7239 29.3509 32.8475 28.7943 33.1307C28.2377 33.4139 27.7703 33.8455 27.4439 34.3778C26.5496 34.0497 25.7003 33.6098 24.9163 33.0687ZM30.7782 30.5264C32.1617 30.6364 33.4559 31.2533 34.4126 32.2587C34.9438 32.0649 35.4547 31.8232 35.9404 31.5336C35.7646 30.1566 36.1035 28.7632 36.892 27.6208C37.6788 26.4768 38.8603 25.6636 40.2099 25.3374C40.3077 24.7812 40.3517 24.2169 40.3432 23.6526C39.0631 23.1162 38.0261 22.1262 37.431 20.8723C36.8206 19.5885 36.7293 18.1616 37.1129 16.8586C36.6791 16.4966 36.2128 16.1755 35.7199 15.8994C34.6157 16.7396 33.2402 17.1427 31.8572 17.0315C30.4737 16.9215 29.1795 16.3046 28.2228 15.2991C27.6916 15.493 27.1806 15.7347 26.695 16.0243C26.8707 17.4013 26.5318 18.7946 25.7434 19.9371C24.9566 21.0811 23.7751 21.8942 22.4255 22.2204C22.3284 22.7767 22.2838 23.3408 22.2922 23.9053C23.5723 24.4417 24.6093 25.4317 25.2044 26.6856C25.8148 27.9694 25.9061 29.3963 25.5224 30.6993C25.9562 31.0612 26.4225 31.3823 26.9154 31.6585C28.0196 30.8182 29.3951 30.4151 30.7782 30.5264ZM32.771 26.8356C31.9603 27.2211 31.0297 27.2687 30.184 26.968C29.3382 26.6673 28.6465 26.0429 28.261 25.2323C27.8756 24.4216 27.828 23.491 28.1286 22.6452C28.4293 21.7994 29.0537 21.1077 29.8644 20.7223C30.675 20.3368 31.6056 20.2892 32.4514 20.5899C33.2972 20.8906 33.9889 21.5149 34.3743 22.3256C34.7598 23.1363 34.8074 24.0669 34.5067 24.9127C34.206 25.7585 33.5817 26.4502 32.771 26.8356ZM31.8021 24.7978C32.0724 24.6693 32.2805 24.4388 32.3807 24.1568C32.4809 23.8749 32.4651 23.5647 32.3366 23.2945C32.2081 23.0243 31.9775 22.8162 31.6956 22.7159C31.4137 22.6157 31.1035 22.6316 30.8332 22.7601C30.563 22.8885 30.3549 23.1191 30.2547 23.401C30.1544 23.683 30.1703 23.9932 30.2988 24.2634C30.4273 24.5336 30.6578 24.7417 30.9398 24.842C31.2217 24.9422 31.5319 24.9263 31.8021 24.7978Z" fill="#5896FF" stroke="#5896FF" stroke-width="0.8"/>
</svg>
