<svg width="125" height="33" viewBox="0 0 125 33" fill="none" xmlns="http://www.w3.org/2000/svg">
<path d="M44.9453 8.32857C42.9877 6.52143 40.4038 5.34286 37.5066 5.34286C31.4774 5.34286 26.6226 10.2143 26.6226 16.2643C26.6226 22.3143 31.4774 27.1857 37.5066 27.1857C40.4038 27.1857 43.066 26.0071 45.0236 24.1214V27.1071H49.1736V0H44.9453V8.32857ZM37.5066 22.8643C33.9047 22.8643 31.0075 19.9571 31.0075 16.3429C31.0075 12.7286 33.9047 9.82143 37.5066 9.82143C41.1085 9.82143 44.0057 12.7286 44.0057 16.3429C44.084 19.8786 41.1085 22.8643 37.5066 22.8643Z" fill="white"/>
<path d="M56.6906 24.2C58.6481 26.0071 61.2321 27.1857 64.1292 27.1857C70.0802 27.1857 74.9349 22.3143 74.9349 16.3429C74.9349 10.3714 70.0802 5.5 64.1292 5.5C61.2321 5.5 58.6481 6.67857 56.6906 8.48571V5.5H52.6189V32.3714H56.7689L56.6906 24.2ZM64.1292 9.82143C67.7311 9.82143 70.6283 12.7286 70.6283 16.3429C70.6283 19.9571 67.7311 22.8643 64.1292 22.8643C60.5274 22.8643 57.6302 19.9571 57.6302 16.3429C57.6302 12.7286 60.5274 9.82143 64.1292 9.82143Z" fill="white"/>
<path d="M95.1368 8.48571C93.1792 6.67857 90.5953 5.5 87.6981 5.5C81.7472 5.5 76.8924 10.3714 76.8924 16.3429C76.8924 22.3143 81.7472 27.1857 87.6981 27.1857C90.5953 27.1857 93.1792 26.0071 95.1368 24.2V27.1857H99.2085V5.89286H95.0585L95.1368 8.48571ZM87.6981 22.8643C84.0962 22.8643 81.1991 19.9571 81.1991 16.3429C81.1991 12.7286 84.0962 9.82143 87.6981 9.82143C91.3 9.82143 94.1972 12.7286 94.1972 16.3429C94.1972 19.9571 91.3 22.8643 87.6981 22.8643Z" fill="white"/>
<path d="M11.9802 22.4714C5.01131 22.0786 5.01131 16.3429 5.01131 16.3429V5.65714H0.704706L0.626404 16.1071C0.783008 22.3929 5.63772 25.2214 5.63772 25.2214C13.7811 29.7786 19.5755 24.8286 19.5755 24.8286V16.1857C19.0273 23.0214 11.9802 22.4714 11.9802 22.4714Z" fill="white"/>
<path d="M24.117 5.65714H19.5755V27.1857H24.117V5.65714Z" fill="white"/>
<path d="M119.41 5.5L113.146 21.6071L106.569 5.5H101.244L110.014 25.7714L106.804 32.6071H112.363L124.5 5.5H119.41Z" fill="white"/>
</svg>
