<svg width="100" height="26" viewBox="0 0 100 26" fill="none" xmlns="http://www.w3.org/2000/svg">
<path d="M35.4452 6.63262C33.9064 5.14691 31.837 4.24487 29.5023 4.24487C24.7268 4.24487 20.8003 8.11832 20.8003 12.9469C20.8003 17.7224 24.6738 21.6489 29.5023 21.6489C31.837 21.6489 33.9595 20.7468 35.4983 19.2611V21.6489H38.7881V0H35.4452V6.63262ZM29.5023 18.1468C26.637 18.1468 24.3023 15.8122 24.3023 12.9469C24.3023 10.0816 26.637 7.7469 29.5023 7.7469C32.3676 7.7469 34.7023 10.0816 34.7023 12.9469C34.7023 15.8122 32.3676 18.1468 29.5023 18.1468Z" fill="#0873BA"/>
<path d="M44.8367 19.2613C46.3754 20.747 48.4448 21.596 50.7795 21.596C55.555 21.596 59.4285 17.7225 59.4285 12.947C59.4285 8.17154 55.555 4.2981 50.7795 4.2981C48.4448 4.2981 46.3754 5.20013 44.8367 6.68584V4.35116H41.5469V25.7878H44.8897L44.8367 19.2613ZM50.7265 7.85318C53.5918 7.85318 55.9265 10.1879 55.9265 13.0532C55.9265 15.9184 53.5918 18.2531 50.7265 18.2531C47.8612 18.2531 45.5265 15.9184 45.5265 13.0532C45.5795 10.1348 47.8612 7.85318 50.7265 7.85318Z" fill="#3D4957"/>
<path d="M75.5591 6.73875C74.0203 5.25303 71.951 4.40405 69.6163 4.40405C64.8408 4.40405 60.9673 8.27752 60.9673 13.053C60.9673 17.8285 64.8408 21.702 69.6163 21.702C71.951 21.702 74.0203 20.8 75.5591 19.3143V21.6489H78.8489V4.66936H75.5061L75.5591 6.73875ZM69.6163 18.2C66.751 18.2 64.4163 15.8653 64.4163 13C64.4163 10.1347 66.751 7.79997 69.6163 7.79997C72.4816 7.79997 74.8163 10.1347 74.8163 13C74.8163 15.8653 72.4816 18.2 69.6163 18.2Z" fill="#3D4957"/>
<path d="M9.12653 17.8817C3.50204 17.5633 3.50204 13 3.50204 13V4.51025H0.0530612L0 12.8409C0.106122 17.8817 4.03265 20.1103 4.03265 20.1103C10.5061 23.7715 15.1755 19.7919 15.1755 19.7919V12.8939C14.751 18.3062 9.12653 17.8817 9.12653 17.8817Z" fill="#E92629"/>
<path d="M18.7839 4.45728H15.1758V21.6491H18.7839V4.45728Z" fill="#0873BA"/>
<path d="M94.9799 4.40405L89.939 17.1917L84.739 4.40405H80.4941L87.4452 20.5346L84.8982 25.9999H89.3554L99.0656 4.40405H94.9799Z" fill="#3D4957"/>
</svg>
