<svg width="100" height="26" viewBox="0 0 100 26" fill="none" xmlns="http://www.w3.org/2000/svg">
<path d="M35.445 6.63262C33.9062 5.14691 31.8368 4.24487 29.5021 4.24487C24.7266 4.24487 20.8 8.11832 20.8 12.9469C20.8 17.7224 24.6735 21.6489 29.5021 21.6489C31.8368 21.6489 33.9592 20.7468 35.498 19.2611V21.6489H38.7878V0H35.445V6.63262ZM29.5021 18.1468C26.6368 18.1468 24.3021 15.8122 24.3021 12.9469C24.3021 10.0816 26.6368 7.7469 29.5021 7.7469C32.3674 7.7469 34.7021 10.0816 34.7021 12.9469C34.7021 15.8122 32.3674 18.1468 29.5021 18.1468Z" fill="#3F81F2"/>
<path d="M44.8368 19.2613C46.3756 20.747 48.445 21.596 50.7797 21.596C55.5552 21.596 59.4286 17.7225 59.4286 12.947C59.4286 8.17154 55.5552 4.2981 50.7797 4.2981C48.445 4.2981 46.3756 5.20013 44.8368 6.68584V4.35116H41.547V25.7878H44.8899L44.8368 19.2613ZM50.7266 7.85318C53.5919 7.85318 55.9266 10.1879 55.9266 13.0532C55.9266 15.9184 53.5919 18.2531 50.7266 18.2531C47.8613 18.2531 45.5266 15.9184 45.5266 13.0532C45.5797 10.1348 47.8613 7.85318 50.7266 7.85318Z" fill="#ABB8D8"/>
<path d="M75.5591 6.73875C74.0203 5.25303 71.951 4.40405 69.6163 4.40405C64.8408 4.40405 60.9673 8.27752 60.9673 13.053C60.9673 17.8285 64.8408 21.702 69.6163 21.702C71.951 21.702 74.0203 20.8 75.5591 19.3143V21.6489H78.8489V4.66936H75.5061L75.5591 6.73875ZM69.6163 18.2C66.751 18.2 64.4163 15.8653 64.4163 13C64.4163 10.1347 66.751 7.79997 69.6163 7.79997C72.4816 7.79997 74.8163 10.1347 74.8163 13C74.8163 15.8653 72.4816 18.2 69.6163 18.2Z" fill="#ABB8D8"/>
<path d="M9.12653 17.8817C3.50204 17.5633 3.50204 13 3.50204 13V4.51025H0.0530612L0 12.8409C0.106122 17.8817 4.03265 20.1103 4.03265 20.1103C10.5061 23.7715 15.1755 19.7919 15.1755 19.7919V12.8939C14.751 18.3062 9.12653 17.8817 9.12653 17.8817Z" fill="#FC5F5F"/>
<path d="M18.7837 4.45728H15.1755V21.6491H18.7837V4.45728Z" fill="#3F81F2"/>
<path d="M94.9796 4.40405L89.9388 17.1917L84.7388 4.40405H80.4939L87.4449 20.5346L84.898 25.9999H89.3551L99.0653 4.40405H94.9796Z" fill="#ABB8D8"/>
</svg>
