<svg width="24" height="24" viewBox="0 0 24 24" fill="none" xmlns="http://www.w3.org/2000/svg">
<path opacity="0.5" d="M21 13.5V14C21 15.9 17.1 18 12 18C6.9 18 3 15.9 3 14V13.5C1.8 12.5 1 11.4 1 10.1V18V18.2C1.2 21.4 6 24 12 24C18.1 24 23 21.3 23 18V10C23 11.3 22.3 12.5 21 13.5ZM21 18V18.1C20.8 20 17 22 12 22C6.9 22 3 19.9 3 18V17.5C5 19 8.3 20 12 20C15.7 20 19 19 21 17.5V18Z" fill="#00CDB6"/>
<path d="M23 10V6C23 2.7 18.1 0 12 0C5.9 0 1 2.7 1 6V10V10.1C1 11.4 1.8 12.6 3 13.5C5 15 8.3 16.1 12 16.1C15.7 16.1 19 15.1 21 13.5C22.3 12.5 23 11.3 23 10ZM12 2C17.1 2 21 4.1 21 6C21 7.9 17.1 10 12 10C6.9 10 3 7.9 3 6C3 4.1 6.9 2 12 2ZM21 10V10.1C20.8 12 17 14 12 14C6.9 14 3 11.9 3 10V9.5C5 11 8.3 12 12 12C15.7 12 19 11 21 9.5V10Z" fill="#00CDB6"/>
</svg>
