<svg width="24" height="24" viewBox="0 0 24 24" fill="none" xmlns="http://www.w3.org/2000/svg">
<path d="M19.6917 4.30834C15.6834 0.408341 9.40004 0.0833408 5.17504 3.65834L3.98338 2.46667L2.79171 7.45001L7.77504 6.25834L6.69171 5.17501L6.90838 4.95834C8.96671 3.44167 11.675 2.90001 14.1667 3.55001C18.825 4.74167 21.5334 9.50834 20.3417 14.1667C19.15 18.825 14.3834 21.5333 9.72504 20.3417C5.06671 19.15 2.35838 14.3833 3.55004 9.72501L1.49171 9.29167L1.38338 9.61667C0.516712 13.3 1.60005 17.0917 4.30838 19.6917C8.53338 23.9167 15.3584 23.9167 19.5834 19.6917C23.9167 15.4667 23.9167 8.53334 19.6917 4.30834Z" fill="#FC8383"/>
<path opacity="0.5" d="M7.01668 7.77499V9.50833H5.93335V11.675H7.01668V13.8417C7.01668 15.4667 8.42502 16.875 10.05 16.875C10.8083 16.875 11.4583 16.55 12 16.1167C12.5417 16.55 13.1917 16.875 13.95 16.875C15.575 16.875 16.9833 15.4667 16.9833 13.8417V11.675H18.0667V9.50833H16.9833V7.77499H14.8167V9.50833H13.0833V7.77499H10.9167V9.50833H9.18335V7.77499H7.01668ZM13.0833 11.675H14.8167V13.8417C14.8167 14.275 14.3833 14.7083 13.95 14.7083C13.5167 14.7083 13.0833 14.3833 13.0833 13.8417V11.675ZM10.9167 11.675V13.8417C10.9167 14.275 10.4833 14.7083 10.05 14.7083C9.61668 14.7083 9.18335 14.275 9.18335 13.8417V11.675H10.9167Z" fill="#FC8383"/>
</svg>
