<svg width="98" height="128" viewBox="0 0 98 128" fill="none" xmlns="http://www.w3.org/2000/svg">
<path d="M63 1.6001V93.1001L3 128V35.5001L63 1.6001Z" fill="#E1E9EF"/>
<path d="M3 128L0 125.9V33.5L3 35.5V128Z" fill="#C3CDDD"/>
<path d="M3 35.5L0 33.5L60 0L63 1.6L3 35.5Z" fill="#EFF5F9"/>
<path d="M57.4001 14.1001L57.2001 88.4001L8.6001 116.9V41.6001L57.4001 14.1001Z" fill="white"/>
<path d="M44.4001 41.5V43.6L21.6001 56.9V54.7L44.4001 41.5Z" fill="#C3CDDD"/>
<path d="M44.4001 55.6001V57.7001L21.6001 71.0001V68.8001L44.4001 55.6001Z" fill="#C3CDDD"/>
<path d="M44.4001 48.5V50.7L21.6001 63.9V61.8L44.4001 48.5Z" fill="#C3CDDD"/>
<path d="M36.6001 38.8999V41.0999L21.6001 49.7999V47.5999L36.6001 38.8999Z" fill="#C3CDDD"/>
<path d="M44.4001 75.2002V77.3002L21.6001 90.6002V88.4002L44.4001 75.2002Z" fill="#C3CDDD"/>
<path d="M44.4001 82.2002V84.4002L21.6001 97.6002V95.4002L44.4001 82.2002Z" fill="#C3CDDD"/>
<path d="M36.6001 72.6001V74.8001L21.6001 83.5001V81.3001L36.6001 72.6001Z" fill="#C3CDDD"/>
<path d="M28.3004 35.7L26.9004 34.9L25.4004 32.5L26.8004 33.3L28.3004 35.7Z" fill="#A0ABBA"/>
<path d="M42.4001 18.7998L42.5001 24.5998L40.1001 26.2998L39.1001 29.3998L28.3001 35.6998L26.8001 33.2998L24.6001 34.5998V28.7998L42.4001 18.7998Z" fill="#C3CDDD"/>
<path d="M24.6002 34.6L23.2002 33.8V28L24.6002 28.8V34.6Z" fill="#A0ABBA"/>
<path d="M24.6002 28.8L23.2002 28L41.0002 18L42.4002 18.8L24.6002 28.8Z" fill="#EFF5F9"/>
<path d="M83.1 27H62.9C54.7 27 48 33.5 48 41.6C48 49.7 54.7 56.2 62.9 56.2H64.2002L67.5002 61L70.8002 56.2H83.1C91.3 56.2 98 49.7 98 41.6C98 33.5 91.3 27 83.1 27Z" fill="#F1F6FA"/>
<path fill-rule="evenodd" clip-rule="evenodd" d="M66.4004 43.2002C67.2288 43.2002 67.9004 42.5286 67.9004 41.7002C67.9004 40.8718 67.2288 40.2002 66.4004 40.2002C65.572 40.2002 64.9004 40.8718 64.9004 41.7002C64.9004 42.5286 65.572 43.2002 66.4004 43.2002ZM72.9004 43.2002C73.7288 43.2002 74.4004 42.5286 74.4004 41.7002C74.4004 40.8718 73.7288 40.2002 72.9004 40.2002C72.072 40.2002 71.4004 40.8718 71.4004 41.7002C71.4004 42.5286 72.072 43.2002 72.9004 43.2002ZM77.9004 41.7002C77.9004 40.9002 78.6004 40.2002 79.4004 40.2002C80.2004 40.2002 80.9004 40.9002 80.9004 41.7002C80.9004 42.5002 80.2004 43.2002 79.4004 43.2002C78.6004 43.2002 77.9004 42.5002 77.9004 41.7002Z" fill="#C3CDDD"/>
</svg>
