<svg width="90" height="140" viewBox="0 0 90 140" fill="none" xmlns="http://www.w3.org/2000/svg">
<path d="M42.6 91.7L42.4 140L0 115.7L0.1 67.4L42.6 91.7Z" fill="#D4DDE8"/>
<path d="M42.5999 91.7L89.9999 64.3L89.8999 112.7L42.3999 140L42.5999 91.7Z" fill="#C3CDDD"/>
<path d="M0.100098 67.4L47.6001 40L90.0001 64.3L42.6001 91.7L0.100098 67.4Z" fill="#E1E9EF"/>
<path d="M25.7998 82.1L17.2998 77.2V95.5L25.7998 100.4V82.1Z" fill="#E6E6E6"/>
<path d="M64.1998 49.6L17.2998 77.2L25.7998 82.1L72.7998 54.6L64.1998 49.6Z" fill="white"/>
<path fill-rule="evenodd" clip-rule="evenodd" d="M83.6002 111.9V108.6L86.8002 102L84.3002 103.5L83.9002 104.3L84.3002 104.2L83.0002 106.4L83.7002 104.7L83.3002 104.9L83.7002 103.8L79.2002 106.4L82.5002 109.2V112.5L80.6002 113.6V114.3L82.5002 113.2L83.6002 112.6L85.5002 111.5V110.8L83.6002 111.9ZM76.4998 107.9L74.7998 111.6L76.0998 110.9V116.8L76.9998 116.3V110.4L78.2998 109.6L76.4998 107.9ZM70.5 114L72.2 110.3L73.9 112L72.7 112.8V118.7L71.7 119.2V113.3L70.5 114Z" fill="#9AA3AF"/>
<path d="M54.8998 0H34.6998C26.4998 0 19.7998 6.5 19.7998 14.6C19.7998 22.7 26.4998 29.2 34.6998 29.2H41.4998L44.7998 34L48.0998 29.2H54.8998C63.0998 29.2 69.7998 22.7 69.7998 14.6C69.7998 6.5 63.0998 0 54.8998 0Z" fill="white"/>
<path fill-rule="evenodd" clip-rule="evenodd" d="M38.2002 16.2C39.0286 16.2 39.7002 15.5284 39.7002 14.7C39.7002 13.8715 39.0286 13.2 38.2002 13.2C37.3718 13.2 36.7002 13.8715 36.7002 14.7C36.7002 15.5284 37.3718 16.2 38.2002 16.2ZM44.7002 16.2C45.5286 16.2 46.2002 15.5284 46.2002 14.7C46.2002 13.8715 45.5286 13.2 44.7002 13.2C43.8718 13.2 43.2002 13.8715 43.2002 14.7C43.2002 15.5284 43.8718 16.2 44.7002 16.2ZM49.7002 14.7C49.7002 13.9 50.4002 13.2 51.2002 13.2C52.0002 13.2 52.7002 13.9 52.7002 14.7C52.7002 15.5 52.0002 16.2 51.2002 16.2C50.4002 16.2 49.7002 15.5 49.7002 14.7Z" fill="#C3CDDD"/>
</svg>
