<svg width="148" height="22" viewBox="0 0 148 22" fill="none" xmlns="http://www.w3.org/2000/svg">
<g clip-path="url(#clip0)">
<path fill-rule="evenodd" clip-rule="evenodd" d="M42.5 0C41.3 0 40.2 0.8 40.2 2.3V16.8V17.4V19.6C40.2 20.9 41.2 21.9 42.5 21.9C43.8 21.9 44.8 20.9 44.8 19.6V17.4V2.3C44.8 0.8 43.7 0 42.5 0ZM82.8 0.5C83.2 0.2 83.7 0 84.2 0C84.7 0 85.2 0.2 85.6 0.5C86 0.8 86.2 1.3 86.2 2V15.1V16.6V19.8C86.2 20.9 85.3 21.8 84.2 21.8C83.1 21.8 82.2 20.9 82.2 19.8V16.6V12.6H82C81.6 12.6 81.3 12.5 81.1 12.4C80.9 12.3 80.7 12.2 80.6 12C80.5 11.8 80.4 11.6 80.3 11.4C80.2 11.1 80.2 10.9 80.2 10.6C80.2 10.3 80.3 10.1 80.3 9.8C80.4 9.6 80.4 9.4 80.6 9.2C80.7 9 80.9 8.8 81.1 8.7C81.4 8.6 81.6 8.5 82 8.5H82.3V2C82.3 1.4 82.5 0.8 82.8 0.5ZM79.8 7.4V17.4C80.3 17.5 80.7 17.7 80.8 18C81.1 18.4 81.2 18.8 81.2 19.2C81.2 19.5 81.1 19.7 81.1 19.9C81 20.1 80.9 20.3 80.8 20.5C80.7 20.7 80.5 20.8 80.3 20.9C80.1 21 79.8 21.1 79.6 21.1H71.6C71.3 21.1 71.1 21 70.9 20.9C70.7 20.8 70.5 20.6 70.4 20.5C70.1 20.2 70 20 70 19.8C69.9 19.6 69.9 19.3 69.9 19.1C69.9 18.7 70 18.4 70.2 18C70.4 17.6 70.7 17.4 71.2 17.4V7.4C71.2 6.8 71.4 6.3 71.7 6C72.1 5.7 72.5 5.5 73.1 5.5C73.7 5.5 74.1 5.7 74.5 6C74.9 6.3 75 6.8 75 7.4V17.4H76V7.4C76 6.8 76.2 6.3 76.5 6C76.9 5.7 77.3 5.5 77.9 5.5C78.5 5.5 78.9 5.7 79.3 6C79.7 6.3 79.8 6.7 79.8 7.4ZM70.6 4.1C70.8 4.3 70.9 4.4 71.1 4.5C71.3 4.6 71.6 4.7 71.8 4.7H79.2C79.5 4.7 79.7 4.6 79.9 4.5C80.1 4.4 80.3 4.2 80.4 4.1C80.6 3.9 80.7 3.7 80.7 3.5C80.8 3.3 80.8 3.1 80.8 2.8C80.8 2.6 80.7 2.3 80.7 2.1C80.6 1.9 80.5 1.7 80.4 1.5C80.2 1.3 80.1 1.2 79.9 1.1C79.7 1 79.4 0.9 79.1 0.9H71.7C71.4 0.9 71.1 1 70.9 1.1C70.7 1.2 70.5 1.4 70.4 1.5C70.2 1.7 70.1 1.9 70.1 2.1C70 2.3 70 2.6 70 2.8C70 3 70.1 3.3 70.1 3.5C70.2 3.6 70.2 3.7 70.3 3.7C70.4 3.9 70.5 4 70.6 4.1ZM87.8 0.5C88.2 0.2 88.6 0 89.2 0C89.8 0 90.2 0.2 90.5 0.5C90.9 0.8 91.1 1.3 91.1 2V15.1V16.6V19.8C91.1 20.9 90.2 21.8 89.1 21.8H89C87.9 21.8 87 20.9 87 19.8V16.6V15.1V2C87.1 1.4 87.3 0.8 87.8 0.5ZM112.7 0.6C112.2 0.2 111.7 0 111.1 0C110.5 0 110 0.2 109.5 0.6C109 1 108.8 1.5 108.8 2.3V15.3V16.6V19.7C108.8 20.9 109.7 21.8 110.9 21.8H111.3C112.5 21.8 113.4 20.9 113.4 19.7V16.6V15.3V2.3C113.4 1.6 113.1 1 112.7 0.6ZM102.7 0.9C103.5 1.2 104.2 1.6 104.8 2.1C105.4 2.6 105.8 3.3 106.1 4.1C106.4 4.9 106.6 5.8 106.6 6.8V15.2C106.6 16.2 106.4 17.1 106.1 17.9C105.8 18.7 105.3 19.4 104.8 19.9C104.2 20.4 103.6 20.8 102.7 21.1C101.9 21.4 101 21.5 100.1 21.5C99.2 21.5 98.2 21.3 97.5 21.1C96.7 20.8 96 20.4 95.4 19.9C94.8 19.4 94.4 18.7 94.1 17.9C93.8 17.1 93.6 16.2 93.6 15.2V6.8C93.6 5.8 93.8 4.9 94.1 4.1C94.4 3.3 94.9 2.6 95.4 2.1C96 1.6 96.7 1.2 97.5 0.9C98.3 0.6 99.2 0.5 100.1 0.5C101 0.5 102 0.6 102.7 0.9ZM101.5 17C101.9 16.6 102.1 16 102.1 15.2V6.6C102.1 5.8 101.9 5.2 101.5 4.8C101.1 4.4 100.6 4.2 100.1 4.2C99.5 4.3 99.1 4.4 98.7 4.8C98.3 5.2 98.1 5.8 98.1 6.6V15.2C98.1 16 98.3 16.6 98.7 17C99.1 17.4 99.5 17.6 100.1 17.6C100.7 17.6 101.2 17.5 101.5 17ZM14 17.2C11 15.2 9.9 12 9.7 6.9C9.8 6.2 9.8 5.5 9.8 4.7V3C9.8 1.6 8.7 0.8 7.5 0.8C6.3 0.8 5.2 1.5 5.2 3V4.8C5.2 11.2 4.2 14.9 0.800001 17.2C-0.299999 17.9 -0.199999 19.3 0.400001 20C1 20.8 2.4 20.9 3.6 20.3C5.2 19.5 6.4 18.2 7.4 16.4C8.4 18.1 9.6 19.4 11.2 20.3C12.4 20.9 13.8 20.8 14.4 20C14.9 19.3 15 17.9 14 17.2ZM20.9 4.7H21.6C22.7 4.7 23.7 5.7 23.7 6.8C23.7 7.9 22.8 8.9 21.6 8.9H20.9V11.1V16.7V19.3V19.5C20.9 20.8 19.9 21.8 18.6 21.8C17.3 21.8 16.4 20.8 16.3 19.6V19.5V16.7V2.2C16.3 0.7 17.4 0 18.6 0C19.8 0 20.9 0.8 20.9 2.2V4.7ZM24.3 6.7C24.3 2.6 27 0.4 30.9 0.4C34.7 0.4 37.5 2.6 37.5 6.7V15.1C37.5 19.2 34.8 21.4 30.9 21.4C27 21.4 24.3 19.2 24.3 15.1V6.7ZM30.9 17.6C32 17.6 32.9 16.8 32.9 15.2V6.6C32.9 5 32 4.1 30.9 4.2C29.8 4.3 28.9 5.1 28.9 6.6V15.2C29 16.8 29.8 17.6 30.9 17.6ZM59.5 17.2H52.7C52.3 17.2 52.1 17 52.1 16.5V5.5C52.1 5 52.3 4.8 52.7 4.8H58.5C59.8 4.8 60.2 3.7 60.2 2.8C60.2 1.9 59.8 0.9 58.5 0.9H51.1C48.1 0.9 47.5 1.6 47.5 4.5V17.4C47.5 20.3 48.1 21 51.1 21H59.5C60.8 21 61.2 20 61.2 19.1C61.2 18.2 60.9 17.2 59.5 17.2ZM67.1 4.5H67.7C68.8 4.5 69.8 5.4 69.8 6.6C69.8 7.8 68.9 8.7 67.7 8.7H67.1V12.2V16.5V16.7V19.5C67.1 20.8 66.1 21.8 64.8 21.8C63.5 21.8 62.5 20.8 62.5 19.5V16.7V16.5V2.2C62.5 0.7 63.6 0 64.8 0C66 0 67.1 0.8 67.1 2.2V4.5Z" fill="white"/>
<path d="M119 19.9999C118.9 20.8999 117.2 20.9999 117.1 20.0999C117.6 17.0999 119 14.4999 118.8 11.3999C118.9 9.89993 117 11.7999 116.7 12.2999C116.6 12.3999 116.4 12.5999 116.3 12.3999C116.2 12.2999 116.1 11.9999 116.2 11.7999C116.7 10.4999 117.5 8.99993 119 8.99993C119.5 8.99993 119.9 9.19993 120.1 9.59993C120.7 11.3999 119.9 13.3999 119.5 15.1999C120.3 12.8999 121.2 10.3999 123.4 9.09993C125.1 8.19993 125.7 9.69993 125.6 11.3999C125.5 11.9999 125.4 13.1999 125.4 13.1999C126 11.2999 127.2 8.99993 129.4 8.79993C130 8.79993 130.4 9.19993 130.6 9.69993C131.6 12.4999 129.8 15.6999 129.5 18.4999C129.5 18.8999 129.7 19.0999 130 19.0999C131 18.8999 131.6 17.8999 132.2 17.0999C132.2 17.0999 132.4 18.1999 132.5 18.4999C131.7 20.8999 127.7 21.7999 127.8 18.4999V18.3999C128.1 16.2999 128.9 14.0999 129.2 11.8999C129.3 11.3999 129.2 10.6999 128.8 10.5999C126.5 10.1999 124.9 17.8999 124.4 19.8999C124.1 20.8999 122.5 20.7999 122.7 19.5999C122.6 19.4999 122.6 19.2999 122.7 18.9999C123.1 17.2999 123.6 15.3999 124 13.6999C124.4 12.1999 124.2 9.09993 122.5 11.4999C120.8 14.0999 119.8 17.1999 119 19.9999Z" fill="white"/>
<path d="M138.7 19C137.9 20.3 135.7 21.8 135 19.6C133.7 21.1 131.2 21.2 131.1 18.8C131.2 16.8 132.8 13.8 135.2 14C135.4 14.1 135.4 14.3 135.6 14.4C135.9 14.5 136.2 14.4 136.4 14.5C136.7 14.6 136.7 14.8 136.7 15.1C136.7 16.3 136 17.8 136.2 19C136.2 19.1 136.3 19.2 136.4 19.2C137.3 19 137.8 18.2 138.3 17.6L138.7 19ZM132.8 18.5C132.7 19.1 133.2 19.8 133.8 19.2C134.2 18.8 134.4 18 134.5 17.5L135 15.3C133.6 15.4 132.9 17.2 132.8 18.5Z" fill="white"/>
<path d="M139.3 20.6999C138.7 20.6999 138.3 20.0999 138.1 19.4999C137.3 17.9999 137.6 15.3999 138 13.8999C138.4 12.2999 139.1 9.89994 140.3 8.69994C142.2 6.69994 143.5 8.09994 142.9 10.4999C142.4 13.2999 140.2 15.4999 139.5 18.0999C139.5 18.3999 139.6 18.9999 139.9 19.0999C140.8 18.9999 141.5 18.2999 142.3 17.7999L142.9 19.1999C142.5 19.4999 142.1 19.6999 141.7 19.8999C140.9 20.2999 140.1 20.6999 139.3 20.6999ZM139.4 15.2999C140.3 13.6999 141.3 11.6999 141.5 9.79994C141.5 9.29994 141.4 9.09994 141 9.59994C140.5 10.0999 139.9 12.0999 139.7 12.6999C139.7 13.0999 139.3 14.7999 139.4 15.2999Z" fill="white"/>
<path d="M143.7 20.6999C143.1 20.6999 142.7 20.0999 142.5 19.4999C141.7 17.9999 142 15.3999 142.4 13.8999C142.8 12.2999 143.5 9.89994 144.7 8.69994C146.6 6.69994 147.9 8.09994 147.3 10.4999C146.8 13.2999 144.6 15.4999 143.9 18.0999C143.9 18.3999 144 18.9999 144.3 19.0999C145.2 18.9999 145.9 18.2999 146.7 17.7999L147.3 19.1999C146.9 19.4999 146.5 19.6999 146.1 19.8999C145.2 20.2999 144.4 20.6999 143.7 20.6999ZM143.7 15.2999C144.6 13.6999 145.6 11.6999 145.8 9.79994C145.8 9.29994 145.7 9.09994 145.3 9.59994C144.8 10.0999 144.2 12.0999 144 12.6999C144 13.0999 143.7 14.7999 143.7 15.2999Z" fill="white"/>
</g>
<defs>
<clipPath id="clip0">
<rect width="147.4" height="21.9" fill="white"/>
</clipPath>
</defs>
</svg>
