<svg width="333" height="704" viewBox="0 0 333 704" fill="none" xmlns="http://www.w3.org/2000/svg">
<g clip-path="url(#clip0)">
<path opacity="0.75" d="M191.417 -158.955C69.3588 -204.764 -32.067 -98.6459 -249.942 -153.293C-427.079 -197.737 -534.946 -68.5643 -553.404 7.19365C-571.936 82.8915 -551.229 141.206 -493.697 223.75C-436.165 306.294 -435.988 413.783 -440.765 455.364C-445.543 496.945 -444.1 672.536 -303.355 738.53C-119.248 824.721 139.957 674.633 95.7864 431.608C71.6726 299.334 200.426 226.906 251.255 180.685C312.395 125.057 350.507 53.6629 324.109 -24.3245C304.163 -83.1207 258.752 -133.682 191.417 -158.955Z" fill="#FFD54E"/>
</g>
<defs>
<clipPath id="clip0">
<rect width="333" height="704" fill="white"/>
</clipPath>
</defs>
</svg>
