<svg width="361" height="315" viewBox="0 0 361 315" fill="none" xmlns="http://www.w3.org/2000/svg">
<g clip-path="url(#clip0)">
<path d="M0.664205 67.1975C-4.92105 114.137 41.1504 140.723 40.7201 222.174C40.3651 288.396 95.1009 315.265 123.338 315.242C151.562 315.249 170.287 302.933 194.357 275.558C218.428 248.184 256.22 238.863 271.256 236.964C286.293 235.066 347.928 219.433 359.002 164.173C373.439 91.9006 298.295 13.5256 216.627 50.0166C172.182 69.9032 135.603 30.7896 114.963 16.8668C90.1244 0.122309 61.7264 -7.15308 36.5729 8.86231C17.6132 20.9526 3.74582 41.3029 0.664205 67.1975Z" fill="white"/>
</g>
<defs>
<clipPath id="clip0">
<rect width="361" height="315" fill="white"/>
</clipPath>
</defs>
</svg>
