<svg width="31" height="35" viewBox="0 0 31 35" fill="none" xmlns="http://www.w3.org/2000/svg">
<path d="M28.6146 15.4445L22.8547 12.118L14.9633 18.0144L22.8546 23.9107L28.6341 20.5727C29.5353 20.0253 30.073 19.0686 30.073 18.0145C30.073 16.9604 29.5352 16.0038 28.6146 15.4445Z" fill="#FF9100"/>
<path d="M16.9588 18.0142C16.9501 18.0253 9.98139 26.9851 9.97574 26.9924L0.897817 34.1416C0.339109 33.5829 0 32.8249 0 31.9868V3.9921C0 3.1542 0.339109 2.39598 0.897817 1.8374L9.97574 9.03603C9.98139 9.04328 16.9501 18.0031 16.9588 18.0142Z" fill="#25D9F8"/>
<path d="M22.8645 12.1088L16.9588 18.0145L0.897827 1.83776C1.09728 1.65813 1.29686 1.51847 1.51632 1.37881C2.47393 0.840189 3.61123 0.860074 4.54901 1.43873L14.9636 7.55991L22.8645 12.1088Z" fill="#7FE881"/>
<path d="M22.8645 23.9202L14.9636 28.4692L4.52906 34.5611C4.05023 34.8403 3.53149 34.9999 2.99273 34.9999C2.49395 34.9999 1.99516 34.8603 1.51632 34.6009C1.29686 34.4613 1.09728 34.3217 0.897827 34.1421L16.9588 18.0146L22.8645 23.9202Z" fill="#FF637B"/>
</svg>
