<svg width="45" height="45" viewBox="0 0 45 45" fill="none" xmlns="http://www.w3.org/2000/svg">
<path d="M7 2H39C39.5304 2 40.0391 2.21071 40.4142 2.58579C40.7893 2.96086 41 3.46957 41 4V40C41 40.5304 40.7893 41.0391 40.4142 41.4142C40.0391 41.7893 39.5304 42 39 42H7C6.46957 42 5.96086 41.7893 5.58579 41.4142C5.21071 41.0391 5 40.5304 5 40V4C5 3.46957 5.21071 2.96086 5.58579 2.58579C5.96086 2.21071 6.46957 2 7 2ZM9 6V38H37V6H9ZM13 10H33V18H13V10ZM13 22H17V26H13V22ZM13 30H17V34H13V30ZM21 22H25V26H21V22ZM21 30H25V34H21V30ZM29 22H33V34H29V22Z" fill="#00CDB6"/>
<rect x="12.6833" y="10.1001" width="20.7" height="8.1" fill="#3EAEFF"/>
</svg>
