<svg width="45" height="45" viewBox="0 0 45 45" fill="none" xmlns="http://www.w3.org/2000/svg">
<path d="M7 6.83962H6.85V6.98962V28.9325V29.0825H7H39H39.15V28.9325V6.98962V6.83962H39H7ZM3.15 5.00877C3.15 3.9818 3.99355 3.15 4.984 3.15H41.016C42.0276 3.15 42.85 3.97692 42.85 5.00877V32.7721H3.15V5.00877ZM1.15 37.2937H44.85V40.9833H1.15V37.2937Z" fill="#00CDB6" stroke="#00CDB6" stroke-width="0.3"/>
<path d="M18.6871 24.8015C18.0985 24.3965 17.5634 23.9186 17.0947 23.3794C17.3805 23.0084 17.5581 22.5656 17.6079 22.1C17.6577 21.6343 17.5777 21.164 17.3767 20.741C17.1758 20.318 16.8618 19.9588 16.4694 19.7032C16.077 19.4476 15.6216 19.3055 15.1534 19.2927C14.905 17.8794 15.0204 16.4261 15.4889 15.0698C15.9531 15.1317 16.4255 15.064 16.8537 14.8741C17.2818 14.6843 17.6491 14.3796 17.9149 13.9939C18.1806 13.6082 18.3345 13.1565 18.3594 12.6888C18.3843 12.2211 18.2794 11.7556 18.0562 11.3438C19.1568 10.4229 20.4738 9.79734 21.8831 9.52613C22.0617 9.95909 22.3566 10.3342 22.7352 10.6099C23.1139 10.8856 23.5614 11.0512 24.0283 11.0884C24.4951 11.1255 24.9632 11.0328 25.3806 10.8204C25.7981 10.608 26.1486 10.2843 26.3935 9.88502C27.0503 10.1255 27.6869 10.4515 28.2892 10.8669C28.8922 11.282 29.4235 11.761 29.8816 12.289C29.5958 12.66 29.4182 13.1028 29.3684 13.5684C29.3186 14.0341 29.3986 14.5044 29.5996 14.9274C29.8005 15.3504 30.1145 15.7096 30.5069 15.9652C30.8993 16.2208 31.3547 16.3629 31.8228 16.3757C32.0713 17.789 31.9558 19.2423 31.4874 20.5986C31.0232 20.5367 30.5508 20.6044 30.1226 20.7943C29.6945 20.9842 29.3272 21.2888 29.0614 21.6745C28.7957 22.0602 28.6418 22.5119 28.6169 22.9796C28.5919 23.4473 28.6969 23.9128 28.9201 24.3246C27.8195 25.2455 26.5025 25.8711 25.0932 26.1423C24.9146 25.7093 24.6196 25.3342 24.241 25.0585C23.8624 24.7828 23.4149 24.6172 22.948 24.58C22.4811 24.5429 22.0131 24.6356 21.5956 24.848C21.1782 25.0604 20.8276 25.3841 20.5828 25.7834C19.912 25.5373 19.2751 25.2074 18.6871 24.8015ZM23.0835 22.8948C24.1211 22.9773 25.0918 23.44 25.8093 24.194C26.2077 24.0487 26.5909 23.8674 26.9552 23.6502C26.8234 22.6175 27.0775 21.5724 27.6689 20.7156C28.259 19.8576 29.1451 19.2477 30.1573 19.0031C30.2306 18.5859 30.2636 18.1627 30.2573 17.7394C29.2972 17.3372 28.5194 16.5946 28.0731 15.6542C27.6153 14.6914 27.5469 13.6212 27.8346 12.644C27.5092 12.3725 27.1595 12.1317 26.7898 11.9246C25.9617 12.5547 24.9301 12.8571 23.8928 12.7736C22.8551 12.6911 21.8845 12.2284 21.167 11.4744C20.7686 11.6197 20.3853 11.801 20.0211 12.0182C20.1529 13.051 19.8988 14.096 19.3074 14.9528C18.7173 15.8108 17.8312 16.4207 16.819 16.6653C16.7462 17.0825 16.7127 17.5056 16.719 17.929C17.6791 18.3313 18.4568 19.0738 18.9031 20.0142C19.3609 20.9771 19.4294 22.0472 19.1417 23.0245C19.467 23.2959 19.8168 23.5367 20.1864 23.7438C21.0146 23.1137 22.0462 22.8114 23.0835 22.8948ZM24.5781 20.1267C23.9701 20.4158 23.2722 20.4515 22.6378 20.226C22.0035 20.0005 21.4847 19.5322 21.1956 18.9242C20.9066 18.3162 20.8708 17.6183 21.0964 16.9839C21.3219 16.3496 21.7901 15.8308 22.3981 15.5417C23.0061 15.2526 23.7041 15.2169 24.3384 15.4424C24.9728 15.6679 25.4916 16.1362 25.7806 16.7442C26.0697 17.3522 26.1054 18.0502 25.8799 18.6845C25.6544 19.3188 25.1861 19.8376 24.5781 20.1267ZM23.8515 18.5984C24.0541 18.502 24.2102 18.3291 24.2854 18.1176C24.3606 17.9062 24.3487 17.6735 24.2523 17.4709C24.1559 17.2682 23.983 17.1121 23.7716 17.0369C23.5601 16.9618 23.3275 16.9737 23.1248 17.07C22.9221 17.1664 22.766 17.3393 22.6909 17.5508C22.6157 17.7622 22.6276 17.9949 22.724 18.1975C22.8203 18.4002 22.9933 18.5563 23.2047 18.6315C23.4162 18.7066 23.6488 18.6947 23.8515 18.5984Z" fill="#3EAEFF" stroke="#3EAEFF" stroke-width="0.8"/>
</svg>
