<svg width="82" height="45" viewBox="0 0 82 45" fill="none" xmlns="http://www.w3.org/2000/svg">
<path d="M4.86871 22.9572L65.5778 22.9572V3.82625L4.86871 3.82625L4.86871 22.9572ZM1 24.8703L1 1.91315C1 1.40576 1.2038 0.919157 1.56656 0.560381C1.92932 0.201605 2.42133 4.95911e-05 2.93436 4.95911e-05L67.5121 4.95911e-05C68.0251 4.95911e-05 68.5172 0.201605 68.8799 0.560381C69.2427 0.919157 69.4465 1.40576 69.4465 1.91315V24.8703C69.4465 25.3777 69.2427 25.8643 68.8799 26.2231C68.5172 26.5819 68.0251 26.7834 67.5121 26.7834L2.93436 26.7834C2.42133 26.7834 1.92932 26.5819 1.56656 26.2231C1.2038 25.8643 1 25.3777 1 24.8703Z" fill="#00CDB6"/>
<path d="M28.4927 10.6779C28.7777 9.76289 28.4027 8.8929 27.5927 8.72789C26.7377 8.5479 25.9727 8.8329 25.7477 9.76289L24.6227 14.5779L23.2277 9.8679C22.9727 9.0429 22.4327 8.77289 21.8177 8.77289C21.2027 8.77289 20.7077 9.0879 20.4677 9.88289L19.0727 14.5329L17.9177 9.7779C17.6777 8.8329 16.8677 8.5479 16.0127 8.72789C15.2027 8.8929 14.7677 9.76289 15.0527 10.6629L17.2727 18.0579H20.1977L21.8177 13.0929L23.3627 18.0579H26.2877L28.4927 10.6779ZM42.2769 10.6779C42.5619 9.76289 42.1869 8.8929 41.3769 8.72789C40.5219 8.5479 39.7569 8.8329 39.5319 9.76289L38.4069 14.5779L37.0119 9.8679C36.7569 9.0429 36.2169 8.77289 35.6019 8.77289C34.9869 8.77289 34.4919 9.0879 34.2519 9.88289L32.8569 14.5329L31.7019 9.7779C31.4619 8.8329 30.6519 8.5479 29.7969 8.72789C28.9869 8.8929 28.5519 9.76289 28.8369 10.6629L31.0569 18.0579H33.9819L35.6019 13.0929L37.1469 18.0579H40.0719L42.2769 10.6779ZM56.0611 10.6779C56.3461 9.76289 55.9711 8.8929 55.1611 8.72789C54.3061 8.5479 53.5411 8.8329 53.3161 9.76289L52.1911 14.5779L50.7961 9.8679C50.5411 9.0429 50.0011 8.77289 49.3861 8.77289C48.7711 8.77289 48.2761 9.0879 48.0361 9.88289L46.6411 14.5329L45.4861 9.7779C45.2461 8.8329 44.4361 8.5479 43.5811 8.72789C42.7711 8.8929 42.3361 9.76289 42.6211 10.6629L44.8411 18.0579H47.7661L49.3861 13.0929L50.9311 18.0579H53.8561L56.0611 10.6779Z" fill="#3EAEFF"/>
<path d="M71.4817 22.8869C70.3652 21.8329 68.6181 21.877 67.5615 22.9703C66.5466 22.0122 64.9844 21.9463 63.8979 22.8198L61.9824 17.4562C61.4718 16.0266 59.8965 15.2425 58.4701 15.7082C56.9752 16.1948 56.1722 17.818 56.7018 19.3012L61.5204 32.7933L60.1068 32.0833C58.75 31.4022 57.0705 31.92 56.3627 33.2382C55.6158 34.629 56.1671 36.3462 57.5637 37.0504L65.7292 41.2455C66.8677 41.8303 68.2124 41.9189 69.418 41.4883L76.5496 38.9414C78.9642 38.079 80.227 35.4131 79.3647 32.9984L76.1118 23.8901C75.4188 21.9499 72.9159 21.4029 71.4817 22.8869ZM77.6131 33.624C78.1305 35.0727 77.3728 36.6724 75.924 37.1898L68.7924 39.7367C68.069 39.9951 67.2623 39.9419 66.5791 39.5909C66.5499 39.5761 58.4317 35.4052 58.4025 35.3904C57.9371 35.1565 57.751 34.5844 58.0011 34.1181C58.237 33.6792 58.8071 33.5121 59.2719 33.7455L62.759 35.4968C63.5069 35.8727 64.3337 35.1412 64.0523 34.3532L58.4532 18.6757C58.2774 18.1835 58.5438 17.6404 59.0478 17.4761C59.5252 17.3203 60.0558 17.5919 60.2308 18.0818C63.6725 27.7188 62.096 23.3564 63.9548 28.561C64.128 29.0461 64.6642 29.3003 65.1514 29.1206C65.6415 28.9512 65.8962 28.4149 65.7228 27.9296L64.725 25.1357C64.6588 24.7041 64.905 24.2716 65.3311 24.1194C65.8139 23.947 66.3472 24.1996 66.5197 24.6825L67.458 27.3099C67.6308 27.7936 68.1628 28.0456 68.6466 27.8729C69.1303 27.7001 69.3824 27.168 69.2096 26.6843L68.6883 25.2246C68.5159 24.7418 68.7685 24.2085 69.2513 24.036C69.7342 23.8636 70.2675 24.1162 70.4399 24.5991L70.9612 26.0587C71.134 26.5425 71.666 26.7945 72.1498 26.6217C72.6335 26.449 72.8856 25.9169 72.7128 25.4332L72.6085 25.1412C72.4361 24.6584 72.6887 24.1251 73.1716 23.9526C73.6544 23.7802 74.1877 24.0328 74.3602 24.5157L77.6131 33.624Z" fill="#2A2A34" stroke="#2A2A34"/>
<path d="M54.9183 21.8992C55.3656 21.6466 55.5233 21.0795 55.271 20.6322C53.8394 18.0961 55.045 14.8897 57.7702 13.9164C60.4873 12.9461 63.4508 14.6504 63.9563 17.5183C64.0457 18.0241 64.5279 18.3618 65.0338 18.2727C65.5397 18.1838 65.8773 17.7011 65.7882 17.1952C65.0843 13.2037 60.9528 10.8048 57.1446 12.1648C53.3408 13.5233 51.6497 18.0012 53.6513 21.5465C53.9044 21.9951 54.4728 22.1509 54.9183 21.8992Z" fill="#FFD54E" stroke="#FFD54E"/>
</svg>
