<svg width="45" height="45" viewBox="0 0 45 45" fill="none" xmlns="http://www.w3.org/2000/svg">
<path d="M22.4113 26.2016C21.5621 26.2016 20.7478 25.8643 20.1474 25.2639C19.547 24.6635 19.2096 23.8491 19.2096 23C19.2096 22.1509 19.547 21.3365 20.1474 20.7361C20.7478 20.1357 21.5621 19.7984 22.4113 19.7984C23.2604 19.7984 24.0747 20.1357 24.6751 20.7361C25.2755 21.3365 25.6129 22.1509 25.6129 23C25.6129 23.8491 25.2755 24.6635 24.6751 25.2639C24.0747 25.8643 23.2604 26.2016 22.4113 26.2016ZM21.2843 32.592C21.6578 33.0402 22.0335 33.4757 22.4113 33.8919C22.789 33.4757 23.1647 33.0424 23.5382 32.592C22.787 32.608 22.0355 32.608 21.2843 32.592ZM17.0261 32.3252C15.3871 32.1547 13.7588 31.8924 12.149 31.5398C11.989 32.2868 11.8673 33.0125 11.7862 33.7083C11.3806 37.0871 11.9463 39.1404 12.8064 39.6356C13.6666 40.1329 15.7263 39.595 18.4519 37.5566C19.0133 37.1362 19.5789 36.6687 20.1466 36.1586C19.0357 34.9401 17.9939 33.6603 17.0261 32.3252ZM32.6735 31.5398C31.1431 31.8813 29.5081 32.1459 27.7964 32.3252C26.8286 33.6603 25.7868 34.9401 24.6759 36.1586C25.2436 36.6709 25.8092 37.1362 26.3706 37.5566C29.0962 39.595 31.1559 40.1329 32.0161 39.6356C32.8762 39.1404 33.4397 37.0871 33.0385 33.7083C32.9504 32.9803 32.8293 32.2567 32.6756 31.5398H32.6735ZM35.7684 30.7137C36.9999 36.3464 36.3532 40.8308 33.6169 42.4103C30.8806 43.9897 26.6737 42.3078 22.4113 38.4253C18.1488 42.3078 13.9419 43.9876 11.2056 42.4081C8.46932 40.8287 7.82259 36.3464 9.05201 30.7116C3.55805 28.9635 0 26.1589 0 23C0 19.8411 3.55805 17.0386 9.05201 15.2863C7.82259 9.65356 8.46932 5.16918 11.2056 3.58972C13.9419 2.01026 18.1488 3.69217 22.4113 7.57465C26.6737 3.69217 30.8806 2.01239 33.6169 3.59185C36.3532 5.17131 36.9999 9.65356 35.7705 15.2884C41.2645 17.0365 44.8225 19.8411 44.8225 23C44.8225 26.1589 41.2645 28.9614 35.7705 30.7137H35.7684ZM20.1445 9.84139C19.6017 9.35007 19.0369 8.88358 18.4519 8.44336C15.7263 6.405 13.6666 5.86713 12.8064 6.36445C11.9463 6.85963 11.3828 8.91293 11.784 12.2917C11.8694 12.9896 11.989 13.7132 12.1469 14.4602C13.7574 14.1075 15.3863 13.8453 17.0261 13.6748C18.04 12.281 19.0858 10.9982 20.1466 9.84139H20.1445ZM27.7964 13.6748C29.5081 13.8541 31.1431 14.1209 32.6735 14.4602C32.8336 13.7132 32.9552 12.9875 33.0363 12.2917C33.4419 8.91293 32.8762 6.85963 32.0161 6.36445C31.1559 5.86713 29.0962 6.405 26.3706 8.44336C25.7848 8.88352 25.2193 9.35001 24.6759 9.84139C25.7367 10.9982 26.7825 12.281 27.7964 13.6748ZM23.5382 13.408C23.1647 12.9598 22.789 12.5243 22.4113 12.1081C22.0335 12.5243 21.6578 12.9576 21.2843 13.408C22.0355 13.392 22.787 13.392 23.5382 13.408ZM14.6676 28.7714C14.2782 28.1292 13.9025 27.4788 13.5407 26.8206C13.3379 27.3691 13.1501 27.9091 12.9793 28.4449C13.5279 28.5644 14.0913 28.6733 14.6655 28.7714H14.6676ZM18.7913 29.2709C21.2013 29.4499 23.6212 29.4499 26.0312 29.2709C27.3913 27.273 28.6012 25.1769 29.6512 23C28.6012 20.8231 27.3913 18.727 26.0312 16.7291C23.6212 16.5501 21.2013 16.5501 18.7913 16.7291C17.4312 18.727 16.2213 20.8231 15.1713 23C16.2213 25.1769 17.4312 27.273 18.7913 29.2709ZM31.2818 19.1794C31.4846 18.6309 31.6724 18.0909 31.8432 17.5551C31.2836 17.4337 30.7214 17.3248 30.157 17.2286C30.5457 17.8708 30.9207 18.5213 31.2818 19.1794ZM9.88229 18.3833C9.1566 18.6181 8.46932 18.8742 7.82473 19.1517C4.69782 20.4921 3.20161 22.0075 3.20161 23C3.20161 23.9925 4.69569 25.5079 7.82473 26.8483C8.46932 27.1258 9.1566 27.3819 9.88229 27.6167C10.3561 26.1226 10.9431 24.5731 11.6432 23C10.9705 21.4952 10.3826 19.9539 9.88229 18.3833ZM12.9772 17.5551C13.1501 18.0887 13.3379 18.6309 13.5407 19.1773C13.9025 18.5198 14.2782 17.8701 14.6676 17.2286C14.0913 17.3267 13.5279 17.4356 12.9793 17.5551H12.9772ZM34.9402 27.6167C35.6659 27.3819 36.3532 27.1258 36.9978 26.8483C40.1247 25.5079 41.6209 23.9925 41.6209 23C41.6209 22.0075 40.1268 20.4921 36.9978 19.1517C36.3239 18.8646 35.6373 18.6082 34.9402 18.3833C34.4664 19.8774 33.8794 21.4269 33.1793 23C33.8794 24.5731 34.4664 26.1205 34.9402 27.6167ZM31.8453 28.4449C31.6724 27.9113 31.4846 27.3691 31.2818 26.8227C30.92 27.4802 30.5443 28.1299 30.1549 28.7714C30.7312 28.6733 31.2946 28.5644 31.8432 28.4449H31.8453Z" fill="#00CDB6"/>
<circle cx="22.4111" cy="23.0004" r="3.20161" fill="#3EAEFF"/>
</svg>
