<svg width="54" height="58" viewBox="0 0 54 58" fill="none" xmlns="http://www.w3.org/2000/svg">
<path d="M42.438 26.8665L34.6753 22.7264L33.1502 17.035C32.6177 15.0476 30.455 13.8941 28.3291 14.4638L11.5367 18.9633C9.41081 19.5329 8.11451 21.6132 8.64703 23.6006L16.5506 53.0973C17.0832 55.0846 19.2459 56.2381 21.3718 55.6685L47.5885 48.6437C48.2008 48.4797 48.6198 47.9347 48.5899 47.3413L47.9986 35.5546C47.8138 31.8728 45.7351 28.6249 42.438 26.8665ZM12.1805 21.3661L28.9729 16.8666C29.6815 16.6767 30.4025 17.0612 30.58 17.7237L33.5792 28.917C31.6135 27.886 29.0834 28.5725 27.9099 30.4555C26.7335 32.3401 27.3628 34.719 29.3236 35.7733L35.5282 39.2386C34.6605 40.2691 33.6263 41.9391 33.2061 44.3422L18.0478 48.4038L11.2173 22.9119C11.0398 22.2494 11.4718 21.556 12.1805 21.3661ZM19.1209 52.4086L18.6917 50.8067L33.0191 46.9676C33.0411 47.8647 33.1466 48.8348 33.3589 49.8812L20.728 53.2656C20.0193 53.4555 19.2984 53.071 19.1209 52.4086ZM45.3519 35.7566L45.8921 46.5229C43.8255 47.0767 38.057 48.6223 35.9352 49.1909C35.4367 46.5893 35.6494 44.2402 36.5648 42.3404C37.3237 40.7653 38.3225 40.0059 38.4025 39.9468C39.168 39.4402 39.1951 38.3392 38.3471 37.8656C30.6882 33.5879 30.7117 33.6008 30.698 33.5937C29.9922 33.2173 29.7522 32.3573 30.1822 31.6685C30.6068 30.9871 31.5274 30.7389 32.2371 31.1136C35.65 32.9836 33.9949 32.0909 39.9403 35.2617C40.5678 35.5964 41.3816 35.3784 41.7577 34.7747C42.1339 34.171 41.9301 33.4104 41.3025 33.0756L36.8058 30.6775L35.5858 26.1246L41.0758 29.0525C43.6105 30.4043 45.2091 32.9105 45.3519 35.7566Z" fill="#00CDB6" stroke="#00CDB6" stroke-width="0.5"/>
<path d="M5.12345 13.8197C5.42532 8.80306 8.88131 4.31901 13.9999 2.94748C19.1185 1.57595 24.3547 3.73095 27.1233 7.92487L25.1196 9.24691C24.0089 7.56516 22.3973 6.27545 20.513 5.56046C18.6286 4.84546 16.5671 4.7414 14.6204 5.26303C12.6736 5.78466 10.9403 6.90553 9.66596 8.4669C8.39158 10.0283 7.64072 11.951 7.51972 13.9628L5.12345 13.8197ZM9.91631 14.107C10.0076 12.5985 10.571 11.1569 11.5269 9.98624C12.4827 8.8156 13.7825 7.97523 15.2423 7.58408C16.7021 7.19293 18.2479 7.27081 19.661 7.8067C21.0741 8.34258 22.2829 9.30933 23.1162 10.5701L21.1128 11.8933C20.5573 11.0528 19.7514 10.4083 18.8094 10.051C17.8673 9.69377 16.8368 9.64185 15.8636 9.90262C14.8904 10.1634 14.0238 10.7236 13.3866 11.5041C12.7494 12.2845 12.3738 13.2456 12.3129 14.2512L9.91631 14.107Z" fill="#FFD54E"/>
</svg>
