<svg width="28" height="35" viewBox="0 0 28 35" fill="none" xmlns="http://www.w3.org/2000/svg">
<path fill-rule="evenodd" clip-rule="evenodd" d="M20.2824 0C20.4079 4.5221 17.1738 7.65932 13.9436 7.46257C13.4113 3.85378 17.1734 0 20.2824 0ZM0 18.3864C0 23.6487 4.18704 33.9816 9.24886 34.0108H9.28194C10.5403 34.0108 11.6497 33.5967 12.6303 33.2308L12.6389 33.2275C13.358 32.958 14.0372 32.704 14.5743 32.704C15.634 32.704 16.2753 32.9765 17.0187 33.2927L17.019 33.2929C17.7536 33.6052 18.5865 33.9592 19.7646 33.9592C24.5803 33.9592 27.8964 25.0373 27.8964 24.6218C27.8964 23.9866 27.4127 23.6956 26.9444 23.4138L26.9419 23.4123L26.9405 23.4115C25.8774 22.7719 23.6676 21.4423 23.6676 17.9875C23.6676 15.0697 25.62 13.5965 26.6904 12.7888L26.6909 12.7885L27.4401 12.2231L26.9195 11.4408C24.697 8.10325 21.0004 7.83568 19.7812 7.83568H19.7715C18.1387 7.83568 16.7365 8.3932 15.6097 8.84178L15.587 8.85078C15.0643 9.05774 14.4793 9.28937 14.229 9.28937C13.8047 9.28937 13.0419 9.00911 12.3042 8.73763C11.2494 8.34843 10.0536 7.90861 8.9336 7.90861C6.44842 7.90861 0 9.7905 0 18.3864Z" fill="#454F5D"/>
</svg>
