<svg width="40" height="57" viewBox="0 0 40 57" fill="none" xmlns="http://www.w3.org/2000/svg">
<path d="M5.93398 5.93337V50.7334H33.934V5.93337H5.93398ZM3.13398 0.333374H36.734C37.4766 0.333374 38.1888 0.628373 38.7139 1.15347C39.239 1.67858 39.534 2.39077 39.534 3.13337V53.5334C39.534 54.276 39.239 54.9882 38.7139 55.5133C38.1888 56.0384 37.4766 56.3334 36.734 56.3334H3.13398C2.39138 56.3334 1.67919 56.0384 1.15409 55.5133C0.628984 54.9882 0.333984 54.276 0.333984 53.5334V3.13337C0.333984 2.39077 0.628984 1.67858 1.15409 1.15347C1.67919 0.628373 2.39138 0.333374 3.13398 0.333374ZM19.934 42.3334C20.6766 42.3334 21.3888 42.6284 21.9139 43.1535C22.439 43.6786 22.734 44.3908 22.734 45.1334C22.734 45.876 22.439 46.5882 21.9139 47.1133C21.3888 47.6384 20.6766 47.9334 19.934 47.9334C19.1914 47.9334 18.4792 47.6384 17.9541 47.1133C17.429 46.5882 17.134 45.876 17.134 45.1334C17.134 44.3908 17.429 43.6786 17.9541 43.1535C18.4792 42.6284 19.1914 42.3334 19.934 42.3334Z" fill="#00CDB6"/>
<ellipse cx="19.9342" cy="45.1334" rx="3.36" ry="3.36" fill="#3EAEFF"/>
</svg>
