<svg width="45" height="45" viewBox="0 0 45 45" fill="none" xmlns="http://www.w3.org/2000/svg">
<path d="M30.6667 38V34.6667C30.6667 30.9848 27.6819 28 24 28H10.6667C6.98477 28 4 30.9848 4 34.6667V38" stroke="#00CDB6" stroke-width="4" stroke-linecap="round" stroke-linejoin="round"/>
<path fill-rule="evenodd" clip-rule="evenodd" d="M17.3329 21.3333C21.0148 21.3333 23.9996 18.3486 23.9996 14.6667C23.9996 10.9848 21.0148 8 17.3329 8C13.651 8 10.6663 10.9848 10.6663 14.6667C10.6663 18.3486 13.651 21.3333 17.3329 21.3333Z" stroke="#00CDB6" stroke-width="4" stroke-linecap="round" stroke-linejoin="round"/>
<path d="M40.6665 37.9999V34.6666C40.6642 31.6284 38.6082 28.9761 35.6665 28.2166" stroke="#3EAEFF" stroke-width="4" stroke-linecap="round" stroke-linejoin="round"/>
<path d="M28.9998 8.21631C31.9496 8.97159 34.0128 11.6296 34.0128 14.6746C34.0128 17.7197 31.9496 20.3777 28.9998 21.133" stroke="#3EAEFF" stroke-width="4" stroke-linecap="round" stroke-linejoin="round"/>
</svg>
