<?xml version="1.0" encoding="utf-8"?>
<!-- Generator: Adobe Illustrator 22.1.0, SVG Export Plug-In . SVG Version: 6.00 Build 0)  -->
<svg version="1.1" id="Layer_1" xmlns="http://www.w3.org/2000/svg" xmlns:xlink="http://www.w3.org/1999/xlink" x="0px" y="0px"
	 viewBox="0 0 186.7 49" style="enable-background:new 0 0 186.7 49;" xml:space="preserve">
<style type="text/css">
	.st0{fill:#0873BA;}
	.st1{fill:#3D4957;}
	.st2{fill:#E92629;}
</style>
<path class="st0" d="M66.8,12.5C63.9,9.7,60,8,55.6,8c-9,0-16.4,7.3-16.4,16.4c0,9,7.3,16.4,16.4,16.4c4.4,0,8.4-1.7,11.3-4.5v4.5
	h6.2V0h-6.3L66.8,12.5z M55.6,34.2c-5.4,0-9.8-4.4-9.8-9.8s4.4-9.8,9.8-9.8s9.8,4.4,9.8,9.8S61,34.2,55.6,34.2z"/>
<path class="st1" d="M84.5,36.3c2.9,2.8,6.8,4.4,11.2,4.4c9,0,16.3-7.3,16.3-16.3S104.7,8.1,95.7,8.1c-4.4,0-8.3,1.7-11.2,4.5V8.2
	h-6.2v40.4h6.3L84.5,36.3z M95.6,14.8c5.4,0,9.8,4.4,9.8,9.8s-4.4,9.8-9.8,9.8s-9.8-4.4-9.8-9.8C85.9,19.1,90.2,14.8,95.6,14.8z"/>
<path class="st1" d="M142.4,12.7c-2.9-2.8-6.8-4.4-11.2-4.4c-9,0-16.3,7.3-16.3,16.3s7.3,16.3,16.3,16.3c4.4,0,8.3-1.7,11.2-4.5v4.4
	h6.2v-32h-6.3L142.4,12.7z M131.2,34.3c-5.4,0-9.8-4.4-9.8-9.8s4.4-9.8,9.8-9.8c5.4,0,9.8,4.4,9.8,9.8S136.6,34.3,131.2,34.3z"/>
<g>
	<path class="st2" d="M17.2,33.7C6.6,33.1,6.6,24.5,6.6,24.5v-16H0.1L0,24.2c0.2,9.5,7.6,13.7,7.6,13.7c12.2,6.9,21-0.6,21-0.6v-13
		C27.8,34.5,17.2,33.7,17.2,33.7z"/>
	<rect x="28.6" y="8.4" class="st0" width="6.8" height="32.4"/>
</g>
<path class="st1" d="M164.8,40.8h0.1C164.9,40.8,164.8,40.8,164.8,40.8L164.8,40.8z"/>
<polygon class="st1" points="179,8.3 169.5,32.4 159.7,8.3 151.7,8.3 164.8,38.7 160,49 168.4,49 186.7,8.3 "/>
</svg>
